<svg xmlns="http://www.w3.org/2000/svg" xmlns:xlink="http://www.w3.org/1999/xlink" width="300" height="200" viewBox="0 0 300 200"><defs><path id="a" d="M82.113 9.168h122.832v178.938H82.113z"/></defs><clipPath id="b"><use xlink:href="#a" overflow="visible"/></clipPath><path clip-path="url(#b)" fill-rule="evenodd" clip-rule="evenodd" fill="#456A5C" d="M143.158 17.634c.05.118.098-.008 0 0 .103-.873.143-1.81.73-2.197.673.17.884.8 1.223 1.302.453-.863.897-2.13 1.954-2.118 1.045 2.418.767 5.772-.487 7.733.177.066.497-.02.65.244.13.733.155 1.082.163 1.953 1.175-.26 1.685-1.444 1.79-2.523.502-.094.576.24.734.49.166-.215.1-.66.487-.653.627.08.355 1.058.57 1.547.324.186.816-.388 1.14 0-.504 1.014-1.032 2.006-1.546 3.012-.062 1.24-.642 1.962-1.14 2.768.444.375.277 1.197.163 1.872.743-.09 1.16-.01 1.79-.163.415.237.575.728.978.977-1.416 2.492-1.984 5.83-5.21 6.512.55.7 1.845.65 2.442 1.302 1.142-1.49 1.265-4 2.604-5.29.283-.067.314.12.57.08.534-.74.88-1.67 1.384-2.442-1.33-2.61.098-6.135 2.85-6.594.516.49-.152 1.45.163 2.28.872-.43 1.062-1.543 1.79-2.118-1.02-2.377-.123-5.91.978-7.815.492.165.847.004 1.628-.082.302.187.42.558.49.977.614-.205 1.218-1.11 2.115-1.302.51-.022.446.53.813.65.25-.023.114-.43.327-.487-.596-2.9 1.13-4.75 1.953-6.756.57.502 1.545.163 1.79.896.214-.06.49-.3.732-.082.062 1-.456 2.08-.487 3.257 1.202-.02 1.912-1.237 2.28-2.36-.23-.195-.885.222-.978-.245.03-.623.854-.45 1.222-.732.293.14.556.31.732.57-.37.77-.78 1.5-1.222 2.197.266.39 1.002-.15 1.302.244-.103.955-.752 1.364-1.14 2.035.434.217 1.19.113 1.222.732-.865.6-2.1.832-3.013 1.384-.948.006-2.105.604-3.337.327-.646.33-.96.994-1.464 1.465.353.297 1.136.164 1.057.896.045.178.51-.325.57.08.27.54-.455.723-.57 1.14.138.16.57.027.65.246-.07.488-.006.603 0 1.14.257.206.49-.247.814 0 .054 1.26-1.078 2.004-1.627 2.93.736.133 1.8-.062 1.954.652-1.36 1.296-3.25 3.188-5.942 2.36-.097.094-.29.092-.488.083-.142.17.398.354.325.73-.08.573-.662.64-.815 1.14.317.875.084 2.06 0 3.012-.003.3.507.09.49.407-.13 1.77-1.23 2.57-2.198 3.5.505-.228 1.44-.42 1.707.163-.254.83-.698 1.47-.73 2.523.552-.373 2.586-1.08 3.5-.57-.597 2.987-2.64 4.526-4.64 6.106-.737.06-1.237.13-1.874-.082-.69 1.642-1.376 3.29-2.44 4.558-.13.347.516.55.65.896.025.46-.47.398-.407.895.192.187.73.03 1.06.08.246.296.396.688.65.978-.193.946-.727 1.555-1.058 2.36-.453.85-1.78.827-1.793 2.117.38.388.51-.24.897 0 .167.294.18.743.325 1.06.313-.285 1.043-.855 1.628-1.14.438.266.51.898.57 1.545.895-.46 1.064-1.65 2.278-1.79.088 1.452.273 3.522 0 4.964.354-.19 1.01-.78 1.222-1.383.25-.318.864-.274.733-.976-.435-.114-1.107.906-1.63.244.014-.395.157-.657.326-.896-.61-.203-.36-1.267-.407-2.036-1.096-.775-2.218-1.527-2.77-2.848-.068-.855-.132-1.766 0-2.605-.612-1.78.066-4.02.734-5.292.414-.087.503.15.652.326.15-.147.203-.394.408-.488.458-.025.448.42.73.57.377-.275.34-.964.977-.977.684.704 1.043 1.728 1.223 2.932.635-.017 1.302-.706 1.708-1.22-.464-2.34.513-4.06.98-5.943.7.1.805.552 1.382.406.513.382.71 1.08 1.058 1.628.244-.163.344-.47.488-.732-1.203-1.162-1.458-3.757-1.058-5.617.093-.342.6-.27.813-.488.45.04.565.413.816.65.867-.325.926-1.46 1.547-2.034.63-.234 1.237 0 1.708-.407.832.913.124 3.352-.162 4.64-.06.36.264.334.326.57-.55 1.35-1.658 2.14-2.93 2.768-.41.785-.812 1.577-1.14 2.442.948-.555 2.47-2.073 4.15-1.628-1.226 1.977-1.722 4.68-4.395 5.21-1.738 1.03-2.065 3.472-3.34 4.965.222 1.514-.662 3.214-2.196 3.5-.144.456-.367.83-.407 1.385.29.157.644-.583 1.058-.326.3.31.016.7.08 1.22.672.06 1.57-.75 2.36-.57-.1 1.64-1.162 3.014-2.033 4.153-.497.29-.917.658-1.384.977.014.178-.066.26-.246.245-.07.29-.01.2-.08.488-1.122.67-1.837 1.745-3.5 1.873-.547.404-.675 1.225-.978 1.872.782-.385 1.04-1.294 2.117-1.384.22.323.23.49.163.977.205.206.598-.322.813.08.2.484-.314.78-.487 1.14-.243 1.496-.925 2.552-1.874 3.34-.16.543-.353 1.056-.57 1.546.01.316.398.252.408.57-.13.684-.44 1.186-.57 1.87.668-.04 2.17-.306 2.2.733-.514 1.36-1.686 2.06-2.69 2.93-.2.07-.435.108-.73.082-.388.665.137 1.447.407 1.954.232-.59.124-1.93 1.06-1.548.262.342-.098.625-.245.815-.162 1.196-.573 2.48-.49 3.664 1.17-.92.982-3.198 1.793-4.478.768.346-.02 1.41.08 2.117-.458 1.085-.715 2.376-1.464 3.175.365.42.085.804.08 1.465.24.206.588-.17.897-.163.142.13.297.247.245.57.322-.14.35-.575.733-.65-.205-.45-.435-.87-1.06-.897 1.387-1.22 2.384-2.827 2.933-4.884-1.225.16-1.194 1.574-2.28 1.873-.093-.097-.09-.29-.08-.49.564-.627 1.032-1.354 1.628-1.954-.795-1.033-.875-3.72.487-4.15.06-.303-.14-.35-.08-.653.375-1.687.794-3.33 2.116-4.07.31.843.105 2.043.162 2.93.537-.983 1.088-1.95 1.304-3.256.906-1.997 2.68-3.126 4.478-4.233-.02-1.15.388-1.76.244-2.85.158-.167.36-.29.57-.406.514-1.548 1.386-2.738 2.85-3.337.213.22.16.708.162 1.14.546-.363 1.84-.958 2.604-.325 0 .68-.396.96-.57 1.465.977.327 2.077.53 2.28 1.63-1.985 1.154-3.543 3.103-6.35 3.173-.304.592-.655 1.136-.976 1.71.183.156.538-.107.73.162.307 1.27-1.283 1.31-1.627 2.197a8.567 8.567 0 0 0-2.116 1.222c-.595.016-1.078.153-1.63 0-.247.348-.308.885-.486 1.302.282.063.585-.55 1.22-.406.34.276.153.602.164 1.14.147.185.482-.438.813-.082.033 1.176-.857 2.124-1.22 3.174.1.335.864.003.812.49-.557.472-1.233.828-1.71 1.383-.467.563-1.04 1.022-1.627 1.465-.613.1-.87-.16-1.14-.407-.216.355-.24.9-.488 1.22.46-.126.81-.985 1.384-.487-.426.985-1.42 1.4-2.036 2.2-.29.847-1.082 1.195-1.302 2.114-.02.238.185.25.164.49 1.73-.09 2.41-1.226 3.418-2.037-.36.035-.63-.022-.813-.164.047-.685.448-1.017.57-1.628.39-.342.276-1.188.976-1.22.372.722-.494 1.472-.652 2.196.182.336.98.055 1.06.49-.3.704-1.044.96-1.465 1.546.057.458.377.654.49 1.058.583-.42 1.266-.74 1.71-1.303.748-.147 1-1.224 1.79-1.06.377.017.03.45.08.652.263.254.565-.432.813 0 .16.687-.385 1.342-.57 1.954.36.292 1.155.148 1.223.732-.595.708-1.482 1.123-1.952 1.954.67.874 1.58 1.512 2.523 2.116a.918.918 0 0 0 .488-.57h.082c-.016-.09-.082-.044-.082 0-.248-.022-.315.262-.487.083.095-1.02.94-1.287 1.222-2.116.51-.63.813-1.466 1.384-2.036 1.307-.13 2.07-.805 2.85-1.465 2.18-4.685 2.657-11.073 3.093-17.502.058-.184.072-.416.163-.57.22-2.572.44-5.4.73-7.65.277-3.898.576-7.543 1.06-11.072v-.732c.475-3.405.65-7.11 1.872-9.77 1.158-3.617 3.646-5.904 6.432-7.895 1.038-.453 2.293-.69 3.338-1.138.78.005 1.366-.067 2.115-.082 4.44-.086 7.51 2.818 10.013 5.128 5.463 7.848 3.567 25.46-6.27 27.516-.308.097-.498.314-.81.406-3.842.402-8.108-.03-10.665-1.627-.56-.01-.762-.075-1.222.08-.63.375-.358 1.65-.57 2.443.046 3.03-.08 5.33-.325 8.222.007.76.064 2-.08 2.85v1.465c-.866 7.682-1.8 15.296-3.663 21.98-.212.305-.526.505-.733.813-.573 2.71-1.52 5.047-1.63 8.223-.016.153.094.178.084.325 4.75 13.62 8.927 27.813 13.758 41.354 1.26 4.76 2.974 9.073 4.395 13.675.33 2.294.684 4.307.897 6.35.15 3.784.668 7.203.732 11.07-.015.26-.192.6 0 .814-.117.372-.27.707-.245 1.22-.523.157-.89.468-1.628.41-.426-.093-.612-.42-1.06-.49-.78-1.605-1.64-3.136-2.604-4.56-1.49-3.094-2.692-6.478-4.396-9.36-2.828-6.182-5.898-12.12-8.792-18.237-2.927-6.106-5.686-12.384-8.63-18.477-.59.63-.463 1.977-.976 2.685-.225 1.025-.624 1.876-.652 3.097-.417.994-.66 2.16-.815 3.417-.61 1.315-.71 3.143-1.3 4.478-1.713 7.21-3.68 14.048-5.375 21.166-.26 3.3-1.66 6.202-2.36 9.117-.717 2.996-1.367 5.987-2.116 9.117-.015.91-.312 1.533-.57 2.2-.595.118-.72-.897-1.14-1.222-1.8-7.128-2.593-16.3-2.686-24.343.24-4.993.606-9.866 1.222-14.49 1.994-12.536 3.522-26.23 5.29-38.504-.157-.867.208-1.612.163-2.604-.065-.368-.233-.634-.324-.978-.678.408-1.107 1.065-1.546 1.708.092.477.375.764.324 1.386-1.103.236-2.452.908-3.42.163-1.022 1.254-1.814 2.74-3.743 3.09-.162.327-.188.79-.326 1.142.823-.645 1.576-2.062 3.502-1.872.628-.73 1.966-1.182 2.85-1.384.49.38.132 1.326.977 1.465-1.76 1.498-3.064 3.447-5.455 4.314-1.69-.54-2.184.77-2.604 1.954.936-.312 2.057-1.146 3.012-1.71.46.464.643 1.203 1.058 1.71-.32.14-.625.297-.976.407-1.303 2.582-2.266 5.925-5.536 6.27-.144.802.128 1.472-.244 2.44-.012.283.413.13.407.407-.252 1.27-.475 2.565-1.303 3.257.038.26.31.286.326.568-.165 1.558.33 2.858.244 4.07.043.31.15.56.326.733-1.31 1.433-2.063 3.42-3.175 5.05.232.952.398 2.342 0 3.254-.327.288-.607.146-.976.326-.344 5.825-1.26 12.62-.41 19.05.022 4.616.314 8.815.49 13.512-.228.342-.62.52-.978.733-.04 1.66 1.406 4.78-.897 5.047-.252-.29-.21-.874-.327-1.303-.206-.255-.68-.243-.976-.408.118.89.055 1.462.082 2.442-.384.05-.593.275-.814.488-.51-.07-.658-.075-.977-.244-.2-5.594.057-10.782-.244-15.955-.08 1.293-.276 2.66-.244 3.825-.535 3.43-.492 7.18-1.14 10.584-.55-.022-.29-.935-.162-1.222 0-3.785.652-6.61.73-10.42.257-1.892.23-4.152.164-6.188-.49.624-.832 1.393-1.14 2.2-.326.214-.36.722-.65.976-.04.256.25.184.163.488-.523.995-.18 2.858-.65 3.906-.07 2.998-.502 5.634-.572 8.63.035.183.433.002.49.162.167.538.144 1.268.244 1.873.577.054.91.82 1.545 1.06.28-.292.33-.81.65-1.06.282-.036.46.03.653.08-.612.42-.584 1.48-1.303 1.79-.675-.227-.922-1.196-1.953-.81-.446-.37-.102-1.53-.327-2.118-.23.084-.1.32-.405.16-.354.165-.31.724-.57.978-.593.023-1.108-.03-1.466-.243.078-.815.228-1.562.163-2.524-.07-.227-.425-.173-.57-.325-.608.454-.3 1.87-.57 2.442-.45.184-1.255.078-1.63-.08-.13-.407.05-.903.083-1.547-.39-.235-1.125-.123-1.466-.407.257-1.297.44-2.8.57-3.99-.39-.8-.964-1.422-1.627-1.953-1.567-2.15-3.15-4.284-3.5-7.65-.384-1.054-.354-2.523-.733-3.582-.332-4.118-2.033-6.868-3.58-9.77-.63.294-1.3.545-1.955.813-.583-.038-.972.114-1.384.246h-.41c-.902.262-1.986.347-2.684.814-.875.224-1.408 1.18-2.198 1.22-.07-.996 1.18-1.365 1.79-1.953.918-.413 1.582-1.08 2.442-1.547.905-.887 1.533-2.05 2.443-2.93.71-1.65 1.662-3.06 2.36-4.722.83-.905 1.402-2.072 2.2-3.012.99-.367 1.847-.866 3.174-.896 1.268.272 3.17.404 4.72.325.07-.206-.42-.554-.57-.814-.025-.188-.127-.305-.08-.568-1.73-2.285-2.595-5.436-3.826-8.222-4.117-3.238-6.236-8.472-7.57-14.49.126-1.178-.064-2.074.406-3.093.616-.606 1.295-1.147 1.873-1.79 1.372-.582 2.548-1.36 4.314-1.55 1.836-.497 3.118-1.55 4.722-2.277.222.203 1.043-.01 1.14.08.993-.608 1.784-1.416 1.873-2.93 1.156.186.294 2.09.73 2.85.018.987-.054 2.062.084 2.93.25.062.528-.554.812-.732-.334-1.867-.128-3.774-.49-5.617-1.237-.58-1.663-1.972-1.79-3.663.162-.108.388-.154.57-.244-.144-.588-.12-1.344-.244-1.953-.254.49.082 1.277-.083 1.71-.397-.278-.314-1.1-.568-1.71.05-.864-.243-1.387-.246-2.2-.463-.89-1.27-1.44-1.953-2.114.077-.48-.18-.79 0-1.14.525-.154 1.032.073 1.466-.243-.026-.31-.463-.517-.245-.815.21-.29.632-.11.815.082-.07-.745-.84-1.224-.815-1.79.356-.405 1.268-.253 1.546-.734.28-.035.458.032.653.082-.188-.9-.774-1.4-1.22-2.036-2.642 1.945-4.628-1.75-6.678-2.687.025-.49.496-.536.895-.65-.07-.484-.45-.864 0-1.223.793.076.96.776 1.953.652-.01-.317-.7-.657-.49-1.466.2-.133.397-.207.653-.08.007-.445.07-.85.57-.978-.364-1.318-1.554-1.034-2.85-.813-.504-.2-.876-.534-1.302-.814-.57-.977-.93-2.164-1.952-2.687-.45-1.26-1.553-1.867-1.792-3.337.23-.167.333-.148.652-.083-.232-.474.162-.812.488-.977-.07-.5-.764-.375-.652-1.058-.548.59-.502 1.776-1.14 2.278-.43.252-1.127 1.25-1.71.57-.013-.583.724-.417.897-.813-.272-.165-.603-.267-.816-.488-1.668.446-4.122.487-5.29-.41.32-.655.833-1.118 1.14-1.79-.163-.462-.685-.564-.734-1.14.044-.524.8-.34 1.14-.568.132-.247-.4-.65 0-.977.74.29 1.524.538 2.36.73-.26-1.043-1.88-1.152-1.79-2.277 1.844.33 2.544 2.5 4.394 3.092v.083c.094-.016.046-.083 0-.083-1.348-1.446-2.61-2.977-4.558-3.826-.974 2.203-5.46 1.223-6.594-.163.093-.534.16-.935.163-1.382.33-.342 1.076-.35 1.466-.408-.516-1.708-2.407-2.042-3.99-2.686-.335.558-.652 1.137-1.463 1.22-.192-.08-.193-.35-.326-.488-1.778.298-3.602-.212-4.964-.325a.79.79 0 0 1 0-.65c-.137-.408-.858-.23-.896-.734.353-.895 1.777-.718 2.197-1.547-.312-.77-1.58-1.532-.895-2.523-1.127-.665-2.082-1.5-3.42-1.955-1.53 1.333-4.364.16-5.78-.57-.5-.042-1.177.094-1.546-.08.253-1 .025-1.132 0-1.954.432-.25 1.165-.194 1.547-.488-.143-.617-.645-.875-.733-1.547.192-.243.516-.354.98-.326-.816-.786-1.735-1.468-2.444-2.36-1.12-.59-2.314-1.105-3.01-2.117-.016-.35-.2-.696.08-.895.78.497.968 1.583 2.036 1.79.656-.94-.805-1.84-.245-2.685.93.182 1.043 1.182 1.546 1.79.178 1.778 1.326 2.583 2.198 3.664.49.108.7.497 1.06.733.125-.194-.215-.54 0-.896.19-.16.516-.187.896-.162.212-.258-.278-.735 0-1.058.72-.016 1.173.047 1.87-.244.61 1.047 1.158 2.153 1.955 3.012.164-.216.195-.564.65-.49.05.803.395 2.285 0 3.014 1.088 1.734 3.016 2.63 5.05 3.418-.055-.434-.25-.727-.326-1.14.178-.5.44-.915.895-1.14 1.27.713 1.915 2.385 3.418 2.605.677.658 1.295 2.286.733 3.418.44.537 1.225.73 1.71 1.222.412-.212.502-.746.895-.977.877.452 1.754.904 2.523 1.466.196-.754-.25-2.222.49-2.85.95.267 1.12 1.322 1.79 1.872.46 1.305 1.188 2.34 1.22 4.07v.977c.69.044.92.545 1.465.733.322-.22.2-.886.57-1.058.413-.243.565.167.896.244.06-.915.017-1.937.406-2.523.453-.074.582.177.813.324.312-.07.47-.626.813-.407 1.182 1.56 1.643 3.84 2.2 6.024-.096.91-.18 1.83-.408 2.605.436.622 1.058 1.06 1.627 1.548.49-.136.54-.708.895-.977.79.213.843 1.166 1.385 1.627.476-.988.724-2.208.895-3.5.486-.346 1.667-.208 1.71.407.27-.044.502-.415.814-.163-.324 2.52.604 6.885-1.383 8.628.15.583.53.937.896 1.303.37-1.54.325-3.894 1.87-3.988.27-1.115.31-2.458.897-3.256.438-.143.63.32 1.06-.08a1.768 1.768 0 0 0-.083-.734c-.92-.872-1.93-1.652-2.768-2.606.015-.254-.056-.597.08-.733-.21-.63-.855-.824-.977-1.544.517-.457 1.362.202 1.79.57.21-.51-.06-.992.083-1.547-.004-.376-.464-.297-.407-.733-.76-.65-1.496-1.328-2.28-1.954-4.07-4.542-7.038-15.026-3.584-22.468.45-.637.902-1.27 1.222-2.035 1.54-1.526 2.976-3.158 5.047-4.152-.146-1.24-.728-2.04-1.71-2.442-.583-.014-.73.408-1.383.326-.345-1.046.433-1.612 1.22-1.792-.612-1.333-1.505-4-.162-5.21.687.537.978 1.466 1.466 2.2.615-.39.886-1.123 1.79-1.222.545 1.5.94 4.15 0 5.535.025.302.523.13.408.57-.192.215-.653.16-.813.408.03.487.346.687.408 1.14 2.238-.44 4.456-.805 6.757-.162 2.428.678 4.583 2.646 6.105 4.07.34-.042.55.045.732.162.32-.33.433-.87.978-.977.545-.138.45.366.896.326.018-.092.09-.13.162-.164-.015-.77-.774-.348-1.465-.488-2.483-.917-3.52-3.687-3.744-6.594.126-.496.36-.885.57-1.302.484-.05.78.153 1.22-.163.74.668 1.125 1.696 1.953 2.278.078-.583.04-.863 0-1.465-2.132-1.477-3.187-4.464-3.257-7.734.373-.29.647 0 1.058.08.256-.152.09-.724.41-.812.78.33.978 1.243 1.79 1.546.218-.107.136-.516.244-.733-1.593-1.228-2.663-2.98-3.255-5.21.01-.312.452-.197.568-.406-.124-.57-.054-1.26.57-1.465-.293-1.037-.953-1.706-1.3-2.688-.874.096-1.938-.058-2.037-.977.495-.374.885.368 1.628.245-.26-1.044-1.29-1.742-1.3-2.77 1.038-.19.975 1.41 1.708 1.793.342-.725-.43-1.974.164-2.605 1.116.492 1.257 2.426.976 3.827.413 1.648 1.265 2.86 1.546 4.64h.094zm25.072-5.698c-.2-.072-.353-.19-.65-.163-.698 1.256-1.607 2.302-1.71 4.15.257.15.4.415.568.653.4-.334.406-1.06.896-1.302.107.08.303.077.326.244.042.45-.457.79-.245 1.14.97-.99 1.953-3.298.815-4.722m-.57 5.535c.673 1.25 2.367.404 3.34-.08-.42-.103-1.018.065-.98-.65.557-.503 1.27-.847 1.628-1.547-1.89-.123-3.23.996-3.987 2.278m-22.55 3.42c.695.174 1.26.017 1.71-.488.496-1.322.402-3.624-.325-4.803-.74 1.432-1.522 3.246-1.384 5.29m-.65-1.384c.342-1 .525-2.584-.407-3.094-.287.916-.268 2.632.407 3.094m-3.012-.487c.866 1.25 1.27 2.96 2.85 3.5-.265-2.18-1.025-3.863-2.443-4.886-.1.498-.084 1.11-.407 1.385m19.864-.653c-.413-.095-.78.506-1.385.488-.492 1.14-.74 2.854-.73 4.233.147.145.318-.382.73-.244.403.138.192.528.326.813 1.204-1.142 1.6-3.212 1.06-5.29m.73 1.71c.39.51-.022 1.3-.082 1.872 1.13-.745 1.904-1.843 2.444-3.176-.743-1.1-1.883.622-2.36 1.303m.08 2.767c.162 1.165-.496 1.512-.812 2.198 1.912-.23 2.722-1.565 3.826-2.605-.39-.284-.092-.637 0-1.06-1.262-.313-2.363.66-3.013 1.467m-16.2 4.64c.324-1.172.88-2.536.652-3.99-.235-.183-.605.133-.896-.08.043 1.396.154 2.723.245 4.07m4.152-3.907c-1.434.79-2.437 2.014-3.256 3.42-.047.48.08.788.164 1.14.535-.197.508-.957 1.138-1.06.795.605-.306 1.263-.406 1.954 2.233-.37 2.07-3.14 3.093-4.72-.384-.105-.353-.624-.733-.733m15.71.163c-.103-.004-.11-.105-.243-.082-1.443 1.167-3.502 2.135-3.257 4.722 1.41-.954 3.056-1.668 3.827-3.256-.36-.21-.358-.782-.326-1.384m-23.77 0c0 .3-.286.312-.407.488-.173-.08-.362-.36-.57-.163.174 1.984.44 4.324 2.198 4.965.212-.834-.44-2.08.246-2.36.543.16.497.91.894 1.22-.444-1.725-.776-3.564-2.36-4.15m18.153 2.605c-.756-.648-1.175.572-1.463 1.14.494-.22 1.63-.33 1.707.325-.276.32-.52.673-.65 1.14.388.48.957.078 1.304-.164-.045-1.13.617-1.553.65-2.605-.586-.015-.96.18-1.547.165m-3.417 2.44c-.284-.664-.02-1.878-.407-2.44-1.542.714-2.726 3.346-1.63 5.21.757-.847 1.406-1.797 2.037-2.77m7.08-.57v.653c.257.07.432.22.652.326.73-.41 1.564-.716 1.953-1.466-1-.27-1.87.23-2.604.488m-36.877 3.258c.576-1.233.08-2.98-.73-3.583-.29 1.187-.04 2.945.73 3.584m32.156-3.338c-1.544.49-2.29 1.78-3.175 2.93.227.235.158.765.407.978.64-.254.978-.813 1.79-.896.274-.952 1.18-2.127.978-3.012m-30.04.65c-.102-.004-.112-.104-.244-.08-1.04.94-1.666 3.558-.162 4.395.863-.995.758-2.845.405-4.314m19.7 1.06c-.286.146-.47.395-.812.487-1.14 1.5-2.562 3.56-2.36 5.86.78-1.85 1.868-3.395 3.173-4.72.114-.665.06-1.005.163-1.628h-.163zm10.828.08c-.02.115-.176.093-.243.164-.523 1.484-1.71 2.307-2.85 3.174 2.053-.172 3.19-1.26 4.153-2.523-.367-.258-.658-.59-1.06-.814m-13.675 2.117c.283-.694.732-1.222 1.222-1.71-.64-.328-1.317 1.043-1.222 1.71m-1.14-1.384c-.043.227-.39.15-.57.243-.022 1.053-.012 2.074.652 2.442-.15-.917.355-2.022-.082-2.686m-4.07 3.173c.515 1.168 1.048 2.316 1.955 3.094.456-.35 1.052-.006 1.464.163.22-.925-.24-1.76 0-2.768-.616-1.067-1.656-1.71-2.198-2.85-.61.226-.83-.126-1.222-.325-.786.855.617 1.995 0 2.686m10.34-2.116c-2.18.027-3.488 1.893-4.07 3.5.2.234.705.165.65.65.265-.268.695-.283.815.165-.233.527-.53.99-.815 1.465 2.26-.807 2.806-3.327 3.744-5.454a.734.734 0 0 1-.327-.326m43.064.244c-1.202-.234-2.727-.147-4.15-.16-5.213 1.327-8.44 5.075-8.956 10.826 1.468-4.096 3.78-7.347 7.734-8.955.97-.035 1.737-.27 2.604-.406.618.062 1.248.11 1.955.082 2.425.533 4.148 1.767 5.86 3.012.236.742 1.003.953 1.303 1.628.614.39.767 1.24 1.465 1.547-1.322-3.805-3.986-6.27-7.813-7.572m-33.783.57c-1.408.284-1.78 2.427-1.547 3.99.446-.246.414-1.077 1.06-.896.355-.838.656-2.222.487-3.093m-34.435.164c-.043.32.373-.044.488-.082-.248-.058-.297.084-.49.082m28.657 6.757c-.068-.014-.078.033-.082.083-.91 1.097-1.856 2.158-3.42 2.605-.23.823-.458 1.64-.568 2.36.078-.165.312-.174.568-.162.1.282.18.583.164.978.538-.398.797.25 1.465 0 .52.592.252 1.973.488 2.85.588-.36.797-1.104 1.467-1.385.504.2.432.977.73 1.383.206-.367.153-.988.245-1.465-.203-.134-.623.124-.732-.244v-.57c-1.25-1.478-1.092-4.316-.407-6.35.07.013.076-.034.082-.083.432-.218.495-.804 1.22-.73.512.15.216.687.49.976.377-.3.353-1.004.895-1.14.344-.017.287.365.488.49.117-.264.156-.605.244-.897-.934-.75-1.338-2.368-1.058-4.07-.946.103-.985-.698-1.872-.653-.39.455-.8 1.317-.815 1.873.747-.53 2.087-.117 2.2.733-.626 1.112-1.053 2.42-1.792 3.418m2.93-3.418h.57c-.15-.966.307-1.755.243-2.36-1.01.008-.977 1.442-.813 2.36m31.747 24.014c2.646 1.005 6.53.615 8.71-.488.94-.716 1.72-1.59 2.443-2.523 2.348-5.444 1.812-13.933-1.22-18.235-1.086-1.195-2.096-2.465-3.503-3.338-2.86-1.33-6.174-1.41-8.546.407-1.725 1.318-2.99 2.71-3.99 4.72-.99 2.926-1.828 6.812-1.14 10.666.477 1.532 1.01 3.007 1.547 4.477 1.46 1.878 2.926 3.75 5.7 4.313m-36.47-24.584c.002-.162.223-.104.163-.325h-.244c.013.12-.03.3.082.325m-.164 1.06c.19-.2.23-.705 0-.897.013.35-.29.732 0 .896m-1.22 2.93c.166.256.23.655 0 .897.414-.202 1-.526 1.384-.08 1.33-1.003 2.156-2.513 2.687-4.315-2.17-.288-3.1 2.047-4.07 3.5m-21.084-2.688c.874.216 2.144.236 2.93-.08-.674-.658-2.288-.687-2.93.08m10.745 3.664c.216-.217.344-.87.814-.57a8.517 8.517 0 0 0-3.42-2.85c.596 1.092 1.822 2.25 2.607 3.42m4.56-3.094c-.12.05.008.1 0 0 .117-.05-.008-.098 0 0m24.666.163c-.256.04-.185-.25-.49-.163-.79.89-1.07 2.292-1.057 3.99.495-.293.71.145.976.325.854-.965 1.097-2.54 1.14-4.315-.26-.014-.273.216-.57.162m-42.006 0c.053.053-.035-.034 0 0m-.977.733c.053.053-.033-.034 0 0m3.746.08c-.086.547.25.673.406.978.005-.426.46-.75.324-1.058-.404.042-.434.034-.73.08m11.15 8.06c-.497-1.51-1.34-2.674-1.626-4.395-1.185-2.128-3.833-3.223-6.433-3.664.12 1.19.855 2.89.49 4.56.17.166.554-.295.733.08-.035.428-.094.83-.41.978-.762-.088-1.267.722-1.383 1.546.29-.01.296-.3.652-.244.56 1.013.79 2.356 1.628 3.094.38-.625 1.082-.928 1.546-1.466.277-.43.118-1.293.814-1.302.31.29.335.86.733 1.06.24-.115.276-.43.65-.408.024.166.22.16.246.325-.92 1.486-.553 3.773-1.387 5.292.138.135.33.212.327.488-.385.97-.756 1.958-1.872 2.198.23 1.398.725 2.532.895 3.99.093-.424.274-.757.65-.896.432.113.577.512.98.652.387.017.443-.386.812-.163-.52 1.876.043 3.578-.49 5.21.6-.105.973-.438 1.385-.733.154-1.095.437-2.06.57-3.175-.337-1.25-1.08-2.48-.895-3.99-.962-1.207-1.62-2.72-1.465-5.046.323-.492.84-.788 1.63-.815.012-.92.03-1.534.324-2.28.666.068.755-.44.897-.894m-10.176-3.5c.276.35.62.63 1.14.732.19-.11.463-.134.65-.244.586-1.51.2-3.576-.487-4.885-1.795.133-1.118 3.132-1.303 4.397m-2.522-3.826c-.04.255.204.23.325.326.023-.13.094-.455 0-.57-.07.118-.12.258-.325.244m37.77 3.744c.09-.51.118-1.078.328-1.465.256-.09.183-.007.488 0-.06-.683.088-1.16.08-1.79-.68.303-.87-.304-1.22-.57-.44.964-.478 3.18.325 3.825m-10.257 1.14c.372.143.643.388.733.814.498-.396.8-.99 1.3-1.384.437-1.247.442-2.924.98-4.07-1.782.77-2.43 2.673-3.014 4.64m-12.21-4.07c-.355-.08-.474-.395-.814-.488-.444.64-.65 1.52-.57 2.686.822.857 1.232 2.387 1.383 3.663.977-1.806.59-4 0-5.862m.815.163c.076-.068.174-.52 0-.57-.078.07-.174.52 0 .57m-14.654.57c.023-.43-.033-.78-.244-.977-.002.41.04.775.244.977m15.712-.488c-.45.82-.613 2.028-.407 3.094.313-1.126.315-2.56 1.303-3.01-.155 1.247-1.167 3.027-.568 3.988.24-.385.285-.963.895-.978.16-1.17.48-2.177.895-3.094-.62-.717-1.265-.203-2.117 0m8.222 4.396c.248-.06.297.083.487.082.223-.24.06-.863.57-.814.557.147.077.81.245 1.14.205-1.32.557-2.54 1.058-3.745-.295-.193-.04-.936-.406-1.058-.22.324-.31.777-.814.814-.42-.203-.27-.978-.73-1.14-.75 1.282-.87 3.24-.41 4.722m-26.375-3.827c.574 1.462 1.155 3.347 3.01 3.258.142-.517-.407-.913-.487-1.465-.8-.72-.875-2.167-2.036-2.524-.003.402-.332.478-.487.73m21.002 1.223c.244-.435.575-.782.896-1.14-.03-.242-.142-.402-.325-.488-.087.593-.64 1.15-.57 1.628m8.14-1.303c0-.162.22-.104.162-.325h-.244c.013.122-.03.3.08.325m-26.293 4.07c-2.8.034-2.538-2.996-4.07-4.232h-.162c-1.545 1.602-2.864 3.43-3.662 5.78-.584 4.89.165 8.792 1.708 12.373.146.046.543 1.06.572 1.222.833 1.717 2.14 2.958 3.825 3.826.05-.755-.29-1.122-.326-1.79-1.4-.446-2.13-1.562-2.93-2.607-.073-.668.656-.537.814-.976-.214-.868-1.505-2.185-.244-2.85 1.068-.035 1.19.875 1.873 1.222.218-.54.33-1.188.895-1.384.35-.025.378.272.568.407.397 1.476.927 2.817.896 4.72-1.142.63-.102 2.057-.082 3.34.59-.07 1.053-.583 1.627-.408.128.55.12 1.237.325 1.71.775.038 1.378.25 2.28.162-.16-.743-1.36-1.13-1.872-1.79-.007-.388.41-.35.65-.49-.362-.91-.364-2.185-.65-3.174-.255-.396-.754-.547-.813-1.14.454-.308.67.227 1.138.164.31-.314-.03-1.28.49-1.384.75.416.752 1.58 1.3 2.197 1.412-1.127.538-3.907 0-5.373-.374.14-.458.572-.894.65-.27-.166-.825-.042-1.222-.08-1.763-.734-2.535-2.458-3.99-3.5.02-.44.58-.343.897-.488-.413-.81-1.17-1.272-1.873-1.79-.03-.46.563-.474.896-.327-.02-.626-.626-1.48 0-1.792.714.696 1.79 1.03 2.768 1.466.19-.97.087-1.74.08-2.85-.267-.273-.69-.39-.813-.813m10.177-3.58c-.674 1.533.552 3.644 1.384 4.72.11-.025.154-.116.324-.082.38-.297-.152-1.51.57-1.465-.303-1.513-1.447-2.188-2.278-3.174m18.317 1.464c-.248 1.273-1.192 2.282-1.548 3.174.358-.31.642.028.977.164 1.612-1.02 2.926-2.337 3.5-4.396-1.592-.262-1.987.673-2.93 1.058m8.383-.163c-.077.34.245.017 0 0 .09-.43-.248-.095 0 0m-18.315.734c.394.014.42-.338.487-.65-.31.068-.44.318-.487.65m-1.953 1.384c-.076.414-.412.567-.49.977.13.25.252.51.57.57.336-.288.52-.727.813-1.058.386-.24.948-.3.813-1.06-.948-.387-.755.986-1.706.57m15.872 3.176c.226.454-.028 1.386.65 1.384.294-.142.03-.84.49-.814.466.176-.002.802.325 1.14 1.554-.8 1.63-4.005.324-5.13-.378.223-.512-.157-.813-.244-.417 1.128-.952 2.14-.976 3.663m-13.27-2.442c-1.64-.174-2.335 1.3-2.36 3.013.567.22 1.09.482 1.222 1.14.21-1.504 1.306-2.544 1.14-4.152m17.014 4.152c-.07-.015-.078.032-.082.08-.34-.077-.017.246 0 0 .07.017.076-.03.082-.08 1.316-.746 2-2.124 2.604-3.582-1.54.604-2.993 1.296-3.338 3.094.383-.245 1.08.02.734.488m-15.874-3.256c-1.047 1.266-2.222 3.88-1.386 6.27 1.378-1.435 2.31-3.218 2.036-6.107-.177-.094-.332-.21-.65-.164m-7.164 1.79c.1-.498.493-.7.976-.813.556.69.824 1.673 1.06 2.687.395-.98.416-2.623-.083-3.5-.336.53-3.174.61-1.953 1.627m-59.265-.977c.005-.14-.062-.21-.162-.245-.003.14.063.21.162.245m49.496 4.56c.168-.375.098-.987.326-1.303.12-.256.42.31.405-.08-.29-1.34-.877-2.38-1.465-3.42-.33.077-.825.145-1.14 0-.355 2.187-.217 4.6 1.873 4.802m3.337-4.478c-.558.935-1.66 1.325-2.036 2.44.23.794.078 1.5.082 2.443 1.15.146 1.012-.997 1.87-1.14.407-.87.358-2.194.734-3.093a1.035 1.035 0 0 0-.65-.65m3.582 1.22c-.03.75.035 1.1-.08 1.71.098.985.28 1.888.324 2.93.272.57.19 1.492 1.058 1.465.57-1.82-.32-3.95.244-5.943a4.535 4.535 0 0 0-.733-1.14c-.234.364-.636.558-.813.98m10.257 3.174c.184.058.243.245.325.407-.19.163-.37.337-.49.57.47-.076.636-.45 1.304-.326.95-.757 2.07-2.525 1.22-4.072-.82 1.11-1.94 1.914-2.36 3.42m7.08-2.687c.397 1.126.654 2.387 1.14 3.42.273-.514.702-.873.978-1.384-.073-1.092-.19-2.143-.895-2.605.023.675-.763.844-1.222.57m-35.654 8.874c-.957-2.625-.933-6.23-1.466-9.28-.716 3.238.29 6.923 1.466 9.28m6.594-8.222c1.466 1.174 1.922 4.108 4.64 3.5-.913-1.26-2.543-1.798-2.605-3.907-.472-.055-.54-.07-.73.244-.155-.128.116-.32-.083-.49-.388-.126-.64-.39-1.14-.406.127.382-.043.638-.082 1.058m14.245-.65c-.06.32-.17.588-.244.894.565.494 1.385.734 1.874 1.303.085-1.037-.144-1.757-.407-2.443-.4.088-.625.35-1.222.244m35.33.57c.122 2.093.524 4.89 1.548 6.758.103.314-.013.376.08.732.53.476.45 1.56 1.386 1.627-.008-1.132-.216-2.064-.41-3.01-1.434-1.66-1.943-4.242-2.44-6.84-.098.204-.12.48-.164.734m-89.058-.406c.113 2.113 1.345 3.104 2.604 4.07-.098-.642.12-.965.326-1.302-.68-.976-1.498-1.813-1.954-3.013-.418-.012-.71.104-.976.244m67.16.244c-.223.86-.625 1.89-.408 2.93 1.135.142 1.063 1.488 2.116 1.71.063-.823-.122-1.398-.08-2.198-.247-.975-.992-1.45-1.22-2.442h-.41zm-9.037.407c-.308-.168-.392-.247-.813-.163-.546.84-.81 2.352-.65 3.418 1.044.558.917 2.285 1.627 3.175 1.164-1.566.706-4.697-.163-6.43m14.41 4.803c.188-.022.307.02.325.163.85-1.052 2.007-3.17.98-4.64-1.347.757-.846 2.858-1.304 4.478m-72.776-3.42c-.182-.333-.193-.837-.57-.976.186.33.158.874.57.977m49.9-.326c-.167 1.986.315 3.322 1.304 4.152.12-1.586-.457-3.144-.487-4.64-.417.016-.624.242-.815.488m5.86 2.93c-.33-1.135-.907-3.3-2.197-2.443-.176 2.376.403 3.995 1.63 4.967-.01-.838.273-1.755.568-2.523m14.004.895c.288.252.437.647.65.976.268-.546.933-.695 1.547-.896.34-.91.346-2.736.08-3.744-1.22.76-1.8 2.163-2.277 3.663m-70.336-3.012c-.86-.094-1.122-.834-1.954-.327.39.968 1.51 1.204 1.872 2.2 1.013.154 1.707.626 2.932.57-.342-1.422-2.01-1.52-2.85-2.442m64.065.813c-.407.537-1.15.647-1.708 1.06-.884.65-2.035 1.9-2.037 3.093.803.07 1.008-.46 1.63-.57.582-1.37 2.48-1.424 2.603-3.255-.122-.15-.35-.193-.49-.327m-64.96 1.223c-.082-.893-1.13-.954-1.627-.407.067.446-.243.517-.243.896 1.688.158 2.74 1.384 4.558 1.14a7.405 7.405 0 0 1-2.687-1.63m47.705.245c.6.23 1.036-.36 1.22-.814-.37.31-.885.47-1.22.814m-3.746-.082c.542.52 2.407.995 2.443-.326-.713.35-1.763.6-2.443.325m25.644 3.093c.794-.088 1.07.342 1.71.408.665-.695-.42-1.167-.326-2.036-.532-.77-1.512-1.09-2.116-1.79-.375 1.298.08 2.666.733 3.418m-11.885 2.362c.07-.12.205-.175.407-.163.336.125.384.54.65.732.3-.543.157-1.526.733-1.792-.273-1.544-.16-3.476-1.628-3.826-.375 1.336-.98 3.76-.162 5.048m5.698-2.85c.392.25.116.67.163 1.22.376.208.47-.48.977-.406.27.003.194.347.49.326.993-.605 2.227-1.814 1.71-3.175-1.537-.33-2.58 1.068-3.34 2.035m-15.06 1.466a9.274 9.274 0 0 0-.732-2.768c.258.91.288 2.047.733 2.768m-34.923 1.71c.355-.053.39-.424.733-.49-.667-1.396-1.73-2.395-3.01-3.174.32 1.66 1.01 2.95 2.277 3.663m43.796 1.547c.095-.15.213-.276.325-.408-.188-.705-.508-1.28-.73-1.954-.805-.417-1.015-1.428-1.956-1.71.026.76.762 1.16.653 1.792-1.144.205-.885-1.655-1.71-2.035.265 2.314.918 4.238 3.42 4.315M99.523 57.36c-.827-.452-1.9-.233-2.362.65 1.007 1.192 2.11 2.722 3.746 3.013-.335-.182-.592-.44-.572-.978.485-.38.835.36 1.305.49.038-.26.54-.057.65-.245-1.305-.593-2.19-1.605-2.766-2.93m62.113.57c.27-.08.88-.606.57-.732-.132.303-.507.36-.57.732m-1.058 1.058c.013-.462.564-1.202.16-1.546-.192.323-.384 1.078-.16 1.546m23.198.65c.187.25.44.43.815.49-.033-1.133-.134-2.202-.896-2.605.11.597.287 1.463.08 2.116m-60.4-1.873c-.014.63.19-.262 0 0m25.643 2.524c.043.365.244.57.162 1.06.877.008 1.298-.44 2.197-.407.544-.84 1.4-1.367 1.628-2.525-.515-.373-1.415.02-1.63-.73-.802.85-1.738 1.568-2.358 2.603m-25.562-2.116c.094.32.094-.32 0 0m4.395 0c.345.742.8 1.37 1.303 1.954-.114-.375-.144-.835-.244-1.22-.452-.147-.662-.533-1.06-.734-.048-.118-.097.01 0 0m9.28 3.5c.302.433.463 1.004.57 1.63.152.064.298.135.49.16.514-.108.505-.74 1.058-.812.316-1.114-.063-2.544.244-3.745-.405-.056-.674-.25-.977-.407-.526.992-.915 2.123-1.384 3.175m-1.79 1.058c.082-1.684.016-3.218-.977-3.826-.094.286-.46.297-.57.57.705 1.6.205 4.407 2.117 4.802.18-.576-.48-.974-.57-1.547m-8.14-3.5c.384.7 1.085 1.518 1.79 1.628-.694-.417-.823-1.4-1.466-1.872-.07.12-.12.258-.325.244m51.285 2.36c-.05-.117-.098.01 0 0 .33.35.614.743.978 1.06-.017.507-.628.284-.896.163a.41.41 0 0 0-.245-.245c-.015.178.066.26.244.245.08.517.64.55.65 1.14-.078.002-.064.1-.083.163-.326.056-.465-.078-.73-.082-.052-.118-.1.008 0 0 .187.57.85.668.976 1.303-.49.332-1.13-.396-1.22-.165.084.892 1.216.737 1.14 1.79-.187.04-.417.163-.57 0 .053.462.538.494.65.897-.166.022-.16.22-.324.243-.61.12-.7-.71-1.143-.487.444.396 1.02.66 1.22 1.302-.104.03-.126.143-.24.163-.438 0-.44-.43-.897-.407.078-.337-.243-.018 0 0 .306.455.868.652.978 1.303-.555.555-1.04-.725-1.385-.327.038.587 1.298.656 1.304 1.547-.066.016-.082.082-.163.082-.615-.118-.833-.633-1.385-.815.04.99 1.548.947 1.3 1.954-.456.216-.66-.457-1.14-.487-.048-.12-.097.008 0 0 .416.508.936.91 1.224 1.547-.608.522-1.21-.57-1.63-.49.372.69 1.452.668 1.547 1.63-.626.283-.94-.398-1.463-.49-.05-.118-.1.01 0 0 .414.534 1.073.826 1.384 1.466-.69.506-1.196-.378-1.79-.49-.142.712.633.507.813.897.395.175.64.5.814.895-.104.167-.13.413-.407.407-.333-.074-.43-.382-.813-.407-.027-.094-.253-.382-.326-.162.162 0 .105.22.327.162.27.49.95.57 1.058 1.222-.088.02-.055.162-.163.162-.495.062-.492-.375-.895-.407v-.08c-.066-.058-.224-.128-.244 0 .065.04.13.084.244.08.24.492.996.47.895 1.303-.012.18-.205.175-.406.163-.168-.422-1.02-1.21-1.384-.65.578.1.865.49 1.384.65.087.212.294.304.325.57-.155.17-.22.43-.568.408-.583-.123-.657-.755-1.222-.896-.035.99 1.69.838 1.466 2.28-.25.06-.298-.083-.488-.082.015-.07-.03-.076-.082-.08.016-.07-.03-.077-.08-.082-.245-.325-.483-.658-.978-.733.052.518.554.585.977.733-.015.07.03.076.08.08-.014.07.032.078.083.082.398.19.57.948.244 1.222-.382-.054-.512-.36-.813-.49.013-.068-.033-.076-.084-.08.015-.07-.032-.076-.08-.08-.054-.3-.278-.428-.57-.49-.08.433.405.3.57.49-.016.066.03.074.08.08-.015.07.033.077.083.08.145.43 1.02.887.568 1.385-.704-.136-.767-.917-1.466-1.058.012.2.013.392-.08.488.937.222 1.753 1.422 1.302 2.278-.678-.25-1.034-1.236-1.63-1.302-.038.392.454.253.57.49.153.73 1.43 1.498.734 2.28-.484-.66-1.013-1.27-1.71-1.71-.013.15-.054.27-.163.324.763.576 1.822 1.694 1.547 2.77-.767-.592-.838-1.878-1.71-2.36-.455 1.257 2.055 1.705 1.222 3.336-.467-.13-.535-.658-.896-.896-.187-.49-.458-.896-.732-1.302-.072.172-.25.24-.244.488.45.146.68.516.977.813.19.564.75 1.554.406 2.118-.74-.646-.68-2.087-1.79-2.362-.21.43.427.64.732.814-.216.935.967 2.527.162 3.256-.966-.253-.707-1.734-1.222-2.44-.316-.022-.42.174-.65.242.55 1.892 1.54 3.343 2.28 5.048.978 1.436 1.327 3.502 2.36 4.882 1.906-5.527 2.9-11.965 3.825-18.477.796-5.16.293-12.836.082-18.154.165-.72.042-1.825-.244-2.36-.062 2.043-.384 3.513-.244 5.372-.22 2.362-.465 4.413-.57 7-.44 1.257.046 2.665-.568 3.665-.324-1.843.19-4.52.162-6.35-.26-2.6.193-5.543-.162-7.977.123-.977.035-2.61-.327-3.582-.577.56-.275 1.71-.078 2.443-.24.148-.258.13-.575.08m-42.086.163c.336-.66.355-1.608.164-2.442-.672.545-.622 1.703-.163 2.442m49.25-.977c.198.126.348.302.733.243-.033-.47-.246-1.133-.65-1.466.037.47-.035.835-.082 1.222m12.212.406c.19.056.218.27.407.326.61-.58 1.22-1.167 1.628-1.954-.883.338-1.3 1.142-2.036 1.628m-55.03-1.384c-.128-.007-.063-.208-.244-.163-.072.168.21.364.244.162m9.117 6.024c.218.08.392.205.406.488.354-.052.39-.424.732-.488-.03-2.283 1.274-3.22 1.22-5.698-.305-.1-.498-.313-.73-.49-1.21 1.4-1.124 4.09-1.63 6.188m5.863-.407c1.096-1.175 1.578-3.705.814-5.618-1.26 1.085-2.263 4.15-.813 5.617m-16.605 5.29c.687 1.08.747 2.833.813 4.315.88-4.18.125-9.998 1.627-14.165-.23-.26-.423-.552-.73-.733-.582 3.517-1.244 6.955-1.71 10.583m-43.227-10.5c-.182.55-.78.685-1.14 1.057.028.3.322.33.244.733 1.427.097 2.76.652 3.907 0-1.245-.356-2.027-1.176-3.012-1.79m55.844 5.697c1.464-1.055 2.236-3.643 1.952-5.698-1.03 1.468-1.988 3.433-1.952 5.697m33.865-3.988c-.015-.856-.186-1.552-.896-1.71.24.63.06 1.68.897 1.71m-76.766 2.766c.06-.545-.083-.893-.08-1.383-.005-.277.417-.125.407-.407-.185-1.064-.61-1.888-1.384-2.36-.07 1.83.09 3.172 1.058 4.15m78.476-2.116c-.15-.745-.216-1.575-1.058-1.627.354.486.2 1.913 1.058 1.627m.895.326c.348-.02.44.213.815.164.208-.97-.466-1.055-.57-1.71-.28.036-.456-.032-.65-.082.06.617.486.87.406 1.628m6.024-1.22c.07.255.15.5.408.57.306-.104.523-.293.813-.408-.087-.772-.714-.13-1.22-.163M149.02 64.28c.357-.212.22-.92.73-.978.51.087.422.773.734 1.058.894-.17-.228-1.68.65-2.035.76.044-.152 1.25.325 1.465.245-.57.504-1.557.325-2.28-.69 1.1-3.378.637-2.765 2.77m14-2.768c-1.637 1.02-3.713 2.038-3.743 4.396.034-.182.4-.032.57-.08 1.493-1.167 3.116-2.202 3.662-4.315h-.49zm-53.483 2.198c-.81-.737-1.436-1.657-2.768-1.872a.413.413 0 0 1-.246.244c.593 2.23 1.85 3.796 3.99 4.478.372-1.045-.715-1.91-.977-2.85m26.62-1.71c.053.053-.035-.034 0 0m58.856.082c.16.138.218.378.244.65.256.04.318-.115.488-.162.002-.354-.12-.585-.406-.65.057.22-.385-.06-.327.162m-1.385.977c.283.063.314-.123.57-.083.044-.34-.14-.455-.163-.732h-.324c-.146.153-.058.537-.082.814m-46.4-.652c-.522 2.335 0 4.923-.325 7.245.28.208-.03 1.005.326 1.14.053-3.052.52-5.5.486-8.467h-.163c-.11.026-.156.116-.324.082m44.852.65h.406c.037-.307-.17-.37-.324-.488.06.25-.084.297-.082.49M170.43 65.58c-.116.483-.716.914-.654 1.303 1.162-1.063 3.148-1.302 3.584-3.094-1.338-.083-1.864 1.337-2.93 1.792m.243-1.79c-.51.66-1.487 1.28-1.302 2.36.27-.848 1.692-1.395 1.303-2.36m-42.657.325c.16.437.293.9.653 1.14.3-.597-.338-.897-.654-1.14-.05-.118-.098.008 0 0m3.42 2.767c.99-.272.987-2.057.488-2.767-.747.433-.695 1.8-.488 2.767m9.36-2.198c.002-.135.265-.594-.082-.57-.128.13-.022.437.083.57m-23.445.082c0 .107-.143.074-.163.163-.278.148-.38-.092-.734-.08-.31 2.396.163 5.208 1.63 6.35 1.58-1.54.418-5.022-.734-6.432m32.317 0c-.9 1.488-1.497 3.28-1.548 5.617.203.83.19 1.875 1.223 1.872.102-2.78 1.948-4.23 1.628-7.163-.65.31-.83-.227-1.304-.326m-5.128.65c.247.244.388.59.65.815 0-.57-.126-1.013-.325-1.383h-.245c.066.282-.12.313-.08.57m-6.514.325c.797.116 1.522-.268 1.386-.814-.335.4-1.082.384-1.386.815m10.5-.163c-.002-.252.352-.567-.08-.57.05.168-.1.535.08.57m22.063 2.36c2.178.4 3.24-.985 4.398-1.873-1.627-1.125-3.974.276-4.397 1.872m-63.17-2.278c-.26.226-.898.077-1.22.244.227 1.51 2.035 1.438 3.744 1.466-.635-.777-1.736-1.088-2.524-1.71m32.48 4.395c.625-1.033.605-3.168.165-4.397-.594 1.128-1.314 3.363-.164 4.396m-6.267-3.908c-.114.236 1.127.553 1.384.162-.486.006-1.01-.318-1.384-.162m11.56.245c-.014.627.193-.263 0 0m-14.653 4.965c.625-1.896-.166-3.708-.977-4.884.514 1.302.43 3.404.977 4.884m24.584-3.5c.62.214 1.065-.945.57-1.384-.156.494-.514.788-.57 1.384m-25.236 3.5c-.12-1.67-.373-3.21-.73-4.64h-.245c-.327 1.597.12 3.695.975 4.64m7.41-3.582c-.034-.242.078-1.05-.082-.896.032.243-.08 1.05.08.896m6.676 4.64c.66-.18.575-1.107.813-1.71.003-1.47.018-2.607-.407-3.745-.2 1.915-.288 3.58-.406 5.455m1.872-3.012c.05.118.1-.008 0 0 .056-.717-.28-1.723-.49-2.443-.09.716.184 1.698.245 2.524.13.022.14-.077.244-.082m5.862-2.28c-.73 1.416-1.39 2.9-1.63 4.804.06.707-.124 1.495.49 1.79.4-1.58 1.086-2.875 2.115-3.826-.145-.85.822-2.04.165-2.93-.258.303-.82.598-1.14.163m-20.27 3.418c.62-.742 1.95-1.628 1.302-3.094-.46 1.005-1.085 1.844-1.3 3.094m-15.876-2.85c.095.323.095-.32 0 0m15.876.244v.49c.392.036.574-.562.488-.734-.047.198-.308.182-.488.244m7.163.163c-.08.002-.065.1-.083.164-.36-.017-.023.32 0 0 .08-.003.064-.102.082-.165.247-.096-.09-.432 0 0m-5.13.814c.29.31.724.9 1.14.812-.22-.095 0-.422 0-.568.503-.066.796-.342 1.14-.572-.717.032-2.18-.794-2.28.327m2.36-.245c.37-.044.488.163.733.244.074-.24.074-.25 0-.49-.29.035-.63.022-.732.245m19.05.244c-1.753 1.342-3.673 2.946-3.58 5.86.768-.095 1.26-.33 2.115-.488.728-1.523 1.87-2.634 2.117-4.64-.247-.215-.357-.567-.652-.733m-15.873 6.105c.457-.625-.218-1.992 1.058-1.873-.022-2.014-.67-3.4-2.36-3.744.02 2.284.247 4.363 1.302 5.617m-3.34-5.454c-.132 2.15.237 5.185 2.36 5.617-.445-1.27-.688-2.967-.81-4.315-.743-.154-.74-1.052-1.386-1.3h-.162zm18.562 4.967c.262.09.253.452.57.49 1.773-.83 3.13-2.08 3.5-4.316-.452-.062-.387-.643-.652-.894-1.296 1.416-2.89 2.536-3.42 4.72m9.85-1.22c.793-.158.807-1.093 1.63-1.222 0 .162.22.103.16.325-.113.455-.778.792-.65 1.22 1.372-.174 2.448-.646 3.094-1.546-.3-.126-.852.126-.896-.407.35-.573.795-1.05.977-1.792-2.13.45-3.385 1.772-4.315 3.42m-31.828-1.627c.157.223.622.137.57.57-.255.313-.73.41-1.14.57-.046.176-.195.665 0 .812.352-.19.626-.457.977-.65.27.03.128.47.163.733.246.092.61-.043.73.326.287 1.45.345 3.13.653 4.557.35-.355.287-1.123.896-1.22.628.4.416 1.644.975 2.116.29-1.216.234-2.354.49-3.664-1.25-1.79-2.882-3.197-3.5-5.618-.317.445-.435 1.087-.815 1.466m-19.62-1.303c-.045.5-.664.42-.895.733.707 1.272 2.298 1.66 4.07 1.872.353-.352.82-.593.976-1.14-1.173-.644-2.722-1.344-4.15-1.465m32.808 1.628c.134-.272.394-.418.487-.73-.118-.317-.18-.69-.407-.897.06.536-.538 1.23-.08 1.627m-5.048-1.14c-.02-.143.08-.407-.163-.324-.022.183.02.304.163.323m-14.817 7.734c.515-1.95.567-3.837.408-6.187-.303-.265-.412-.728-.976-.732-.02.116-.136.137-.164.244-.396 1.838-1.454 4.016-.57 5.942.043.526-.095 1.235.08 1.63.74.03.77-.645 1.223-.897m22.795-.326c.094.287.305.457.405.734.387-1.977.52-4.196.652-6.105-.78-.007-1.29-.287-1.63-.734.153 1.787.918 4.248.573 6.105m-36.714-5.86c-.152.38-.155.886-.244 1.14.576.185 1.857.134 2.44-.163-.85-.21-1.347-.768-2.196-.977m35.167.082c-.365.258-.592.656-1.22.65-.04 1.93.326 4.036 1.464 5.047.23-.014.34-.15.57-.164.194-1.563.15-4.386-.813-5.534m-26.7 1.464c-.016.07.03.077.08.083.05.117.1-.01 0 0 .016-.07-.03-.08-.08-.084-.176-.394-.54-.602-.896-.814.153.417.534.605.895.814m23.69.083c-.163 2.003.27 4.18 2.035 4.23-.585-1.34-.795-3.057-1.14-4.64-.438-.003-.31.56-.896.41m-27.516.242c-.337-.078-.017.245 0 0 .12-.05-.01-.098 0 0m2.36 1.384c1.147 1.62 2.247 3.29 4.56 3.744.055-.24.266-.33.406-.488-.068-.366-.173-.694-.162-1.14-1.052-1.554-2.778-2.433-4.48-3.337.04.42-.146.807-.324 1.22m12.13 3.908c.3.296.506.69.977.814.276-1.737.533-3.912.49-5.698-.018-.092-.09-.127-.163-.164-.708 1.41-1.302 2.932-1.303 5.047m9.85-3.663c.936.773.92 2.5 1.384 3.746.052-.897.32-1.58.244-2.606-.864-.384-1-1.498-1.548-2.198-.02.36-.13.63-.08 1.058m13.188-.976c-.104-.005-.114-.105-.245-.082-.126.2.277.24.245.082m-24.503 4.64c.006-1.614.212-2.893.08-4.397-.104-.005-.113-.104-.244-.08-.445 1.45-.7 3.3.163 4.476m2.847 1.547c.237.17.205.61.57.65.816-1.68.768-4.5.326-6.593-.104-.005-.113-.104-.244-.08-.444 1.783-.292 4.16-.653 6.023m19.132-.65c1.568-.656 2.008-2.442 2.277-4.397-.577.01-.592-.546-.813-.896-1.415 1-2.056 3.108-1.465 5.292m9.36-.733c.596-.548 1.28-1.427 1.465-2.117-.298-.054-.312.176-.57.163-.456-.726.07-1.982-.407-2.605-.684 1.145-1.14 3.19-.488 4.56m-30.608-.734c.153-1.117.877-2.71.08-3.582-.375.717-.558 2.813-.08 3.582m23.118 1.303c1.288-.83 2.37-1.865 2.77-3.582-.886.16-1.323-.418-1.547-1.14-.263 1.664-.97 3.32-1.223 4.722M136.4 88.7c.275.196.35-.374.733-.325-.54-4.265-.095-8.33.488-12.455-.103-.004-.11-.104-.243-.08-1.01 3.58-1.533 8.844-.976 12.86m2.36-12.617c-.093.15-.21.275-.326.41-.005 4.263-.783 8.483.083 12.372.263-.01.174-.37.57-.244.458.11.193.948.57 1.142-1.053-3.792-.88-8.805-.408-13.432-.248.002-.317-.175-.49-.247m21.98 5.698c.017.284.29.31.327.57-.096.124-.236.2-.246.408 1.33.45 1.808-1.114 2.69-1.627-.018-.282-.288-.308-.326-.57.63-.778 1.192-1.63 1.547-2.686-.245-.025-.633.09-.65-.163-.052-.3.105-.81-.08-.975-1.265 1.505-2.774 2.762-3.26 5.046m1.873-4.476c.013-.095.145-.185 0-.244-.01.096-.145.185 0 .244m14.003.407c-.002-.08.065-.096.08-.16-.082 0-.097-.067-.163-.082.013.095-.014.23.083.243m-35.902 3.42c.69-.88.285-2.7-.324-3.42.168 1.222-.635 2.854.324 3.42m3.095-3.174c-.054 5.783-.368 10.3-.325 15.792.754-1.385-.47-3.917.57-5.29a8.62 8.62 0 0 1 1.383-.897c-.197-2.19-1.443-3.332-1.303-5.86.135-.19.475-.176.814-.163.057-.43.08-.895.406-1.058.436-.083.405.3.813.243-.095-.716-.31-1.384-.164-2.117-.538.473-1.847.018-2.197-.65.003-.14-.062-.21-.165-.245-.002.14.06.213.164.246m-16.527 5.21c.625.357 1.042 1.338 1.63 1.465.553-2.215.21-5.105-1.14-6.51-.806 1.297-.865 3.334-.49 5.047m5.617-.327c0 .326.163.49.163.814.104.14.486 0 .487.244.058.438-.092.667-.162.977 1.413-.73 2.354-3.76 1.71-6.024-.105-.003-.114-.103-.246-.08-.782 1.225-1.314 2.7-1.952 4.07m13.84-3.907c-.25 1.125.3 2.063.568 2.93.808-.354.36-2.32.57-3.012-.322-.113-.85.096-1.14.083m3.013 2.685c.444.09.43-.275.815-.244-.018-.93-.058-1.843-.406-2.442-.592.61-.903 1.816-.41 2.686m4.887-1.22c.358-.042.63-.31.813.08.035.417-.193.566-.244.896 1.072-.285 1.572-1.14 2.197-1.872-.317.02-.294-.303-.407-.49-1.06.188-1.942.555-2.36 1.385m-5.944-.65c-.016-.153.055-.805-.08-.57.016.154-.054.803.08.57m11.235 2.197c.118-.587.37-1.042.487-1.627-.314-.31-.324-.924-.73-1.14-.463.604-.52 2.45.243 2.767m-36.713-1.383c-.134-.68-1.163-.463-1.548-.894.202.603.83 1.062 1.548.895m7.732.245c-.105.14-.168.32-.407.326-.405.08-.435-.216-.734-.243.013 2.13 1.056 3.232 1.466 4.966.217 0 .465-.032.57.08 1.163-1.394.53-4.283-.896-5.128m22.713 0c-1.007.352-1.12 1.597-2.036 2.036-.132.82-.027 2.188.244 2.605 1.003-1.166 2.103-2.238 2.604-3.907-.366-.15-.362-.67-.813-.733m-8.06 1.546c-.195.05-.37.118-.65.084-.03 2.09.65 3.474 1.708 4.477-.253-.836.272-1.337.326-1.953.08 0 .097-.066.162-.082.44.048.44.537.65.815-.19-1.9-1.217-2.962-2.035-4.233-.152.197-.022.68-.16.894m-3.746 4.56c-.275-1.976-.296-4.208-1.627-5.128-.255 2.022-.28 4.626 1.627 5.13m8.385-4.478c.298 0 .31.284.486.407.008-.303-.033-.562-.16-.732-.074.142-.3.135-.327.326m-.65.813c-.63 1.113-.893 3.312-.408 4.803.938-.943 1.518-3.35.733-4.803h-.326zM125.41 84.55c.798.83 1.24 2.016 2.44 2.44.024-.166.22-.16.327-.242-.574-1.383-1.288-2.62-2.442-3.42.154.67-.247.785-.326 1.222m26.374 3.338c0 .815.285 1.342.733 1.71.7-.223.994-.85 1.14-1.63 1.595-.34.796-2.614.162-3.418-.407 1.385-.852 2.728-2.036 3.338m23.445-3.257c.055.054-.033-.034 0 0m-45.504 1.792c.26.417.398.958.813 1.222.25-.756.16-1.738-.245-2.28-.154.388-.298.787-.57 1.058m2.525-.164c-.246.928-1.433 1.33-1.14 2.523 2.138.354 3.418-1.14 3.5-3.336-.654.09-1.242.924-2.36.814m-8.874-.08c.87.84 1.724 1.696 2.93 2.197.34-.42 1.07-.195 1.466-.407-.655-.758-1.635-1.188-2.116-2.115-.694.118-1.277-.418-2.117-.41.072.374-.137.463-.164.735m27.516 3.257c.295-.68.34-2.455 0-3.257-.264.85.03 2.142 0 3.257m-10.338-.977c.234-.225.62-.302.568-.814-.204-.42-.562-.687-.895-.978.105.783.017 1.285.327 1.792m-11.642-.49c.5.72 1.023 1.42 1.546 2.117.335-1.108-.625-2.003-1.14-2.768-.07.282-.325.382-.406.65m17.746 1.385c.088-.48.287-.852.244-1.464-.227-.073-.402-.195-.65-.244.04.663.223 1.186.406 1.708m1.058-1.384a66.565 66.565 0 0 0-1.954 11.478c-.193.43-.16 1.088-.407 1.467-.413 5.325-1.708 10.852-2.93 15.873.048.51-.062.86-.082 1.303-.708 2.788-1.726 5.35-1.873 8.303-.108.445-.602 1.333-.244 1.71.8.32.693-.774.814-1.384.265-.55.267-1.362.49-1.956.18-1.57.474-2.565.813-3.907.563-2.665 1.167-5.29 1.627-8.06 1.244-5.214 2.437-10.478 3.013-16.36.048-.36.688-.126.65-.57-.03-2.568.966-4.487.977-7.246-.285-.203-.02-.955-.57-.895h-.162c-.102.032-.165.105-.162.243m16.77-.244c-1.28 1.406-3.446 1.926-3.665 4.397.368.177.535.552.816.814 2.6.39 2.758-2.188 4.314-3.093-.396.05-.853.153-1.058-.163.115-.588.466-.943.568-1.547-.43.21-.593-.32-.975-.406m-9.118.326c.11.105.305.107.327-.082-.11-.105-.3-.107-.327.082m-21.653 1.058c.6.173.97-.687.652-.895-.05.466-.58.45-.652.895m11.153 4.966c.393-.067.576.076.814.162.357-1.752.76-4.47-.243-5.86-2.02.543-1.012 4.15-.57 5.698m9.036-4.886c-.583 2.4-.728 5.498-2.035 7.328.296.056.28.424.407.652.488-.38.784-.95 1.058-1.548-.273.003-.43-.112-.57-.244 1.796-1.27 2.764-3.37 3.663-5.535-.38-.036-.52.16-.813 0a1.01 1.01 0 0 1-.162-.732c-.706.19-.58-.45-.895-.65-.138.324-.39.533-.652.73m-17.34.573c-.55.166-.48-.62-.813-.408-.58 2.43-.602 6.084 1.547 6.92 1.51-1.503.7-5.517-.08-7.49-.32.226-.212.876-.654.98m22.958 1.055c.85.034 1.192-1.604.65-1.953-.385.48-.368 1.367-.65 1.953m12.944-1.79c-.117.05.008.098 0 0 .117-.05-.01-.1 0 0m-31.667 5.047c1.182-.493 1.478-4.01.244-4.966-.345 1.206-.236 3.274-.243 4.966m30.934-4.722c-.096.013-.23-.014-.243.083.096-.014.23.014.244-.083m-36.63 5.13c-.112-.898-.5-1.588-.49-2.607.008-.785.544-2.015.163-2.36-.285.205-.726.252-1.14.326-.32 1.848-1.14 5.605.895 6.35.105-.654.58-.94.57-1.71m34.028-2.36c.52-.73 1.097-1.4 1.547-2.198.086-.123.766-.362.406-.407-1.124.343-1.58 1.786-1.954 2.606M138.68 89.68h-.163c0 .108-.143.075-.163.164.574 2.343.236 4.755.813 6.92 1.034-1.786.887-5.805-.486-7.084m1.384 1.06c.024-.272.17-.578-.164-.652-.096.05.048.544.164.65m10.663-.407c-.838 1.478-2.015 4.767-.406 6.106.146-.32.497-.06.816-.083 1.115-1.407 1.667-3.38 1.71-5.86-.818-.24-1.157-.308-2.12-.164m-19.046.732c-.013.096.017.146.08.164-.02.185.02.306.165.326-.012-.153-.054-.272-.164-.326.015-.097-.017-.146-.08-.164-.05-.118-.1.008 0 0m22.466 3.99c.073.415.263.714.408 1.058.452.072.602-.156.978-.162 1.04-1.213 1.957-2.548 2.85-3.91-.345.037-.41.35-.897.246-.095-.16-.27-.456-.082-.652-.34-.02-.384.132-.65 0-.032-.212-.042-.447-.163-.57-.756 1.388-1.41 2.877-2.444 3.99m16.445-3.746c.39.725 1.38.846 2.118 1.222-.5-.566-1.365-1.18-2.117-1.222m-42.085.49c.642 1.445 1.126 3.05 1.953 4.313.308-.007.655.37.895.162-.14-.13-.176-.366-.163-.652.17-.046.232-.2.49-.162.31.095.176.636.486.733.557-1.944-.73-3.08-1.058-4.64-.946.232-1.89-.22-2.603.245m3.58.244c.07-.165-.07-.507-.162-.245.135 0 .046.225.163.244m25.56 4.396c.588-1.34 1.213-2.643 1.71-4.07-.008-.1-.024-.194-.16-.164-.606 1.267-1.314 2.866-1.55 4.234m14.166-3.257c-.423-.393-.95-.678-1.547-.896-.004-.05-.012-.097-.08-.082-.025.192-.285.15-.244.407 1.34.586 2.503 1.348 3.825 1.953-.256-.856-1.24-.985-1.953-1.384m-2.604 3.256c.424.96 1.203 1.563 1.547 2.604 1.384 4.072 2.916 7.99 4.313 12.048 1.21 4.164 2.98 8.198 3.745 12.536a40.697 40.697 0 0 1-2.117-6.513c-2.186-4.053-3.584-8.895-5.372-13.35-.188-.166-.534-.172-.57-.487-.8-2.16-1.293-4.623-2.28-6.595-.14 1.214.602 2.214.814 3.338.273 1.164.68 2.2 1.22 3.094.768 2.38 1.813 4.483 2.688 6.757.394 1.182.743 2.405 1.222 3.5.236.552.533 1.04.65 1.71.104.49.847 1.284.325 1.628-.68-.703-.853-1.915-1.3-2.848-.553-.833-.746-2.023-1.222-2.933-.684-2.11-1.583-4.007-2.28-6.105a5.875 5.875 0 0 1-.648-.897c-.767-3.006-2.04-5.504-2.85-8.465-.34-.313-.6-.703-1.06-.896.925 3.464 2.397 6.48 3.176 9.688-.302.058-.35-.14-.65-.082-.55-2.03-1.186-3.972-1.956-5.78-.342-.958-.69-1.914-1.058-2.85-.154-.495-.27-1.03-.57-1.383-.104-.372-.42-1.255-.732-.894.485 1.034.77 2.27 1.22 3.338.12 1.97 1.378 3.237 1.548 4.884-.733.127-.825-1.066-1.14-1.627-.387-.618-.557-1.454-.896-2.12-.246-.728-.466-1.484-.813-2.115-.293-.71-.404-1.604-1.06-1.953.237 1.99 1.403 3.754 2.038 5.616.303 1 .65 1.954 1.058 2.85.173.926 1.074 1.95.896 2.687-.725-.415-.864-1.415-1.384-2.035-.677-2.58-1.68-4.832-2.687-7.082.184-.54-.233-.883-.325-1.384-.354-.188-.644-.442-.977-.652-.038.933.854 1.37.65 2.198-1.003-.136-.658-1.62-1.465-1.954.593 1.66 1.37 3.84 2.037 5.698.288 1.015.717 1.888.975 2.93.282.37.4.904.57 1.385.106.4.66 1.127.163 1.384-.612-.58-.785-1.603-1.14-2.442-1.257-1.998-1.894-4.62-2.605-7.164-.335-.316-.288-1.015-.732-1.22-.564 1.38 1.212 3.248.978 4.558-.894-.76-1.027-2.283-1.547-3.42-.94.26-.166 1.31.083 1.79 1.08 2.34 1.76 5.08 2.85 7.41-.08.47.3.986-.163 1.14-1.603-2.766-2.084-6.653-3.826-9.28-.61 1.262 1.165 2.97.978 4.07-.926-.22-1.02-1.962-1.63-2.768-.427.856.3 1.402.652 1.95-.08.305-.173.215-.08.572.527 1.126.968 2.343 1.464 3.5.093.75.52 1.163.652 1.872.15.257.248.566.407.815-.034.312.518.75 0 .813-.412-.43-.515-1.167-.896-1.63-.322-.544-.374-1.358-.976-1.626 2.053 5.87 4.632 11.214 7.082 16.69-.16.37-.48-.17-.488.16-.105.356-.163.76-.163 1.222.904-.152 1.567-.55 2.28-.896-.133-.165-.372-.225-.408-.487-.182-1.34-1.118-1.922-1.22-3.34-.332-.51-.476-1.207-.734-1.79-.103-.574-.912-1.224-.488-1.792 1.52 2.134 2.236 4.602 3.095 7.327 1.45-.638 3.344-.834 4.72-1.547 1.528 4.59 3.057 9.57 4.722 13.758.002.217-.028.465.082.568-.776 2.154-.872 4.99-1.546 7.246-.074 1.12-.403 1.985-.326 3.255.203.18.237.523.488.653.55-2.517.875-5.258 1.302-7.897.08-.733-.143-1.77.57-1.872.336 3.77-1.312 6.958-1.464 10.747.26.39.357.945.73 1.22.02-1.907.52-3.33.733-5.047.17-.78.402-1.497.408-2.44.35-.63-.183-2.138.65-2.28 1.486 3.073 2.523 6.594 4.235 9.442v.488c3.483 6.5 6.035 13.935 9.115 20.84.058.302-.138.35-.08.65.813 1.818 1.216 4.05 2.035 5.863-.024-1.152-.067-1.84-.082-3.338-.085-.375-.226-.695-.325-1.058-.616-6.683-2.982-11.616-4.396-17.502-1.798-5.43-3.96-10.898-5.29-16.525-2.047-6.855-4.33-13.473-6.515-20.188-1.91-7.02-4.637-13.22-7.245-19.54-1.696-1.26-3.426-2.488-4.966-3.907-.54.158-.604-.585-.977-.326 1.49 1.31 2.976 2.618 4.56 3.83m-36.876-3.748c.026.495.16-.31 0 0m40.622 2.522v.083c.12 0 .333.303.407.08-.155-.034-.206-.173-.408-.163-1.075-.795-2.413-1.33-3.42-2.197-.084.215-.32.274-.406.49 1.47.374 2.407 1.28 3.826 1.707m-1.628.327c.05.118.1-.01 0 0-.98-.513-1.738-1.248-2.767-1.71-.06.214-.372.173-.41.407 1.042.162 2.08.936 3.177 1.302m-26.457 2.85c.723-1.61-.18-2.862-.813-3.99-.315 1.442-.124 3.31.813 3.99m-15.874-3.503c-.713-.247-1.19-.193-1.954 0 1.195 1.275 2.31 2.63 3.744 3.663.404-.002.877.065.977-.243-1.28-.78-2-2.124-2.767-3.42m25.4 1.955c-.1.236-.372.608-.164.894.3.12.664-.066.977.164.822-.914 1.957-1.95 2.117-3.255-.597 1.113-1.326 2.095-2.93 2.197m-13.516 17.91c.306-4.857.976-10.402.896-16.202-.498-.808-.226-2.718-.41-3.744-.15.067-.295.138-.486.164-.313 1.016-.205 2.455-.733 3.256.44.842.398 2.392.57 3.257-.182 5.424-.35 11.164-.57 16.606-.38.703-.24 1.93-.407 2.85.146.558.303 1.107.407 1.707.345-2.533.765-4.988.733-7.895m6.675-17.42c.635-.308.925.28 1.384.405.73-.56.597-1.733-.08-2.278-.176.883-1.13.984-1.304 1.872m25.886-1.793c.054.052-.034-.034 0 0m1.06.407c-.088-.06-.377-.318-.49-.082.088.058.375.318.49.082m-2.36.08c.052.054-.036-.033 0 0m.162.082c.052.053-.035-.035 0 0m-18.563.326c.227.13.225-.353.082-.326.018.154-.093.18-.083.326m-18.967 1.383c.237.02.25-.186.487-.164-.24-.493-.785-.68-1.3-.896.363.26.538.71.813 1.06m8.14 5.127c1.732-.956 1.624-4.358.325-5.698-.01 1.825-.39 3.82-.324 5.697m7.08-5.29c-.198 2.007.752 3.407.245 5.454 1.196-1.11 1.164-3.448 1.22-5.7-.444.252-1.062.377-1.465.246m-17.176 0c.024.494.16-.31 0 0m19.292.326c-.086 1.785-.423 3.755-.733 5.048.932-1.378 1.627-2.988 2.28-4.642-.394-.014-.41.35-.897.243-.124-.502 0-1.035-.65-.648m-23.12 1.545c.215-.245.394-.528.733-.65-.13-.44-.43-.712-.814-.895-.06.602.09.995.08 1.545m18.97 2.69c-.185.882.26 1.638.894 1.95 1.6-.867.815-3.944.49-5.617-.877-.053-1.004-.577-1.874-.487-.247 1.304-.032 3.124.49 4.153m-10.585 3.744c.023.348-.456.193-.407.57.14 4.898-.16 10.23-.244 15.303.378-.516.33-1.46.65-2.034-.15-4.086.574-7.296.65-11.154-.124-3.582-.038-7.485-.16-10.42-.105-.004-.114-.104-.246-.082.2 2.878-.234 4.828-.243 7.816m1.14-7.57c.283 6.713-.143 13.517-.49 20.513.424.15.66.484.816.896.782-.228.493-1.53.65-2.2-.055-.665.1-2.13-.08-2.93.477-4.086.46-8.8.65-13.107-.273-1.11-.105-2.66-.813-3.337-.278.02-.39.207-.733.163m16.607.893c-.22 0-.177-.257-.407-.243-.805.47-1.287 1.264-1.547 2.28.15 1.4-.96 2.237-1.302 3.417.117.345.34.583.244 1.14.964.07.836-.955 1.303-1.383.28-.615.593-1.196.73-1.954-.108-.16-.566.026-.568-.243 1.324-.767 2.633-1.546 3.826-2.44-.425-1.09-1.413-1.508-2.28-.574m-19.292-.487c-.172-.094-.725-.004-.977.08.18 2.914-.017 5.73.08 8.305.492-.025.668-.364 1.06-.487.012-3.013-.002-5.073-.162-7.897m-3.174.895c.515 2.582.577 6.04.895 8.548.655-.123.212-.578.164-1.058-.036-2.046-.073-3.642-.244-5.535-.094-.205-.325-.272-.326-.57.173-.51.114-1.42-.08-1.873-.09.21-.207.392-.408.49m42.332 6.43c.274.27.192.893.568 1.06.255-2.343 1.333-5.35.57-7.654-.294 2.284-.478 4.677-1.138 6.593m-44.448-3.987c.17-.62-.142-1.476-.163-2.36-.998.173-.194 2 .163 2.36m42.575-1.953c.037-.256-.205-.23-.326-.324.027.186.052.38.325.324m-41.598.325c.274 2.957.188 6.007.487 9.2.545-.353.992-.8 1.385-1.304-.217 0-.48.048-.49-.162-.448-2.565-.232-5.597-.896-8.14-.2-.124-.63-.02-.813-.165-.02.323.348.25.327.572m42.656.244c.003.08.1.062.163.08.003.08.1.063.163.083.05.117.097-.01 0 0-.005-.08-.102-.063-.164-.082-.003-.08-.1-.063-.163-.08v-.083c-.255-.046-.565-.46-.813-.244.256.125.517.244.813.326m-19.618 3.174c-.117.05.007.098 0 0 .805-.443 1.218-1.277 1.87-1.873.29-.042.202.29.49.247.023-.494.313-1.15.244-1.466-.995.59-2.575 1.274-2.605 3.094m-11.234 4.314c.34-1.696.678-3.393.814-5.29-.017-.064-.068-.095-.163-.082-.93 1.207-1.658 3.84-.65 5.372m13.27-4.965c-1.374 1.042-2.674 2.157-3.826 3.42.363.07.877-.01.896.406-.42.664-1.072 1.098-1.384 1.87 1.073-.31 1.965-.802 2.28-1.87 1.077-.66 1.526-1.946 2.685-2.524-.274-.377-.54-.762-.65-1.303m-5.863 1.058c-.36.536-.47 1.32-.567 2.118.727-.604 1.464-1.63 1.465-2.687-.247.244-.32.66-.898.57m-3.498.327c.902.628.302 2.194 0 3.01.578-.042.232-1.012.812-1.057.15.012.27.054.326.164-.086.587-.336 1.992.243 2.522-.416-1.81.063-3.016.245-4.803a2.376 2.376 0 0 1-1.14-.65c-.126.306-.317.552-.486.814m1.79 3.58c.688-1.02.73-2.686 1.14-3.987-.32.19-.304-.1-.652-.082-.148 1.335-.636 2.955-.488 4.07m9.117-1.952c-.138-.676.384-1.05.244-1.63-.68.014-.733 1.385-.243 1.63m.65 1.628c.17-.658.74-1.75.082-2.28-.128.7-.72 1.77-.083 2.28m-9.85 2.93c.137.163.22.38.49.407 1.464-.867 2.232-2.433 3.093-3.906-.694-.066-.606-.915-1.303-.977-1.056 1.196-1.86 2.645-2.28 4.478m10.664-1.06c.157-.73.584-1.813 0-2.36-.054.87-.763 1.812 0 2.36m-14.245.244h-.082c-.212.98-.5 1.89-.732 2.85-.102 1.308-.483 2.338-.652 3.582-.1 1.098-.776 2.475-.487 3.418.98-1.87 1.142-4.558 1.955-6.595.38-.027.598-.214.813-.406.185.195.304.456.57.57.65-.628.958-1.595 1.63-2.2-.858.026-.296-2.025-.653-2.767-.188-.18-.27.208-.65.08-.365-.34-.66-.75-1.384-.73-.06.78-.26 1.418-.325 2.196m-10.256-1.954c-2.978 1.692-4.225 5.11-7.003 7-1.104 1.284-2.206 2.57-2.93 4.233v1.63c.7.046 1.16-.143 1.71-.245 5.54.59 6.492-4.007 7.977-7.734.132-1.687.288-3.348.57-4.884-.018-.063-.002-.16-.08-.162a.56.56 0 0 0-.245.162m13.755.325c.025.497.16-.31 0 0m4.967.572c.33-.078.554-.26.977-.244-.037-.154.108-.49-.163-.407-.21.28-.627.352-.815.652m-18.235 2.85c.085 4.57-.957 7.994-3.5 10.257-.955.677-2.962.78-4.233.65-1.222.248-2.433.532-3.744.488 1.977-1.948 7.395.042 8.058-2.85-.505.714-1.43 1.012-2.28 1.384-1.996.063-3.608.36-5.534.813-.343.006-.8-.255-1.303-.326 2.377 4.223 4.896 8.72 5.7 14.246.907.423 2.03.63 2.688 1.302 3.828.27 6.965-1.378 11.15-.733 2.078-.598.806-3.698.898-5.78-.217-.173-.686.342-.814-.16.44-.942 1.486-1.28 1.545-2.605-.82.106-1.967.58-3.01.733-.434-.03-.592-.334-.98-.41-3.63-.066-6.512 1.73-7.49 4.315 1.982-1.384 4.254-2.475 7.57-2.523.57-.027 1.716-.503 2.038 0-.7.686-2.322.447-3.583.57-1.257.315-2.484.664-3.418 1.303.732-.08 1.058.245 1.79.162 1.155.426 3.158.73 4.56.327.61-.178.824-.663 1.3-.814.556 1.184-1.258 1.32-2.196 1.546-1.376-.008-2.765-.004-3.664-.488-.604.034-1.007-.134-1.546-.164-.858.28-1.532.747-2.36 1.058-.585.42-.96 1.048-1.71 1.304-.035-3.625 2.44-5.852 2.523-9.36 1.598-4.81 2.43-11.76 1.874-17.423-.194 1.198-.025 2.052-.327 3.174m-6.35-1.79c-.016-.338.198-.742.082-1.06-.08.264-.477.838-.083 1.06m31.177 1.547c.236-.84.782-1.765 0-2.36-.246.725-.847 1.887 0 2.36m-32.154 2.442c.147-1.617.25-3.425-.895-4.07-1.863.2-2.988 1.136-4.316 1.872-2.465.818-5.207 1.36-6.105 3.744.118.75.548 1.188 1.14 1.466.407-1.683 1.53-2.65 2.687-3.582 1.954-.434 3.186-2.023 4.802-2.524-1.173 1.296-2.636 2.302-4.476 2.933-1.053.952-2.28 1.734-2.28 3.74 1.173 1.055 2.756 1.696 3.825 2.85.664.124 1.1.822 1.955.49-.217-3.12 2.137-5.008 3.662-6.92m32.97-.41c.092-.928.702-1.91 0-2.522-.288.747-.624 1.954 0 2.523m-9.037-1.79c-.012.203.128.253.163.407-.764 1.27-1.605 2.464-2.768 3.338 2.106-.662 3.337-2.198 4.64-3.663-.15-.207-.307-.453-.163-.733-.646.195-1.333.35-1.872.65m-4.558 3.827c1.93-.46 3.096-1.68 3.825-3.34-2.147-.08-2.88 1.95-3.825 3.34m14.49-.245c.112-.565.073-1.284.406-1.628-.29-.223-.245-.783-.57-.977-.155.77-.713 2.19.165 2.605m-15.548-1.14c-1.148 2.055-1.79 4.616-2.932 6.678-.117 1.4-.623 2.415-.813 3.744.02 1.354-.792 2.73-.57 3.744.732-.057.568-1.008.814-1.547.195-.593.378-1.194.57-1.79.22-1.354.828-2.32 1.06-3.663.83-2.478 2.007-4.61 2.685-7.245-.005-.05-.01-.097-.08-.08-.13.168-.57.027-.733.16m16.524 3.664c.274-1.197.582-2.206-.242-3.012-.26 1.135-.456 2.25.243 3.012m-5.534-2.524c.227.132.225-.35.08-.326-.025.112-.114.156-.08.326m2.687-.08c.054.053-.034-.035 0 0m-.897.325c.05.12.1-.008 0 0 .017-.066.082-.082.082-.163-.15.076-.27-.244-.325 0 .108.03.127.144.243.163m.165.163c.274.213.394.584.814.652.02-.38-.628-.412-.407-.733-.19-.026-.35-.176-.406.08m-2.117.976c.022-.05.203-.313 0-.324-.022.05-.202.312 0 .324m1.71-.162c-.14.077-.18.256-.244.407 1.146.59 2.065 1.84 3.174 2.198-.772-1.073-1.647-2.043-2.93-2.604m-1.874.487c-.18.777.1-.42 0 0m6.838 2.69c.055-.57.162-1.09.407-1.467-.245-.35-.32-.875-.65-1.14-.21.933-.574 2.09.243 2.606m-6.92-2.2c.095.323.095-.32 0 0m-11.233 2.2c-.35 1.357-.903 2.514-1.22 3.906.174.15.596.055.895.08 1.533-.936 2.63-2.742 3.256-4.313-.678.652-1.157 1.935-2.278 1.873.03-.566.55-.644.813-.978.61-.885 1.29-1.696 1.955-2.523-.01-.1-.024-.193-.163-.163-1.09.7-2.28 1.304-3.257 2.117m18.4 4.556c.047.12.096-.006 0 0a4.07 4.07 0 0 0-1.142-1.87c.417-.927-.753-1.475-.732-2.524-.314-.09-.29.287-.49.08a24.776 24.776 0 0 0-3.173-1.953c.002 1.354 1.385 1.326 2.034 2.034.614.72 1.793.87 2.12 1.873-1.7-.527-2.72-1.733-4.478-2.198.047.725-.23 1.13-.246 1.79.26.28.607.478.814.813.927.483 1.732 1.09 2.523 1.71.688.59 2.02.96 2.2 1.79-2.017-.916-3.497-2.366-5.7-3.093-.134.63.682.92 1.06 1.303.453.387.918.763 1.465 1.058.87.68 2.447 1.077 2.766 2.037-1.116-.375-1.916-1.07-2.93-1.548-.42-.312-.84-.627-1.302-.897-.435-.095-1.038-.843-1.303-.568-.386.38.563.7.812.976.4.305.852.56 1.14.978.95.49 1.928.95 2.768 1.547-.172.255-.028.35-.162.57-1.74-.76-3.136-2.29-4.803-2.85.354 1.17 1.82 1.404 2.604 2.2 1.05.52 1.83 1.313 2.85 1.87-.016.287.274.27.323.488.605.284 1.526.62 1.467 1.303-2.51-1.452-4.805-3.117-7.326-4.558-.486.927.735 1.244 1.302 1.628.598.46 1.22.897 1.954 1.22.59.47 1.29.826 2.034 1.14.364.478 1.907.708 1.223 1.467-2.152-1.404-4.364-2.745-6.84-3.826-.098 1.293 1.275 1.112 1.792 1.79.803.392 1.573.814 2.278 1.304 1.544.817 3.046 1.675 4.56 2.524-.233.664.648.563.325 1.058-2.91-1.84-6.148-3.35-9.118-5.128.02.26-.144.345-.082.65.208.188.398.084.57.163 1.42 1.563 3.69 2.28 5.29 3.664-2.387-.46-3.654-2.043-6.02-2.523.01.2.01.393-.082.487 1.987 1.35 4.474 2.202 6.187 3.827-2.28-.866-4.185-2.11-6.432-3.012.43 1.146 1.72 1.43 2.77 1.955.857.688 2.046 1.045 2.85 1.79.39.116 1.047.337.976.65-1.397-.446-2.125-1.564-3.824-1.708-.898-.567-1.68-1.252-2.85-1.547-.128.17-.058.54-.163.732 2.96 1.734 6.172 3.217 9.2 4.885.185-1.145.41-2.247.73-3.258-.863-.6-2.058-.87-2.604-1.79 1.065-.345 1.696 1.037 2.768 1.222.158-1.2.568-2.146.65-3.42-.363-.506-1.24-.498-1.384-1.22.598-.178.923.51 1.547.567.07-.354.02-.36.082-.65-.295-.095-.456-.446-.814-.244-.933-1.128-2.63-1.495-3.5-2.687 1.584.402 2.934 1.73 4.478 2.44.326-.806-.656-.808-.978-1.22-.3-.487-.896-.677-1.22-1.14-.23-.094-.538-.113-.652-.325.66-.733 1.507.653 2.036.57-.515-1.032-1.676-1.418-2.28-2.36.456-.32.886.45 1.22.244-.192-.322-.24-.79-.405-1.14-1.047-.853-2.33-1.47-3.5-2.2-.578-.37-1.09-.807-1.71-1.138-.296-.554-1.463-.643-1.222-1.464 1.968 1.155 3.777 2.464 5.7 3.664m-47.544-4.72c3.177 2.55 6.38 5.073 8.468 8.71-1.712-3.74-3.518-7.392-7.327-9.036-.525-.53-1.305-.81-2.033-1.14.18.607.645.93.894 1.466m40.216-.814c.054.053-.034-.035 0 0m-.162 1.952c.214-.412.337-1.193.08-1.626.042.557-.318 1.144-.08 1.626m7.896.41c.39-.103-.045-1.022.57-.896-.044-.365-.135-.682-.407-.815-.11.673-.1 1.115-.163 1.71m-48.192-.734c-.043.314.146.397.08.732.96 2.218 1.82 4.53 3.014 6.512.642.497 1 1.283 1.627 1.79.21.358.484.656.814.898.187.188.645.896.812.568-.255-1.67-1.363-2.92-1.708-4.232 1.117.348 1.166 1.764 1.79 2.604.516.95.678 2.254 1.06 3.337.57 2.36 1.33 4.528 2.85 5.943.18-.335.373-.66.488-1.06-.035-.724-.19-1.675-.082-2.28-1.07-3.485-2.52-6.597-4.397-9.28a82.656 82.656 0 0 0-6.268-5.696c-.018-.065-.07-.096-.164-.082.014.096-.014.232.082.244m21.736 5.78c1.112-.91 1.3-3.533.813-5.29-.674.26-.84-.24-1.06-.652-.74 1.79-.9 4.463.247 5.94m18.398-4.23c-.07-.262.07-.31.162-.41-.3.018.27-.708-.162-.73.045.372-.242.838 0 1.14m12.372 9.36c.222.322.343.743.65.976.275-.92.528-1.86.98-2.604.286-2.71 1.47-5.632 1.465-8.63-1.24 3.215-2.05 6.853-3.096 10.258m-.732-2.442c-.025.84.182 1.446.57 1.872.56-2.873 1.88-6.152 1.627-9.035-.965 2.155-1.404 4.836-2.198 7.163m-31.585-6.757c.093.32.093-.323 0 0m19.78.162c-.013.628.194-.26 0 0m11.317 6.188c.604-1.948 1.264-3.837 1.464-6.188-.095-.01-.185-.146-.244 0-.248 1.797-1.334 4.296-1.22 6.188m-.57-1.466c.486-1.358.925-2.765 1.14-4.397h-.245c-.338 1.325-1.193 2.98-.897 4.397m5.536-4.233c.093.322.093-.322 0 0m-16.364.245c-.22.622-.228 1.082-.243 1.79-.572 2.745-1.008 5.205-1.384 8.387-.118.153-.19.353-.245.57-.25 2.016-.37 4.042-.732 6.022a33.725 33.725 0 0 1-.49 3.095 8.995 8.995 0 0 1-.243 1.545c.05.606-.427 1.188.326 1.22 1.79-7.612 2.294-15.872 3.257-22.792a.402.402 0 0 1-.246-.082v.245zm14.165 8.873c-.114.29-.61.203-.648.57.09.89.627 1.955 1.22 2.605.56-4.148 1.782-7.2 2.034-11.56-.156-.113-.12-.422-.243-.57h-.244c-.45 3.202-1.735 5.956-2.12 8.955m-3.5-8.06h-.08c.025.355-.31.774-.08 1.06-.03-.437.24-.573.16-1.06.25-.262-.098-.61 0 0m-30.363 1.142c.296-.416.084-.908 0-1.467-.122.314-.146 1.154 0 1.467m29.304-.734c.097.322.097-.322 0 0m7.656 1.06c-.43 1.983-.87 3.96-1.222 6.022-.417.56-.384 1.57-.732 2.198.038 1.055-.582 2.44.16 3.012.677-3.64 1.977-6.655 2.2-10.745-.148-.23-.11-.65-.406-.733v.245zm-34.518 2.766c.46-.524.396-1.713.407-2.522-.51.62-1.073 1.827-.407 2.522m-4.72 1.547c1.35.17.765-2.983.732-3.908-.23 1.318-.742 2.35-.733 3.907m9.525-2.69c.096-.227.522-.903.163-1.057-.073.284-.402.737-.163 1.058m-6.514-.16c.136-.146.118-.597-.162-.57.015.23-.07.558.162.57m-.16.894c-.25.18.092.523 0 0 .247-.346-.102-.695 0 0m36.306 4.315c.15-.34.142-.835.406-1.06-.22 1.626-.645 3.045-1.058 4.48-.257.092-.197-.13-.326-.165-.095.747-.365 1.318-.487 2.035.47.616.632 1.538 1.14 2.117.393-4.054 1.5-6.948 1.626-11.315-.12-.232-.11-.595-.326-.73-.35 1.467-.863 3.204-.976 4.637m-40.134-.977c.036-.235.35-.193.407-.408-.165-.05-.053-.38-.244-.407-.02.256-.34.634-.163.815m40.216 9.525c.213.246.333.587.57.813.925-3.64 1.452-6.33 1.79-10.337-.158-.252-.154-.66-.407-.815-.778 3.32-1.268 6.928-1.954 10.34m-.247-8.304c.054.054-.034-.035 0 0m-.08.57c-.023-.144.228-.406 0-.49.02.144-.23.408 0 .49m1.383 9.687c.175.366.327.758.57 1.06.264-3.704 1.533-7.25 1.383-10.827-.018-.063-.067-.095-.163-.082-.51 3.52-1.403 6.347-1.79 9.85m-1.71-8.79c-.247.094.09.43 0 0 .243-.018-.077-.34 0 0m-16.85 1.952c-.145.155-.06.538-.082.815 2.95 1.607 6.334 2.784 8.874 4.802.146-.234.156-.605.244-.896-3.19-1.396-5.683-3.49-9.035-4.722m-27.027 4.64c.528.078 1.228.342 1.383-.244-.83-.662-1.888-1.804-2.525-2.93-.028 1.467.54 2.338 1.14 3.174m2.035-1.057c-.13-.465-.235-.958-.488-1.302-.615-.12-.897-.57-1.63-.57.58.75.828 1.833 2.118 1.872m6.514-1.302c1.247.15 2.05.3 3.257.406.556-.288 1.784.1 1.872-.652-1.49-.137-3.778-.443-5.128.245m18.152.406c2.094.917 4.256 1.766 6.104 2.93 0 .107-.14.074-.16.162.503.257 1.136.383 1.383.896-1.368-.128-2.468-1.22-3.745-1.71-1.325-.547-2.513-1.232-3.826-1.79-.022.275-.13.467-.08.813 2.068 1.485 4.838 2.272 6.837 3.825-2.553-.84-4.56-2.225-7.003-3.174-.083.216-.096.5-.08.816 1.917 1.393 4.806 1.815 6.43 3.498-1.21.015-2.145-.943-3.174-1.383-1.124-.45-2.246-.9-3.42-1.3-.144.233-.155.603-.243.894 2.613 1.565 5.66 2.698 8.548 3.99.388-1.17-1.263-.948-1.467-1.79.584-.11 1.217.403 1.71.65.135-.385.29-.745.328-1.222-.237-.348-1.1-.455-.978-.896.42-.18.7.422 1.14.49.338-.694.413-1.65.813-2.28-2.713-1.736-6.044-2.855-9.035-4.314.04.367-.04.61-.082.897m-19.618.244c.91.365 1.83.718 2.85.977.883.016 1.57-.168 2.278-.325.516.17.625-.076.815-.407-2.03.564-4.226-.76-5.942-.244m-7.165 2.198c-.904-.26-.888-1.444-1.546-1.954-.82 1.332.078 2.93 1.546 1.954m11.968 2.766c.097-.65.29-1.382-.08-1.872-3.875.777-5.966-1.99-8.63-2.686 2.287 2.073 4.267 5.17 8.71 4.558m.325-3.58c-2.255.803-4.073-.548-5.778-.733 1.51.787 4.034 1.828 5.778.733m37.204 4.882c-.68.843-.626 2.417-.734 3.828.255.18.266.602.57.73.55-2.877 1.063-6.438 1.464-9.28-.24-.192-.13-.735-.487-.813-.253 1.865-.88 3.353-.814 5.535m-42.413-4.558c.053.054-.035-.033 0 0m-7.164 3.827c1.594-.313 3.35-1.15 3.907-2.77a2.656 2.656 0 0 0-1.058-1.058c-.624 1.602-1.99 2.46-2.85 3.827m10.095-3.012c-.12.043-.42-.096-.407.08.118-.045.42.096.407-.08m.327 0c-.063.017-.16 0-.164.08.063-.017.16-.002.164-.08m.406.08c-.05-.022-.313-.2-.326 0 .05.023.314.202.326 0m.57-.08c-.097.01-.232-.015-.245.08.097-.013.23.015.245-.08m21.247.243c.052.054-.034-.033 0 0m-39.075.57c-1.347.01-2.174.54-3.094.98-2.75 3.38-3.938 8.325-7.408 10.987 1.382-.163 2.69-.4 3.827-.813v-.733c.274-.348.44-.807.568-1.302 2.15-3.602 5.354-6.15 10.5-6.756.282-.18.672-.253.98-.407.483-.845 1.676-1.415 1.87-2.28-2.055 1.144-4.74.538-7.243.326m56.334 8.71c.233.525.354 1.166.813 1.466.282-1.372.184-3.124.65-4.315-.368-1.595.42-3.426.325-5.29-.12-.23-.167-.538-.325-.73-.883 2.874-.786 5.762-1.464 8.87m-51.857 4.235c.068.016.076-.032.08-.08.118-.052-.01-.1 0 0-.07-.017-.077.03-.08.08-1.73 1.564-2.412 4.57-2.85 7.163-.464-.133-.355-.84-.49-1.303.637-3.977 2.9-6.327 4.722-9.116-2.21 1.533-3.734 3.754-5.047 6.185-.1.632-.306 1.593-.733 1.63.73-4.944 4.392-6.952 6.676-10.34-1.424.936-2.73 1.992-4.07 3.012-1.43 1.395-2.478 3.167-3.583 4.884 1.16-5.57 7.064-6.827 9.28-11.07-.212.276-.46.518-.65.814a35.724 35.724 0 0 1-3.583 2.2c-.718.8-1.668 1.37-2.442 2.114-.825.588-1.41 1.85-2.28 2.116.926-2.138 2.9-3.232 4.478-4.72 1.323-.848 2.9-1.442 3.827-2.688v-.163c.118-.05-.01-.1 0 0-2.46 1.232-4.482 2.9-6.838 4.234-.8.828-1.463 1.793-2.443 2.442 1.746-3.63 5.81-4.94 8.792-7.33-1.766-.112-3.052.76-4.395.572-1.185.388-2.215.932-3.42 1.302-1.762 1.71-4.192 2.754-4.72 5.698 2.645 3.162 3.746 7.867 4.232 13.188.73 2.553 1.464 5.104 2.687 7.164.138.187.45.2.57.404.39.914.913 1.693 1.79 2.117 1.532-2.508 3.326-4.685 5.048-7 1.66-2.235 3.193-4.922 3.5-8.465.204-.555.21-1.31.325-1.955v-2.767a38.184 38.184 0 0 1-.325-2.36c.068-.42.105-.872.08-1.386-.454-2.34-.97-4.62-1.628-6.756.07-.806.48-2.118.244-2.688-.54.49-.41 1.654-.65 2.443-1.11 3.015-3.422 4.828-3.582 8.792.292.82.343 1.882.57 2.77.354-.163.75-.284 1.303-.245.486.11.78.41 1.22.57.413.51.812 1.03 1.14 1.627.247.838.276 1.896.244 3.013-.308 1.918-.803 3.647-1.547 5.128-.797 1.293-1.427 3.187-2.524 3.907.146-1.266 1.114-2.41 1.71-3.5a37.277 37.277 0 0 0 1.463-3.826c.208-1.187.38-1.908.326-3.338-.132-1.197-.66-2.002-1.385-2.605-.307.063-.39-.1-.65-.08-.51.61-.088 1.914-.083 2.768-.184 3.832-2.873 5.16-2.93 9.12-.273.402-.02 1.335-.487 1.544.096-.53-.165-.704-.164-1.14.075-3.94 2.424-5.606 2.442-9.605-.564-2.04-.747-4.462-1.384-6.432a25.926 25.926 0 0 0-2.28 6.024c-.36 2.014.015 4.763-.08 6.43-1.115-3.01-.492-7.535.57-10.497m27.76-11.317c-.053.3-.157.55-.16.896 1.3.705 2.597 1.416 4.07 1.954.673.33 1.36.643 2.033.976.624.41 1.66.404 1.79 1.304-2.757-1.097-5.15-2.555-7.976-3.582-.022.275-.13.467-.082.813.844.648 1.854 1.13 2.768 1.708.87.136 1.39.62 2.198.814.572.46 1.536.525 1.873 1.22-2.006-.355-3.656-1.768-5.778-2.278-.172-.28-1.005-.71-1.304-.325.403.956 2.22 1.195 3.175 1.872 1.167.57 2.463 1.01 3.176 2.034-2.36-.733-4.232-1.956-6.597-2.687.238.982 1.424 1.018 1.955 1.71.722.226 1.342.556 1.953.895.61.278 1.75.394 1.63 1.138-1.44-.188-2.586-.67-3.5-1.383-.827-.05-1.576-1.02-2.198-.733-.153.67 1.02.716 1.302 1.222.648.273 1.24.605 1.79.976 1.327.492 2.472 1.166 3.42 2.035-2.266-.853-4.282-1.957-6.757-2.603.047.264-.056.378-.08.57 1.772 1.32 3.992 2.192 6.267 3.012.283.448.983.483 1.058 1.14-1.29-.5-2.532-1.05-3.744-1.63-.647-.246-1.344-.445-1.953-.732-.68-.036-1.475-.792-1.954-.487-.04.57 1.127.603 1.468 1.06.622.297 1.25.593 1.87.895 1.256.563 2.656.98 3.583 1.87-2.557-.67-4.5-1.956-7.08-2.603.94 1.146 2.67 1.507 3.825 2.44.726.17 1.292.498 1.953.733.006.43.613.256.49.814-1.1-.42-1.98-1.062-3.177-1.386-.465-.292-1.145-.372-1.627-.65-.53-.054-1.305-.687-1.627-.407-.095.673 1.124.713 1.464 1.222.688.26 1.19.71 1.873.976 1.085.732 2.97 1.1 3.744 1.873-.35.046-.68-.347-.896-.164.138.166.73.296.57.49-2.354-.605-4.385-2.236-7-2.852.19.812 1.09.916 1.71 1.302.564.44 1.15.858 1.872 1.14 1.2.81 2.662 1.354 3.744 2.28-.708-.24-1.466-.434-1.953-.896-.02.144-.14.186-.326.164-1.512-1.04-3.263-1.84-5.21-2.444-.268.916.833 1.03 1.385 1.385.55.453 1.147.86 1.872 1.14.67.308 1.333.62 2.035.896.56.442 1.542.467 1.708 1.304-2.33-1.007-4.776-2.332-7.082-3.094-.088.793.73.68.977 1.14.49.216.965.446 1.304.813 1.06.352 1.926.896 2.93 1.304.196.39.977.575.896.977-1.914-.748-4.064-1.96-6.27-2.687.756 1.607 3.49 1.665 4.152 3.093-1.317-.257-2.65-1.294-4.152-1.465-.007.93 1.084.762 1.466 1.303.686.235 1.172.672 1.872.896.52.59 1.348.876 2.115 1.222.136.407.71.376.733.896-2.262-.616-3.884-1.87-6.188-2.442.036.28-.032.456-.08.65 1.634 1.27 4.286 1.52 5.697 3.013-2.088-.173-3.784-1.348-5.78-1.873.32.848 1.496.837 2.115 1.384.788.406 1.587.803 2.525 1.06.272.512.91.66 1.384.976 1.96-7.51 3.644-15.297 5.128-23.282-2.422-1.814-5.347-3.122-8.383-4.32m-18.482 6.026c.122-1.865.218-4.03.245-5.535-.17-.05-.232-.204-.49-.165-.456 1.965-.267 3.943.245 5.7m44.368-.245c-.077.604-.412.996-.49 1.302-.205.823-.02 1.664-.16 2.522.28.533.46 1.166.813 1.63.218-1.185.48-2.91.08-3.99.296-1.928.574-3.875.896-5.778-.168-.35-.385-.647-.57-.977-.313 1.594-.374 3.75-.57 5.29m-43.065-4.48c-.103 1.797.055 3.628-.323 5.13.234 3.615-.43 8.126-.246 11.642.346 3.917.17 7.75.408 11.885.162.383.19.894.326 1.303.065 1.482.377 2.717.65 3.988.077.71.334 1.24.41 1.953.194.514.042 1.708.65 1.548.293-1.586-.234-4.035-.65-5.29-.415-6.563-1.55-12.654-1.14-19.863-.23-4.26.686-8.473.894-12.294-.234-.022-.956-.533-.977 0m1.548.328c-1.098 8.072-1.564 17.058-.407 24.908.528 1.282.266 3.28.408 4.56.06.206.464-.197.49.163-.102.438-.045.675 0 1.14.103.328-.243 1.108.243 1.057.46-.307-.22-.488-.08-.976.123-2.18.05-3.827-.246-5.943.31-3.174-.46-6.327-.08-9.36-.65-5.463.43-10.497.487-15.794-.27.08-.91-.206-.812.245m12.538 10.582c.242-3.447 1.446-6.366 1.545-9.688-.23.067-.21-.115-.404-.083-.462 3.353-1.11 6.6-1.14 9.77M185 157.244c-.396-1.506.595-4.81-.406-6.02-.263 1.634-.347 2.843-.65 4.15.086-.434-.247-.098 0 0-.17.536.114 1.525-.41 1.708.033-1.942.573-5.06.41-7.408-.168-.187-.202-.505-.41-.65-.145 1.994-.69 2.867-.65 4.558-.31.147-.252 1.02-.65.815.323-2.2.476-4.57.65-6.92-.19-.486-.357-.998-.65-1.384-.288 3.475-.926 6.107-1.14 9.36 2.046 4.82 4.168 9.564 6.188 14.41 1.197 2.222 2.26 4.577 3.337 6.92.492 1.215 1.062 2.356 1.546 3.58.596 1.113.613 2.808 2.115 3.012.262-.092.23-.477.41-.65-.337-7.968-2.564-14.042-5.13-19.78.02 1.05-.02 2.043-.407 2.687.137-1.604.562-3.812-.487-4.886-.32 1.012-.134 2.525-.733 3.257.14-1.872.798-4.562-.326-5.86-.156 1.553-.232 3.186-.813 4.313.197-1.826.158-3.576.57-5.29-.283-.344-.328-.92-.652-1.222-.308 1.266-.364 2.782-.57 4.15-.073.604.124 1.48-.325 1.71-.253-2.78 1.372-6.748-.324-8.79-.095 1.44-.325 3.132-.493 4.23m-6.187-5.37c.054.05-.035-.035 0 0m.246.486c-.016.095.016.145.078.163.07.393.167.757.408.977.014-.475-.22-.7-.408-.977.014-.094-.018-.145-.08-.163.088-.43-.248-.096 0 0m1.628 3.827c.226-.805-.567-1.27-.65-2.035-.097.013-.232-.015-.245.082.574.375.4 1.498.896 1.953m-50.228.977c.013-.24.218-.505.08-.652h-.325c.01.29.038.56.245.652m6.025.487c.094.324.094-.32 0 0m-.082.572c-.012.63.192-.263 0 0m22.55 1.71c-.388-.227-.197.266 0 0m-23.037 7.245c.05 2.78.458 5.726.244 8.384-.004 1.307.007 2.8-.082 3.99.125.636.092 1.428.163 2.118.174.374-.29 1.64.49 1.628.553-3.343-.136-7.022.162-10.746-.39-3.34-.417-7.52-.57-11.397-.295 1.945-.192 4.19-.407 6.024m-.408-2.77c.003.193-.14.24-.08.49.26.115.205-.487.08-.49.093-.102.164-.64 0-.73.108.303-.243.56 0 .73m16.607 5.05c1.674 1.147 3.732 1.91 5.535 2.93-.063-.42.444-.692.244-.978-1.8-.534-3.608-1.764-5.697-2.28-.025.11-.115.156-.08.326m-22.143 2.523c-.34 2.348-.73 5.297-.407 7.407.886-.417.492-2.112.65-3.257.105-.438.07-1.015.163-1.465.157-.846-.35-2.36.326-2.687.53.58-.036 1.825 0 2.687.09 2.524-.526 4.924-.244 7.57 1.715-3.27 1.382-9.034 1.708-13.024-.688.966-1.404 1.907-2.196 2.77m22.305-.65c1.835.687 3.375 1.67 4.884 2.684.118-.342.275-.646.325-1.058-1.342-1.06-3.403-1.286-5.21-2.034v.407m.163 1.3c1.173 1.136 3.014 1.6 4.315 2.606-.56.23-1.463-.452-2.198-.57-.73-.276-1.403-.604-2.198-.813.137.893 1.215.847 1.71 1.384.614.416 1.5.562 1.953 1.14-1.15.362-2.217-.695-3.42-.815.75.934 2.068 1.298 2.688 2.362-.9.233-1.98-.888-2.606-.652-.14.356.616.448.814.733.31.26.623.516 1.06.65-.03.49.613.31.568.815-.615.163-1.718-.708-2.198-.408.616.77 1.653 1.113 2.44 1.71.682-1.925 1.082-4.13 1.63-6.187-1.43-.74-2.62-1.722-4.558-1.954-.017-.243-.338.08 0 0m-24.502 2.117c.05.274.396.256.324.65-.038 2.282-.795 4.353-.488 6.27.508-.17.375-.98.488-1.547.198-.48.21-1.148.246-1.79.15-.175.11-.542.324-.652-.163-1.294.406-2.672.164-4.15-.258.502-.73.787-1.058 1.22m-1.547 5.127c.266.004.404.14.73.082.113-1.49.837-3.193.407-4.477-.784 1.013-1.214 2.795-1.138 4.395m26.7.896c.838.303 1.434.847 1.953 1.468.2-.232.152-.716.245-1.06-.808-.197-1.485-.523-2.2-.813v.406zm.243 1.467c.7.168.723 1.014 1.547 1.06.09-.154.104-.388.163-.57-.518-.12-1.31-.796-1.71-.49m1.304 2.198c-.06-.25.083-.296.08-.487-.47-.075-.788-.3-1.22-.408.265.41.762.595 1.14.895m-.978.813c.254.1.563.142.732.326.134-.108.026-.462.162-.57-.447.067-.49-.27-.896-.245v.488zm.65 1.547c.2-.32-.09-.747-.406-.813.04.367.053.758.406.813"/><g><defs><path id="c" d="M82.113 9.168H215.44V193.84H82.112z"/></defs><clipPath id="d"><use xlink:href="#c" overflow="visible"/></clipPath><path clip-path="url(#d)" fill-rule="evenodd" clip-rule="evenodd" fill="#456A5C" d="M149.345 24.31c.093-.322.093.32 0 0M189.233 60.046c-.107-.343.378-.055.08 0h-.08zM179.546 78.12c-.134 2.227-.364 5.06-1.06 7-.708-.39.046-1.678.083-2.525.16-1.076.23-1.746.323-2.848.057-.458.323-.962.163-1.384.03-.107.145-.128.163-.244h.326zM178 86.178c.26.01.357.185.325.49-.097.093-.288.09-.49.08-.052-.297.057-.435.164-.57M177.836 88.13c-.334-.043-.427-.33-.406-.732.47-.496.86.513.406.733M177.022 88.538h.325c.117.374.43.794.244 1.222-.655.098-.742-.754-.568-1.222M176.696 89.76c.438.118.646.85.49 1.3-.75.104-.883-.972-.49-1.3M176.126 90.9h.246c.15.51.525 1.194.405 1.708-.757.017-.8-1.086-.65-1.71"/><path clip-path="url(#d)" fill-rule="evenodd" clip-rule="evenodd" fill="#456A5C" d="M175.64 91.958h.323c.135.663.752 1.246.49 2.035-.784-.12-.848-1.368-.814-2.035M174.986 92.935h.245c.634 1.27 1.43 2.802 1.547 4.314-.91-1.07-1.182-2.78-1.952-3.99-.06-.22.16-.163.16-.325M162.45 96.19h.163c1.107 2.422 1.917 5.14 3.012 7.572-.282.874.96 1.566.57 2.28-.595-.11-.48-.932-.976-1.14-.925-2.822-2.07-5.42-2.852-8.386-.033-.17.057-.215.083-.326M161.394 99.854h.162c.58.534.503 1.722 1.058 2.28-.045.56.352.68.327 1.22.38.898 1.066 1.918 1.06 2.932-.664-.205-.522-1.217-1.06-1.548-.494-1.566-1.144-2.98-1.628-4.558-.036-.17.055-.215.082-.326M159.683 101.727h.164c.558.554.684 1.54 1.057 2.28.27.738.797 1.638.814 2.36-.9-.187-.695-1.477-1.22-2.036-.264-.82-.64-1.533-.896-2.36-.024-.13.077-.14.08-.243M167.09 102.297c.63.684 1.224 1.802 1.222 2.85-1.034-.243-.927-1.625-1.3-2.524-.166-.168.033-.16.08-.326M167.66 114.425c.105.737.694 1.692.896 2.604.26.594 1.21 2.07.326 2.523-.527-1.728-1.49-3.446-1.71-5.21-1.562-.367-2.976-1.31-2.93-3.012.512.17.464.895.895 1.14-1.105-1.695-.374-4.266.977-5.127.604-.372 1.472-.48 2.116-.813 1.05.36 2.023.797 2.687 1.545 1.126 1.564 1.09 4.19-.326 5.374-.735.613-1.782.932-2.93.975m2.85-3.58c-.11-2.127-1.388-3.482-3.58-3.257.28.885.95 1.38 1.057 2.442-.192.024-.152.283-.408.244-.728-.493-1.103-1.34-1.79-1.873-1.183 1.892-.432 5.04 2.197 4.805.263-.145.523-.292.65-.57.03-.668-.654-1.6-.162-1.954.506.364.923.814 1.467 1.142.116-.4.548-.48.567-.977M164.974 107.018c-.27 1.01-1.512 1.74-1.71 3.094-.17.99.338 1.713.327 2.28-.888-.36-.95-1.546-.977-2.77.147-.855.565-1.44.978-2.034.575-.075.71-.594 1.384-.57M124.598 108.89h.162v.162h-.162zM145.355 110.03h.08c.083-.272-.016-.724.408-.652-.21.83-.07 2.456.082 3.42-.808-.43-.792-1.732-.57-2.77M172.463 110.763c.967 1.803 1.494 4.04 2.362 5.942-.172.246.137.552-.082.814-.894-1.09-1.197-2.766-1.71-4.235-.278-.506-.478-1.095-.73-1.627.078-.41.336-.382.16-.895M173.93 117.845c-.434.238-.41-.6-.734-.733-.154-.36-.3-.73-.487-1.057-.16-.873-.522-1.542-.734-2.362-.022-.282-.22.008-.244-.16-.006-.294-.126-.472-.162-.734.065-.072.222-.048.244-.164.13-.023.14.077.244.08.715 1.563 1.514 3.475 1.87 5.13M163.754 113.938c.013-.097.147-.07.244-.082 1.01 1.668 1.824 4.185 2.767 6.187.117.428.82.856.407 1.304-1.115-.648-1.193-2.335-1.954-3.337-.304-1.46-1.045-2.483-1.384-3.908.014-.096-.017-.147-.08-.164"/><path clip-path="url(#d)" fill-rule="evenodd" clip-rule="evenodd" fill="#456A5C" d="M172.463 119.066c-.738-.048-.607-.966-.976-1.385-.206-.58-.378-1.196-.652-1.71-.013-.77-.294-1.276-.406-1.952.063-.068.223-.048.243-.16a.39.39 0 0 0 .243.078c.437 1.738 1.396 3.38 1.547 5.13M168.556 120.286c-.938-.31-.94-1.557-1.384-2.36-.49-.757-.603-1.892-1.14-2.604.05-.402-.21-.495-.162-.897.064-.068.223-.047.244-.16.13-.024.14.076.243.08.802 1.86 1.946 3.805 2.2 5.94M171.73 114.263h.244c.34 1.45 1.226 2.79 1.22 4.314-.656-.18-.513-1.168-.893-1.628-.213-.63-.42-1.264-.652-1.872.01-.202.014-.393-.08-.49-.06-.22.162-.163.163-.325M171.405 119.473c-.926-.7-.977-2.28-1.63-3.257.302-.637-.62-1.263-.16-1.79.67-.063.705 1.186.976 1.79.336.643.49 1.466.815 2.117-.202.395.165.825 0 1.14M168.312 114.508h.163c.65.597.724 1.773 1.14 2.604.214.41.26.99.488 1.385-.1.593.597 1.01.082 1.303-.826-.34-.517-1.818-1.06-2.443a20.807 20.807 0 0 0-.895-2.523c-.01-.146.1-.173.082-.326M174.5 115.565c-.036-.034.052.053 0 0M179.546 125.903c-.034-.033.053.054 0 0M179.627 125.985a104.524 104.524 0 0 1 5.29 15.223c-.474-.014-.535-1.146-.73-1.71-.192-.676-.497-1.24-.652-1.953-.512-1.197-.826-2.593-1.303-3.826-.864-2.584-2.064-4.83-2.605-7.735M164.974 132.254c.52.35 1.203.534 1.548 1.058-.688.203-1.854-.53-1.548-1.058M165.707 137.79c-.678-.01-1.37-.687-1.953-1.06-.015-.095.017-.144.08-.162.595.12 1.434.678 1.873 1.22M165.056 138.766c-.34.305-1.068-.097-1.14-.568.48-.215 1.096.078 1.14.568M185.57 143.406c-.244-.016.078-.338 0 0M185.57 143.406c.787 1.438 1.273 3.175 1.71 4.966-.73-1.497-1.217-3.234-1.71-4.966M126.795 145.767c-.26.828-1.666 1.21-2.443 1.792-.938.663-1.73 1.47-2.768 2.034-.068-.34.16-.384.163-.65 1.526-1.134 2.952-2.367 4.802-3.177h.245zM161.394 152.85c-.518.34-1.346-.384-1.79-.65-.016-.096.016-.147.08-.163.516.007 1.16.566 1.71.813M183.534 157.244c-.033-.032.053.054 0 0M185 157.244c-.194.54.08 1.546-.406 1.79.157-.573.037-1.425.406-1.79M183.453 157.488h.163v.165h-.163zM183.453 157.814c.124 0 .18.604-.08.49-.06-.25.14-.24.08-.49M184.594 159.198c.133-.015.162.534-.083.408-.065-.23.116-.21.084-.408M157.24 165.875c.508.09.84.353 1.223.568-.326.42-.918-.12-1.304-.162-.026-.187.013-.31.08-.405M133.714 166.852c.097-.094.29-.092.49-.082-.05 2.99-.38 6.403-.49 9.605-.3-.106-.22-.592-.407-.814.1-2.957.29-5.71.407-8.464v-.244z"/></g></svg>