<svg xmlns="http://www.w3.org/2000/svg" width="400" height="400" viewBox="0 0 400 400"><path d="M176 398.483c-35.722-4.425-69.688-18.335-98.5-40.34-8.482-6.48-25.625-23.288-32.78-32.143-58.315-72.16-59.492-174.355-2.863-248.5C48.337 69.018 65.145 51.875 74 44.72c60.297-48.73 143.184-58.346 212.854-24.7 21.943 10.598 39.36 23.235 56.676 41.12 16.19 16.722 26.554 31.516 36.482 52.073 32.905 68.135 24.5 148.576-21.87 209.287-6.478 8.482-23.287 25.625-32.142 32.78-41.91 33.87-97.073 49.758-150 43.203zm60.57-18.857c35.803-7.617 67.4-24.683 92.887-50.17 25.612-25.61 42.497-56.964 50.298-93.398 2.486-11.61 2.69-14.33 2.69-36.058 0-21.727-.204-24.447-2.69-36.058-7.8-36.434-24.686-67.788-50.298-93.4-25.61-25.61-56.965-42.496-93.4-50.297-11.61-2.486-14.33-2.69-36.057-2.69-21.727 0-24.447.204-36.058 2.69-36.434 7.8-67.788 24.686-93.4 50.298-25.61 25.61-42.496 56.965-50.297 93.4-2.486 11.61-2.69 14.33-2.69 36.057 0 21.727.204 24.447 2.69 36.058 7.8 36.434 24.686 67.788 50.298 93.4 26.056 26.055 59.58 43.855 95.003 50.44 16.166 3.005 15.293 2.945 37.954 2.608 17.963-.267 22.745-.684 33.07-2.88zm-84.115-97.08L150 280.09V119.91l2.455-2.455c5.053-5.054 4.323-5.445 67.452 36.168 32.226 21.243 59.606 39.546 60.843 40.674 1.548 1.412 2.25 3.19 2.25 5.703 0 2.508-.704 4.298-2.25 5.716-1.238 1.136-28.616 19.44-60.84 40.675-63.13 41.602-62.4 41.21-67.455 36.155zm61.942-52.47c24.56-16.184 44.53-29.76 44.378-30.167-.206-.556-83.434-55.967-90.525-60.27-.995-.603-1.25 11.726-1.25 60.35 0 51.492.216 60.984 1.37 60.31.755-.44 21.467-14.04 46.027-30.224z" fill="#fff"/></svg>