<svg xmlns="http://www.w3.org/2000/svg" height="348" width="348" viewBox="0 0 348 348"><path d="M318.825 346.6c-5.624-2.01-8.68-4.82-47.21-43.425L235.73 267.22l-8.373 5.46c-15.16 9.88-34.682 17.536-53.633 21.03-12.7 2.34-38.87 2.317-51.724-.048C61.545 282.54 14.582 235.752 2.357 174.464c-2.49-12.485-2.49-40.443 0-52.928C11.647 74.96 41.014 36.146 82.5 15.604c22.34-11.06 39.962-15.068 66-15.01 19.536.045 30.02 1.642 46.104 7.028C232.646 20.36 264.58 48.578 281.602 84.5c9.223 19.462 13.24 36.01 14.077 58 1.272 33.394-6.427 59.694-26.707 91.238-1.39 2.164-.143 3.54 37.624 41.5 33.127 33.295 39.24 39.887 40.233 43.378 2.325 8.18.82 15.096-4.685 21.527-6.084 7.11-14.765 9.512-23.32 6.457zm-145.583-98.437c37.414-10.04 65.636-37.975 75.428-74.663 2.347-8.794 2.67-11.87 2.67-25.5 0-13.638-.32-16.7-2.67-25.477-15.92-59.49-77.915-92.562-135.164-72.1C82.148 61.63 58.196 87.38 48.32 120.5c-2.477 8.3-2.686 10.397-2.7 27-.013 15.355.3 19.128 2.123 25.675 5.457 19.6 14.645 35.13 28.925 48.896 14.406 13.89 30.985 22.795 50.332 27.04 11.647 2.557 34.966 2.08 46.242-.947z"/></svg>