<svg xmlns="http://www.w3.org/2000/svg" xmlns:xlink="http://www.w3.org/1999/xlink" width="289.423" height="257.314" viewBox="0 0 289.423 257.314"><defs><path id="a" d="M40.406 57.457h223.25v194.878H40.407z"/></defs><clipPath id="b"><use xlink:href="#a" overflow="visible"/></clipPath><path clip-path="url(#b)" fill-rule="evenodd" clip-rule="evenodd" fill="#456A5C" d="M108.83 158.105h.15c-.03-.17-.15-.08-.15 0-.178-.022-.43.027-.452-.148.115-.84.875-1.03 1.204-1.655-.017-.284-.498-.104-.452-.452.807-1.298 1.237-2.974 2.257-4.06.04-.592-.644-.46-.602-1.054.567-.367 1.097-1.03.602-1.653 1.302-1.128 3.158-2.038 1.955-4.51.25-.81.59-.95.15-1.805.372-.402 1.127.36 1.353-.302-.016-.385-.504-.298-.902-.3-.253-.524-.215-1.092-.15-1.203.608-.508 1.138.265 1.954-.15-.373-.528-.56-1.246-.902-1.807.688-.43.945.856 1.503 1.054-.07-.984-.724-1.57-.15-2.405.707-.005.667.735 1.203.903.45-.56.418-.7 0-1.205.503-.85 1.128-1.58 1.655-2.406-.038-.31-.66-.04-.75-.3.453-.748 1.34-1.066 2.105-1.504-.383-.925-1.378.213-1.805.6-.663-.834-1.49-.133-2.407 0 .355-1.096 1.35-1.555 1.956-2.403-.938-.797-1.332 1.04-2.106 1.353-.297-.313-.115-1 0-1.353-.286-.486-.99.116-1.203-.603-3.568 1.143-4.865 4.56-9.173 4.963-.564.24-1.166.44-1.654.75-3.252.018-7.255.77-10.076.153.04-.54-.45-.553-.45-1.054-2.484.453-3.396-.7-4.363-1.203.502-.506 1.4.528 2.405.45 5.358-.544 9.565-2.77 13.083-5.563.946-.907 1.813-1.897 3.157-2.408-.117-.684-1.05-.553-1.203-1.202-.373.428-1.176.617-1.654.15 1.217-1.988 5.43-2.087 7.52-1.505.38-.27.564-.738.75-1.202-6.45-.16-11.19 3.07-16.39 4.212-3.427-.042-8.275-.47-11.278.3-.028-.655.307-.862 1.203-.9-.392-1.366-2.108-1.403-3.007-2.257-4.083.126-9.863.873-13.986 2.857 1.668.65 2.98 2.983 5.114 1.804.563-.113.327.573.75.6.184-.017.357-.044.3-.298.734.558 2.132 1.377 3.91 1.352.676 1.99 3.332.267 4.964.753.236 1.467 1.806 1.6 2.405 2.706-.73-.415-.82-.062-1.804-.302-.28-.67-.688-1.216-1.054-1.804-.89-.155-1.85.032-2.558.454-1.644-.262-2.228-1.582-4.36-1.354-.57-.483-1.262-.844-1.804-1.354-.947-.144-1.385.22-1.956.45-2.124-1.132-4.234-2.28-6.617-3.155.605-.01 1.975-.394 2.408.3v-.75c.954-.5 2.11-.798 3.007-1.355 5.1-.805 7-1.658 11.43-1.2 2.476-.24 5.713-.838 8.27-1.808.268.084.624.08.75.3 2.173-1.436 4.886-2.33 6.618-4.21-3.968-1.418-9.018-1.27-13.984-.752-6.014 1.96-13.407 2.534-17.897 6.017-.117-.034-.175-.126-.15-.3 2.792-2.88 5.784-3.77 10.226-4.813 2.333-.92 4.795-1.777 7.067-1.955 1.085-1.27 5.936-1.21 9.624-1.202 6.77 1.293 14.463 1.854 20.152 1.052 2.54-.097 4.5.325 6.316-.903-.206-.496-1.15-.255-1.054-1.052-5.29-.548-12.632-.166-16.84-.302-5.2-.166-12.544.513-15.94-2.406-5.44-1.003-9.272 2.81-14.438 2.105-3.874-.314-6.684-1.32-9.023-2.856-.56-1.494-2.4-1.71-3.007-3.156-2.87-1.34-3.876-4.546-5.415-7.22-1.444-1.26-2.61-2.802-4.51-3.61-.373-.863.054-1.634-.45-2.253.23-.366 1.04-.047 1.203.15.008.46-.542.362-.45.903.973 2.1 3.667 2.448 4.81 4.36.53.883.586 1.537 1.206 2.257 5.16 1.14 9.51-1.427 13.983-1.503.68-.52.212-.96.15-1.804-1.803-1.642-4.952-3.35-4.06-6.317-3.893-.972-8.818.2-12.482-.6.1-.204.324-.28.603-.302-.055.255.118.284.3.3.057-.256-.117-.283-.3-.3 3.2.09 4.83.222 8.572-.3-1.368-2.29-1.003-3.813.902-5.264.2-1.302-.576-1.63-.75-2.557-3.927-.536-6.01-2.914-9.926-3.458-4.768.394-9.06 1.265-12.48 3.008.36.99.654 2.052 1.654 2.405-.35.438-.81-.283-1.353-.15-.23-1.12-.913-1.795-1.353-2.707.028-.437.53-.093.602-.75h.15c-.03.127.057.14.15.15.014.408-.252.3 0 .6.52-.13.52-.782.902-1.053.218-.092-.016-.18 0 0-.457-.006-.585.318-.902.453.028-.13-.06-.143-.15-.15.05-.57.853-.954 1.202-.754 4.32-1.945 9.63-3.125 15.038-2.856 5.514-.605 12.49.265 16.69 2.556 3.05.56 5.65 1.57 7.97 2.858 9.79 4.296 18.448 9.724 28.272 13.986v.45c.12-.033.175-.126.152-.302 4.083 1.782 8.083 3.648 12.18 5.414.36-.5.92-.086 1.503 0-.74-.663-1.712-1.095-2.255-1.954.135-.73.84-.473.3-1.203h.602c.1-.65-.757-.346-.602-1.054.854-.05.81.795 1.503.904.604-.317-.602-.922.3-1.354 1.39.516 2.22 1.59 3.91 1.805-.87-.685-1.594-2.814-3.61-2.857.034.52-.52.856-1.352.902-.02-.37-.022-.724.15-.902-1.142-.182-1.113 1.164-1.954.45-.37-.685.56-.79.75-1.352h-.903c.253-1.004-.474-1.03-1.203-1.053-.033-.806.46-.75.15-1.504h.903c-.205-.567-.68-.53-1.054-.602.076-.98.82-1.285 1.203-1.955-.555-.3-1.06.035-1.502-.15-.066-.67.832-.373.602-1.203h.9c-.226-.524-.628-.875-.45-1.805-.474-.578-2.014-.09-2.556-.602-.098-.548.102-.8.302-1.053-.178-.172-.533-.17-.904-.15-.29-.275.13-.508.302-.75-.142-.512-.844-.46-1.205-.752.095-1.307.147-3.662-1.804-4.21.11-.71-.214-.99-.45-1.353h-1.203c-.09-.362-.216-.688-.15-1.204-1.272-.08-2.34-.366-2.405-1.653.2-.215.85-.215 1.052 0V76c-3.73.762-4.018-3.057-5.715-4.813.012-1.223.374-1.747.902-2.706 1.062.4-.33 2.723.75 3.308.334-.32.026-1.277.754-1.202.194.656.3 1.405.45 2.106 2.127.095 2.175 2.845 4.21 2.556.35.403.54.963.603 1.653.177.174.53.172.9.15.258.948.848 1.56 1.204 2.407.56-.37.614-.418 1.503-.3.39.63-.407.464-.3 1.203.044.455.58.422.6.902.596-.704.95-.022 1.805-.3.39.263.255 1.047.45 1.503.13.44.38-.195.754 0-.002.4.057.858-.15 1.052.852.73 1.436.117 2.405.903-.01.69-.434.97-.3 1.804.33-.01.775-.33 1.354-.45.44.886-.232 1.836-.902 2.104-.023.374.236.465.3.752.742-.31 1.54-.565 2.256-.903-.196.65.312.592.602.753.072.474-.213.587-.3.902.373-.13 1.166-.293 1.503 0-.018.534-.498.604-1.053.6.295.408 1.496-.09 1.804.303-.167.885-1.873.23-2.556.6-.005 1.36 1.494.216 2.257.152.307.592.29.986-.15 1.354.41.942 1.085 1.62 1.2 2.857-.572.328-1.422.38-1.652 1.052-.333-.12-.6-.303-.603-.752-.555.3-1.427.275-1.954.6.053.58.9-.1 1.202.453.173.18.17.533.152.903 1.794.36 3.167 2.175 4.06 3.91.69-.92-.97-1.74-1.353-2.556.298-.25.19.014.6 0-.155-.845-.998-1.005-1.05-1.954 1.374.228 1.122 2.085 2.855 1.954-.192-.792-1.23-1.43-.902-2.255 1.113.14 1.178 1.33 2.105 1.653.15 0 .18-.12.3-.15.337-.152-.195-.69 0-1.202.38.12.385.618.602.902.476-.106-.41-.86 0-.902.514-.327.703.74.904 1.202.427.027-.182-.982.452-.75.29.762.61 1.493 1.05 2.104.237-.502.682-1.585.15-2.556.38.123.478.527.753.75.254-.51 1.514-.083 1.354.753.206-.293.21-.792.6-.903.828.074.627 1.177.903 1.804.382-.167-.062-1.163.3-1.35.717.183.58 1.22.602 2.104-.402.403-.572-.192-.9-.3-.792.57-.56 1.282-.452 2.254.48-.22.183-1.22.45-1.654 1.08.675 1.318 2.19 1.654 3.61.444-1.648 2.71-3.233.45-3.91-.45.25.21 1.61-.45 1.653-.577-1.166-.52-3.385-.15-4.663.425.043.415.21.902.452.36-.14-.092-1.093.6-.902v.752c.355.003.444-.26.902-.15 1.128 2.008-.27 3.696-.45 5.263.802-.05.458-1.246.752-1.805.518.048.684-.575 1.052-1.052-.946-.704-.068-2.523 1.203-2.407.362.474-.322.902-.302 1.504.04.313.66.042.752.302.483-.52.706-1.3 1.804-1.205.35.726-.236 1.342-.15 2.257-1.24-.117-.78 2.305-2.104 2.556.063.663-.04 1.162-.3 1.504.497.14.744-1.258 1.654-1.203.384.4-.09.792 0 1.353.725-.078.632-.974 1.353-1.053.003.398-.083.885.302.902.615-.172.034-.668.148-1.203.57-.276 1.008-1.344 1.805-.903-.175.623-1.338.904-.752 1.804.787-.416.787-1.62 1.955-1.652.126-.426-.21-.39-.148-.752-.004-.268-.71.24-.903-.15-.145-.747.4-.803.45-1.354.873-.208 1.313-1.56 2.256-1.203.405.55-.633.7-.75 1.202.405.152 1.23-.568 1.804-.75.416-.027.516.23.3.45.745-.16.933-.873 1.655-1.052-.47 1.687-2.28 2.03-3.01 3.458-1.893.163-2.375 1.733-3.157 3.007-.146.004-.116.185-.15.302-.22.092.015.18 0 0 .146-.005.116-.185.15-.302.87-.584 1.805-1.102 2.558-1.804 1.245.535 2.203-1.063 3.76-.75.766-.93 2.116-2.743 3.308-2.257-.896.657-1.48 1.623-2.256 2.406-.218.09.016.18 0 0 .285.033.332-.17.602-.15.126.174.2.4.15.75 1.27-1.394 2.78-3.33 4.813-3.457-.335.917-1.322 1.184-1.805 1.955-.257-.006-.39.11-.45.3.256.007.39-.11.45-.3.786-.057 1.297-1.054 2.106-.602-1.264 1.243-3.24 1.772-4.362 3.158-.35.048-.577-.024-.75-.15-.33.273.025 1.23-.303 1.503-.127-.027-.143.06-.15.15-.218.093.015.183 0 0 .13.028.142-.058.15-.15 2.37-1.9 4.143-3.646 7.67-4.51-.356.946-1.818.788-2.407 1.503-.217.092.017.182 0 0 .678.02 1.484-.615 2.106-.15-.027.475-.595.408-1.053.45-.188.755-.34 1.208-.3 2.105 7.05-3.074 12.76-7.488 19.998-10.375 4.013-2.002 8.354-3.676 11.88-6.166 5.9-3.774 12.98-6.37 19.1-9.925 1.13-.274 2.133-.674 3.007-1.204 3.33-.604 5.9-1.798 9.022-2.255.73.668 2.107-.33 2.707.3 1.145-.372 3.93-.662 4.963-.15 3.65-1.07 10.03.032 14.285 1.203.158.945.852 1.355 1.353 1.956-.197 2.356-2.088 3.022-3.007 4.66.502 2.242-1.652 2.762-3.007 3.61.055 1.056-.275 1.73-.602 2.406-.207.005-.33-.072-.45-.152-1.242 1.265-2.7 2.312-3.91 3.61-.104 2.353-2.06 2.852-3.31 4.06.05.354.238.565.15 1.053-2.394 4.022-5.014 7.816-9.623 9.625-.383-.89 1.193-1.11 1.805-1.505.882-.32 1.334-1.072 2.255-1.354 1.694-2.718 4.216-4.607 4.963-8.27h.302c.092.217.18-.016 0 0 .27-.33.628-.576.75-1.053.375.023.468-.236.754-.3 1.26-1.596 2.117-3.596 3.458-5.112 1.028-.727 2.753-.757 2.856-2.407.11-.407-.708.108-.6-.3 1.173-1.582 4.064-1.447 3.76-4.51 1.15-1.004 2.134-2.176 2.856-3.61-.587-2.573-4.08-2.238-6.317-3.157-12.482-1.07-25.03 1.04-32.933 6.917.284.82 1.69.516 2.256 1.052.474.073.59-.214.9-.3 1.33.41 2.262-.7 3.76-.602 2.958-2.615 7.344-2.876 10.98-4.812 2.155.3 2.768-.94 4.51-1.053-.936 2.07-4.538 1.477-6.314 2.707-1.454.924-1.405 3.542.3 4.813.03 1.105-.32 2.15-.3 3.458-3.487 1.287-4.17 4.708-6.315 7.218-1.492.46-3.358 1.72-4.21 3.31 3.586.038 8.022-.635 10.226 1.203.914.09 2.344-.337 2.256.75-1.588-.045-3.885-.512-4.962-1.2-3.22 0-6.654.075-9.023 1.05-3.278 1.35-6.94 3.03-9.023 5.114.05.85-.267 1.336-.15 2.254.358.898 1.742.766 2.105 1.657h-.15c-.093-.22-.182.014 0 0-.442.234-1.284-.415-1.655-.752-3.56 1.318-8.158 2.345-12.18 2.706-7.83-.145-15.444 2.492-23.458 2.407 10.215.282 18.975.887 28.57.45 4.73-1.37 11.946.712 15.79 2.407.537-.13 1.825-.018 2.406.602-.117.032-.175.126-.15.3-.89-.062-1.9-.006-2.105-.75-1.073.53-1.987-.292-2.707-.604h.45c-.032-.19-.446-.194-.45 0-.852-.575-2.51-.192-2.855-1.053-.96.062-1.407.33-1.954-.3-2.224.22-4.235-.43-6.768-.15-2.45.702-5.637 1.177-9.023 1.352 2.173 1.888 5.92 2.2 7.67 4.51 1.083.172 1.987.52 2.556 1.206 7.172.648 12.62-.425 19.25 1.804-1.777.146-6.682-.753-8.874-1.202-1.494.402-4.95.286-7.52.45.073.54.246.87 0 1.353.065.336.742.06 1.054.15 1.46.638 3.64-.052 4.21 1.654-3.355-1.21-7.823-1.017-11.73-.452.496 1.21 1.967 1.443 2.407 2.707 1.33.726 3.446.664 4.36 1.805-1.87-.546-3.1-.88-4.96-1.503-2.147-2.77-6.348-3.478-10.528-4.21.088.767.905 1.597.45 2.405-.672-.396-.356-1.35-.6-2.406-.028-.225-.364-.14-.604-.15.11-.245-.707-.245-.6 0-.023.66.426.04.6 0-.04.858.467 2.428.302 3.31-.832.02-.335-1.698-.752-2.407-.632.55-.432 1.34-.602 2.105-1.22-.354.012-1.508-.3-2.71-.584.27-.333 1.375-.902 1.656-.284.034-.332-.17-.602-.15.207-1.047.56-1.947 1.354-2.406-.703-.3-1.537-.47-2.406-.603-5.332-3.023-12.8-3.71-19.698-2.705 2.876.902 4.95 1.11 7.97 1.503.063.286.323.377.3.75 1.45.205 2.866.555 4.36 1.054.55-.113-.014-.48.15-1.054 1.62-.625 3.43-.34 4.663.15-.032.622-.936.367-1.053.903 1.03-.02 1.26-.843 2.256-.902.423 1.03-1.518.713-1.505 1.804-.754-.234-.737-.254-1.354.153 3.18 1.784 7.24 2.685 10.23 4.66-.19.038-.152.3 0 .303.218-.07-.017-.134 0-.302 1.73.842 4.497 2.572 6.014 3.608-.442.217-2.52-.464-2.706-1.503-2.052-.453-3.438-1.576-4.963-2.556-3.55-.56-5.47-2.752-9.023-3.31-.198.703-.692 1.113-1.203 1.503-.455.018-.423-.782-.903-.3 3.978 3.073 9.752 5.287 14.438 7.82.51.04 1.22-.117 1.503.152.473-.033.9-.314 1.505 0 .195-.157.553-.15.752-.305.705.385 1.948-.31 2.555 0-2.597 1.335-6.54.923-9.323 0-.45.412.55.646.3 1.354-1.15.05-.727-1.48-1.354-1.955-.74.493.43 1.27.3 2.104-1.186-.067-.56-1.945-1.353-2.407-.447 1.516.977 3.22.902 4.36-.723-.078-.703-.9-1.05-1.352-.76.44.275 1.2.45 1.654-.197.304-.797.205-.903.603.547 1.58.213 3.06.6 4.06-.832-.018-.98-.724-1.202-1.355-.35.48.01 1.918.602 1.506-.312.782.23 1.026.15 1.954-.43.273-.558.847-1.354.753-.004.456.757.146.752.602-1.24 3.275.965 4.968 1.653 7.818-1.386-.567-2.097-1.81-3.155-2.707-.474-.022-.294.61-.603.752-.878-1.7-.543-4.812 0-6.767h.15c-.027-.17-.15-.084-.15 0-.472.072-.614-.188-.75-.45.064-.736.61-.993.9-1.504-.735-1.17.333-2.59-.75-3.31-.128-1.247 1.433-2.113.45-2.858.06-.44.393-.61.602-.9-.298-.286-.686.61-1.203.602-.358-.627.163-.957.3-1.505-.082-.47-.455-.647-.6-1.055.003-.45.39-.51.45-.9-.04-.213-.33-.17-.45-.302.18-.575.55-.952.75-1.503-2.083-1.125-4.034-2.38-6.314-3.31-.876.383-1.242.203-2.255 0-.545.097.35.704-.15.753-1.078.126-.953-.952-1.804-1.054.104.747 1.137.566 1.052 1.505-1.024-.013-1.77-.822-2.556-.603-.487.777.542.693.45 1.503-.997-.123-1.26-.33-2.104 0-.125.75-.223 1.27.15 1.804.264-.137.273-.526.45-.75.313.337.932.372 1.204.75.248.325-.334.78-.302 1.354.642-.514.822-1.483 1.956-1.506-.428.928-1.04 1.668-1.204 2.857.604-.197.733-.87 1.504-.903-.34.627.062.667.45.302.39.353-.53 1.138-.15 1.807.522.124.636-.28.903 0-.95 1.39.937 2.395 1.502 3.608-.665.215-.392-.51-.9-.45v-.152c-.172.03-.084.15 0 .15.133.486-.49.213-.603.452.495.858 1.512 1.194 1.804 2.256-.918.115-.804-.8-1.653-.753-.27.625.704 1.41 1.805 1.506.09.538-.444.46-.902.452.56.896 1.326 1.582 1.804 2.557-.478.27-.26 1.24-1.202 1.05.406 1.148 1.834 1.274 2.405 2.257-.29.48-.765.108-1.203.603.71 1.42 2.13 1.56 2.856 2.707-1.352 1.73 1.07 3.72 1.205 6.164-.378-.393-.477-.22-.752.15.146 1.25 1.845 2.24 1.203 3.31-.596-.357-.515-1.392-1.054-1.807-.238.014-.12.385-.45.3.07.783.616 1.09.9 1.656.125.425-.212.39-.15.753-.033.283.17.33.15.6 2.34 2.124 4.01 4.915 6.315 7.066-.19.817-.06.987.452 1.355-.482.612-.005 1.062.302 1.654-.435.8-.005 1.377-.45 1.804.25.7.563 1.343 1.354 1.506-.305 1.555.923 1.58 1.2 2.554.105.407-.31.29-.45.454.68 1.572 1.62 2.89 3.31 3.457 1.364-.47 3.33-.12 3.908 1.05-.888-.187-2.302-.62-3.908-.3.348.656 1.318.688 1.804 1.204.19.298.08 1.303-.452 1.352-.47-.977-1.36-2.18-2.854-1.65-2.382-1.13-3.73-3.29-4.514-6.02-2.107-.597-2.042-3.368-3.76-4.357-.422 1.025.96 1.544 1.204 2.402-1.087.237-.852-.852-1.504-1.05-.24-1.166-1.11-1.7-1.202-3.01-.458-.042-.585.48-.903.15-.826-1.35-.543-4.538-1.804-4.962-.214-1.14-.207-2.498-.903-3.156-.234 1.28.112 2.507 0 3.758-.89-.713-.278-2.93-.75-4.06-.516-.338-.7-1.004-.753-1.804-.178-.45-.13.548-.602.3-.247-.253-.326-.675-.603-.902-.333.684.984 1.81 0 2.406-1.07-.933-1.25-2.76-1.503-4.514-.34.064.02.827-.452.753-1.296-1.28-.06-3.713-.15-5.862-.04-.528-.666.27-.6-.15-.415-1.1.556-2.026.6-3.16-.022-.277-.51-.09-.6-.298.146-1.618.354-3.94.6-4.965-.477.228-1.074 1.63-1.503 2.406-1.03-.068-.213-1.127-.15-1.803-.012-.442-.344-.558-.602-.75-.844 3.208.788 7.106 1.654 9.62-.725-.12-.385.82-.902.904-.538-.964-.568-2.437-1.054-3.456-.928 1.27-.378 3.038 0 4.51-.776.177-.782-.418-.9-.902-.286.064-.272.43-.75.302.54-1.73-1.026-2.165-1.055-4.06-.298.104-.4.4-.452.75 1.1 1.056 1.34 2.974 1.506 4.963 1.236.768.913 3.635.75 4.962-.674-.882-.112-2.996-.75-3.91-.163.995-.16 1.98 0 3.157-.79.417-.637 1.774-1.055 2.557-.73-.425-1.18-1.128-1.806-1.653.077-1.403.43-2.258.15-3.008-.84 1.16.278 3.812-1.654 4.21-.116-1.075.528-3.166-.45-4.06-.895.898-.446 3.468-.753 4.512-.752-.55-.91-1.695-1.504-2.406-.9.155-.147 1.96-.904 2.256-.766-.575-.192-1.555-.45-3.006-.68.07-.512.992-.902 1.352-.26.013-.467-.034-.602-.15-.257.294-.262.842-.452 1.205-1.197-.35-1.263 1.337-1.804 2.104-.177-.287-.377-.35-.6 0 .092-1.063 1.007-2.602 1.052-4.21-1.266 1.09-1.236 3.474-2.256 4.81-.348-.624.838-2.255.753-3.61 0 .504-.98.025-.903.603-.454-.227.123-.66 0-1.054-.787.917-.75 2.66-1.956 3.158.073-.68.48-1.024.603-1.653-.718.086-1.082 1.823-1.956 2.253-.16-.89.953-1.73.903-3.006-.325.128-.244.66-.45.9-.053-1.17.478-2.14.148-3.607-.14-.41-.28.402-.752.15.04.89-.23 1.476-.3 2.256-.176.127-.404.198-.753.15-.314 1.04.04 2.747-1.203 2.858.507-1.165.835-3.082.752-4.36-.99.915.026 4.202-1.806 4.66.355-1.097.97-1.936.902-3.46-.274-.475-1.39-.112-1.203-1.05-.336.414-.312 1.19-.3 1.954-.234.18-.587.48-.903.15-.11.637-.17 1.333-.6 1.654-.48-.785.45-1.45.15-2.557-.27-.285-.993-.112-.903-.754-.748 1.036.582 1.72-.302 2.406-1.208-.698-.207-2.036-.45-3.608-.534 2.073-.787 4.428-1.204 6.616-1.045-.09-.214-1.133-.15-1.804-1.405-.646-.832-1.782-1.052-3.31-.04-.31-.665-.034-.6-.45-.693 1.045-.695 3.47-.452 4.962-.258-.008-.386.115-.45.3-.58-1.475-.556-3.556-1.355-4.81-.29.177.068 1.324-.3 1.803-.67.122-.48-.62-.9-.75-.452 1.025.72 2.457.3 3.46-.876-.377-.75-1.867-1.805-2.407.172-1.273-.305-1.9-.904-2.406.015 1.143.855 2.253.605 3.158-1.032-.62-.745-2.563-.902-4.06-1.586 1.56.37 4.295.3 5.714-1.457-.448-1.203-2.607-1.955-3.76-.203.047-.287.212-.602.15-.634 1.59.424 2.784.752 3.91-.7-.053-.65-.855-1.05-1.203-.212.916-.68 1.595-.604 2.406-.925-3.344-2.28-7.142-1.805-10.98-1.536 2.785 1.268 8.485-.903 10.077-.15-.933.23-3.21-.15-4.36-.212-.04-.826-.173-1.203-.452-.127 1.27.105 2.02-.3 3.16-1.693.036-.647-2.664-1.354-3.61-.697 2.573-.24 4.776.3 7.066.75.255.485.76 1.353.753.178 1.276 1.308 1.6 1.503 2.857-.906.052-.688-1.017-1.354-1.204-.092-.217-.182.015 0 0-.105.575.612.726.15 1.204-1.572-.984-1.484-3.63-2.858-4.812-.15-1.804-.537-3.37-.9-4.963-.11-.374-.455.495-.754 0v-1.504c-1.17.133-.74 2.49-.6 3.457.04.316.4-.217.6.15.058.894.453 1.454.753 2.105.135.41.336-.457.6 0 .083.267.08.624.3.753.01.79.828 1.417.453 2.105-1.36-.797-1.556-2.756-2.406-4.062-.054 1.227-.205 2.398.3 3.91.345.043.567-.036.602-.3.54.614.683 1.624 1.957 1.505.3 1.45 1.38 2.128 1.803 3.458-1.037-.267-1.016-1.592-1.654-2.256a6.88 6.88 0 0 1-1.956-1.804c-.093-.22-.182.015 0 0 .112.73.564 1.522 0 2.104-.49-.338-.072-.826-.302-1.503-.038-.313-.66-.042-.752-.3.083-.838-.364-1.144-.602-1.657-.117.035-.174.126-.15.302-.406-.393-.396-1.063-.602-1.955.397.106.318.684.75.753-.044-1.51-1.35-1.757-1.652-3.008-.382.31-.212 1.15 0 1.653-.236.527-.625-.032-.752.602-1.598-3.97-.38-9.246.45-12.934-.73 1.54-1.87 3.187-1.502 4.963h-.602c-.27 1.382.32 1.935-.15 3.31-1.39-2.068.438-5.296-.6-6.466-.188-1.44.548-1.957.6-3.16-.4 1.134-1.508 2.094-2.106 2.558-.308-1.187.793-2.198 1.203-3.158-.4-.066-1.274.02-1.654-.45 1.264-2.35 2.054-5.01 3.01-7.07-.404-.342-.353 1.048-1.053.904-.253-.25-.12-.884-.152-1.353-.313.287-.045 1.156-.9.902-.348-.795.61-1.46.9-2.105.047-.348-.434-.168-.45-.45-.712.643-.38 2.328-1.204 2.856-.348.05-.577-.024-.75-.15-.77.856 1.173 4.284-.602 4.21-.048 1.014.17 2.49.15 3.91-.317.265-.445.34-.902.15-.023 1.363.48 2.876.15 4.36-.562.162-.43-.37-.902-.3-.177 1.63.576 2.33.453 3.91-1.443.11-.375 2.733-1.054 3.61h-.903c-.483.03-.366-.536-.6-.754-.245.406-.195 1.11-.302 1.652-.363-.06-.327.276-.75.15-.27 1.43.27 3.058-.15 4.514-.792.14-.224-1.083-.603-1.354-.475 1.63-.44 3.77-1.354 4.963-.47.165-.396.07-.75-.15-.353 1.036-.096 2.327-.903 3.158-.355-.146-.74-.264-.602-.903-1.394 1.16-3.66 2.725-3.007 4.963-.512.39-.51 1.296-1.504 1.202-.006.768.298 1.172-.15 1.655-.475.074-.532-.27-1.053-.15-1.074.78-1.303 2.406-2.556 3.01.132-.485-.39-.314-.452-.604-1.667.338-2.678 1.33-3.91 2.105-.095-1.216 1.803-1.692 2.708-2.405-.967-2.056-2.913.686-4.06.3.69-1.72 3.605-2.575 5.263-1.203.91-.237 2.313-.973 1.805-2.557 1.16-.942 1.69-2.522 3.008-3.307-.093-.41-.298-.703-.602-.903 1.354-1.53.546-3.426 1.804-5.113-.74-.186-.525 1.88-1.654 1.804-.435-.836.532-1.434.602-2.256-.02-.33-.638-.062-.902-.147-.066-1.318.857-1.648 1.353-2.406.112-.464-.413-.29-.3-.753 1.448-1.76 3.07-3.346 4.662-4.963-.073-1.173.17-2.032.298-3.007-.58-.126-.742 1.46-1.052 2.105-.71-.168-.287-.894-1.053-.75.51-2.68.945-4.566 2.707-5.866-.334-.342-.134-.396-.3-.747m-4.06 18.797c-.007.496-.255.75-.15 1.354.19.008.207.193.45.15-.17-.43-.03-1.17-.3-1.504m2.705-1.2c-.892-.337-1.184 1.346-.75 1.35.172-.525.812-.59.75-1.35m-1.654.902c.452-.032-.143-.625 0 0-.45.03.145.625 0 0m-.75 0c-.1-.1.062.062 0 0m1.202-1.054c.204-.044.125-.377.15-.602.45-.03-.143-.625 0 0-.204.047-.125.377-.15.602-.218.094.015.182 0 0m79.25-1.2c-.005.502.206.793.45 1.05.335-.378-.17-.827-.45-1.05m1.203.448c.607.527.355-.485 0 0m-3.308-1.955c.144-.624-.45-.03 0 0 .092.22.18-.015 0 0m-.752-.45c-.1-.098.063.062 0 0m-.15-.3c.024-1.162-.356.483 0 0m2.707-.15c-.1-.1.06.06 0 0m-80.002-1.355c.128.026.14-.06.15-.15.127.03.142-.06.15-.148.218-.094-.016-.183 0 0-.128-.03-.14.057-.15.147-.128-.027-.14.06-.15.15a2.133 2.133 0 0 0-.752.753c.435-.067.685-.316.752-.752m76.392-2.708c-.01 1.113.27 2.17.902 3.01-.146-1.16-.326-2.28-.902-3.01m5.864 2.557c-.092-.217-.18.017 0 0 .092.22.18-.015 0 0m-76.842-1.202c0 .22-.057 1.23.15.75-.002-.22.057-1.23-.15-.75m10.827-4.51c.033 1.38.01 2.17.602 3.155-.197-1.054.115-2.62-.6-3.156m60.3 2.858c-.098-.1.064.062 0 0m-49.023-4.213c-.57.522-.283 2.467.45 3.31-.087-1.17.25-2.755-.45-3.31M158 166.376c-.1-.1.064.062 0 0m-35.64-.15c-.098-.1.064.064 0 0m35.79-.3c.22-.092-.014-.184 0 0-.45.028.145.623 0 0m-48.27-3.157c-.356.81-1.277 2.54-.6 3.006-.156-.802.802-2.197.6-3.006m2.406 2.553c-.047-.913-.294.575 0 0m70.377-.15c.027-.126-.06-.14-.15-.147.027-.33-.123-.48-.452-.452-.09-.22-.18.015 0 0a.765.765 0 0 0 .452.452c-.028.125.057.14.15.147.092.22.183-.015 0 0m-59.4-.298c.01-.003-.01-.142 0-.15.714-.818-.72.275 0 .15m31.58-.603c-.1-.098.063.065 0 0m-31.13 0c-.098-.098.065.065 0 0m-16.54-1.204c.173.49-.46.925 0 1.204-.088-.402.444-.94 0-1.204m47.82.904c.362-.504-.505.365 0 0m-16.24-.904c.017.252-.083 1.362.15.903-.02-.248.08-1.36-.15-.902m-17.144.904c-.098-.1.064.063 0 0m33.084-.904c-.454-.232-.396.78-.15.752-.062-.362.274-.325.15-.752m4.362.15h.15c.203-1.154.688-2.546.3-3.456-.662.7-.516 2.904-.45 3.457-.22.092.014.18 0 0m-2.858 0c-.098-.1.062.063 0 0m-43.61-.45c-.098-.1.064.06 0 0m26.016-2.41c.113.867-.515.992-.302 1.958.35-.047.168.434.452.45-.098-.756.197-1.9-.15-2.407m38.797 1.807c-.045-.807-.177-1.527-.752-1.806.11.744.218 1.49.753 1.807.095.218.184-.015 0 0m-49.022-1.957c-.182.33-.28 2.145 0 1.957-.165-.723.464-1.43 0-1.957m-4.813-1.2c.46-.332-.172-.964 0 0h-.15c.047 1.1-.693 2.21-.3 3.157.19-1.014.586-1.818.45-3.158m17.896 2.706c-.098-.1.064.064 0 0m2.408-.904c-.176-.594-.176.595 0 0m-35.34-.45c.127.028.14-.058.15-.152.128.03.142-.057.15-.15.13.03.143-.057.15-.147.22-.094-.015-.183 0 0-.127-.027-.142.06-.15.147-.128-.024-.142.06-.15.15-.128-.024-.14.06-.15.15-.59.045.027.664 0 0m35.34-2.104c.07.585-.163 2.26.15 2.105-.073-.582.162-2.257-.15-2.104m-15.49 1.054c-.02.197-.024 1.09.15.603.02-.198.024-1.09-.15-.603m26.166-4.662c.08.12.157.244.15.45.507.004.37-1.09.9-.602-.044.5-.31 1.066.303 1.202.222-.765-.237-1.303.3-1.653.375.362-.07.614.452.753.47-1.977.538-3.604.15-5.565-.788.116-.313 1.49-1.355 1.353.227-1-.496-2.065-.3-3.006-.376.025-.467-.236-.752-.3-.02.836-.807.22-1.355.3-.097.854.2 2.103-.148 2.707-.945.14-.02-1.586-.753-1.655-.33.925-.445 2.062-1.504 2.255-.01-1.288.05-2.586-.15-3.307-.427-.024-.293.51-.902.302-.322-.33-.167-1.136-.45-1.506-.71 1.71-.065 3.848-1.503 4.812-.355-1.16.187-2.683-.15-4.36-1.107.448.34 3.447-1.053 3.61-.324-.943.297-2.854-.15-4.21-.34.36.066 1.468-.603 1.502.108-.11.376-.737-.148-.602-.092.17-.324 1.204 0 1.653-.03-.43.038-.762.3-.9-.154.948.34 2.542-.3 3.006-.353-.047-.146-.653-.45-.75-.065.65-.255 1.412-.904 1.052.497-1.52.89-4.64.3-5.863-.065 1.586-.192 3.114-.448 4.51-.123.03-.15.15-.303.15-.443-.157-.286-.914-.9-.902-.008.696.083 1.488-.303 1.804-.918.12-.11-1.49-.6-1.804-.038.267-.26.343-.603.302-.276.676-.117 1.786-.75 2.104-.437-.445.057-1.237 0-1.805.218-.094-.016-.183 0 0-.268.136-.192.61-.752.45-.334-.317-.72-.584-1.053-.902.126-.624.387-1.115.3-1.954-1.55.492-.64 3.338-1.054 4.21h-.448c-.354-.05-.147-.657-.45-.754-.227.228-.27.635-.603.753-.995-.576.136-2.587-.152-3.608-.61.942.053 3.158-1.354 3.307-.373-.23.094-1.297-.3-1.504-.226.35-.367.23-.75.15-.272-1.026.602-1.695.298-2.256-.2.926-.765-.516-1.053 0-.477 1.128-.35 2.858-1.504 3.307-.144-1.05.868-1.732.45-2.554-.364.837-.423 1.98-1.203 2.403-.616-.637.995-2.26.602-3.156-.526.53-1.04-.39-1.504 0-.046.454.168 1.17-.3 1.202-.312-.084-.486-.43-.75-.15-.393 1.014-.088 2.722-1.055 3.158-.075-1.396 1.7-4.553-.15-5.562-.36 1.042-1.25 1.558-1.654 2.555-.003-.146-.182-.116-.3-.15-.087-.645.638-1.26.3-1.653-1.45.062-2.28.957-2.405 2.707-.127-.027-.14.06-.15.15-.45.03.145.624 0 0 .128.027.142-.06.15-.15.77-.28.803-1.306 1.654-1.503-.062.3-.373 1.115 0 1.353.16-.34.455-.546.902-.603-1.02 1.246-2.373 3.39-1.655 5.414.904-1.103 1.096-2.914 1.655-4.36-.082.733.063 1.24.45 1.503.408-.394.155-1.447 1.054-1.352.06 1.516-1.387 2.32-1.054 3.608.127-.44.484.09.753 0 .767-.536.873-1.732 1.805-2.105.086.266-.182.885.15.904.065-.185.192-.31.45-.3.54.986-.376 1.69-.6 2.405 1.176-.58 1.128-2.383 2.556-2.71.195.374-.44.626 0 .752.23-.312.754-.822 1.202-.45-.257.596-.548 1.155-.75 1.805.284.064.376.323.75.3.164-.586.197-1.307.752-1.502.092 1.656-.828 2.72-.3 4.512.264-1.393.51-2.8 1.353-3.61-.317 1.17.762.942.903 1.655.447-.604.812-1.295 1.654-1.505.17.33.387.614.3 1.204.61.058.108-.996.903-.752-.074.978-.54 1.567-.604 2.557 1.128-.525.668-2.64 1.806-3.158 1.33-.168 1.645.752 1.353 1.806.52-.123.633.28.902 0 .1-1.206.34-2.265 1.2-2.707.364.625-.228 1.296.152 1.805-.046-.396.208-.493.603-.45-.196 1.248.522 1.58.9 2.255.205-.6.3-1.306.752-1.653.004.146.185.116.3.15-.193.407-.366.834-.3 1.503-.457.178.163.797 0 0h.15c.026-.474.104-.896.602-.9.435.424-.53 1.303 0 1.804.215-.39.25-.954.602-1.205-.015.214-.025.427.15.45.204-.92.514-1.76.902-2.104.178.848-.815 1.727-.152 2.106.59-.713.41-2.196 1.054-2.857.452 1.08-.785 2.365-.45 3.308.21-.192.065-.737.45-.752.246.83-.77 2.416-.15 3.61.442-2.243 1.306-4.77 1.955-6.315.847.442.015 1.667.903 2.104.45-.648.283-1.92 1.052-2.253.02 1.35-1.044 2.48-.302 3.308.494-.96.73-2.18 1.053-3.307.544.287-.272 1.158 0 2.105.362.06.327-.276.753-.15-.022-.38.077-.63.3-.757m-15.64 4.962c-.096-.098.065.063 0 0m20.452-.752c-.04.343.037.564.302.602-.02-.278-.1-.503-.302-.602m7.07.15c-.77-3.565-.265-6.738.15-10.526 1.328.774-.496 4.516.75 5.865.047-.204.378-.126.603-.15-.696-1.927 1.648-6.06-1.053-6.616-.24-1.062-.275-2.33-.75-3.157.023.878-.266 1.443-.152 2.406-1.356 1.213.548 3.557-.45 4.512-.208-.345-.75-.354-.903-.755v-2.104c-.432-.178-.798-.313-1.204-.148.132 1.024.98 3.134-.3 3.76-.22-.282-.005-.998-.3-1.206-.23.678.224 1.403-.45 1.804-.136-.116-.34-.16-.604-.148.907-1.212.188-3.223 0-4.66-.937.332-.49-.715-1.053-.754-.69.267-.534 1.372-1.053 1.804.39 2.46.26 5.51.45 7.82-.052-.604.002-1.1.45-1.202.307.596-.295 1.474.15 2.105.355-1.218.004-2.27.453-2.858.634.066.624.777 1.05 1.05.02-1.03 1.02-1.085 1.808-1.352.08.22-.175.777.15.753.148-.503-.034-1.337.752-1.204 1.142 1.01.656 3.653 1.505 4.96-.146.623.45.028 0 0m-3.61-2.708c-.114.84-.497 2.206-.15 3.008.3-1.298.292-2.27.15-3.008m-36.693.3c-.078-.786.848-1.808.15-2.255-.566 1.54-1.796 3.216-1.654 4.963.347-1.15.516-2.614 1.504-2.707m41.053-1.804c.32 1.232.52 3.387 1.204 3.757-.457-1.197-.513-2.796-1.205-3.758m-21.053 3.456c-.046-.913-.295.575 0 0m-15.488-1.954c-.14.564-.634 1.566-.3 2.104-.012-.716.763-1.435.3-2.104m1.053 1.803c-.1-.098.062.065 0 0m-7.82 0c-.175-.592-.175.595 0 0m22.406-.45c-.173-.593-.173.596 0 0m6.015-.45c-.046-.916-.295.572 0 0m-15.64 0c-.098-.1.063.062 0 0m.302-2.256c-.07.636-.83 1.368-.302 2.103-.006-.712.784-1.418.302-2.104m16.693 1.05c.02.28.1.504.3.603.325-.31.007-.514-.3-.603m-29.476-.15c.025.228-.053.556.15.603.196-.2.2-.56-.15-.603m33.685.15c-.047-.913-.294.575 0 0m23.01-.15c-.1-.1.062.064 0 0m-1.958-3.91c.597 1.26.952 2.757 1.804 3.76-.674-1.178-.416-3.29-1.804-3.76m-14.735 3.61c-.176-.594-.176.594 0 0m-20.905-.15c-.173-.594-.173.593 0 0m35.04-.3c-.176-.595-.176.592 0 0m-64.664 0c-.173-.595-.173.592 0 0m65.565-.15c-.1-.1.065.06 0 0m-20.6-6.168c.043-.306.406-.294.45-.6-.826-.08-.826-.98-1.354-1.354-.2.648-.796.036-.9-.302-.005 1.032-.052 1.16-.15 1.955 2.007 1.696.805 4.342 2.105 5.866.034.284-.17.33-.15.603h.45c.018-2.116.228-4.164-.45-6.168m-15.34 6.017c-.097-.1.063.062 0 0m34.887-.152c-.098-.098.064.064 0 0m-58.045-.452c-.098-.098.064.065 0 0m58.948-2.707c.254.06.676.707.903.3-.11-.204-.608-.774-.903-.3m-55.94-.754c-.077-.375-.285-.616-.452-.9-.303.558-.23.562-.3 1.353.472.07.397-.407.75-.454m62.56-1.05c-.02.375-.288.47.15.602-.026-.227.053-.556-.15-.602m-22.407-.603c-.207.192-.262.9.15.903-.175-.507.106-.64-.15-.903m-17.896.452c-.173-.595-.173.595 0 0m19.7-.15c.363-.504-.504.362 0 0m-27.67-7.07c-1 .406-1.078 1.73-1.955 2.257.517 1.103-1.174 3.672-.45 4.963.36-2.848 1.345-5.07 2.406-7.22m-13.533 4.814c-.104.487-1.145 1.16-.45 1.502.116-.44.73-1.165.45-1.503m-3.76 1.203c.147-.005.117-.186.15-.3.22-.095-.015-.184 0 0-.146 0-.117.182-.15.3-.45.03.145.622 0 0m31.43 0c-.1-.1.063.062 0 0m16.39-3.31c-.03.985.205 1.7.302 2.557.372-.02.728-.027.75.302-.01.21.034.574.15.3.008-1.46-.107-2.803-1.202-3.16m-35.49 3.01c-.174-.594-.174.592 0 0m23.76-.302c-.174-.594-.174.593 0 0m-34.587-.902c.06.46-.395.767.152.902-.133-.532.385-.774-.15-.902m16.54-1.654c-.272.583-.816 1.686-.45 2.406 0-.856.666-1.836.45-2.406m-14.285.753c.218-.094-.016-.183 0 0-.178.173-.532.168-.902.15-.08.52-.402.8-.45 1.353.734.29 1.02-.777 1.502-1.202-.147-.005-.117-.185-.15-.3m32.03-.152c-.128.415-.15 1.387.3 1.653-.295-.356.043-1.345-.3-1.654m-24.21 1.503c.023-1.163-.355.483 0 0m38.044-1.504c.22.28.01.994.302 1.202-.123-.377.294-1.295-.3-1.202m-43.46-.753c-.162.44-.336.866-.3 1.503.213.037.253.25.45.302.19-.442-.26-1.352-.15-1.805m36.092 1.503c-.097-.098.063.065 0 0m0-.45c-.097-.097.063.063 0 0m-27.52-.15c-.173-.594-.173.594 0 0m37.895-.15c.483-.842-.255-1.61-.602-2.105-.37.86-.36 1.882.6 2.106.094.217.184-.014 0 0m-10.526-.15c-.1-.1.064.062 0 0m-36.992 0c-.173-.595-.173.592 0 0m-.903-1.204c.075.483-.7.888-.3 1.204.14-.27.754-.837.3-1.204m21.053-1.202c.252.467-.233 1.888.15 2.105-.132-.647.6-1.824-.15-2.105m-20 1.954c-.175-.595-.175.595 0 0m19.25-.752c-.022.197-.024 1.088.148.602.02-.198.025-1.088-.15-.602m-9.472.6c-.174-.593-.174.596 0 0m20.45-4.36c.606-.204 1.304.665 1.806 1.053 1.32-1.41.386-2.338.3-4.512.122.082.244.158.45.15.122-.52-.222-.577-.15-1.05.22-.095-.014-.184 0 0-.546.09-.557.12-1.05.45-.51-.194-.47-.935-1.205-.903-.365.3.255.642-.3.753-.357-.57-1.39-1.818-.602-2.557.157.395.478.625.75.9.113-.61-.483-.518-.3-1.204.123.03.15.153.3.15-.006.26.113.393.303.454.052.35.155.647.45.75-.05-.35-.153-.645-.45-.75.007-.26-.112-.392-.302-.454.1-.752-.478-1.028.302-1.2-.013.663-.028 1.33.602 1.353-.08-.64-.154-1.88.602-2.107.247 1.175.312 1.604.9 2.408 1.16-1.613-.953-3.442-.75-4.962-.728.147.253 1.125-.752 1.05-.33-.37-.198-1.203-.903-1.2-.457.542-.304 1.7-.75 2.255-.75-.134.11-1.294-.302-1.506-.79.264-1.03-.486-1.955 0-.304-.397-.198-1.204-.753-1.353-.424.228-.522.78-.6 1.354-.2.02-.455-.612-.603-.15.246-.022.246.928 0 .902-.524-.1.064-1.11-.602-1.352-.83.967.258 2.946-1.053 3.457-.19-1.043.963-2.553-.3-2.856-.186 1.414-.315 2.23-.904 3.008.437-1.374-.266-1.42-.45-2.707-.687.315-1.002-.296-1.805-.603-.335.87.2 2.606-.602 3.01.05-.554-.128-1.33.152-1.654-.32-.2-.445.074-.904-.15.004-.355-.258-.442-.148-.903-.848.1-.127 1.513-.603 2.255-.323-.128-.533-.37-.452-.9.22-.094-.015-.183 0 0h-.148a2.71 2.71 0 0 1-.452 1.503c-.212.013-.427.024-.45-.15.41-.992.893-1.913 1.05-3.16-.438.137-.46.137-.9 0-.142.63-.316.892-.15 1.507-.233.18-.587.48-.902.15-.337.397.226.765-.15 1.05h-.45c-.015-.613-.03-1.23.15-1.652-.463.114-.29-.412-.75-.3.107.717-.325.79-.754.602-.266 1.172-1.576 2.615-1.054 3.61-1.046.757-1.417 2.188-1.804 3.607h-.45c-.004-.4.082-.886-.302-.903.038.62-1.098.598-1.354.452-.57.38-.344 1.56-.75 2.104-.215.013-.427.024-.452-.15.032-1.22.72-1.787.602-3.16-.962 1.396-2.023 2.69-2.857 4.214.952.237.01 1.046-.15 1.503.36-.062.328.276.752.15.667-.587 1.007-1.498 1.804-1.954.412 1.103-1.246 1.98-1.052 2.857.1.128.935-.44 1.203.15.524-.782.715-1.893 1.355-2.557.68.435.918.23 1.654 0-.54.562-.436 1.77-.902 2.406-.396.044-.494-.21-.452-.604.146-.005.117-.185.15-.3.22-.092-.016-.184 0 0-.146.004-.116.185-.15.3-.296.104-.4.402-.45.753-.22.09.016.18 0 0 .74-.19.256.846.902.752.592-1.015 1.122-2.085 2.105-2.71.534.526 1.35-.152 1.503.753a2.01 2.01 0 0 1 .752-1.202c-.082.218.176.775-.15.75-.092-.217-.182.016 0 0-.443.91-1.105 2.4-1.053 3.31.662-1.243 1.69-2.12 2.256-3.46 1.068.71-.232 2.152.452 3.01.605-.647.507-2 1.353-2.407.384.3-.556 2.1.602 2.256.12-.29.546-1.044.754-.75.042.456-.482.582-.15.9.592-.63.75-.916 1.503-1.202-.354-.407.27-.858-.148-1.204-.31.523-.827-.29-1.203.45-.686-1.284.288-4.046-.604-5.413-.405 1.068.566 3.033-.15 3.91-.705-.358-1.002-.615-1.503-.9.34-1.428-.282-4.41 1.503-3.91.312-.768-.19-2.522.602-3.16-.165.74-.345 3.084.45 4.06-.432 1.956-.06 2.74.15 4.813.895-1.412-.42-3.806.603-5.262-.206.19-.262.898.152.9.128-.285.088.163.3.15.116-.335.086-.813.45-.902.444.357.608-.242 1.054 0 .258 1.574-.153 2.974.3 4.062.095-2.245.308-4.393 1.653-5.715.496 1.232-.433 2.66.302 3.61.52-.937.466-2.444.45-3.913.306-.044.4-.3.602-.448.253.547.076 1.526.602 1.803-.256-1.427.526-2.312.3-2.857.81.972.783 2.815 1.654 4.06-.197.054-.236.264-.45.3-.44-.112-.747-.354-1.054-.602-.175.48-.08 1.225-.752 1.204-.346.045-.167-.434-.45-.45-.324.707-.376 2.39-1.504 1.803.12.675-.27.838-.753.904.304.46-.19.785.15 1.202-.173.126-.4.197-.75.15.232 1.088-.505 2-.15 2.707.2-.35.255-.847.45-1.202.596-.193.308.497.902.3.086-1.592 1.087-1.345 1.955-2.104.116.385.15.854.45 1.054.467-1.82 3.16-1.797 4.062-1.205.31-.532-.093-1.347.15-1.653.642.328-.054.88.3 1.202.317.07.28-.217.296-.45m-29.474 2.405c.176-.025.127-.275.15-.453.22-.094-.014-.18 0 0-.175.026-.126.275-.15.452-.344.364-1.115 1.54-.602 1.803.106-.695.497-1.107.602-1.804m22.106 1.352c-.098-.1.063.063 0 0m-15.79 0h.15c.08-.12.156-.242.15-.45.146-.004.115-.185.15-.3.22-.095-.016-.184 0 0-.147.002-.117.182-.15.3-.183.064-.307.19-.3.45-.218.094.015.182 0 0m53.083-.603c-.04.342.038.566.302.602-.034-.267.153-.753-.3-.603m-10.527.303c.215.034.253.244.452.3.13-.31-.39-.678-.452-.3m-41.956-10.527h.15c.307-.546.565-1.14.753-1.807-.323.085-.72.618-.904 0 .556-.848 1.146-1.66 1.653-2.556-.172-.71-.853-.328-1.053-.752-.306-.454.32-1.015.303-1.656.217-.09-.016-.18 0 0h-.152c-1.127 1.03-1.92 2.39-2.705 3.76-.122-.028-.15-.15-.3-.15-.288.87-1.156 1.953-.903 2.858.053-.498.45-.653.752-.902.182.826.54-.35 1.053-.15-.364.3-.152.236-.3.752.28.144.502-.45.6 0-.724.896-1.11 2.36-1.353 3.31-.666.215-.394-.51-.902-.452-.835.72-1.364 1.745-2.256 2.406-.135-.066-.27-.13-.3-.3-.026-.438.528-1.064.15-1.354.077 1.434-1.97.7-1.503 2.105.033-.193.45-.198.45 0-.596.308-1.252 1.346-1.053 1.953.162-.34.34-.66.603-.903.414 1.14-.648 2.083-.603 3.01.722-.996 1.367-2.83 2.858-2.558.803-1.202 1.06-2.95 2.556-3.458-1.568 2.167-2.73 4.756-3.158 7.668 1.362-4.053 4.973-5.854 6.015-10.227-.396.047-.492-.207-.45-.6m-8.422 10.378c.146-.005.118-.186.15-.302.176-.023.127-.275.15-.45.45-.03-.144-.624 0 0-.176.024-.126.274-.15.45-.146.004-.116.184-.15.303-.45.03.144.624 0 0m12.934 0c-.1-.1.062.06 0 0m.45-1.204c.116.384-.588.69-.15.9.107-.16.588-.692.15-.9m35.94.6c-.096-.1.064.062 0 0m-.45-.753c.02.28.1.504.3.603.042-.343-.035-.566-.3-.603m-17.746-.752c-.012.666.218 1.086.603 1.354.023-.68.073-1.377-.604-1.355m-37.442.602c.116-.034.295-.005.3-.15-.117.035-.297.004-.3.15m67.067-1.804c.038.504-.808 1.503-.148 1.653.108-.397.396-1.396.15-1.653m-58.65 1.202c.605-.102 1.21-.99.905-1.503-.24.563-.805.8-.904 1.503h-.15c-.104.123-.234.412 0 .45.08-.12.158-.243.15-.45m46.168-.302c.155-.017.304.65.452.15-.154.018-.305-.645-.45-.15m-27.672 0c-.173-.59-.173.595 0 0m14.286-2.254c-.028.638.943.17 1.203.15-.147-1.645-1.104-3.545-2.105-4.813-.85.333-.317 1.62 0 2.107.188 1.54.1 3.557.75 4.66-.168-.514-.346-1.814.15-2.105m-14.434 1.353c-.097-.1.063.062 0 0m23.31-2.104c.083.815.027 1.772.75 1.953-.277-.624-.262-1.54-.75-1.954m-45.716 1.35h-.602v.302c.15 0 .18.123.3.15.036-.215.248-.255.302-.452m23.458 0c-.173-.595-.173.595 0 0m-24.81-.15c-.1-.1.062.064 0 0m24.058-.15c-.1-.1.063.064 0 0m-24.51-2.256c-.638-.066-.35-.585-.15-.903-1.32.03.11-1.245-.603-1.502-.76.596-1.447 1.262-1.804 2.256.357.496.384 1.32.75 1.804.267-.604-.408-2.337.302-2.854.34.108.45.45.6.75-.546-.05-.554 2.715.15 2.857-.084-1.138.574-1.532.754-2.406m1.052 1.653c-.02.18-.268.344 0 .452.02-.18.267-.342 0-.453m63.61.15c-.22-.495-.375.588 0 0m.45-1.05c-.023.473-.005.907.302 1.05.014-.466-.07-.834-.302-1.05m-19.848.752c.023-1.163-.355.483 0 0m-3.31-.453c-.353-1.285-.696-2.18-1.203-3.008-.016.182-.044.356-.3.3.33 1.07.312 2.495.9 3.307-.067-.47.134-.668.605-.6m-36.242-2.405c-.94.128-2.305 1.89-2.256 3.005.724-.943 2.127-1.964 2.256-3.005m19.4 2.557c-.175-.597-.175.59 0 0m28.872-.153c-.03-.45-.624.144 0 0 .03.45.624-.145 0 0m-10.676-3.61c-.203.464-.67-.278-.904.15.243 1.362 1.146 2.062 1.354 3.46h.752c.186-1.79-.56-2.647-1.203-3.61m-42.86 3.01c.607-.8 1.602-2.008 1.655-2.86-.64.865-1.332 1.676-1.654 2.86-.45.028.144.623 0 0m46.92-.152c-.176-.594-.176.595 0 0m-44.213 0h.15c.182-.77.834-1.07 1.053-1.805.22-.094-.015-.183 0 0-.59.413-1.037.968-1.203 1.805-.22.09.015.183 0 0m61.955-1.05c-.46-.112-.44.258-.9.15.128.52.78.52 1.05.9.2-.447.156-.762-.15-1.05m-17.293.75c-.1-.1.062.063 0 0m2.705-.75c-.262.04-.75-.425-.9 0 .575-.075.47.53.75.75.126-.174.2-.404.15-.75m-2.556.297c-.1-.096.063.065 0 0m6.015-.148c-.1-.1.064.06 0 0m-37.895-9.775c.128.026.142-.06.15-.154.45-.03-.145-.622 0 0-.128-.024-.143.06-.15.153-.635.164-.298 1.305-1.053 1.352-.134-.067-.27-.134-.302-.302.048-.51.778-1.117.45-1.503-.523.425-.438 1.464-1.052 1.805.328-.027.48.123.45.45-1.034 1.262-1.23 2.898-1.202 4.663 1.163.624 1.162-1.782 1.956-1.506-.566 1.7-2.084 3.08-1.654 4.813.377-.826.287-2.122 1.204-2.406.176.022.126.27.15.45 2.466-1.294 2.735-4.783 3.91-7.37-1.503-.034-.6 3.604-3.01 3.16-.405-1.015.508-1.724.754-2.558-.173-.377-.598-.503-.6-1.05M165.52 136c-.036.26.285.89.452.448-.283-.014-.104-.495-.45-.448m-5.415.3c-.098-.098.064.062 0 0m-32.48 0c-.1-.098.06.062 0 0m46.917-.15c-.1-.098.063.062 0 0m-9.323-1.957c.3.856.805 1.503 1.355 2.107-.275-.878-.384-1.924-1.354-2.107m-29.323 1.807c-.174-.595-.174.595 0 0m-24.813-8.122c.128.027.142-.06.15-.15.22-.094-.014-.18 0 0-.128-.028-.14.06-.15.15-.502 0-.514.49-1.052.452-.295-.257-.75-.35-.903-.753-.003-.226.558-.615.15-.754-.81.415-1.805 1.375-2.707 1.204-3.02 3.547-7.264 5.87-12.48 7.22 1.817.2 3.66 1.003 5.864.45-.618-.25.545-.723 0-.903-.094.365-.76.082-.6-.298.986-1.17 2.81-2.307 4.21-2.56.094.747-.806.498-.752 1.203.547.084 1.296-.496 1.503.15-.064 1.39-1.295 1.612-1.955 2.406.527-.075.978-.226 1.654-.15 2.373-.99 4.59-2.925 6.617-3.762.71-1.4 2.92-2.078 3.308-3.307-1.062.04-1.096 1.11-2.256 1.052.042-.24-.143-.257-.15-.45.092-.416 1.186-.608.75-1.053-.66.243-.72 1.085-1.653 1.053-.03-.123-.15-.15-.15-.3-.027-.528.51-.496.6-.903m46.168 7.97c-.173-.594-.173.595 0 0m29.324-3.007c-.232.82-.134 1.972-.15 3.008.41.014.304-.25.602 0 .044-1.196-.185-2.12-.452-3.007m-16.692 2.857c-.178-.522-.327-1.076-.9-1.2.08.618.493.907.9 1.2.093.22.182-.014 0 0m-2.256-1.054c-.04.343.037.565.302.603-.02-.28-.1-.505-.302-.604m-8.42-.298c.133.368.135.866.6.9.344-.387-.148-.85-.6-.9m2.405-.454c.02.494.362 1.437.754 1.054-.354-.247-.43-.775-.753-1.054m-6.615 1.053c-.093-.217-.182.018 0 0 .093.22.182-.014 0 0m-33.233-.15c.466-.185.846-.456.902-1.054-.626.028-.772.533-.902 1.054-.45.032.143.625 0 0m7.67-.602v-.302c-.37-.23-.442.514-.15.454.008-.093.02-.177.15-.152m33.383-.6c-.238.226-.17.672.3.6.042-.34-.036-.565-.3-.6m-3.31-3.46c.777.378.835 1.474 1.506 1.955-.03-.802-.197-1.182.302-1.653.018.333.637.064.9.15.015.49.08.926.303 1.202.377-.354-.308-2.188.6-2.404.59.438.128.98.15 1.653.266.285.534.568.754.9.317-2.424-1.14-3.073-2.258-4.06.085.665.793.712.753 1.505-.32.183-.438.564-.903.6-1.132-1.07-1.55-2.86-3.007-3.608.24 1.063.88 1.723 1.053 2.857-.362.11-.91.425-1.203.15.616 1.126.59 3.313.602 4.21.09-.36.29.39.602.3-.08-1.125-.62-2.588-.154-3.758m9.925 3.46c.06-.51-.26-.645-.45-.903-.006.458.137.767.45.903.092.216.183-.015 0 0m-40.45-.302c.45-.03-.144-.624 0 0-.22.092.015.18 0 0m-1.504-.75c.128.024.142-.062.15-.152h.15c.315-.688 1.214-1.59 1.655-1.654 0 .45-.39.512-.45.9 1.266-.387 1.586-1.72 2.406-2.554-.528-.084-.242-.873-.15-1.204-.737-.185-.585.52-1.203.452-.284-.55-.866.133-1.052-.452.31-.992 1.268-1.337 1.655-2.256-2.842.97-3.324 4.297-6.467 4.963-.06.363.276.328.15.753.44-.136.463-.136.902 0 .278-1.078 1.83-.88 2.407-1.656.462.913-.954 1.118-.904 2.105.33-.08.975-.364 1.054.15-.177.023-.127.273-.15.45-.128-.026-.143.06-.15.154-.344-.044-.566.035-.604.3.225.236.673.167.603-.3m-1.654.3c-.098-.1.063.063 0 0m.15-1.354c-.014.385-.586.215-.602.6.3.003.192.412.602.302-.163-.386.457-.716 0-.902m-7.068.3c-.223-.077-.38-.223-.6-.3.117.52-.17.635-.303.9.45-.053.744-.258.904-.6m49.475 0c-.053-.352-.156-.647-.452-.75.016.38.027.772.45.75.093.22.183-.016 0 0m-10.376-1.805c-.412.56.28 1.054.452 1.505.025-.676-.124-1.18-.452-1.505m-39.55.602c.348.153.486.52 1.054.452.212-.707-.876-1.055-1.054-.453m-5.412-.15c.128.027.142-.057.15-.15.22-.09-.015-.183 0 0-.128-.028-.142.06-.15.15-.22.09.015.182 0 0m51.58-2.858c.007.258-.116.387-.3.45.285.817.615 1.59 1.2 2.105.478-1.063-.294-2.082-.9-2.556m-19.55.752c-.518.23-1.022 1.396-.45 1.804.26-.49.567-.936.45-1.804m-31.43 1.653c.597-.257 1.12-.585 1.655-.9-.636-.226-1.232.458-1.654.9-.218.094.016.183 0 0m9.174-.6c-.26-.01-.386.116-.45.3.258.006.384-.117.45-.3m32.332-1.505c-.44-.04-.462.34-.9.3.23.42.028 1.272.6 1.354.115-.704.867-1.074.3-1.654m-8.873.602c-.024.476-.006.908.3 1.05.22-.235.312-1.19-.3-1.05m-4.662.752c.45-.03-.142-.624 0 0-.45.03.146.625 0 0m7.07-.6c.35.048.146.655.45.752.374-.23-.172-1.217-.45-.753m-33.084.3c3.1-1.612 6.146-3.276 9.022-5.112.22-.093-.015-.182 0 0-3.408 1.304-6.35 3.076-9.022 5.114-.22.09.016.182 0 0m35.49-.753c-.447-.18-.647.636-.302.754.065-.287.323-.377.3-.753m-23.91-.75c-.66.342-1.418.586-1.653 1.353.7.25 1.657-.417 1.655-1.354m39.1 1.203c-.1-.1.06.064 0 0m-24.363 0c.173-.05.518-.656.15-.753.062.363-.274.328-.15.753-.22.09.015.182 0 0m23.61-2.106c-.597.538.147 1.553.602 1.955-.082-.772-.153-1.552-.603-1.955m-47.97.152v.146c-.128-.024-.14.06-.15.153-.128-.03-.142.056-.15.15-.22.09.015.18 0 0 .127.023.142-.06.15-.15.13.026.143-.06.15-.154.17-.027.084-.15 0-.147.585-.727 1.357-.673 1.956-1.806.353-.05.564-.24 1.053-.15 2.586-2.688 8.88-2.944 12.78-4.812.964.173.33-.46 0 0-3.83.38-6.29 2.13-10.375 2.256-1.593-.46-3.56 1.22-4.812.9-.658 1.3-2.945.966-3.91 1.955-.176-.024-.268.034-.3.153-.214-.016-.427-.027-.452.147-.597.153-1.436.07-1.653.603.73-.022 1.214-.29 1.654-.603.214.015.427.024.452-.147.174.02.268-.035.3-.153.48.128.465-.237.752-.3.707.717 1.446.436 2.256.75-.804 1.102-2.564 1.247-2.857 2.86.87-.135 1.874-1.436 3.157-1.654m5.264 1.05h-.752v.602c.356-.094.7-.203.752-.603m34.437-1.05c-.304.45.058 1.274.45 1.5.233-.384.09-1.154-.45-1.5m-32.03 1.2c.848-.506 1.694-1.012 2.557-1.503.22-.094-.015-.183 0 0-.952-.123-2.004.75-2.557 1.503-.592.042.027.664 0 0m49.024-.45c-.094-.22-.182.015 0 0-.028.327.122.478.45.45.104-.404-.31-.288-.45-.45m-31.88.15c-.1-.1.062.064 0 0m.15-.3c.218-.093-.016-.182 0 0-.22.092.015.18 0 0m19.698-1.204c-.112.572.323 1.37.753.903-.4-.154-.407-.697-.753-.904m5.565.603c.633-.555.068-1.71.3-2.41-.457.01-.584-.315-.902-.45.05.5.023.924-.3 1.055.34.562.535 1.268.902 1.804-.45.028.144.623 0 0m-49.926.146c.004.153.265.19.303 0-.17.018-.235-.217-.302 0m-7.216-.45c-.26-.01-.386.117-.452.303.258.006.386-.118.452-.303m53.385-.3c-.105.403.31.29.45.45.102-.404-.31-.29-.45-.45m-75.793-.15c4.224.986 10.345.77 13.384-1.657-1.415.29-2.6.812-3.76 1.354-.296-.204-.584-.417-.45-1.054-.543.042-1.04.04-.903-.6.712-.34 1.466-.64 1.955-1.204.25-.564-.698-.684-.3-.9 1.215.21 1.723.5 2.557.15.148-.417-.856-.427-.303-.753.43.223.996.31 1.353.603.492-.21.996-.41 1.355-.753.39.51 1.18.624 1.653 1.054.066-.286-.205-.908.3-.753.25.003.084.417.302.452.052-.452.404-.6.752-.753.258.854-.598 1.052-.3 1.804 4.504-1.48 9.246-1.94 13.232-3.758-5.635.35-9.615-.016-15.037-.15-3.7 1.092-7.597 2.25-10.226 3.606-.06-.188-.193-.306-.45-.3.025.376-.23.47-.452.6-2.548.58-4.98 1.312-7.217 1.808.85.353 1.18 1.227 2.106 1.503.237-.015.117-.385.45-.3m88.123.15c.176-.025.426.023.45-.15-.177.02-.428-.03-.45.15m-6.62-1.055c-.135-.363-.603-.397-1.052-.452.033.486-.265.637-.15 1.205.563-.088 1.124-.18 1.203-.753m-41.352.602c.22-.094-.015-.18 0 0-.22.095.016.183 0 0m-17.443-.448c-.343-.045-.565.034-.603.298.344.042.566-.035.603-.298m66.316-.753c-.177-.577-.878-.627-1.502-.753-.074.483-.814 1.08-.452 1.506.287-.62 1.177-1.086 1.955-.753m19.852.3c2.688-.32 5.188-.828 7.067-1.956-3.046-.706-6.22-2.2-8.57-4.06-3.196-.483-5.822-2.563-8.875-2.255-7.483-.726-15.917.037-23.157.902.577-.047.804.714.3.9 4.533.144 8.715-.46 11.88-.15 1.834.53 3.846.593 5.715 1.355.533.618 1.142 1.16 2.405 1.05.382-.17.38-.725 1.054-.6-.08.12-.158.242-.15.45-.22.093.015.182 0 0 .518-.344.353-.438.9-.75.178.02.128.273.15.45-.217.092.017.18 0 0 1.16.23 1.824-1.387 2.707-.45-.062.686-.517.532-.452 1.05.84.237.85-.353 1.054-.75.922.38.873 1.732 1.503 2.404-.047.355-.71.09-.6.602 2.36.675 4.574 1.69 7.067 1.808-.22.09.014.18 0 0m-19.7.15c.116-.034.295-.005.3-.15-.116.032-.297.003-.3.15m-3.46-1.655c-1.69.125-3.513-1.013-4.812-.303 1.415.49 2.787 1.022 4.21 1.506-.135-.74.63-.575.602-1.204m-71.88.902c.127.026.14-.06.148-.15 1.57-.13 1.858-.633 3.31-.903-.06-.44-.515-.49-.752-.754-.548.856-1.894.915-2.558 1.655-.127-.03-.14.06-.148.152-.625-.143-.03.448 0 0m77.143-.15c.118-.035.298-.006.3-.15-.114.033-.295.003-.3.15m-64.812 0c3.56-1.212 7.026-3.073 11.278-2.858.417-.188.766-.44 1.356-.45.482-.135.206.495.602.45.025-.225-.054-.555.15-.602 1.735-.92 4.312-1 6.167-1.805-2.105-.1-3.753.26-5.866.15-.108.376.66.617.15.903-5.248-1.243-10.633.892-14.136 2.855.134.418-.31 1.415.3 1.356m10.826-.45c-.098-.1.064.06 0 0m.3-.15c-.098-.1.063.064 0 0m-19.098-.302c-.098-.1.064.064 0 0m-6.015-.15c.28-.02.503-.1.602-.302-.343-.042-.566.037-.603.3-.257-.004-.39.115-.45.303.256.006.388-.113.45-.303m80.602-.3c.22-.092-.016-.18 0 0-.662-.028-.043.592 0 0m-88.724.15c.364-.503-.504.365 0 0m76.694-.15c-.097-.1.063.064 0 0m-22.556-1.203c-1.76-.197-3.807-.104-5.564-.3-.512-.164-1.416-.943-1.805-.302.475.716 1.364.118 2.105.602.034.284-.17.334-.15.603 1.82-.393 4.82 1.375 5.414-.603m-77.295.753c-.1-.1.062.062 0 0m61.504-.45c-.375.073-.907-.006-.902.45.508.057.64-.262.902-.45m-61.204.15c-.1-.1.063.06 0 0m117.897-1.055c-.376.328-1.31.096-1.655.45.48.078 1.14.76 1.655.303-.58-.168.58-.585 0-.753m-56.393.753c-.098-.1.064.062 0 0m.602 0c.116-.035.297-.005.3-.15-.117.03-.297.002-.3.15m18.947-.903v.752h.45c-.015-.385-.027-.772-.45-.752m-18.497.752c.118-.03.298-.005.302-.15-.117.035-.297.003-.302.15m25.715-1.054c.065.29.055.65.452.603.026-.375-.23-.47-.45-.603m-21.054-.75c-.74.11-1.39.313-2.105.452v.75c1.002-.1 1.698-.508 2.105-1.202m21.956.15c.017.384.275.527.45.752-.017-.383-.027-.776-.45-.75m-10.526.448c-.265.14-.75.052-.902.302.31-.092 1.045.244.902-.302m-3.16-.3c-.407.093-.703.298-.9.602.458-.094 1.295.192 1.504-.15-.2-.152-.455-.248-.603-.45m-2.857.448c.115-.03.295-.002.3-.15-.117.035-.296.005-.3.15m-3.46-1.803c-.47.087-1.17 1.017-.603 1.204.344-.344.992-.547.604-1.203m9.023.452c-.093-.22-.182.013 0 0-.007.255.11.39.3.45.007-.26-.11-.39-.3-.45m30.075 0c.506.455.455-.557 0 0m-.15-.303c-.1-.1.063.064 0 0m-24.963-.9c.52.128.52.777 1.053.9-.115-.742-.163-.962.148-1.505-1.067.034-1.488.718-2.555.755.093.407.298.703.6.9.234-.37.184-1.02.754-1.05m-4.362.45c-.38-.16-.857.314-.45.45-.05-.348.434-.168.45-.45m14.887.15c.797.162.178-.458 0 0-.797-.164-.177.455 0 0m-25.114-.9c-.266.08-.622.075-.75.3.44.17.56.086.75-.3m-26.314.45c.117-.034.296-.008.3-.15-.116.032-.296.002-.3.15m47.82-1.354c-.23.02-2.328-.97-2.255 0 .177-.274.784-.12 1.053-.302.454.552.323 1.682 1.503 1.507-.097-.405-.062-.94-.3-1.204m-20 .6c-.386.017-.717.085-.9.303.474-.027.5.4 1.05.3.012-.263-.034-.468-.15-.604m-2.405.304c-.117-.035-.175-.126-.15-.304-.368.133-.867.138-.902.604.475.023.907.006 1.053-.3m-52.782-.152c-.382-.16-.858.316-.452.452-.046-.347.435-.17.452-.452m62.707-.3c.006.205-.072.33-.15.452.206-.008.33.068.45.147.237-.22.168-.67-.3-.6m-1.805.3c.24-.426-.58-.857-.3-1.805.475-.486.82-.173.902-1.052-1.614.52-3.767-.636-4.812-.15.683 1.03 2.618.222 2.406 1.653.073-.428.47-.53.9-.6.12.278.252.547.303.9-.43.08-1.18.616-.752 1.053.428-.578 1.126.342 1.352 0m.3-1.503c-.063.666.25.952.753 1.054.01-.61-.306-.896-.752-1.054m2.256.45c-.146-.353-.05-.953-.6-.9.055.445.26.74.6.9-.143.626.45.033 0 0m-6.014-.45c-.504-.202-1.048-1.15-1.805-.603.382.018.355.563.15.753.595.146 1.164.153 1.655-.15m-16.993.3c.177-.02.426.027.45-.15-.177.024-.426-.024-.45.15m25.713-1.053c-.38-.246-1.485-.938-1.804-.3.702 0 1.3 1.46 1.803.3m-12.63 0c-.094-.218-.183.017 0 0 .03.452.624-.144 0 0m17.893-.75c-.175-.126-.403-.2-.75-.15.047.35-.025.577-.15.75.407-.092.703-.298.9-.6M93.79 111.94c3.325.167 5.883.52 8.874.45 9.77-.228 21.35 1.4 31.127 2.257.61-.345 2.007.1 2.107-.753-16.048-1.14-27.762-3.85-44.512-4.06-.838.164-1.44.566-2.407.603.745 1.496 3.075.816 4.813 1.503m43.912 2.255c.4-.086.938.445 1.202 0-.26-.178-1.063-.586-1.202 0m21.653-1.05c-.03-.45-.624.142 0 0v.15c.387.172.953.483 1.203 0-.557.104-.643-.258-1.203-.15m-56.09.3c-.22-.5-.375.585 0 0m-18.196-3.158c-.032-.634.57-.632.6-1.203-.947-1.36-1.397-3.214-2.555-4.362-1.5-.253-2.276-.5-3.31-1.354-1.577-.384-2.937-.576-4.51-1.202-6.005-1.596-11.553 1.473-17.444 1.503.693 2.62 3.695 4.22 5.714 6.015.048.203.215.287.15.603 1.022.33 1.67 1.038 2.407 1.653.862-.008 1.276.43 2.106.452.182.03.093.167 0 .3 1.108-.38 2.18.313 2.556.753.06-.26-.222-.387 0-.452 4.58 1.18 8.986-2.06 14.287-2.706m60.902 3.007c.964.174.33-.46 0 0m0-1.354h-1.203c.023-.374-.237-.467-.302-.752.348.046.168-.435.45-.45.59.428 1.56.992 2.258.45-.196-.458-.284-1.02-.45-1.504-.477-.073-.343.46-.903.3-.17-.78-.507-1.396-.603-2.254-1.013-.264-1.006.497-1.504.752-.424-.48-1.208-.597-1.804-.904.162.593.6.906.6 1.656-1.182.22-1.854.95-2.555 1.653 1.102-.3 1.774-1.03 2.858-1.353.086.413.373.628.45 1.053-.303.25-.7.402-.753.9.586.168.38 1.124.752 1.504 1.185-.066 2.332-.172 2.708-1.05m3.76-.6c-.566-.066-.686.316-.903.6.678-.025.4.902 1.052.902.388-.405.292-1.167-.15-1.503m4.512.9c.772-.363-.518-.386 0 0m-2.858-.15c-.1-.098.063.063 0 0m-34.738-1.353c4.627-.77 10.78 1.8 14.737 1.203-8.376-2.4-17.584-3.97-25.865-6.467-.353.3-.957.348-1.654.3-.246 1.11-1.01 1.698-1.203 2.858 4.238 1.345 9.52.733 13.985 2.107m45.867.904c-.8-.163-.18.456 0 0 1.354.53 2.94.26 5.11.3.58-.044.734-.19 1.506-.3 1.017.014 1.23-.103 2.105 0 5.716-.877 9.93-.69 15.64-1.202 2.884-.593 4.783-.64 7.82-1.053 1.546-.058 2.875-.336 4.36-.452.747-.057 1.41-.197 1.956-.45.378-.05 1.35-.854.754-.904-1.75.355-3.97.242-5.716.602-8.798-.387-16.887 1.678-26.467 2.407-1.932.77-4.834.575-7.065 1.05m-20.603-.903c.22-.09-.016-.18 0 0-.66.143-1.04.562-1.504.903.864.063 1.153-.452 1.504-.903m-22.708.602c-.173-.594-.173.593 0 0m-.45-.152c-.098-.098.062.064 0 0m-1.504.15c.312-.09.987.187 1.054-.15-.313.09-.99-.186-1.054.15m35.038-.45c-.072-.43-.57-.432-.902-.6-.192.407-.77.43-.902.9.663-.037 1.095-.308 1.804-.3m-16.843-.15c.177-.024.427.024.452-.15-.177.023-.426-.027-.452.15m30.83-.753c.626.172 1.958-.24 3.005-.15 5.165-1.64 11.216-1.053 16.542-2.556.326-1.15.463-1.44 0-2.71-4.638.075-7.358 2.066-11.128 3.008-3.456 1.53-7.86 1.186-11.58 2.407 1.31.052 1.785.013 3.16 0m-35.04-.9c-6.15-1.17-10.024-4.615-15.79-6.167-3.38-2.135-7.908-3.117-11.277-5.264-3.708-1.855-7.23-3.897-11.128-5.564 2.678 5.692 8.142 8.598 13.082 12.03 9.18 1.103 16.67 5.765 25.564 5.715-.264-.137-.523-.278-.45-.75m-30.83.3v-.15c-.458.108-.546-.154-.902-.15-.04.48.66.544.903.3.954.46 1.604-.192 0 0m40-.15c-.097-.1.065.062 0 0m-43.157 0c.408-.095 1.194.19 1.353-.15-.408.09-1.193-.192-1.353.15m58.496-1.354c-.653.153-.69-.31-1.052-.45-.062.79-1.302.4-1.354 1.202.948-.066 2.098.722 2.406-.75m-14.736.3c-.718-.117-.968.234-1.654.15.11.93 1.234-.006 1.654-.15m-53.836.45c4.508.05 9.407-.672 14.586 0 .38-1.076 1.127-1.78 1.355-3.008-4.478-1.848-10.548-2.872-16.693-2.556-.412.79-1 1.406-1.653 1.954.93 1.073 1.24 2.768 2.404 3.61m98.347-5.564c2.657-3.56 5.888-6.546 9.475-9.173-.082-.823 1.27-1.686.752-1.956-11.02 3.815-20.2 9.475-29.173 15.338 6.852-.296 13.078-2.877 18.947-4.21m-26.014 4.06h-.45v.3h.45v-.3zm4.813 0c.172.024.266-.033.3-.15.173.024.266-.033.3-.15.175.025.27-.032.3-.15.176.025.27-.032.302-.15.257.008.39-.11.45-.3.176.024.27-.034.303-.15.127.026.14-.06.15-.15.173.025.267-.034.3-.15.127.027.142-.06.15-.15.735-.217 1.46-.446 1.804-1.054 1.118-.284 1.94-.865 2.705-1.503.61.06.693-.41 1.054-.6.623.144.03-.452 0 0-.61-.06-.69.41-1.055.6-1.185.22-1.922.885-2.706 1.504-.69.266-1.328.576-1.805 1.053-.127-.027-.142.06-.15.15-.174-.023-.268.033-.3.15-.13-.026-.144.06-.15.15-.176-.024-.27.033-.302.15-.258-.006-.39.112-.45.3-.176-.023-.27.035-.302.152-.175-.026-.266.032-.3.148-.174-.023-.268.034-.3.15-.177-.024-.268.033-.3.15-.22.094.014.182 0 0m-10.076-.603c-.3-.188-1.004.224-1.205.603.444.334 1.18-.043 1.204-.603m-7.67.302c-.01.092-.022.18-.15.15.017.185.045.356.3.302-.024-.18.026-.427-.15-.453m-6.918 0c.266.097.747.74 1.053.3-.254-.107-.69-.796-1.054-.3m12.18.15c.22-.092-.015-.18 0 0-.623-.143-.03.452 0 0m-18.195-.3c.27.134.385.42.903.3.138-.696-.73-.706-.902-.3m70.228-.752c.26-.692 1.17-.735 1.354-1.504.556-1.337-.26-2.525-.603-3.457-5.978-.765-10.962 2.04-16.392 3.007-.287.966-1.237 1.27-1.204 2.555 4.69.14 11.165.435 16.844-.6m-40.152-.75h-1.05v.6c.435-.116.864-.238 1.05-.6m-7.367-1.656c-.945-.067-1.32 1.67-3.01 1.353-.083.368-.58.32-.45.902 1.47-.343 3.27-1.125 3.46-2.256m-3.46.75c.217-.09-.016-.18 0 0-.57.272-1.31 1.037-1.202 1.504.58-.32 1.047-.754 1.203-1.503m8.57 1.204c-.218-.498-.373.587 0 0m-33.683-1.053c-.078.225-.222.38-.3.603.406.195.833.37 1.503.302-.076-.628-.68-.725-1.203-.904m29.775.15c-.425-.02-.376.427-.6.604h.3c.2-.1.278-.32.3-.603m-16.392.452c-.22-.498-.374.588 0 0m-1.203-.9h-.45c-.027.375.23.47.45.6v-.6zm-58.798-.453c.028.17.15.083.15 0 1.013.088 1.488.718 2.556.75.242-1.11 1.22-1.487 1.654-2.404-2.75-2.616-7.232-3.494-8.722-7.37-1.878-1.777-5.464-3.124-9.174-2.104-.11.54-.354.95-.45 1.503 1.233 3.526 5.364 4.158 6.916 7.37 2.283.456 5.456 1.093 7.07 2.254m61.053.45h.15c.087-.09.353-.713 0-.752.124.427-.21.39-.15.753-.22.094.016.183 0 0m-11.58-.3c-.903-.695-2.396-.69-3.157-1.053.665.586 2.413 1.534 3.158 1.052m13.834-.6c.83-.726 1.158-1.952 1.806-2.858-.383-.12-.73-.273-.903-.6-.19.91-1.447 1.555-1.202 2.405.066-.185.193-.31.452-.3.028.12.15.148.15.3.024.475-.4.5-.302 1.052-.45.028.144.622 0 0m-44.21-.904c-1.735-2.428-4.333-3.99-6.166-6.316-2.085-1.674-5.366-2.153-8.27-3.008h-1.504c-.723-.53-1.932-.575-2.858-.902-1.87-.165-2.99.42-4.36.75-.103 1.223.572 2.254 1.052 3.31 3.21 2.338 5.956 4.242 9.775 5.865 4.24.178 8.714 1.155 13.834 1.203-.63-.17-.892-.71-1.503-.902M204.17 99.16c.137-.266.278-.524.75-.454 2.23-3.486 7.335-4.095 8.572-8.57-.812-.29-2.112-.096-3.158-.152-3.835 1.098-8.17 1.093-12.03 1.956-.032.12-.126.175-.302.15-3.11 3.104-6.403 6.028-9.474 9.173.022.727-.982 1.217-.6 1.805 5.904-2.04 10.63-3.222 16.24-3.91m-66.167 1.203c-.477.088-.287 2.247 0 2.558.305-1.124-.02-1.426 0-2.557m-6.614 2.257c-.067-.134-.13-.27-.3-.3-.093-.22-.183.015 0 0-.057.255.117.283.3.3-.145.624.45.03 0 0m-1.504-.3c-.042.392.056.645.452.6.025-.376-.232-.47-.452-.6m13.986.3c-.1-.1.062.063 0 0m-8.874-2.256c-.332-.22-1-.102-1.203-.45.03.722.073 1.43.302 1.955.26-.193.004-.9.45-.902.676.126-.082 1.688.604 1.804.052-1.205-.1-1.537-.152-2.406m9.025 1.956c-.1-.097.06.064 0 0m78.645-12.63c.22-.094-.015-.183 0 0-2.57-.82-5.612-.332-7.97.6-1.433 4.634-7.068 5.06-9.023 9.172.122 1.082.595 1.812.903 2.708 2.17-.52 4.643-1.893 6.767-2.406 1.512-2.348 3.592-4.127 6.466-5.113 1.488-1.12 2.215-2.997 2.857-4.96m-106.167 11.877c-.03-.45-.624.145 0 0 .03.45.626-.144 0 0m20.15-.15c-.125-.526-.64-.664-.9-1.053-.026.526.038.964.3 1.204.028-.222.362-.136.6-.15m-4.06 0c-.36-.773-.387.517 0 0m-17.293-.45c-.03-.452-.624.142 0 0 .03.448.624-.145 0 0m16.843-.302c-.047-.914-.295.574 0 0m71.28-.6c-.1-.1.06.06 0 0m23.157-.302c-.098-.098.064.063 0 0m-89.625-.6c-.022.176-.268.338 0 .45.02-.178.267-.34 0-.45m-10.978-4.362c.178.172.532.17.902.15.09-.664-.635-.342-.902-.15m-.15-1.203c-.098-.1.063.063 0 0m-43.158-6.467c-1.702-.098-2.95.26-4.663.15 1.452 5.484 8.305 4.807 13.685 5.563-.956-4.006-6.62-2.913-9.02-5.712M74.09 92.09c2.165.416 3.787.128 5.415-.903-1.894-2.817-5.06-5.164-9.474-4.962 2.303 1.007 1.804 4.814 4.06 5.865m-1.804-.45c-1.007-3.53-2.648-6.726-7.217-7.07.128.623.075 1.428.3 1.957-.44 1.014-1.612 1.295-1.956 2.405.103 1.252 1.192 1.515 1.203 2.86 2.445.565 4.887-.646 7.67-.152m121.505-.3c.22-.095-.015-.184 0 0-.35.048-.647.153-.75.45.348-.05.646-.154.75-.45m-72.48-.152c.383-.162.715.458.9 0-.264.04-.75-.424-.9 0m87.97-7.52c-3.355 1.407-6.034 3.492-9.323 4.964-.235.697-1.385 1.988-.753 2.556 2.957-1.113 6.71-.63 9.474-1.955 1.435-1.272 2.446-2.966 3.608-4.51-1.392.04-1.532-1.175-3.006-1.054M93.19 90.736v-.15c-4.136-2.082-7.52-4.912-12.483-6.165-.092-.22-.18.015 0 0 3.94 2.48 8.382 4.37 12.483 6.315.092.218.182-.016 0 0m32.18-.45c-.236.014-.52-.02-.45.3h.3c0-.15.122-.18.15-.3m70.678-.15c.175.024.268-.035.303-.152.678-.122 1.167-.436 1.505-.9a4.732 4.732 0 0 0-1.504.9c-.176-.024-.268.034-.302.15-.624-.143-.03.45 0 0m-75.04-.45c.33.033.81.677 1.054.3-.164-.302-.793-1-1.054-.3m100.454-.602c.86-.702 3.48-.653 4.513-1.655-.094-1.055.375-1.378.3-2.707-.844-.99-1.756-2.61-1.203-4.51-3.568.29-5.794 1.925-5.414 6.166-.565.738-1.207 1.4-1.804 2.105 1.662.077 2.825-.227 3.608.603m-2.557-3.008c.04-1.113.304-2.433-.148-3.007-1.85.76-4.055 1.16-6.017 1.804-.527 1.477-1.754 2.256-2.256 3.76 3.892.62 7.03.032 8.42-2.557m-97.293 1.955c.118-.035.298-.004.302-.15-.118.034-.297.003-.3.15m79.7-1.203c-.1-.1.063.063 0 0m.602-.3c.51.05 1.275-.417.9-.752-.153.4-.693.408-.9.752-.625-.145-.03.45 0 0M59.656 81.713c7.186 1.194 12.96 5.802 20.6 3.91-6.034-3.187-14.755-6.384-23.158-5.262.794.51 1.765.843 2.558 1.353m59.548 2.257c-.092-.218-.18.015 0 0 .093.218.182-.014 0 0m88.724-.902c-.098-.098.064.062 0 0m.3-.15c-.098-.1.062.062 0 0M66.123 79.91c.402-.088.94.444 1.203 0-.49.173-.926-.46-1.203 0m-5.866-.602c.002.152.263.19.3 0-.168.015-.234-.22-.3 0m-3.158.15c.458-.094 1.297.193 1.505-.15-.457.094-1.297-.192-1.505.15m8.722-.3c-.097-.1.063.063 0 0m-6.315.15c.962.174.33-.46 0 0m5.864-.3c-.1-.1.062.062 0 0m169.928-3.61c.116-.034.295-.004.3-.15-.117.034-.297.004-.3.15"/><path clip-path="url(#b)" fill-rule="evenodd" clip-rule="evenodd" fill="#456A5C" d="M153.942 177.053c-.43 1.227-1.748 1.562-2.406 2.557 1.103.228 2.196-.792 3.46-.9-.134-.47-.584-.622-1.054-.753.163-.54.715-.688 1.203-.903-.05-1 .43-1.473 1.053-1.804-.092.462-.318.785-.452 1.204 1.08-.276 1.058-1.65 1.807-2.255.398.15-.367 1.598-.604 2.103 1.457-.632 3.298-2.172 4.662-3.008.448.313-.2.79 0 1.354.68-.255 1.707-1.11 1.955-2.257.474.516.91.775 1.654.302-.183 1.206-.395 1.915-.603 3.307-.627.076-.313-.787-.9-.753.155-.396.18-.924.15-1.504-.37-.212-.787.812-1.204 1.054-.19.79.313.89.3 1.503-.285.284-.27-.09-.75 0-.113.69.497 1.197.148 1.653-.88-.27-.408-1.896-1.05-2.406-.533.978-1.703 1.86-1.054 3.16-2.017-.552.55-2.753.753-3.91-.988.666-2.292 2.32-3.61 3.156.2-.854.918-1.187 1.353-1.804-1.458.545-2.86 1.147-3.608 2.406.664-.286 1.44-.464 2.255-.603-.288.212-.27.73-.45 1.054-1.55.253-2.63.978-3.91 1.502-.722-.052.32-.45.3-.753-1.38.16-1.21.39-2.855.45.057.618-1.15.578-1.354 1.355-1.023-1.18-4.132-.276-4.81-1.807-.36-.06.082.687-.452.452.022.278.51.09.602.3-.033.468-.748.255-1.203.302-.007-.207.07-.33.15-.45-.786.033-1.5-.004-2.104-.15.176-1.013 1.655.174 2.104-.604-.516-.236-1.084-.42-1.354-.9.04-.234.33-.104.45 0-.095-.706-.893-.713-.9-1.506 1.047 1.31 2.93 1.78 4.66 2.406.02.27-.15.354-.45.304 1.65.698 2.832-2.25 2.556-3.61.792.197.35 2.828-.452 3.457 1.964-.593 2.017-3.098 3.008-4.662.538.696-.438 1.162-.15 2.104 1.125-.125.864-1.64 1.955-1.804.07.724-.314.987-.6 1.355.027.222.362.136.6.15.05.698-.465.834-.6 1.352.492.09 1.076-1.022 1.802-1.202m-8.72 2.86c.115-.034.295-.005.3-.153-.118.035-.298.005-.3.153m6.164-2.107c.22-.09-.015-.183 0 0-.678.008-.605.933-1.202.603-.104.55-.57.73-.752 1.2.966.265.517-.886 1.203-.9-.03.43-.02.82.45.75.597-.504.545-.872.3-1.654M132.89 175.852c.562-.16.428.372.9.3-.026.13.062.142.15.15.232-.078.01-.157-.15-.15-.014-.17.22-.233 0-.3 2.14.254 3.372 3.396 5.716 3.46.154.503-.468.23-.75.298.132.267.664.25.3.603-1.02-.232-1.666-.842-2.257-1.503-.43.188.653.437.15.75-1.79-.766-2.61-2.5-4.06-3.608m1.804 1.354c.396.155.506.595.9.75-.014-.444-.49-1.2-.9-.75M139.205 178.106c.505.65 1.715.593 2.104 1.353-1.205.05-1.72-.586-2.105-1.354"/><path clip-path="url(#b)" fill-rule="evenodd" clip-rule="evenodd" fill="#456A5C" d="M145.82 179.01c-.24.042-.257-.143-.45-.15.244-.36.24-.962.45-1.354.42.332-.02 1.072 0 1.504M140.107 177.053c.607.237 1.553.797 1.354 1.355a2.41 2.41 0 0 1-1.353-1.355M130.634 175.7c1.126.29 3.49 1.138 3.458 2.557-.985-1.335-2.625-1.088-3.458-2.556M139.205 178.106c-.092-.007-.18-.02-.15-.15.092.01.177.023.15.15M139.055 177.956c-.182.015-.092-.217 0 0M144.47 177.806h-.452a38.704 38.704 0 0 0-.15-1.653c.56.19.482 1.02.6 1.653M145.973 177.206c-.175.592-.175-.598 0 0M153.942 177.053c-.112-.545.52-.283.3.15-.15.003-.177-.12-.3-.15M134.543 173.445c.39.222.56.555 1.053.3.344.69 1.206 1.563.752 2.558.18.373.923.18.754.903-1.834-.274-1.81-2.406-2.56-3.76M141.61 177.053c-.36-.19-.612-.488-.6-1.05.403.146.474.626.6 1.05M140.107 177.053c-.396.047-.493-.207-.45-.6.203.15.3.402.45.6M132.89 175.852c-.17-.032-.234-.168-.302-.302.184.017.357.047.302.302M143.867 175.55c.064.064-.098-.1 0 0M141.16 175.55c.063.064-.098-.1 0 0M130.634 175.7c-.182.018-.092-.22 0 0M132.59 175.55c-.118-.032-.177-.126-.15-.3.117.033.173.125.15.3M130.333 175.4c-.174.594-.174-.592 0 0M156.198 175.25c-.348-.347.277-.484.15-1.052.366.183.018.906-.15 1.05M132.438 175.25c-.18.014-.092-.218 0 0M153.19 174.948c-.632-.192-.013-.9.45-.9-.365.394-.083.505-.45.9M147.927 174.948c-.793-.583.524-1.28.302-2.256.39.818.108 1.412-.303 2.256M138.604 174.948h-.45c-.478-1.68-1.278-3.03-1.655-4.81 1.372 1.23 1.175 3.12 2.104 4.81M133.792 174.198c-.94-.313-1.224-1.286-1.505-2.256.735.52 1.326 1.18 1.505 2.256M157.702 173.746c.145.624-.45.03 0 0M145.67 173.896c-.58-.755.393-2.364.302-3.61.33 1.417.187 2.392-.3 3.61M142.363 172.843h.15c-.03-.17-.15-.084-.15 0-.408-.493-.493-1.31-.602-2.104.856.75.69 2.005 1.355 3.157-.607.004-.758-.447-.752-1.054"/><path clip-path="url(#b)" fill-rule="evenodd" clip-rule="evenodd" fill="#456A5C" d="M157.702 173.746c.014-.236-.02-.523.3-.45v.3c-.09.01-.178.022-.15.15h-.15zM140.258 173.746c-1.288-.252-1.32-2.272-.752-3.158.467.185.66.644.752 1.204-.285.28-.378.017-.752 0-.088.99.65 1.154.752 1.954M135.445 173.596h-.45v-.45h.302c.078.12.156.243.148.45M154.244 173.445h-.452c.205-1.32.29-2.29.15-3.307.848.607.462 2.4.302 3.307M134.543 173.445c-.182.015-.092-.22 0 0M161.912 172.993c.017.183-.218.094 0 0"/><path clip-path="url(#b)" fill-rule="evenodd" clip-rule="evenodd" fill="#456A5C" d="M161.912 172.993c.288-.82-.414-1.086.15-1.804-1.025.054-.707 2.16-1.654 1.803.15-.503.48-.826.603-1.352-.135-.266-.552-.25-.602-.602.52-1.387 1.172-2.638 1.504-4.21.425-.123.39.212.752.15-.393.158-.284.817-.452 1.202.396.042.648-.055.603-.452.273.617-.052 1.02.3 1.653.76-.59.608-2.097 1.355-2.703.04 2.4-1.327 4.69-2.558 6.316M158.604 169.235c.09-.86.422-1.483.75-2.105v.6c.245.108.245-.708 0-.6.425-.18.407-.8.603-1.204 1.135.155.06 1.51-.15 2.105-.2 1.816-.448 4.352-1.805 4.514.293-.66.847-1.06.903-1.956-.062-.257-.195.03-.45 0 .096-.756.608-1.094.75-1.805-.225-.45-.268.516-.6.452M151.386 172.544h-.45c-.294-.698.646-1.322.45-2.405.794.4.14 1.652 0 2.404M124.318 172.544c-.636-.03-.663-1.258-.452-1.655.28.22.178.825.752.752-.255.145-.386.414-.3.902M149.28 172.392c-.242.042-.26-.14-.45-.148.242-.46.262-1.143.45-1.655.874.192.226 1.377 0 1.802M131.235 172.392h-.45c-.308-1.133-1.088-2.298-.903-3.458.33 1.27.91 2.297 1.353 3.458M147.777 172.243c-.314-.947.41-3.24.752-4.514.395.992.103 3.78-.753 4.513M143.416 169.837c-.044.645.21.992.45 1.353.534-.27-.02-1.626.753-1.653.026.92.223 1.293-.152 1.954-1.115.716-2.096-1.23-1.052-1.653M132.138 171.49c.063.063-.1-.098 0 0M166.425 166.377c.007-.192.192-.21.15-.45.21-.014.17.436.3.15 1.18 1.072.033 3.87 0 5.112-.79-.314-.28-1.926-.6-2.708-.855.903-1.08 2.43-2.257 3.008.462-1.893 1.525-3.186 2.256-4.812.72.528-.33 1.555.3 1.954.414-.528.734-2.057-.15-2.255M133.34 169.536c.367.637 1.12.886 1.355 1.653-.913-.094-1.407-.6-1.354-1.654M133.04 171.19c-1.12-.156-1.332-1.95-1.354-2.708.403.953 1.042 1.666 1.354 2.707M131.836 170.89c.063.063-.098-.1 0 0M128.98 170.738c.063.064-.098-.098 0 0"/><path clip-path="url(#b)" fill-rule="evenodd" clip-rule="evenodd" fill="#456A5C" d="M158.604 169.235c-.036.666-.33 1.073-.902 1.2.125-.573.406-.996.902-1.2M146.875 170.286c-.734-.234-.817-2.01-.15-2.406-.116.913.577 1.666.15 2.406M123.415 168.783c-.45-.03.144-.624 0 0M166.425 166.377c.014.183-.22.092 0 0M134.694 166.227v-.752c.482-.13.312.39.603.45-.038.264-.26.344-.603.302M155.596 165.775c.144.624-.45.033 0 0M155.596 165.775c-.143-.624.45-.03 0 0M155.897 164.875c-.174.592-.174-.596 0 0M183.268 160.21c-.526-.125-.563-.74-.754-1.2.697-.075.994.813.754 1.2M182.515 158.708c-.176.595-.176-.595 0 0M105.22 154.95c.515-.892 1.106-1.7 1.503-2.708-1.043.37-2.862 2.038-4.66 1.653 1.22-1.183 5.04-1.84 3.607-4.21.714-.938.135-2.555-.752-3.16.513-.665-.062-1.003 0-1.953-1.45.802-1.835-1.29-1.353-2.406-.44.16-.776.427-1.503.3-.305-.835.23-1.38.3-2.254-.705-.2-1.365.94-1.654 1.653-.71-.787.81-1.76 0-2.858-.35-.273-.64.42-1.205 0-.115-1.06.954-1.07.452-2.104.583-.13.536.367.902.45 2.082-.203 3.04-.683 4.962-.902.41.794 2.444-.035 2.556 1.055-.61.32-.964-.036-1.654.15.117.536.736.568.902 1.055-.052.348-.098.703-.6.6.104.315.863.634.9.15 1.073 1.25-1.145 2.42-1.954 1.354.278.6.64 2.35 1.504 2.857.01.564-.59.515-1.054.602.046.555.64.564.903.902.212 1.35.045 3.004 1.052 4.06.06.662-.81.393-.9.903 1.563 2.112-1.025 4.205-2.255 4.812m.6-11.88c.037.266-.15.752.302.6.277-.265-.04-.465-.3-.6m-.903-4.663v-.752c-.343-.042-.567.037-.603.3.307.045.296.408.602.452.092.218.18-.014 0 0m-1.655-.15c-.098-.1.064.06 0 0m2.707-.3c-.048-.917-.295.57 0 0M154.544 154.648c.016-.17-.218-.234 0-.302.152.004.188.265 0 .302M148.23 154.046c-.327.758.307-.72 0 0M148.378 153.446c.063.062-.1-.098 0 0M151.987 141.115c-.175.592-.175-.595 0 0M139.656 140.964c.033-.118.004-.298.15-.3-.033.115-.002.295-.15.3M155.596 140.663c-.18.015-.09-.22 0 0M155.445 140.212c.08-.12.158-.245.15-.452.135.094.27.183.302 0 .44.168-.19.49-.452.452M139.055 134.195v.15c.17-.027.084-.15 0-.15-.033-.284.17-.33.15-.6.594.38-.324 1.48-.15 2.406.717.064.84-.464 1.354-.602.396.735-.616 1.732-.15 2.557.726-.326.33-1.776.9-2.256.756 1.15-.61 2.95-.6 3.908-.616-.034-.677-.627-.753-1.202-.6.148-.902.148-1.504 0-.763-1.43.187-3.17.752-4.21M137.25 138.71h-.45c-.08-1.378.627-2.286.9-3.763.722.988-.312 2.65-.45 3.762M133.04 133.596c-.498 1.05-1.26 1.784-.902 3.31-.448.052-.384.616-1.052.448-.086-1.43.845-3.032 1.654-4.06 0 .2.262.14.3.302M154.093 137.203c-1.236-.066-1.164-1.44-1.805-2.104.49-.167.297-1.106.15-1.504.586.898 1.196 2.487 1.655 3.607M154.694 136.152c.064.062-.098-.098 0 0M142.062 135.85h-.45c-.353-.395-.025-1.022 0-1.502.686.22.534.795.45 1.503"/><path clip-path="url(#b)" fill-rule="evenodd" clip-rule="evenodd" fill="#456A5C" d="M141.16 135.7c-.192-.01-.207-.192-.45-.15-.11-.46.26-.44.15-.903.43.022.275.63.3 1.053M202.364 132.392c.025.175.238.165.45.15-.144 1.342-1.33.763-2.104 1.354-.092-.22-.182.015 0 0-.275.477-1.047.457-1.654.6.462-1.343 2.46-1.147 3.308-2.104M87.626 134.348c-.02-.27.183-.318.15-.602.557.617.558.113 1.354.3-.33.788-.942.01-1.504.302M87.476 133.746c.063.062-.1-.1 0 0M155.295 133.746c-.18.015-.09-.22 0 0M203.266 132.993c-.343.614-.2-.48-.45-.45 1.023-.13 3.182-.317 5.264 0 .028.17.15.083.15 0 3.144-1.12 6.293-2.228 8.872-3.91 2.312 1.11 3.146-1.325 3.91-2.707 1.476-.43 2.52-1.29 3.76-1.955-.532-.8.01-.976.3-1.654-.182-2.725-3.195-2.618-4.51-4.21-.91.286-2.66-.43-3.762-.75.42-.63 1.957-.32 2.407.298 2.364-.188 4.72 2.185 6.918 3.16.51 3.772-2.51 4.804-4.663 5.413-.574 1.43-1.454 2.555-2.705 3.31-.793.19-.894-.313-1.505-.304-1.267 1.49-4.042 1.474-5.414 2.86-3.366 1.073-4.894.67-8.572.9-.09-.217-.18.015 0 0M150.784 133.144c-.565-.14-.325-1.873-.15-2.255.325.432.654 1.725.15 2.254M143.717 132.843c.062.064-.1-.1 0 0M98.152 132.692c-.08-.533.127-.775.45-.903-.242-.358-.54-.662-.75-1.053-.313.084-.487.43-.753.15-.03-.58.24-.863.752-.902-.31-.548.066-.674.3-1.052-.435-.422-1.208.716-1.804.15.067-.585.667-.637 1.203-.752-.01-.24.073-.572-.15-.602 1.45.31 2.41-1.04 3.76-.75-.154.197-.148.553-.3.75.268.02.316-.183.6-.15.065.315-.102.4-.15.602.003.5.85.153 1.053.452a1.05 1.05 0 0 1-.752.753c.512.273.085.616.302 1.05-1.34.666-2.118 1.897-3.76 2.257m2.857-2.857c-.332-.062-.83.45-.453.602.15-.2.408-.296.452-.602"/><path clip-path="url(#b)" fill-rule="evenodd" clip-rule="evenodd" fill="#456A5C" d="M208.23 132.542h-.15c-.002-.082.12-.17.15 0M202.364 132.392c-.016-.18.22-.092 0 0M151.386 131.79c-.09-.31.186-.988-.15-1.053.45-.626 1.06 1.178.15 1.052M187.778 131.19c-1.118.214-.908-.897-2.107-.604.063-.653-.117-.834-.6-.602-.35-.903.006-1.538.3-1.955.513-.01.563.443.754.752.277-.022.092-.51.3-.603.55.103-.032.597.15 1.204.456.005.375-.528.45-.903.713-.01.29 1.116 1.055 1.055.16.813-.41.895-.302 1.654M151.235 129.985c.152.002.188.264 0 .3v-.3zM127.627 129.687c.008-.094.02-.18.15-.15-.01.09-.023.174-.15.15M78.603 129.533c2.07-1.453 4.346-1.905 6.767-2.403-.092.133-.182.27 0 .3-1.253.626-2.58.628-4.21 1.354v-.3c-.586.52-1.646 1.356-2.557 1.05M67.023 126.527c-1.227-.432-.686-2.685.3-3.008-.13 1.236-.61 1.695-.3 3.007M220.86 123.37c.615-.065.965.14 1.354.3-.293.38-1.01-.084-1.353-.15v-.15zM67.475 123.37c-.183.014-.092-.22 0 0M71.234 111.94c-.54-.093-.2-.962.3-.902.126.174.2.403.15.75-.212-.01-.424-.023-.45.152M67.324 110.287c.377-.302 1.183-.07 1.052.6-.39.142-1.14.145-1.052-.6M78.603 110.737c-.062-.363.274-.327.15-.752.383.018.584.22.602.602-.175.127-.403.198-.752.15M215.447 109.985v.15c-.178.073-.34.16-.45.3-.2 0-.14-.263-.303-.3.228-.35.368-.23.753-.15M75.294 110.287c-.07-.472.13-.672.6-.603-.018.27.186.317.15.603a.562.562 0 0 1-.75 0M216.05 110.136c.06.063-.1-.1 0 0M215.447 110.136c.182-.016.094.218 0 0M214.545 110.287c-.314.062-.398-.104-.6-.15-.05-.266.84-.27.6.15M212.89 110.136c.176.023.27-.033.302-.15.416.064.01.473-.3.302v-.152z"/><path clip-path="url(#b)" fill-rule="evenodd" clip-rule="evenodd" fill="#456A5C" d="M211.988 109.985c-.06-.374.94-.445 1.053-.15-.383-.006-.182.112-.15.3-.368.383-.32-.316-.902-.15M216.5 109.985c.643-.545 1.34-.14 2.405-.3-.465.378-1.742.607-2.404.3M211.988 109.985c.017.182-.217.092 0 0M74.393 110.136H73.34v-.752c.51.092 1.16.042 1.053.752M219.207 109.985c.025-.175-.033-.268-.15-.3.467-.365 1.195.308 1.654-.453.307.264.296-.11.602.15-.578.61-1.29.485-2.105.603M216.05 109.835c-.006.146-.186.116-.302.15.005-.146.184-.116.3-.15M215.447 109.985c-.014-.182.218-.092 0 0"/><path clip-path="url(#b)" fill-rule="evenodd" clip-rule="evenodd" fill="#456A5C" d="M213.19 109.985c-.09-.01-.177-.022-.15-.15.094.01.18.022.15.15M210.936 109.384c.56.104.393.073 1.053.15-.08.578-1.022.488-1.054-.15M210.635 109.534c.13.702-.39-.207-.45.3-.093-.007-.18-.02-.15-.15v-.3c.202.048.285.213.6.15M209.28 109.534c.118-.033.3-.004.302-.15.57.084-.326.61-.3.15"/><path clip-path="url(#b)" fill-rule="evenodd" clip-rule="evenodd" fill="#456A5C" d="M209.28 109.534c-.454.207-.536-.072-1.202 0-.01-.948.812-.466 1.354-.3 0 .15-.12.18-.15.3M224.47 108.48c-.336.508-1.318 1.032-1.955.754-.09-.22-.182.015 0 0-.127.222-.38.323-.75.3.446-.805 1.575-.93 2.705-1.053M210.635 109.534c-.015-.18.22-.092 0 0M71.385 109.084c-.242.042-.26-.143-.45-.15.016-.385.027-.774.45-.752.046.35.294.622 0 .902M63.866 108.782c.05-.352.18-.622.3-.9.34.107.768.132 1.053.3v.6c-.244.227-1.11.227-1.354 0M224.47 108.48c.05-.202.214-.286.15-.6.527.298.735-.813 1.654-.603-.516.488-1.02.988-1.804 1.204M224.47 108.03c.063.063-.1-.1 0 0M215.748 107.58c.333-.12.61-.145 1.353-.15v.6c-.68.06-1.126.204-1.352-.45M74.09 108.03c-.22-.87.573-.73 1.055-.902.128.12.088.412.3.45-.162.44-.716.488-1.354.452M218.305 107.43c.02-.84.854-.27 1.203-.15-.02.84-.9.556-1.203.15M60.858 105.774c.283-.527 1.003-.215 1.353-.15.16 1.18-1.076.575-1.352.15M222.063 105.925c-.59-.78 1.14-1.26 1.504-.6-.287.412-.756.645-1.504.6M65.37 105.925c-.716.015-1.345-.06-1.354-.75.134-.068.27-.134.3-.303.442.26 1.22.185 1.053 1.053M226.725 104.27c-.217-.456-.024-.767.603-.75.117.134.16.34.15.602-.175.125-.404.196-.753.15M219.057 103.97v-.75c.242-.247.63.133 1.202 0 .438.716-.52 1.155-1.203.75M81.31 103.67h-.15c-.002-.083.12-.17.15 0M224.32 103.22h-.45c-.064-.515.044-.858.6-.753.05.348-.024.577-.15.752M230.335 102.467c.068-.89 1.508-.532 1.052.15-.2.205-1.05.285-1.052-.15M147.326 102.768c-.29-.367-.145-1.26 0-1.654.468.082.98.123 1.353.3-.177.727-.552 1.254-1.354 1.354M226.875 102.617c-.437-.003-.354-.85-.15-1.053.664-.13.54.98.15 1.053M154.544 102.166c-.196-1.053 2.23-2.667 3.007-1.805-.752.792-2.27 1.484-3.006 1.806M151.235 99.91c-.787.216-.6 1.405-1.654 1.354-.205-1.306 1.256-2.9 2.407-2.857-.103.648-.58.923-.752 1.503M64.768 100.662c.024-.175-.033-.268-.15-.3.188-.365.616-.487 1.052-.603.21.09.023.58.3.6-.153.35-.69.312-1.202.302M57.25 100.662c.018-.27-.186-.317-.152-.602.264.088.884-.18.903.15.024.424-.367.434-.75.452"/><path clip-path="url(#b)" fill-rule="evenodd" clip-rule="evenodd" fill="#456A5C" d="M148.53 100.36c.094-1.153.95-2.725 2.404-3.006-.33 1.386-1.27 2.924-2.405 3.007M68.678 99.61c.35.052.705.097.602.6-.415.468-1.07-.186-.602-.6M231.838 99.61c-.064-.616.318-.785.603-1.053.54.237.216 1.054-.602 1.053M122.212 99.31c-.18.014-.092-.22 0 0M160.258 93.745v.15c.17-.03.084-.15 0-.15-.008-.492-.427-.575-.3-1.204.374.08.534.37.75.603.116-.766-.355-.946-.75-1.203.22-.63.58-.342 1.053-.15-.055-.502-.453-1.336.452-1.203.106-.558-.258-.644-.15-1.203.792.325.962-.57.753-1.354.41-.11.3.3.6.3-.15-1.062.75-.772.602-1.652.317-.332.444.193.903.15 1.042-.99-.548-2.054-.45-3.46.534-.033.783.217.75.752.5-.053.235-.866.3-1.354.31-.263.296.11.603-.152.116-.565-.183-.718-.15-1.202.462-.11.29.412.752.3.116-.565-.184-.717-.15-1.203.562.113.733-.17.752-.602 1.114.363.793-.71 1.203-1.053.506.096.48.722.45 1.354.783-.872 1.35-1.96 1.504-3.46.355-.003.444.26.903.15.437-.415.21-1.493.6-1.955.48-.127.467.238.754.302.777-.275.855-1.252 1.204-1.956.353.004.44-.257.9-.15.34-2.968 4.208-2.41 3.76-6.165 1.067.396 0 2.29.3 2.856.893-.06.824-1.082 1.355-1.502-.147 2.61-3.148 3.668-4.512 5.565.14 1.16-.413 1.852-1.354 1.503.235.72.182 1.56-.3 1.955-.264-.086-.884.183-.903-.15-.413-.063-.14.562-.45.603.016.486.682.32.45 1.052-1.425-.27-2.252.68-3.007 1.504.04.31.66.04.752.3-.167.473-.012.34 0 .902-.89-.138-.525.98-1.05 1.203.024.224.36.138.6.15-.32.884-1.15 1.257-1.654 1.955.2.3.983.02.754.753-1.015-.136-1.586.184-1.203 1.052-.284.167-.71.19-1.053.3-.036.665-.31 1.096-.3 1.805.212.215.73-.033 1.05-.15 0-.502-.487-.513-.45-1.052.772-.12.87.433 1.054.902.19-.17 1.187-.302 1.354 0-.617.887-2.647.36-3.006 1.503 1.01-.07 1.784-1.083 2.704-.75-.87.78-2.086 1.22-3.607 1.353-.092-.218-.183.015 0 0 .118.586.155.78-.15 1.203.903-.2 3.578-1.988 4.662-.3-1.77-.216-2.548.56-4.06.6.77.79 3.26-.656 3.76.602-.4.405-1.72-.116-2.107.3.084.668 1.55-.046 1.355.903-1.104.062-2.004.66-3.46.75.957.162 2.97-.14 3.46.903-1.78.147-2.734-.32-4.062 0 1.06 1.476 2.932-.516 3.61 1.203-.792.044-.89-.158-1.505 0-.326.405-.202.684-.15 1.204-.595.056-1.44-.138-1.805.15.068.433.533.472.452 1.054-1.23-.525-2.13-1.38-2.856-2.407-.968.285-1.092.718-1.204 1.355-1.407-.204-1.812.595-2.857.75-.047-1.102 1.92-1.348 3.007-1.803-.303-.953-1.873-.633-1.656-2.105-1.027.022-1.257.845-2.254.902-.026-.53.508-.496.602-.903-.614-.506-.6.625-1.353.45-.127-.174-.2-.402-.15-.75-.446.305-.836.666-1.354.9-.37-1.423 1.213-2.84 2.406-2.705.108.342.135.768.3 1.052.964-.247 1.336-.56 2.252-.15m2.707 2.556c.472.734 2.317.89 3.16.753-.754-.473-2.36-.82-3.16-.753m2.857-3.157c.964.174.33-.46 0 0m-3.157-3.91c-.1-.1.063.063 0 0M148.378 99.008c.063.063-.1-.1 0 0M148.53 98.707c.014.182-.22.092 0 0M62.06 98.857h-.9c-.106-.462-.106-.29 0-.75h.9c.106.46.106.288 0 .75"/><path clip-path="url(#b)" fill-rule="evenodd" clip-rule="evenodd" fill="#456A5C" d="M148.53 98.707c-.16-1.02.236-2.327 1.353-2.856.203.905-.544.86-.602 1.504.063.257.193-.03.452 0-.384.468-.853.852-1.203 1.353M56.196 98.557h-.45c-.03-.43-.02-.822.45-.752a.56.56 0 0 1 0 .752M225.824 97.503c.077-.574.535-.766 1.202-.75-.02.268.185.316.15.6-.006.667-1.14.506-1.352.15M157.25 97.354c.5-.774 1.42-1.862 2.556-1.504-.637.62-1.294 2.467-2.555 1.504M230.034 97.204c-.23-.99.93-1.3 1.353-.75.015.676-.73 1.187-1.353.75M145.973 97.354c-.007-.558.23-.872.45-1.204.545.142.262 1.393-.45 1.204M223.418 97.053c-.055-.197-.267-.237-.3-.452.314-.484.433-1.167 1.352-1.052-.13.88-.312.574.15 1.203-.368.137-.65.353-1.202.303M221.312 97.053c-.382-.02-.583-.218-.6-.602.145-.003.115-.183.15-.3.37-.02.722-.022.9.15.073.473-.186.615-.45.753M57.85 96.903c-.415-.086-.842-.16-.75-.75h1.052c.023.372-.237.462-.3.75M138.754 96.752c-.564-.238-.636-.968-.602-1.805.927-.104.99 1.5.602 1.805M153.642 96.45c-.242.043-.26-.14-.45-.148.085-.622.483-1.545 1.052-1.203-.095.555-.423.88-.602 1.35M143.416 96.45c-.938.043-.68-1.866-.3-2.253 1.027.2.513 1.835.3 2.254M131.536 93.744v.3c.19-.036.152-.3 0-.3v-.45c1.174.48 1.5 1.81 1.955 3.007-1.24-.01-1.048-1.457-1.653-2.104-.3.002-.192.41-.602.3-.253-.448-.596-.807-.753-1.353.756-.204.588.516 1.054.6M135.296 96.15h-.45c-.073-.913-.884-1.778-.45-2.706.206.994.903 1.5.9 2.706M227.628 95.85c-.402-.478.015-1.098.603-1.052.344.42.082 1.197-.602 1.052M140.71 95.398h-.452c-.092-.766-.463-2.318 0-2.706.837.15.373 2.29.45 2.706M148.23 95.248c-.253-.54.164-1.072.75-1.202.24.385-.17 1.165-.75 1.202M129.73 95.098c-.737.083-1.095-1.003-.75-1.503.56.19.587.915.75 1.503M54.542 95.098c-.51-.04-1.22.117-1.504-.15-.157-1.05 1.815-.995 1.504.15M59.956 94.947c-.255.056-.285-.116-.3-.3.127.027.14-.058.15-.15.175.023.126.274.15.45M137.25 94.798c-.442.03-.616-.975-.3-1.203.593-.093.176.825.3 1.203M232.44 94.497c.1-.502.386-.817 1.054-.75-.02.268.183.316.147.6-.29.174-.84.492-1.2.15M49.58 94.647c-.128.027-.142-.06-.15-.15-.667-.265-1.376-1.44-1.203-3.007.67.75 1.153 2.43 1.353 3.157M146.272 94.497c-.622.02-.457-.745-.6-1.203.173-.126.402-.2.75-.15-.058.71.32.987-.15 1.353M235.6 93.896c-.18-.72.52-1.06.9-.752-.106.444-.39.712-.9.752M155.445 91.64c.55.313.074.717 0 1.202.817-.12 1.337-1.224 2.258-.75-.96.505-2.823 2.893-3.31.75.132-.618.546-.958 1.052-1.202M139.205 93.896c-.744-.158-.478-1.328-.752-1.956.654.19.93 1.42.752 1.956"/><g><defs><path id="c" d="M40.406 57.457h210.078v132.83H40.406z"/></defs><clipPath id="d"><use xlink:href="#c" overflow="visible"/></clipPath><path clip-path="url(#d)" fill-rule="evenodd" clip-rule="evenodd" fill="#456A5C" d="M142.964 93.444c-.655-.02-.823-1.537-.3-1.804.472.228.25 1.152.3 1.804"/><path clip-path="url(#d)" fill-rule="evenodd" clip-rule="evenodd" fill="#456A5C" d="M139.808 80.51v.453c.19-.036.195-.45 0-.453.104-.656-.257-.846-.15-1.503.7.35 1.182.923 1.352 1.804.54-.26.055-1.55.903-1.502.047.352.238.564.15 1.054.287-.617.452-1.353.752-1.956.476 1-.813 3.09.15 4.36.508-1.21-.25-3.63 1.203-4.21.062.664-.04 1.162-.3 1.504.804-.106 2.006-1.437 3.006-1.053-.288.764-1.016 1.087-1.203 1.956h-.148c.028.17.15.083.15 0 .207-.007.33.07.45.15v.3c-.222.128-.323.38-.3.753-.218.092.015.18 0 0 .224-.13.323-.38.3-.753 1.63-1.677 3.263-3.354 5.414-4.51 1.27.344 1.1-.63 2.256-.753.184.218.6.2.602.602 1.684-1.8 4.08-2.32 5.563-4.51h1.054c.272-.99 1.385-2.378 2.406-1.655.12-.983.648-1.557 1.805-1.504.573-.832.976-1.832 2.258-1.955.12-1.23.838-1.87 1.804-2.256.305-1.65 1.096-2.814 1.954-3.91.272-1.756 1.394-4.855 3.158-2.856.175.826-.57.73-.75 1.203.228 2.13-1.987 2.99-2.558 4.81-.46.445-1.14.667-1.654 1.054.327 1.108-.683 2.104-1.654 2.405-.28.972-.775 1.73-1.955 1.804-.482.42-1.065.74-1.204 1.503-.4 0-.86.057-1.052-.15-.07 1.285-1.185 1.522-2.256 1.804-.215.99-1.315 1.09-1.653 1.957-.428.124-.39-.212-.754-.15-.45.955-.824 1.98-2.106 2.104-.435 1.572-1.992 2.018-3.007 3.01-.345-.258-.97-.233-1.354-.452-.42-.068.117.82-.302.75-1.105-.828-1.877.32-3.008-.15-.746.508-1.064 1.443-1.805 1.957.383.412 1.07-.74 1.655-.15-.642 1.02-2.354 1.227-2.106 2.707.48-.923.877-1.93 2.256-1.954.15.622-.015.887.75 1.052.366.41-.564.432-.6.902 3.828.2 6.276 5.538 3.76 8.42-.426-.326-1.387-.748-1.053-1.353h-1.053c-.422.33-.343 1.16-.75 1.504-.314-.09-.487-.315-.753-.45.115-.386.15-.854.45-1.055-.012-.49-.896-.106-.75-.75-.575-.072-.307.694-1.054.45-.414-.573.438-1.104 0-1.655-.59.11-.494.908-.602 1.504h-.752c-.133-.836.29-1.116.3-1.806-.04-.31-.56-.14-.6-.45-.638.466.018 2.223-1.053 2.255-.706-.555.357-1.506-.603-1.806-.39.562-.235 1.67-1.203 1.655-.328-.825-.645-1.663-.902-2.558-.724.33-.417 1.69-1.053 2.105-.717-.084-.526-1.077-1.053-1.354-.444.5.583 1.1.15 1.656-.354.046-.566.236-1.053.148-.36-.442-.336-1.267-.904-1.504.075.828.466 1.34.604 2.105-.674.405-.934-.187-1.354-.452-.567.936-2.12.887-2.857 1.653-.44-.007-.558-.34-.75-.6-.28.022-.094.51-.304.6-.54.09-.727-.173-1.052-.3-.39.128.29.66-.15.902-.724-.127-1.19-.512-1.203-1.35.374-.018.466-.284.753 0 .23-3.578 1.883-5.736 4.36-7.07-.048-.203-.214-.287-.15-.6h1.052c-.375-.628-1.332-.673-1.504-1.506 1.057.248 1.92.69 2.556 1.355-.058-1.142-1.216-1.187-1.503-2.105.983-.534 1.28.79 1.954 1.054-.653-1.603-1.537-2.976-3.31-3.46-1.352.536-2.576.527-3.908.45.047-.348-.025-.576-.15-.75-2.144-.312-2.903-2.01-4.812-2.557.06-.362-.276-.327-.15-.75-.347-.206-.67-.433-1.203-.452-1.838-2.32-4.93-3.39-7.067-5.414.053-.498.45-.652.752-.902 5.214 1.896 7.46 6.153 12.48 8.42.243-.21.162-.74.45-.902 2.494 1.367 5.918 1.805 7.523 4.058m10.225 6.467c-.466.952-.056 1.68.15 2.708.65-.098.843.26 1.202.45-.135-1.47.01-2.707-1.352-3.158m-12.332-.15c-1.07.173-1.26 1.798-.6 2.557.94-.444.203-1.637.6-2.557m5.716-.15c.04-.234.33-.106.45 0 .325-.844-1.155-.36-.45 0m-.602-1.805c-.757-.084-.7 1.003-.15 1.053-.12-.522.224-.58.15-1.053m-1.05-.75c-.466.11-.29-.414-.755-.302.285.417-.087 1.492.602 1.504-.066-.517.06-.843.15-1.203m1.353-1.053c-.188.27-.52 1.176-.15 1.505-.19-.618.962-1.24.15-1.505m-1.053.903c-.173-.593-.173.594 0 0m3.16-1.052c.09.266-.442.624 0 .75.086-.09.35-.712 0-.75m3.607 0c-.1-.1.063.062 0 0m-6.768-.15c-.173-.596-.173.594 0 0m3.61-.303c-.1-.098.062.064 0 0m-4.513 0c.025-1.16-.356.486 0 0m.902-.752c.082.22-.175.78.15.75-.074-.468.354-.61-.15-.75m3.31-.3c.217-.092-.017-.18 0 0-.22.093.014.182 0 0m-.15-1.203c.128.027.142-.058.15-.15.126.027.14-.058.15-.15.59-.042-.03-.662 0 0-.13-.028-.143.06-.15.15-.13-.028-.143.06-.15.15-.405-.104-.292.31-.452.45.403.105.29-.31.45-.45m6.918-2.556c.03.285-.1 1.486.15 1.053-.03-.285.1-1.486-.15-1.053"/></g><g><defs><path id="e" d="M40.406 57.457h223.25v194.878H40.407z"/></defs><clipPath id="f"><use xlink:href="#e" overflow="visible"/></clipPath><path clip-path="url(#f)" fill-rule="evenodd" clip-rule="evenodd" fill="#456A5C" d="M54.392 92.09c.063.063-.1-.098 0 0M154.093 91.94c.366-.57 1.044-1.517 1.805-1.203-.5.505-1.073.933-1.805 1.203M54.392 91.79c.063.063-.1-.1 0 0M119.506 91.64c.015.18-.218.09 0 0M235.298 91.34c-.6.045-.814-.29-.753-.904h.753c-.136.44-.136.462 0 .903M51.836 91.188c-.023-.375.236-.465.3-.752.7.186.304 1.223-.3.752M48.226 91.038c.625-.144.03.45 0 0M237.403 91.038c-.79-.085-.034-1.44.45-.75.072.47-.403.395-.45.75M48.226 91.038c-.532-.254.492-.47 0 0M60.407 90.887c-.104-.503.25-.55.6-.6-.023.173.034.267.15.3-.02.33-.377.323-.75.3M54.392 90.287c.018-.435-.082-.985.15-1.203.55-.1.802.1 1.053.3-.13.572-.59.814-1.203.903M46.873 89.835c.192-.01.208-.192.45-.15.16.378-.563.722-.45.15M45.82 89.383c.496.006 1.064-.06 1.053.452-.437.42-.746-.138-1.053-.3v-.152zM58.603 89.233c.113-.538.347-.955.902-1.053.376.576-.347 1.446-.902 1.053M45.82 89.383c-1.14-.347-.697-1.393-.75-2.706.897.255.386 1.918.75 2.706M49.88 89.233c-.246-.786.423-1.156.903-.75.074.625-.38.72-.902.75M239.508 88.782c-.108-.71.543-.66 1.052-.752.115.8-.61.925-1.052.752M228.38 88.03v-.6c.474.073.53-.27 1.052-.15-.042.268.143.308.15.15.452.462-.713.583-1.202.6M227.778 87.88c.06.292-.686.22-.45-.15h.3c-.028.127.06.142.15.15M227.177 87.88c.063.063-.1-.098 0 0M231.237 87.278v.452c.672-.01.19-.344.45-.602 1.307.394 2.85-.428 4.21.3-1.626.88-4.432.436-5.863.152-.052-.557.913-.547 1.203-.302M231.237 87.278c-.016-.18.218-.092 0 0M52.888 86.376c-.124-.426.212-.39.15-.75.35.3 1.183.12 1.203.75-.242.226-1.108.226-1.352 0M49.73 86.527c-.048-.35.024-.578.15-.752.48-.128.465.237.752.3-.136.315-.444.46-.902.452M44.918 86.376c-.192.133-1.42.02-1.804-.15.034-.752.975.272.902-.452.145.255.416.387.902.3-.092.136-.182.27 0 .302M238.455 85.023c-.447-.013-.4-.896.15-.75.167.47.07.395-.15.75M242.064 84.42c.1-.5.387-.815 1.053-.75-.023.173.033.267.15.3-.16.393-.612.492-1.203.45M46.12 84.12c-.138-.68 1.083-.498 1.355-.3v.452c-.244.197-1.326.324-1.354-.15M53.79 84.12c-.312-.088-.486-.315-.75-.45.052-.197.263-.236.3-.45.505-.038.777.556.45.9M49.88 84.12v-.6c.337-.105.753-.453 1.053-.15.168.768-.65.552-1.052.75M244.32 83.067c-.05-.348.023-.577.15-.75.592-.092.665.336.75.75-.19.206-.707.206-.9 0M241.462 83.067c-.24.043-.26-.14-.45-.15-.034-.536.216-.785.752-.752.118.52-.168.634-.302.902M52.136 82.617c-.52.105-.54-.527-.3-.75.296.117.54.524.3.75M244.62 80.962c-.087-.94.455-1.25 1.053-1.503.414.725-.323 1.433-1.052 1.502M240.71 80.662c.047-.607.222-1.082.903-1.052.066.133.133.27.3.3-.152.467-.685 1.122-1.202.752M236.05 80.06c-.617-.093-.303-.414-.302-.902.57-.13.532.674.302.902M244.47 78.406c-.12-.08-.243-.157-.45-.15v-.3c.127.027.14-.06.15-.15h.3c-.023.173.033.267.15.3-.028.12-.15.148-.15.3"/></g><g><defs><path id="g" d="M40.406 57.457h210.078v132.83H40.406z"/></defs><clipPath id="h"><use xlink:href="#g" overflow="visible"/></clipPath><path clip-path="url(#h)" fill-rule="evenodd" clip-rule="evenodd" fill="#456A5C" d="M233.342 76.45c-.003.148-.184.12-.3.152.003-.147.185-.117.3-.15M118.754 69.082c-1.55.096-2.155-.75-2.558-1.804-3.057-1.74-4.233-5.447-5.263-8.42.878-1.682 3.244.132 2.255 1.502.042.31.56.14.602.45.537 3.726 3.32 5.203 5.113 7.67.02.27-.183.318-.15.602m-6.916-10.676c-.1-.1.062.063 0 0"/></g></svg>