<svg xmlns="http://www.w3.org/2000/svg" xmlns:xlink="http://www.w3.org/1999/xlink" width="289.423" height="257.314" viewBox="0 0 289.423 257.314"><defs><path id="a" d="M64.328 8.512h203.498v289.93H64.328z"/></defs><clipPath id="b"><use xlink:href="#a" overflow="visible"/></clipPath><path clip-path="url(#b)" fill-rule="evenodd" clip-rule="evenodd" fill="#456A5C" d="M230.45 31.472c-1.594.195-3.483-.41-5.422-.542-2.06-.14-4.305-.243-6.18-.108-.962.068-1.95.672-2.386.108 1.26-.736 3.435-.85 5.422-.868 3.178-.027 6.732.02 8.566 1.41M154.12 77.01c-.304-.186-.492.106-.976-.108.253-.25.87-.323.976.108M119.858 81.78c-.124.91-1.652.326-2.385.434-2.364.347-5.67-.337-8.458-.326-.75.005-1.57.34-2.385-.216 3.898-.833 9.61-.507 13.228.108M119.967 84.273c-4.076.672-8.526.185-12.794-.107-.093-.32-.093-.44 0-.76 3.07-.455 8.35-.005 11.06.325.606.077 1.446-.053 1.734.543M119.532 85.9c-.025 1.28-1.24.69-1.842.65-1.853-.123-4.07.043-6.18-.108-1.485-.106-3.135-.072-4.23-.76-.017-.125.025-.19.11-.216.086-.02.107-.108.216-.108 4.13.363 8.62.14 11.926.542M120.725 88.72c-1.585-.08-3.858.105-6.18 0-2.987-.136-5.776-.552-7.59-1.193 2.62-.328 5.18-.564 7.808-.324.767.07 1.584.477 2.385.54 1.575.128 2.83-.175 3.577.977M120.725 90.02c-.223.848-1.015.214-1.517.218-.67.005-1.317.27-2.06.325-2.627.19-5.452-.2-7.915-.542-.47-.064-1.26.303-1.518-.324 3.122-1.003 10.15-.577 13.01.325M121.05 91.863c-.473.597-1.543.51-2.384.542-3.475.144-7.706-.193-10.518-.866.194-.53 1.318-.13 1.518-.652 3.583.055 8.207-.06 11.385.975M122.243 99.778c-.373.892-1.4.256-1.95.217-1.63-.112-3.426.096-5.748 0-1.387-.056-2.9-.045-3.903-.76 3.228-1.223 7.368-.12 10.3-.107.372.512.926.17 1.3.65M121.05 100.863c.097.192.304.275.218.65.198-.185.804-.167.867.107-.27.674-1.656.57-2.494.543-3.1-.104-6.028-.317-8.78-.543-.18-.168.037-.422.107-.65.204.275.23.05.434.326 3.055-1.333 6.78-.618 9.65-.433M122.677 103.465c-.378.618-1.36.748-2.06.868-1.333.23-2.878-.093-4.23-.218-1.708-.16-3.36.282-4.662-.542.3-.73 1.342-.19 1.735-.65 3.064-.07 6.456-.186 9.217.542M112.16 105.092c3.51.273 8.323-.16 11.386.325-.23.6-.848.33-1.303.434-2.63.603-5.747.723-8.782.326-.406-.244-.878-.422-1.3-.65v-.434zM123.11 107.693c.33.553-.59.323-.975.435-1.95.566-5.063.702-7.59.108-.166-.38-1.173-.485-1.192-.65 1.78-1.034 5.922-.31 8.35 0 .572.072 1.033-.148 1.407.107"/><path clip-path="url(#b)" fill-rule="evenodd" clip-rule="evenodd" fill="#456A5C" d="M123.436 109.645c-1.066 1.062-3.976.585-6.18.435-1.42-.097-2.875-.133-3.578-.76 2.314-.386 5.075-.814 7.48-.325.814.164 1.537.55 2.278.65M126.472 111.488c-.704.656-1.618.124-2.71.108-3.366-.048-7.883 1.013-9.867-.867 3.843-.25 8.888.346 12.577.758M135.363 131.33c-6.388.838-15.01-.13-20.384-.542.675-.63 1.87-.593 2.818-.76 2.348-.412 5.966-.593 9.54-.216 1.352.142 2.682.565 4.013.76 1.427.205 2.962.016 4.013.758M102.402 146.185c-.38.36-2.557.08-3.578.326v-.542c1.343-.014 2.217-.24 3.578.217M116.822 146.943c-.63.318-2.542.36-3.252-.216.565.04 2.457-.213 3.252.216M157.372 161.473c2.44.626 5.404 1.76 7.048 3.795-.963.956-2.36 1.342-2.817 2.71-.83 2.483.62 4.628 2.71 5.53-.428 1.017-1.56 1.333-2.06 2.277-2.04.734-4.084 1.848-6.29 2.71-.51.2-1.113.33-1.626.65-1.9 1.185-5.83 1.464-9 1.735-1.78.152-3.644.43-5.42.54-1.324.084-2.952.165-4.01.218-2.498.124-5.164-.813-7.59-1.192-2.28-.355-4.344-.705-6.29-1.3-1.08-.96-2.5-.844-3.795-1.302-.688-.245-1.012-.933-1.625-1.302-.318-.19-.758-.155-1.085-.325-1.226-.643-2.298-1.588-3.144-2.276 1.272-1.08 2.437-2.587 2.494-4.553-.25-.6-.72-.942-1.084-1.52-.092-.144-.12-.437-.217-.54-.36-.383-2.04-.764-2.06-1.41-.012-.51.714-.66 1.192-.975 1.457-.96 3.03-2.52 4.555-3.146 1.125-.463 2.438-.818 3.686-1.3 5.22-2.02 11.752-2.673 18.215-2.494-.933.736-3.066.21-4.66.323-2.498.18-5.297.784-7.808 1.41-5.428 1.354-9.94 2.822-13.23 6.07 1.035.885 2.094 1.74 2.82 2.93-.326 2.024-.772 3.927-1.844 5.204.837 1.322 2.587 2.134 4.23 2.818 4.738 1.975 10.5 3.838 16.696 4.12 1.358.062 2.798-.07 3.904-.217 4.746-.63 9.413-.453 13.552-1.844 4.08-1.37 7.537-2.52 10.3-5.096-1.404-1.025-2.424-2.942-2.06-5.42.217-1.472 1.317-2.51 2.277-3.145-1.412-1.915-3.885-2.428-6.07-3.36a.48.48 0 0 0 .107-.322"/><path clip-path="url(#b)" fill-rule="evenodd" clip-rule="evenodd" fill="#456A5C" d="M139.267 158.002h.217c.48.127.513.012 1.084.108.142-.014.784-.017.433.108-.72-.16-1.495.403-1.733-.216M110.1 160.28c-1.076 1.037-3.04.755-4.554.866-3.14.232-6.506-.485-9.54-.217-1.562.138-3.773.317-5.53.107.418-.417 1.44-.395 2.275-.434.885-.04 1.81.053 2.495 0 4.624-.35 9.192.35 13.77-.433-5.895-.816-13.14-.212-19.842-.11-1.414.022-2.804.843-4.12.325.93-.9 2.266-.708 3.362-.757 4.068-.186 7.547-.36 11.926-.325.79.006 1.62-.027 2.388 0 .683.022 1.284.275 1.95.325 1.188.086 2.388-.117 3.47 0 .745.08 1.322.477 1.953.652M182.962 159.63c-.088.454-1.128.163-1.41.107.203-.352 1.255-.643 1.41-.107M177.757 159.737c-.018-.233.385-.048.54-.108-.065.096-.128.193 0 .216-.194.238-.848.02-1.083.217v-.325c.255.034.407.172.76.108-.004-.106-.134-.083-.217-.11M178.407 159.737c.03-.38.48.196.434-.108.292.096-.05.44-.324.324.017-.125-.025-.19-.11-.217M188.164 159.954c-.43.598-2.368.12-3.252.108.688-.777 2.312-.174 3.252-.108M171.034 159.846c-.547.425-1.61.178-2.276.108.793-.31 1.682-.183 2.276-.108M171.577 159.737c.38.13.355.16.65.217-.015.24-.46.047-.65.108v-.325zM177.105 160.062c-.784-.142-1.476.29-2.06 0 .612-.294 1.438-.486 2.06 0M180.9 162.014c-.812.15-2.44.13-3.36-.216 1.373-.21 1.96-.09 3.36.216M101.643 162.773c-3.2.59-8.704-.538-13.553-.325-.898.04-2.02.47-2.82-.216 5.392-.36 10.794.15 16.373.54M182.636 162.773c-.202-.025-.72-.256-1.084-.434.07-.147.23-.203.433-.22-.01.45 1.093.348.76.76-.193.032-.224-.1-.11-.107M176.89 162.773c-.494.014-2.635.17-2.928-.325.842.093 2.164-.38 2.928.325M188.273 162.773a2.01 2.01 0 0 1-1.3.216c-.024-.72 1.23-.403 1.3-.217M128.208 165.16c-.053.85.204 2.01-.434 2.275-1.312-.66-1.205-2.564-2.603-2.927-4.183-1.087-4.302 6.813-2.493 9.106 1.1.606 2.182.895 3.36.435.984-.384 1.48-1.833 2.495-1.52.015 1.604-2.135 2.978-4.01 3.036-3.71.115-5.33-3.282-4.99-6.614.226-2.197 1.47-4.597 3.47-5.204 2.123-.644 4.32-.026 5.206 1.41M147.29 163.857c.353.803.34 2.497-.217 3.037-.71-.158-.69-1.048-.978-1.627-.766-.307-1.966-.55-2.926-.326.09 1.48-.235 2.704 0 4.013 1.252.037 2.484-.383 3.468 0 .024 1.646-2.07.58-3.47.867-.247 1.2-.04 2.852-.108 4.23-.025.463 1.02.418.65.865-.488.515-2.99.595-3.36 0-.132-.6.532-.406.65-.758.163-2.91.1-6.046.107-9.108-.01-.495-.823-.188-.758-.76 1.505-1.082 4.915.2 6.613-.542.09.06.177.114.327.11M135.146 163.857c1.53 2.916 2.136 6.755 3.25 10.084.017.564.83.33.76.976-.5.57-3.074.648-3.685 0-.01-.59.668-.49.868-.866-.273-.92-.603-1.782-.758-2.82-1.06-.262-2.47-.038-3.58 0-.51.755-.672 1.858-.975 2.82.1.514.98.248.868.977-.88.33-2.864.825-3.145-.325.235-.237.468-.474.976-.435 1.174-2.946 2.35-5.894 3.362-9 .09-.705-.826-.403-.65-1.19.567-.41 1.81-.142 2.71-.22m-2.928 6.398c1.104.018 1.98-.19 3.145-.108-.57-1.416-.757-3.22-1.518-4.445-.557 1.5-1.056 3.062-1.627 4.553M156.18 163.966c-.074 1.047.212 2.453-.542 2.82-.55-.426-.592-1.36-1.084-1.843-.82-.083-1.66-.147-2.602-.11-.77.674-.393 2.957-.324 4.12 1.026-.01 2.65-.367 3.47.11-.16 1.572-2.422.526-3.47.867-.12 1.2-.354 3.458.215 4.336 1.263-.05 2.137.11 2.927-.217.87-.363.965-1.35 1.844-1.628.172 1.052-.33 2.335-.976 2.928-2.115-.452-5.138.535-6.938-.325-.07-.576.392-.618.65-.867.252-2.584.088-6.378.107-9.108-.13-.413-.807-.277-.65-.975 2.057-.284 5.236-.035 7.374-.11M170.926 164.4c.127.017.092.197.108.324.19-.27.14-.116.543-.107-.068.26-.78.352-.868-.108.124.015.19-.025.216-.11M171.577 166.025a.507.507 0 0 0 .324.11c-.015.31-.45.197-.758.216.03-.222.48-.024.435-.325M178.407 166.785c.962-.702 2.87.354 3.36-.325 1.09.077 1.693-.34 2.71-.217-1.914.704-3.78.857-6.07.542M106.088 167.76c-6.617-.305-14.647-.102-21.035-.54 4.444-.546 9.82-.5 14.53-.325.928.033 1.88.297 2.818.325 1.4.04 2.987-.54 3.688.54M106.63 171.23c-.715.78-2.026.222-3.144.217-5.44-.02-11.807.28-18 .217.177-.752 2.413-.758 3.363-.758 5.643-.005 12.064.143 17.78.324M187.84 171.773c-.506-.05-1.756.032-2.602 0 .27-.758 2.36-.634 2.602 0M189.793 179.795c-.19.753-2.607.568-2.71.218.914-.17 1.74-.384 2.71-.218M186.214 180.338c-.208-.144-.438.08-.76-.108.036-.397.858-.475.76.108M107.064 182.832c.427-.244.77-.142.976-.324.427.188 1.12.126 1.952 0-.02.414.09.04.326.108-.018.125.024.19.107.216-1.264.017-1.94.092-3.36 0M110.533 182.506c.34.228 1.288-.222 1.952.108-.486.543-1.794.718-1.952-.108M120.508 184.893c-.603.66-2.81.174-4.228.324.047-.55.228-.127.542-.108-.214-.25.028-.12.108-.325 1.294.083 2.4.082 3.578.108M111.51 185.217c-.632.272-1.505.024-1.953 0 .56-.668 1.714-.2 1.953 0M113.57 185.108c-.173.48-1.21.092-1.734.217a.5.5 0 0 1-.11-.324c.224 0 1.53-.362 1.843.108M121.05 193.675c-.11.25-.497.225-.866.216.245-.31.42-.063.867-.215M126.038 193.675c-.015.31-.453.2-.758.216-.088-.41.512-.137.758-.215M130.375 193.782c.484-.196 1.254-.062 1.517.11-.197.243-.843-.004-1.625.108.062-.102.3-.165.108-.218M174.938 194c.005.79-1.11.094-1.3 0 .43-.24.775.03 1.3 0M177.974 194.216c.026.28.186-.15.434 0-.43-.286.05-.097.217-.324.318.093-.14.27 0 .542h-.867c-.03-.284.04-.466.324-.433.018.126-.023.193-.108.216M176.02 194.324c-.17.01-.412-.05-.432.11-.12-.028-.074-.217-.22-.22.02-.336.667-.206.653.11M177.648 194.107c.113.76-1.19.326-1.3 0 .548-.36.744.49 1.3 0M172.77 194.107c.336.144.31-.028.76 0-.025.18-.807.436-.76 0M188.164 195.843c-.813.65-2.346.25-3.034.108.467-.41 2.387-.55 3.034-.107M152.06 197.035c-.733.448-1.795.406-2.602.65-.51-.185.52-.237.107-.324.814-.147 1.215-.262 2.496-.325M162.578 197.253c-.382.693-2.383.198-2.82.217.182-.286.952-.336 1.085 0 .452-.12 1.314-.762 1.735-.217M145.23 197.253a.52.52 0 0 0-.11.325c-.372-.396-.863.243-.758-.22-.25.186-.587.283-1.084.22.066-.097.13-.194 0-.22.222-.2.274.16.54.11.013-.336.96-.248 1.41-.215M106.63 197.686c-1.613-.32-2.898.22-4.336-.216 1.168-.016 3.342-.65 4.336.216M108.365 197.253c.11.83-1.545.297-1.627.325.14-.533.93-.167 1.627-.325M145.555 197.253c.183.25.97-.104.868.433h-.868v-.433zM159.324 197.578c-.333.08-.133-.375-.54-.22.442.375-.525.26-.977.22.006-.39 1.56-.6 1.517 0M147.94 199.963c.165.41 1.576-.44 1.952.216.087-.272.494-.23.866-.217-.066.102-.25.4.11.326-1.05.193-1.96-.087-3.255 0 .034-.43.378.12.326-.327M153.036 200.29c-.122.02-.06.106 0 .106-.635.03-1.7.217-2.168-.216.855-.267 1.523-.296 2.276.216-.09.02-.102-.042-.108-.107M153.578 200.29c.767.268 1.388.026 1.734.648-.665-.11-2 .055-1.734-.65M125.17 200.396c.128.018.093.197.11.325-.252.036-.417-.016-.543-.107-.077-.294.513.078.434-.217M160.734 201.265c1.023-.294 1.83.172 2.276.106-.208.693-1.19.073-2.06.22.037-.22-.02-.34-.216-.325M101.86 202.022c1.116.165 2.232-.07 3.36-.108-.724.656-2.225.318-3.144.543.135-.352-.35-.083-.217-.435M111.834 202.457c-.14.404-.607-.308-.65 0-.23-.558.337-.083.65 0M111.943 202.24c.333-.082.208.297.542.217-.05.213-.76.194-.542-.217M115.955 202.674c-.256.25-.974.038-1.41.107.44-.52.604-.084 1.41-.106M116.172 202.674c-.38-.184.21-.278.434-.217-.084.097-.118.244-.11.433-.382.022-.198-.458-.324-.216M122.026 203c-.38-.055-.706-.163-1.19-.108-.084-.556 1.448-.737 1.19.108M118.774 202.565c.09.02.108.108.217.108v.216c-.27.14-.525-.242-.542 0-.443-.247.345-.144.326-.325M172.444 203.324c-1.064.043-3.637.912-4.662-.218 1.73.033 3.055-.236 4.662.218M85.922 203.216c.583.104 1.675-.304 1.625.434-.685.04-1.042.208-1.625 0v-.434zM142.52 203.54c.97.007 1.328.624 1.408 1.518-.716.12-1.478-.507-1.408-1.517M167.13 205.168c.19.366.62-.135.65.434-.065-.033-.416-.27-.433 0-.145-.073-.2-.232-.216-.434M144.146 205.384h.65c-.292.355.23.298.324.434.733 1.033 1.18 3.625.22 4.446-.198-1.535-.29-3.737-1.194-4.88M109.45 207.336c-.45.488-1.764.216-2.278.108.578-.102 1.583-.627 2.277-.108M99.583 207.336c-.186.177-.395.327-.758.324.086-.276.62-.43.758-.324M106.522 207.553c-.28-.34-.9.46-1.085-.108-.34.29-1.07.32-1.95.324.73-.53 2.388-.622 3.035-.217M100.775 207.66c-.383-.213.024-.36.326-.216-.065.097-.13.193 0 .217-.525.216-.926.05-1.41-.107v-.217c.386.134.573.1 1.085.325M101.968 207.553c-.244.06.13.17-.108.326-.336-.178-.42-.095-.65-.22.16-.546 1.55.004 1.734-.216.206.313-.843.607-.976.11M169.19 209.178c-.13.427-1.64.172-1.41-.106-.262.1-1.35.81-1.3-.108.773.24 2.035-.526 2.71.214M116.39 211.022c-.728.308-2.09.05-3.146 0-.59-.027-1.455.267-1.625-.324 2.13.047 3.148-.098 4.77.324M122.786 211.348c-1.16-.167-2.764.277-3.58-.108-.05-.443.274.003.435 0-.03-.252 2.685-.45 2.93 0 .17-.047.092-.34.432-.217-.07.11-.25.11-.216.325M126.58 211.456c-.534.016-2.32-.1-2.71-.217-.105-.38 1.08-.31 1.41-.11.41-.21 1.346-.437 1.3.326M129.507 211.672c.285.44.344 1.652 1.412 1.627.344 1.027.973 1.77 2.058 2.06-.042.51.19.615-.108.867-1.965-.555-3.646-2.464-3.363-4.555"/><path clip-path="url(#b)" fill-rule="evenodd" clip-rule="evenodd" fill="#456A5C" d="M131.134 212.106h.217c.295 1.23 1.993 1.614 1.952 2.82-1.223-.383-2.233-1.504-2.168-2.82M188.49 213.732c-.74.093-2.905.614-3.687.326.145-.713 1.14-.477 1.735-.435.652.048 1.733-.593 1.952.11M136.99 215.792c.082.48-.424.374-.543.65-.516-.243-1.174-.343-1.518-.757v-.326c.48-.057 1.672.04 2.06.432M152.712 215.9c-.3.765-2.143.64-2.713.218.653-.66 2.197-.455 2.712-.218M164.854 216.118c-1.3.18-2.844.29-4.228.325-.425.01-.92.085-1.194-.325.396.095 1.47.073 1.41 0 1.294-.187 2.318-.04 4.012 0M164.963 216.118c.698.12 1.046-.027 1.408.108.01.225-1.3.24-1.407-.108M169.082 216.118h.543v.325c-.363.207-.396-.532-.435 0-.127-.017-.09-.197-.108-.325M175.046 216.118c.14.282.237.327.108.65-.433.24-.736-.068-1.3 0-.044-.658.7-.527 1.192-.65M133.63 216.335c.97.15 1.544.695 2.383.976-.837.67-1.722-.232-2.494-.324-.015-.268-.016-.523.11-.65M171.686 216.443c.147-.42.815.436.76-.108.145.07.2.23.214.435-.47 0-.974.034-1.3-.11-.047-.406.652-.007.326-.217M152.17 217.636c1.807-.215 3.067.035 4.986.107-1.025.294-4.18.457-4.987-.107M157.265 217.854c1.067-.058 2.138-.234 3.144.216-1.19-.128-1.84.092-3.145-.216M166.696 217.962h.543c.02.39-.56.39-.544 0M171.793 218.503c-.487.053-.812-.054-1.192-.108.14-.333 1.36-.825 1.193.108M120.835 219.805c-.093.583-1.333.512-1.844.325v-.543c.607-.01 1.37-.148 1.845.218M108.908 220.78c-.077.393-.792.15-1.192.218.033-.414.907-.396 1.192-.22M141.326 221.54c-1.252.078-2.885.495-3.904-.11.968-.526 2.406-.025 3.47-.54.372.083.61.298.434.65M172.227 221.865c-.613.235-1.434-.02-2.06-.108.27.028 1.71-.807 2.06.108M133.63 223.382c-.81 1.17-2.923.548-4.88.435-2.11-.122-4.642.066-6.506-.108-4.143-.388-8.49-.272-11.6-.327-3.537-.062-6.487-.43-9.76-.107.815-.614 2.597-.408 3.47-.434 2.453-.072 5.556-.005 8.024.324 2.23-.255 6.96-.46 9.975.11 1.307-.626 2.976.037 4.23-.326 2.78.69 4.587-.215 7.046.432M178.298 223.165c-.218.425-1.32.178-1.3-.324.406-.242 1.14-.024 1.3.325M100.34 223.165c.117-.36.33-.006.652-.216-.06.255-.42.448-.65.215M140.784 223.925c-.604.467-1.355-.225-2.17-.108.196-.3 1.635-.183 2.17.108M122.57 234.116c1.487.07 3.59.093 5.095.108-.19.53-1.247.32-2.06.326-1.18.01-2.66.242-3.036-.434M196.514 235.418c-.9.602-2.688.34-3.577 0-1.235.524-2.907.026-3.687 0 1.425-.44 4.056-.335 5.53.108.252-.288 1.415-.58 1.734-.108M183.07 235.418c-.34.64-1.483.267-2.17.325-.92.077-2.143.24-3.035-.108-.277.427-1.184.402-1.735.108 2.26-.576 4.287-.47 6.94-.325M117.69 235.852c-.93.097-3.88.5-4.77.433-.162-.012-.472.014-.435-.324 1.52.057 3.545-.234 5.205-.108M172.227 235.852c-.366.473-.952.326-1.408.324-5.202-.01-12.12.846-17.566.108 4.145-.566 8.993.088 13.66-.217 1.835-.12 3.58-.482 5.313-.215M99.8 235.852c.142.11.4.105.542.216-.07.326-.23-.104-.433 0-.106.003-.085.133-.11.217-.363-.098-.095-.242 0-.433M100.56 236.284c.873-.774 3.028-.11 4.01-.217-.894.574-2.76-.042-4.01.217"/><g><defs><path id="c" d="M64.328 8.512H244.22v235.614H64.33z"/></defs><clipPath id="d"><use xlink:href="#c" overflow="visible"/></clipPath><path clip-path="url(#d)" fill-rule="evenodd" clip-rule="evenodd" fill="#456A5C" d="M115.737 236.72c3.84-.7 6.492-.607 10.3-.436 3.11.142 6.56.003 9.76-.108 5.218-.18 10.09-.134 14.528-.108-.18.582-1.028.306-1.52.326-1.615.065-3.96-.07-5.094.108-.273-.258-.683-.052-1.52 0-1.868.114-4.305.007-5.96.108-2.198.136-4.69.136-7.048.108-2.388-.027-4.84-.42-7.048-.217-1.8.167-3.418.47-5.096.542-.37.018-1.17.436-1.3-.323"/><path clip-path="url(#d)" fill-rule="evenodd" clip-rule="evenodd" fill="#456A5C" d="M212.777 39.93c.042-.762-.56-1.235-.65-2.06-.29-2.648 1.345-4.59 3.035-5.53-.05-1.48-.57-3.934-.216-5.64-1.975-2.1-5.938-2.442-8.35-4.228-.998-.74-2.376-2.313-2.6-3.686-.72-4.376 3.49-6.094 6.61-7.59 1.805-1.667 6.57-2.378 9.652-2.602 4.69-.342 10.138.378 14.094 2.276.24.288.942.704 1.735.76.186.248.43.435.65.65 3.445 1.18 6.025 3.228 7.48 6.397-.205.858-.1 1.26-.108 1.843-.214-.075-.29-.29-.325-.542-.25.567-.383 1.124-.108 1.302-2.403 2.946-7.42 4.96-12.253 6.18.067 1.837-.13 3.41-.216 5.096 1.187.8 1.686 2.29 2.603 3.36.426 2.466-.39 4.2-1.844 5.097.437.454-.185.812 0 1.626-1.293 1.127-3.874.966-6.286.975-.22.34.09.642-.22.976-2.28-.007-4.95.57-6.613-.216-.45.015-.33-.538-.433-.868-15.2-.75-34.076-1.58-48.79-1.41-3.15.037-6.175-.3-9-.216-1.21.036-2.844-.29-3.796 0-.732.224-1.46 1.36-2.168 2.168-1.99 2.272-4.356 4.372-6.07 6.614-.08.372.118.874-.435.976.5 1.812-.68 3.295-.65 5.746.02 1.844.248 3.498.107 5.638.62.285 1.242.566 1.41 1.3-.113.502-.794.438-1.41.435-.102.73-.136 1.527-.108 2.386 4.156.36 8.045-.24 12.36 0 6.668.37 12.454.038 19.3.325 2.355.1 4.744.38 6.94.542 2.2.16 4.37.16 5.964 1.193-.44 1.028-1.666 1.003-2.494 1.518-.945.585-1.653 1.606-2.82 1.844.738 2.64-1.353 6.61-.976 9.54-1.042 1.72-.86 3.878-1.3 5.856-.15.674-.563 1.29-.76 1.95a48.482 48.482 0 0 0-1.52 7.05c-.92 1.366-1.44 3.747-2.058 5.528-1.538 4.42-4.102 8.775-6.397 12.686a3.32 3.32 0 0 1-1.627 2.82c-.06.822.18 1.274 0 1.95 1.69.767 2.812 2.104 3.578 3.795 1.124.826 2.56 1.345 3.686 2.168-.067 1.01.457 1.424.435 2.386 1.023.295 2.22.598 3.362.866 1.128.266 2.354.165 3.035.868.04 1.265-.014 2.763.217 3.796.107.49.556.9.216 1.082 2.256 3.13 7.416 3.356 10.842 5.314.083.78.075.972 0 1.843 3.555.233 6.326 1.322 8.133 3.252.653.7 1.008 2.082 2.17 2.06-.136 1.96-.062 3.02-.217 4.772-5.18.55-10.296.53-15.505 1.086-.14 1.403-.42 3.06-.11 4.336-.6 3.33-.23 8.202-.433 12.685-.576 12.697.247 23.484 0 33.936-.136 5.733.316 12.54 0 19.52-.054 1.198-.355 2.23.217 2.818.5.514 1.02.417 1.843.758 1.758.73 4.13 1.965 5.53 2.713-.47 2.534 2.54 2.77 4.336 4.117.062.044.31.526.327.543.434.382 1.24.92 1.626 1.735.784-.04 1.327.543 1.844.433.08 1.485.196 4.742 0 5.854-2.856-.428-6.713.04-10.95.217-4.185.176-8.626.048-11.82.434-3.173.164-6.524.103-9.974.108-1.48.002-2.79-.21-4.445-.108-8.908.555-18.707.43-27.106.65-2.426.064-4.836.058-7.046-.434-2.002.635-4.23.113-6.29.107-1.423-.003-2.673.087-3.902 0-7.833-.552-16.245.41-23.963.217-1.26-.03-2.54.164-3.794.217-3.175.137-6.325-.18-9.54 0-2.15.122-4.485-.282-7.05-.324-4.727-.077-9.755.405-14.744-.216-.383-1.313-.473-3.967-.108-5.747.647-.04 1.465-.22 2.168-.108.862-2.03 3.166-3.77 4.446-4.662-.137.027-.11.216 0 .218.552-.78 1.928-.928 3.795-1.192.092-.383.093-1.395.326-1.952 2.253-.568 4.82-2.09 7.263-2.928-.01-9.143-.256-21.172-.434-30.9-.087-4.783-.336-9.23-.434-13.554-.05-2.13-.327-4.182-.435-6.288-.086-1.732.173-3.7.11-6.07-.04-1.487.006-2.923 0-4.447-.018-4.328-.58-8.063-.11-12.035-5.544-.205-13.144-.527-18.757-.325-.25-1.378-.04-3.213-.107-4.77.438-.067.695-.317 1.192-.327 2.082-2.796 5.197-4.56 9.215-5.42-.222-.622-.184-1.426.11-2.17 1.19-.437 2.358-1.47 3.47-1.626 1.108-1.092 2.934-1.447 4.226-2.06.794-.377 1.246-1.128 2.277-.976a1.95 1.95 0 0 1 .976-.76c.078-.427.3-.71.54-.975.328-1.218-.06-3.39.436-4.12-.163-.163-.488-.165-.436-.542 1.212-1.423 4.075-.73 6.506-1.303.84-.78.562-1.9 1.192-2.71.9-1.157 2.754-1.05 4.23-1.734.25-.832.588-1.578.866-2.385.798-.72 2.042-.994 2.06-2.493-.39-.475-1.336-.397-1.95-.65.7-1.2.246-1.074-.434-2.385-.792-1.525-1.603-3.42-2.278-4.77-1.098-2.198-2.258-4.143-3.252-6.072-1.168-2.27-1.845-4.892-2.82-7.48-.958-2.548-1.872-5.095-2.6-7.7-1.55-5.525-2.334-11.216-3.58-16.805-.414-.56-.89-1.062-1.734-1.192-.478-.552-.247-.843-.758-1.302-.953-.853-2.907-.17-2.71-1.95 1.165-.592 2.64-.708 4.012-.868 4.707-.545 11.183-.255 16.59-.433 8.484-.28 16.32-.114 24.83-.543-.372-.338-.308-2.317-.435-2.927-.245-.55-1.056-.537-1.193-1.193.79-3.516.232-7.803.76-11.384-.627.11-.938-.78-.868-1.084.26-1.14 2.61-1.684 4.336-1.735 2.185-.066 4.478-.218 5.854-.543-.062-.443-.823-.19-1.084-.434.235-.793.232-.987 0-2.06 1.72-.546 4.368.06 6.397.108 1.062.025 2.22-.34 2.71.542-.36.762-1.33.397-2.06.434-1.73.087-3.774.45-5.097-.216-.175.186-.452.27-.867.216 2.2.69 5.593.19 8.13.542.28.277-.022.527-.216.65 1.1-.01 2.01.667 3.144.435.528-.108 1.398-1.157 1.95-1.735 1.365-1.42 2.238-2.36 3.58-3.795 1.535-1.642 2.785-2.91 4.662-4.23 17.64.28 32.518.455 46.73.87.126-.02.194.022.217.106 2.827-.26 6.983.262 11.6.323m23.745-27.216c-.636-.108-1.16-.728-1.842-.976-.837-.303-2.016-.236-3.146-.434-3.144-.55-7.538-.827-10.95-.867 1.773-.45 4.128-.33 6.18-.217-.99-.912-2.884-.575-4.228-.76-2.104-.288-3.848.146-5.747.65-3.033.808-6.277 1.333-8.132 2.928-.454-.09-.513.21-.867.217-1.02 1.153-3.32 2.047-2.71 4.12 6.624-2.557 14.84-1.826 22.768-1.733 2.688.03 5.495.615 8.023 1.084 2.032.376 4.044.74 5.53 1.518.407.21.83.89 1.41.542-.332-.282-.56-.667-.758-1.084-2.144-1-4.823-1.466-7.156-2.276-5.622-.6-12.183-1.256-18.54-.977-2.16.094-4.27.335-6.073.216 5.48-1.32 12.847-.817 19.083-.108 4.793.544 9.44 1.02 13.23 2.82.23.2.194.67.54.758-.146-1.19-1.61-1.064-1.844-2.168-.814-.27-1.896-.85-2.492-.976.39-.045.148.198-.11.108-6.528-1.93-17.254-2.368-25.37-2.06 3.462-.667 8.177-.756 12.362-.434 2.906.224 5.794.612 8.456.976 1.63.223 3.332.49 4.662 1.193.704-.348 1.352.5 1.95.217-.423-.48-1.215-.59-1.625-1.084-.36.08-.353.45-.76.217-5.652-2.787-13.963-1.985-21.36-2.71 4.962-.564 14.42.153 19.517 1.3M208.115 17.7c-.995.255-2.02.636-2.603 1.302.12.204.27.38.326.65 2.733-2.145 7.784-2.86 12.25-2.82.414.004.98.468 1.303-.216-3.377-.302-7.755.18-11.275 1.084m34.262 2.927c-.028-.318.246-.334.218-.65-2.74-.838-5.537-2.198-8.782-2.17 3.197.598 5.95 1.64 8.564 2.82m-23.203-2.712c-2.285.2-4.256.016-6.18.326-1.03.166-1.872.665-2.928.976-1.255.37-2.583.447-3.687 1.084.048.64.603.77.975 1.084-.014-.613.346-.872.65-1.084 1.082-.747 3.847-1.185 5.856-1.518 5.884-.974 13.745-.623 19.3.108-4.257-.905-9.663-1.353-13.986-.976m20.927 3.145c.584.28.95.958 1.518.76.565-.56-.743-.748-.976-1.194-2.127-.547-4.482-1.444-6.83-1.41 1.887.786 4.545 1.003 6.29 1.843m-29.708.325c2.646-1.247 6.445-1.168 10.19-1.41 4.68-.302 9.755.533 13.445 1.085-6.577-2.086-16.91-2.225-23.964-.435-.734.205-1.235 1.555-1.95 1.084.786 1.385 1.602-.005 2.278-.324m2.492.867c4.113-.957 10.516-.74 14.095-.542-4.633-1.09-11.53-1.05-15.504.434-.52.195-1.498.25-1.41.976.947.19 1.664-.6 2.82-.868m21.36-1.192c1.77.832 4.104 1.1 5.42 2.385a1.82 1.82 0 0 0 1.084-.76c-1.95-.688-4.343-1.506-6.505-1.625m4.013 3.252c.162-.235.62-.173.65-.542-1.61-.74-4.02-1.255-6.07-1.192 1.79.592 4.052.72 5.42 1.735m-25.807.11c3.134-1.54 7.605-1.123 12.146-1.302-3.543-.534-10.08-.643-13.337.76.428.15.62.536 1.19.54m23.206 1.085c.29-.393 1.162-.21 1.3-.758-2.006.162-3.422-.843-5.097-.65 1.218.516 2.885.584 3.796 1.408m-7.374-.65c-5.286-.4-10.104-1.035-14.637 0 .438.79 1.532.308 2.385.216 5.6-.602 12.887.144 17.782.868-1.59-.623-3.552-.934-5.53-1.084m-13.444.975c.336.01.6-.05.76-.216-.247.08-.847-.195-.76.216m16.372.218c-.942.002-1.942-.513-2.82-.216.824.058 2.434.44 2.82.217m-4.12 2.71c-2.91-.613-7.102-.464-10.084-.65.3-.856 2.162-.15 2.928-.54-.38-.056-.818-.05-1.085-.218 3.342-.246 6.154.57 8.998.217-4.21-.47-8.108-.64-11.926-.543-.36 1.415-.44 3.67-.217 5.312 4.52-.48 10.24-1.38 14.854 0 .103-.585.135-1.24.107-1.953-1.386.24-2.234-.247-3.36-.434-3.273-.542-6.93-.42-9.866-.542 2.967-1.15 6.646-.472 9.65-.65m3.577-1.3c.058-.16.16-.273.217-.434-.14-.006-.148-.14-.325-.11-.15.14-.168.533.107.544m-1.19 1.843c.33.21.605.477 1.19.434.167-.158.097-.555.108-.867-.546.03-1.325-.17-1.3.433m-1.084 3.362c-2.075-.158-4.64-.25-6.83-.326-1.197-.042-2.242.272-3.144.325-1.033.06-2.313-.266-3.146.108-.883.397-2.477 2.892-2.385 4.23.033.472.86 2.475 1.41 2.926.452.37 2.662.388 3.686.433 3.83.168 6.917.403 9.543-.434-2.988-.482-6.848-.093-9.542-.868 3.73-.202 9.66-.115 13.013.108.638.042 1.23.252 1.3-.542-.49-.128-.242.48-.758.325-3.38-.844-7.768-.676-11.384-.542-.573.022-1.63.56-1.952-.324 3.777-.182 8.005-.724 12.47-.326.58.05 1.362.543 1.843-.108-.717-.59-1.82-.326-2.71-.326-3.244 0-6.302-.522-8.782-.433-1.262.045-2.565.426-3.47-.217 4.84-.144 9.653-.43 13.77-.217.18.287 1.282.697 1.52.216-.027-.534-.86-.49-1.302-.542-2.72-.33-6.116-.185-9.218-.325-.728-.034-1.406-.138-2.058-.11-.508.022-1.4.445-1.627-.216 3.994-1.097 9.52-.213 13.986.108-.417-.9-1.66-.634-2.603-.76-3.148-.418-6.46-.627-9.758-.758 1.227-.632 2.987-.772 4.876-.76 1.507.012 5.274.208 6.29.76.224.12.214.64.54.433-.318-1.06-1.893-1.715-3.575-1.842M148.375 47.52c2.534-1.965 4.626-5.262 7.48-6.507 1.263-.55 3.53-.08 4.013-.108 12.112.102 25.91.026 38.708.542.992.04 2.013-.098 2.82 0 .462.057.704.3 1.08.325 2 .14 4.025.044 6.074.217 6.534.55 12.943.65 19.514.65.988 0 2.208.257 2.603-.87-.652-.584-1.624-.38-2.385-.433-.968-.066-1.95-.208-2.927-.217-7.62-.063-15.718-.672-23.96-.65-8.03.02-15.738-.767-23.314-.65-5.024.077-9.79-.506-14.742-.542-1.873-.014-3.972-.338-5.857-.108-.302.037-.77.28-1.19.326-.777.084-1.592-.302-2.17-.11-.575.194-1.36 1.362-2.06 1.952-2.258 1.906-4.1 4.368-5.853 6.18-.187.347-1.19.943-.76 1.193 1.1.574 2.154-.594 2.927-1.19m48.357-7.59c1.303.143 3.262.206 4.554 0-1.313-.033-3.24-.315-4.553 0m33.396 0c-.044.086.677.036.758-.11-.09-.092-.847-.297-.758.11m-28.625.107c.488-.07.854.3 1.085-.108-.29.038-1.32-.1-1.084.107m4.447 2.277c-.297.08-.22-.216-.435-.217.073.528-.915-.006-.866.217.384.086 1.08.386 1.3 0m-63.97 7.264c-5.453.24-10.83-.49-16.045.11.92.977 2.885.454 4.23.432 1.123-.018 2.333.172 3.577.217 2.216.08 4.572-.11 6.723.11 2.01.204 4.406.658 6.18-.218-1.13-1.116-2.513-.746-4.663-.652m-16.806 2.06c-.024.156-.177.184-.216.326-.058 2.657-.327 5.388-.217 7.7.02.422-.273 1.106.217 1.408.86-2.452.75-5.673.977-9.325-.376.087-.417-.162-.76-.108m1.302.215c.18 4.21-.155 7.525.108 11.384 1.933.155 4.535-.03 6.18-.11.065-.694.173-1.343.433-1.842-.084-.53-.516-.712-.54-1.302.12-.275.478-.314.865-.325-.003-.647-.71-.588-.758-1.192.193-.422.804-.426.868-.976-.43-.33-.93-.59-.975-1.302.39-.116.847-.164.975-.542-.132-.663-.932-.66-.975-1.41.113-.39.787-.223.865-.65-.32-.473-.852-.738-.758-1.626-1.664-.22-4.192-.29-6.288-.107m13.337 1.41c.032.254.512.064.432.433-.104.62-.66.786-.65 1.518.363.145.736.275.868.65-.193.53-.685.762-.868 1.302.495.12.816.413.977.868-.317.333-.52.783-.978.976-.01.552.67.413.76.867.126.776-.667.634-.76 1.19-.01.372.66.063.65.435-.006.5.05 1.06-.108 1.41 1.745.282 3.5.044 4.77.216.29-4.37.135-7.054.328-11.383-1.628.073-3.543-.144-4.99.11.687.47-.727.985-.433 1.408m5.853 9.758c.612-1 .266-2.47.324-3.795.085-1.836.25-3.5.11-4.987-.024-.084-.092-.125-.218-.108.065 3.03-.037 6.465-.217 8.89m-11.276-.433c1.024.58 3.074.055 4.01 0-.824-.407-3.417-.725-4.01 0m-7.698 4.445c1.604-.052 3.053.054 4.552.11-.053-.732-.022-1.467-.108-2.17-1.447-.18-2.93-.323-4.553-.325-.066.897.085 1.578.11 2.385m15.178.11c.746-.194 1.8-.08 2.71-.11-.504-.783.364-.94.217-1.952-.515-.126-1.823-.11-3.035-.11-.225.584-.13 1.7.108 2.17m3.903-1.084c.012-.447.018-.887-.216-1.086.105.33-.232 1.1.217 1.085M132 67.143h2.17c.262-.497-.056-1.573.217-2.06h-2.17c.073.83-.174 1.34-.216 2.06m2.82 0c.586-.317.56-1.247.76-1.952-.255.003-.32-.187-.65-.108.187.566-.17 1.285-.11 2.06m3.904.107h.217c.228-.79.234-1.288.436-1.95-.362-.037-.48-.315-.978-.218.312.522-.184 1.848.326 2.17m2.71 1.41c3-.073 6.29.143 9.108-.11-2.894-.1-6.29-.255-9.107.11m20.492 0c.222.062.854-.075.325-.11h-.867c-2.724-.203-7.8-.316-10.084.11 3.86.052 7.212-.098 10.627 0m-22.987 0c.846.075.846-.185 0-.11-5.014-.13-10.653-.103-15.18 0 4.995.694 9.432-.03 15.18.11m-52.26.76c-2.146.093-4.386-.348-5.637.432 3.37-.186 8.276-.236 11.708-.65-2.023-.167-4.372.14-6.07.217m82.078 0c-4.468-.167-10.35-.513-14.204 0-2.212.295-4.846-.108-7.264-.108-5.242 0-10.246.167-15.29.326-4.85.15-9.463-.134-14.093-.11-7.885.042-15.59-.198-23.53.326-4.118.27-8.157.924-12.142.542.72 2.563 3.357 1.844 5.528 1.735 1.11-.055 2.188.02 3.254 0 1.05-.02 2.067-.136 3.143-.216 4.905-.365 9.59-.03 14.42.108 1.99.057 4.015-.196 6.072-.108 1.043.044 2.023-.102 3.037-.11.983-.006 1.877-.18 2.818-.216 2.733-.105 5.125.335 7.698.326 3.66-.014 7.335-.186 10.95-.11 1.336.03 2.638.347 4.013.435 2.544.162 5.446-.485 8.347-.435 5.492.098 11.312.127 17.457-.108 2.83-.11 5.647-.468 8.24-.434 1.318.017 2.773.304 3.902.325 1.422.027 2.98-.134 4.338-.107 1.245.024 2.795.54 3.252-.975-6.447-.932-12.763-.816-19.948-1.084m-87.932.218c-.11-.12-.59-.408-.758-.11.287-.06.552.447.758.11m94.653 3.144c2.12.382 5.78.226 8.457.108.565-.024 1.67.342 1.843-.434-2.732.43-6.987-.288-10.3.326m-9.11.108c1.967.062 4.845.356 6.616-.108-1.728-.11-5.32-.245-6.615.108m-41.308.11c-1.122-.15-4.128-.494-5.53 0 2.188-.03 3.63.21 5.53 0m-7.264.106c.744-.093 1.137.13 1.625-.217-.49.122-1.486-.26-1.625.216m-9.433.108c2.38 0 3.768.054 5.42-.216-1.75.057-4.348-.16-5.42.216m27.54-.108c-5.666.326-12.146.052-16.914.542 7.542.124 15.08.053 22.444-.11 3.374-.072 6.98-.01 10.408-.432-5.02.13-10.814-.294-15.936 0m20.816 0c-1.117-.112-2.806-.228-3.903 0 1.265.335 2.368.21 3.902 0m-61.802.65c3.48-.23 6.216.046 8.892-.542-2.518.158-6.376-.214-8.892.542m-.65 0c-.48-.136-2.367-.377-3.252-.108 1.02.1 2.103.138 3.252.108m8.35.326c.833-.207 2.136 0 2.708-.326.16.164 1.09.468 1.194-.108-1.186-.104-3.226.072-3.903.434m81.208-.434c-3.187.026-7.208-.012-10.19.65 4.48-.378 8.527.19 11.817.11.35-.865-1.032-.764-1.627-.76m-19.84 3.687c-2.893.16-5.45-.89-8.242-.326-.03-.213.146-.215.218-.326-1.438.012-2.527-.27-3.903 0 .376.246.752-.18.977.217-4.178-.318-9.086.09-12.795.11a41.34 41.34 0 0 1-3.36-.11c-2.325-.18-4.84.043-6.94-.108-2.63-.19-5.208-.452-7.154-.65-.676-.07-1.482.13-2.06-.326 1.14-.216 2.46-.04 4.01-.108 2.494-.11 5.44.45 7.807.217 2.164-.214 5.587-.24 8.24-.434 3.42-.248 6.653.137 9.867-.433-2.875-.008-6.42-.47-9.434-.11-1.11.135-2.172.768-3.034.11-6.173.692-12.05-.822-18-.325-.107-.37.337-.618-.216-.542-.91-.294-.762.467-1.193.65-4.54-.227-7.867.075-11.71 0-1.272-.437-3.54-.475-5.313-.325-2.628.222-5.296.22-7.698.326-2.197.097-4.413.28-6.396.325-.617.015-1.306-.44-1.735.326 6.148-.416 14.644.197 20.167.435 1.484-.605 3.128-.528 5.096-.65 1.474-.093 2.65.07 3.578.216 1.56.244 3.345-.105 4.555.76-1.132.38-2.745.278-4.122.217-2.736-.122-5.794.14-8.35-.11-1.158-.11-2.332-.134-3.36-.54-1.535.612-3.627.66-5.854.757-4.062.18-7.828-.188-11.384.434.573.592 1.52.175 2.168.11 3.916-.402 9.367.493 13.77.216 1.722.78 3.207.358 4.662.216 3.3-.322 7.555.206 10.735.542.628.066 1.277-.156 1.735.326-.332.727-1.43.36-2.06.325-.716-.04-1.477.035-2.17 0-2.883-.146-5.52-.352-8.24-.217-1.022-.63-2.15-.378-3.578-.325-5.71.21-12.553.032-16.697.217-.084.446.167.556.108.975.83.217.722-.506 1.3-.542 5.477-.244 9.625.726 14.205.434.406.373 1.35.417 1.518.434-1.307.7-2.745.278-4.23.217-4.16-.17-8.252.403-12.576.11.024.625-.036 1.335.542 1.408.648-.632 1.615-.454 2.71-.542 2.184-.174 4.224-.327 6.29-.108.842.09 1.633.447 2.49.542 1.172.13 2.593-.37 3.58.434-1.14.565-2.47.325-3.686.325-4.98 0-6.962.036-11.495.108-.044.517.16.783.218 1.194 4.098-.75 8.298-.79 12.36-.434.937.08 2.27.134 2.71.867-.472.54-1.158.14-1.95.108-1.167-.047-2.364.23-3.688.324-2.968.213-6.42-.766-9.216.107.243 1.002 1.508.45 2.168.435 2.97-.063 6.19-.106 9 .216 1.063.123 2.403-.35 3.253.326-.404.467-1.267.178-1.95.216-1.397.08-2.947.472-4.122.65 1.102.02 2.07.17 2.818.543 1.287.186 3.187-.35 3.796.76-4.597.15-9.35.23-13.987 0-.046.552.166.845.325 1.192 2.72-.903 7.054-.676 9.542-.542.812.043 1.758.07 2.385.217.247.058.288.352.54.434.46.148 1.426-.244 1.302.65-.116.293-.415.152-.65.217-1.036.282-2.164.215-3.686.218-1.63.003-3.246.044-4.88-.217-1.57-.25-3.263-.93-4.662-.216.235 1.36 2.05.687 3.145.65 3.206-.107 5.376.283 8.023.434.772.044 1.805-.247 2.278.434-.605.59-1.308.138-1.952.108-2.928-.134-6.19.477-8.89.108-.842-.114-1.54-.682-2.277-.324.093.646.52.47.76 1.084 3.704.15 7.334.053 11.277-.11.686-.026 1.515-.062 1.734.652-1.09.104-2.713.22-3.686.76-3.472.474-5.52-.177-9.108-.435-.1.497.27.523.217.977 5.083.516 8.85-.102 12.577.216-.55 1.49-2.704.962-4.01 1.084-.75.07-1.486.336-2.28.325-2.042-.025-4.128-.784-5.853-.325.36 1.184 2.007.705 3.252.65 2.264-.1 4.803-.06 7.265 0 .596.015 1.663-.2 1.842.543-.265.57-.974.35-1.518.434-3.1.468-7.242-.092-10.3.324 1.28.676 3.125.255 4.444.217 2.538-.072 5.06.1 7.48.218-.04.907-1.278.635-1.95.76-.588.107-1.14.374-1.735.433-2.553.254-5.91-.48-7.808-.433 0 1.293 1.35.994 2.385.977 3.586-.062 7.437-.144 10.3.107-.653 1.154-2.43 1.016-4.012 1.085-2.838.125-5.79.042-7.914-.108.39 1.525 2.074.686 3.253.65 2.788-.08 6.405.63 8.89 0 .067.404.535.406.435.977-3.674.8-8.083.314-11.927-.11.17.48.235 1.07.65 1.303 3.33-.428 6.363-.185 9.11-.325.967-.05 2.963-.79 2.818.76-3.772.898-8.19.275-11.71.324.39 1.708 2.697.875 4.23.868 2.383-.012 5.252.344 7.263.217.616-.04 1.275-.55 1.736-.107-.948 1.29-3.19 1.015-5.205 1.3-.59.085-1.1.313-1.625.326-1.983.05-4.014-.74-5.53-.543.696 1.688 3.08.79 4.988.866 1.817.074 3.36.22 4.77.326 1.14.086 2.267-.31 3.037.216-.412.943-1.666.562-2.82.542-2.867-.048-6.533.146-9.215-.324.184.467.455.845.758 1.192 2.967-.74 6.647.075 9.434.434.784.1 1.665-.112 2.276.325v.542c-2.768.453-6.63.44-9.325 0-.315-.05-.757-.31-1.084-.325-.42-.02-.675.093-.867.217-.262-.015.223.97.435 1.19 2.487-.112 4.485-.718 7.264-.54.438.073-.086.6.326.54 1.322.106 2.795-.445 4.012.11-.14.737-1.108.582-1.627.65-3.37.44-6.228.788-9.434.216.225.924 1.565.636 2.494.65 2.685.044 6.193.257 8.567-.108.334.026.182.54.65.435.753-.002 1.496.193 2.493.217.888.02 2.307-.472 3.254.108-3.084.537-6.34-.35-9.107.542-.237-.01-1.354-.02-.76.107 3.965.154 7.207.98 10.19.435-.125.26-.46-.178-.323-.542 1.517.757 3.56.19 5.528.217 1.272.017 2.37.474 3.47.65.603.097 1.115-.107 1.734-.108 1.43-.005 2.984.232 4.445.216 2.626-.028 5.497-.108 8.024 0-6.583 1.224-14.25-.195-21.358.435-.42.096-.178-.474-.65-.326-2.278.186-3.336.162-5.64-.107-2.897 1.033-8.368-.286-11.275.543.503.792.838.104 1.518 0 2.037-.314 4.49.15 6.614.434 1.162.154 2.332-.097 3.36 0 .853.08 1.642.377 2.494.433.903.06 1.77.063 2.71 0 .1-.073-.117-.745.217-.866 2.25.755 4.74.295 7.156.435.618.035 1.243.282 1.842.324 5.116.36 10.8.2 15.505.433 2.23.11 4.39-.25 6.397 0-2.71.752-5.782.315-8.674.218-2.533-.085-5.155.226-7.807.11-3.333-.147-6.285-.698-9.107.106 2.002.573 4.286.548 6.397.542 6.402-.015 12.83-.313 18.866.11-.136-.553-1.427.05-1.735-.327 6.434-.612 13.8-.296 19.192-1.95-5.586-.117-10.423.25-15.94 0-1.136-.052-2.527-.033-3.143-.542 1.515-.462 3.18-.233 4.878-.217 4.616.047 9.212-.546 13.986-.866 3.42-.23 6.916.113 9.325-.867-4.522.47-9.092.33-13.77.54-3.302.15-6.54.657-9.218.327-.513-.063-1.024-.396-1.518-.434-.82-.063-2.197.516-2.386-.65 6.67-.08 14.64-.475 21.686-.76 1.642-.065 3.255-.113 4.445-.542-6.46-.354-13.56.41-20.06 0-1.71-.108-3.658.036-5.097-.325.537-.82 1.394-.405 2.062-.433 7.77-.34 16.58-.364 24.287-1.628-8.504.16-15.97.47-23.854.325-1.153-.02-2.03.27-3.035-.216.482-.608 1.3-.214 1.95-.216 3.2-.013 6.78-.795 10.41-1.085 5.598-.447 11.73.117 16.046-.325.307-.032 1.178.305 1.084-.435-1.61-.066-3.283.21-4.988.325-2.747.185-5.702-.338-8.674-.325-4.898.02-9.528-.33-13.553-.326-.51.002-1.31.65-1.845 0 .435-.43 1.063-.402 1.627-.433 3.092-.163 6.9-.168 10.19-.433.486-.04.953-.187 1.41-.217.61-.04 2.158.192 2.277-.326-4.012.128-8.578-.147-12.36-.107-.876.01-2.737.43-3.146-.325 2.11-.483 4.597-.29 6.94-.325 3.217-.05 6.864-.643 9.975-.435 3.833.257 7.567-.304 10.84-.433 1.25-.05 2.466.46 2.93-.327-4.938.644-9.983.068-14.746 0-5.275-.075-9.33.07-14.42-.108-.638-.022-1.515.295-2.06-.325 8.016-.367 14.573-.01 21.25-.867-3.96-.057-7.417-.31-10.517-.217-2.828.084-5.234-.31-8.023-.434-.695-.03-1.835.374-2.278-.435 2.288-.49 4.544-.13 6.83-.216 5.426-.206 10.897-.82 16.48-.758 2.74.03 6.497.167 9-.326.17-.157.228-.423.218-.758-3.476.314-6.98.323-10.084.867.033-.286-.15-.356-.434-.325-3.596.62-7.507-.08-11.385-.218-2.844-.1-5.537.128-8.022 0-.98-.05-2.348.11-2.71-.65.715-.34 1.264.076 1.734.108.02 0 .932.014.543-.108-.085-.024-.216-.002-.218-.108 1.037.056 1.91-.025 3.146 0 .19.053-.05.115-.108.217.59.156.525-.34.975-.324 9.128-.093 16.58-.64 26.998-.542-.077-.4.185-.466.108-.867-10.286.585-21.713.603-29.167.65-1.32-.62-4.283.248-5.42-.976 2.996-.105 9.02.23 13.01-.325 6.346.232 13.473-.493 22.01-.325.042-.282.056-.594.217-.76-2.627-.157-6.666.466-9.65.543-2.395.063-4.548-.333-6.83-.434-2.567-.112-5.215-.057-7.698-.11-2.512-.05-4.87.214-6.94 0-.626-.062-1.23-.278-1.843-.324-.99-.073-2.96.338-3.036-.65 4.557-.05 9.53.614 14.64.217 2.26-.176 4.83-.55 7.48-.542 4.957.014 9.32.084 13.66-.433.415-.09.13.522.543.434.05-.383.24-.625.216-1.083-6.582-.014-13.08.666-19.407.65-1.487-.004-2.974-.428-4.446-.434-1.654-.007-3.312.153-4.88.108-1.445-.04-2.906-.385-4.337-.433-1.552-.053-3.394.61-4.336-.435 1.66-.292 2.408.336 4.12-.108.05.2 1.09.284.542.108-.06 0-.122-.087 0-.108 1.29.398 1.955-.118 3.036.325 1.35-.647 4.214-.3 6.18-.326 2.678-.034 5.495-.193 8.348-.216 4.385-.036 8.95-.522 13.555-.542.815-.004 2.354.678 2.276-.977-2.01-.2-3.792.308-5.53.433-2.847.204-6.245.274-8.673.325-3.408.072-6.81-.365-10.19-.217-3.774.167-7.58-.29-11.277-.215-.758.015-1.257.478-1.625-.218 5.536-.873 11.746-.304 17.89-.76 1.76-.13 3.534-.676 5.31-.65 3.377.05 7.01-.52 10.626-.216 1.054.09 4.015.858 4.123-.54-1.935.138-4.044.09-6.29.107-3.46.028-7.5.432-11.167.434-4.97.003-9.738.074-14.096.11-.713.005-1.403-.045-2.06-.326-2.115.33-4.912.446-6.182.108 2.532-.784 4.77-.164 7.374-.542 3.448-.5 6.805-.494 10.517-.868a53.55 53.55 0 0 1 3.794-.217c1.34-.035 2.767-.148 4.122-.108 4.355.13 8.435-.2 13.227.108.21.014 1.004.345 1.084-.217.172-.416-.413-.304-.54-.325-1.378-.23-2.956-.033-4.34 0-5.97.145-13.14-.348-19.407.108-1.67.123-3.03.118-4.554 0-1.847-.14-3.83.14-5.747.11-1.146-.02-2.267-.242-3.36-.218-1.065.023-2.457.544-3.363-.325 3.195-.252 6.432.096 9.76 0 3.354-.096 6.802-.503 10.408-.65 3.875-.158 9.433.034 13.01-.65-4.165.05-8.952.303-13.227.108-1.247-.057-2.74.098-3.687 0-.393-.04-.776-.27-1.19-.325-1.95-.256-4.382-.004-6.507 0-2.1.004-4.257-.064-6.18-.108-.77-.02-1.857.416-2.387-.435 3.866-.363 8.05.424 11.928-.108 1.985-.272 3.724-.24 5.42-.325.408.082.077-.576.543-.434 5.914-.183 13.756.307 20.602-.216 1.54-.118 3.678.4 3.686-.977-1.935-.073-4.607-.196-6.614.325-2.608-.407-5.164.298-7.372.434-2.666.166-5.364-.324-8.133-.324-5.7 0-11.36.76-16.372.107-.755.17-4.558.364-4.77-.326.53.506-.185-.303.542-.108 2.952-.33 7.008-.264 9.107.108 3.625-.246 7.21.006 10.735-.325 4.063-.382 8.407-.842 12.793-1.085 2.886-.16 5.7.114 8.456-.11.708-.056 1.588.025 1.842-.433-14.396.025-26.14 1.01-38.707.76-.954-.02-1.88-.27-2.82-.435-.398.208-1.666.477-1.733-.217 2.193-.457 4.245-.328 6.18-.326.28 0 .615.23.868.217 7.47-.352 17.76-1.104 25.37-1.517-3.6-.368-6.915.06-10.19 0-2.178-.04-4.323-.44-6.506-.434-2.226.006-4.34.207-6.506.215-1.57.007-3.154-.068-4.662 0-2.11.096-4.256.47-5.747.108-.755-.183-1.002-.006-1.626 0-2.333.02-4.81.195-7.157-.108 1.604-.258 3.193-.167 4.88-.108.212-.2.906-.142 1.19-.108.524.06.18-.078.543-.11.16-.013.232.218.218.218.145 0 .096-.21.215-.217-.006 0 .198.217.218.218.666.013 1.318-.217 2.062-.108 1.015-.394 2.69-.056 4.228-.217 1.128-.12 2.07-.485 3.146-.434.205.008.428.217.65.216.635-.004 1.38-.394 2.06-.434.456-.028.926.223 1.41.217 1.084-.014 2.26-.303 3.36-.327 2.193-.047 4.66.215 7.157.326 1.786.077 3.568-.245 5.422-.327 6.253-.275 11.505.12 17.13.217v-.868c-6.63.504-14.25-.058-21.248.333M89.932 92.84c.045.425.044.897.435.977-.136-.336-.118-.824-.435-.977m70.585-18.324h.76c2.64.214 4.396.19 6.832-.11-2.424-.12-4.788-.034-7.593.11m-27.54.217c.64.03 1.373.318 1.844-.108-.777.106-1.373-.28-1.842.108m21.467-.108h.65c.6-.07-1.38-.342-1.3.108.385-.095.266-.013.65-.108m27.107.758c-.235-.078-.69.11-.217.11 1.052.14 2.27.112 3.47.107.342-.053.04.538.434.434.337-.024.182-.54.216-.868-1.242.307-2.48.03-3.904.217m-4.445 0c-.32.017-1.11-.26-1.303.326 1.364-.265 3.38.123 4.555-.327-1.21-.1-2.23-.052-3.253 0m-90.644 2.603c.458-.1.75.037 1.194-.217-.428.02-.978-.224-1.194.216m63.538.542c1.61.08 3.295-.043 5.42-.217-2.13-.13-4.363-.214-5.42.218m29.273.433c.557.666 1.777.257 2.71.218.93-.038 2.878.25 3.037-.65-1.547.567-3.793.255-5.747.433m-2.276 0c-.006.067-.015.13-.107.11-1.697-.046-.962.177 0 .108.387-.168.76.048 1.19-.217h-1.083zm2.928 5.748c-1.58-.064-2.967.067-4.12.434 2.867.115 5.162.053 8.023.325-.023-.443.276-.803 0-1.302-1.364.588-2.806-.332-3.903.543m-86.74 1.518c.153.01.416-.024.218-.108h-.65c-1.34-.25-2.78-.4-4.337-.433-.108 0-.13.087-.217.107.083.422.085.926.434 1.084 1.25-.408 2.67-.642 4.552-.65m62.56 11.06c.46-.12 1.41.254 1.52-.218-.39.19-1.174-.017-1.52.217m13.987 4.88c2.423-.263 5.23-.184 7.264-.218.788-.014 1.85.098 2.385-.543-3.14-.377-6.488.4-9.65.76m6.832 3.036c-3.374.16-7.875.382-11.06.433 3.07.037 7.61.302 10.625.11.677-.045 1.38-.02 1.626-.435-.28-.5-.826-.125-1.192-.108m-77.522 9.324c2.192-.123 4.524-.18 5.963-.542-2.283-.198-4.86-.04-6.505-.542.227.315.33.752.542 1.084m3.36 2.06c2.667.32 4.574.407 7.48.217-2.782-.096-6.114-.61-9.215-.324.484.328 1.435.143 1.735.11m57.247.865c-3.827.382-7.705-.248-11.276.327-.546.087-.986.375-1.52.434-1.238.14-2.56-.332-3.794-.216-1.16.108-2.36.43-3.577.434-1.585.004-3.088.002-4.446 0 5.32.938 11.053 0 16.48 0 2.547 0 4.992-.616 7.482-.76 4.424-.253 8.85-.384 13.01-1.3-4.175.25-8.12.66-12.36 1.083m-49.226-.65c.775-.014 1.122.398 1.627.65 1.492-.524 4.432.575 5.314-.432-2.025-.15-4.947-.458-6.94-.217m60.827.65c-4.834 1.2-11.06 1.012-16.696 1.41-.52-.028.382.465-.325.435-2.027.08-3.986.046-6.072 0-2.048-.044-4.158.313-6.29.326-7.454.04-15.787.375-23.636-.217-.003-.16.644-.156.108-.217-.772-.09.03.21-.433.217-3.29.05-6.186-.674-9-.217-.94-.4-2.56-.396-4.12-.435-1.043-.022-2.474-.284-2.928.544.556.69 1.638.496 2.384.543 5.84.357 11.44.615 17.132.976 6.565.416 12.363.084 19.408.108.79.004 1.496.287 2.276.327 1.468.07 3.07-.136 4.554-.218 3.825-.215 7.433-.603 11.17-.76 2.102-.09 4.468-.658 6.613-.977 1.07-.16 2.37-.333 3.47-.543.976-.186 2.735-.333 2.493-1.3h-.11zm-59.957.978c.6-.04.917.22 1.3-.108-.355.047-1.476-.11-1.3.108m6.505.108c-1.245-.135-3.302-.283-4.77-.108 1.472.08 3.37.314 4.77.108m9.65.325c2.578.02 4.573-.05 6.614-.216.115-.006.086-.14-.108-.108-3.32-.362-7.148-.208-9.866 0 .95.576 2.206.316 3.36.325m-21.36 1.627c-1.138-.054.262.404.867.11-.254.097-.56-.096-.867-.11m65.055.543c-.314-.083-.28-.514-.758-.434.022.308.674.546.758.434m-1.084 1.843c-.004-1.153-.77-1.546-1.302-2.168.383.774 1.025 1.287 1.3 2.168m-9.54-1.41c-.016.31-.744-.093-.76.218.822 1.06 1.065 2.695 1.41 4.23.376.086.418-.16.76-.108.226-2.144-.74-3.093-1.41-4.34m11.71 2.603c.24-.4-.132-2.504-.76-2.385.56.487.335 1.762.76 2.385m-72.754-1.3c.255-.396.583-.718.867-1.084-.553.026-.992.738-.866 1.085m58.766-.976c.202.88.568 1.92.76 2.925.08.427-.167 1.142.433 1.303 1.137-1.037.186-3.5-.54-4.337-.333-.078-.32.187-.653.11m-52.91 3.685c.497-1.454 1.16-2.742 2.168-3.686-1.366.487-2.548 2.156-2.17 3.685m58.55-2.928c.236-.313-.02-.86-.54-.758.092.34.2.665.54.757m-6.506 3.795c.457-.05 1.012 0 1.193-.324-.44-1.13-.086-3.95-1.844-4.12.142 1.133.714 2.752.652 4.444m16.59-2.926c.02-.127.17-.118.326-.11-.038-.613-.42-1.458-.87-1.3.297.354.203 1.1.544 1.41m-18.866 1.95c-.318-1.018-.43-2.243-.76-3.252-3.365.346-6.155-.034-8.78.433-.42.92.426 3.026-.652 2.82.252-.924.003-2.03-.108-2.927h-1.19c-.51 1.738.256 3.078-.22 4.553 4.104-.075 9.443-.55 13.337-.65-.166-1.605-.56-2.983-.976-4.337h-.758c-.174 1.23 1.082 2.686.106 3.36m-51.935-.108h.543c-.22-.942 1.19-2.58 1.084-3.144-.844.746-1.245 1.935-1.626 3.144m-3.036-.976c.128.125.385.124.65.108.233-.815.743-1.354.977-2.168-1.136.093-1.23 1.227-1.626 2.06m12.577-1.517c.233.785-1.5 2.604-.866 3.796.65-1.302 1.128-2.776 1.844-4.013.166-.025.015-.178-.11-.217-.213.22-.608.258-.867.435m.327 3.903c.374-.047.61.043.868.108.507-1.66 1.122-3.215 2.06-4.446-2.404.13-2.678 2.323-2.928 4.338m-6.83-.65c.14.15.47.107.758.108.308-1.428 1.134-2.337 1.518-3.686-1.527.424-1.843 2.058-2.276 3.578m10.517-3.578c-.8 1.262-1.574 2.546-1.844 4.336h.867c.48-1.618 1.24-2.952 1.953-4.336h-.976zm18.432.107c-.3 1.607.066 3.232-.11 4.555.293.213.95.065 1.41.108-.02-1.55.36-3.65-.107-4.663-.255-.198-.69.113-1.194 0m1.842 4.663h1.41c.55-1.548-.093-2.928 0-4.77h-1.41c-.06 1.845.517 3.27 0 4.77m1.952-.108c.474.177 1.387.168 1.735-.108-.192-1.075.344-2.844.108-4.446-.357-.222-1.1-.057-1.627-.106-.09 2.237.45 2.62-.216 4.66m2.603-.217c-.247-.03-.407.025-.435.217.535-.093.73-.083 1.627-.108.732-1.248.047-2.723-.217-4.553h-1.084c-.032 1.586-.042 2.655.11 4.445m-33.83-.65c.368.03.624.172 1.085.106.36-1.407 1-2.54 1.516-3.794-1.663.433-2.024 2.17-2.602 3.69m9 .106c-.16.2-.56.163-.542.543.942.08 2.418.166 3.145.108.158-1.9 1.067-3.052 1.734-4.446-3.042-.33-3.944 1.477-4.336 3.795m5.097-3.795c-.658 1.194-2.43 2.857-1.518 4.555h.435c0-2.058.835-3.283 1.625-4.555h-.54zm-.217 3.362c-.13.603.012.872-.326 1.19h.867c.018-1.65.633-3.526 1.626-4.554H123c.05.74-1.122 2.044-1.407 3.363m1.95 1.3c1.034.172.58-1.058.652-1.518.176-1.145.9-2.19 1.192-3.036-1.897-.13-1.972 2.923-1.843 4.554m3.362-4.23c-.237 1.355-.933 2.247-.976 3.796.58-.217.258.464.76.325.55-1.505.424-3.165 1.41-4.336-.298-.338-1.06-.202-1.41 0 .296.096-.212.48.216.217m1.95-.107c.026 1.577-.73 3.04-.434 4.23h.65c.5-1.31.5-3.114.868-4.556-.546-.076-.82.12-1.083.326m2.385-.326c-.29 1.447-.214 2.564-.324 4.446.26.06.62.02 1.083.108.242-1.565.46-3.174.11-4.554h-.868zm2.06 4.555h1.194c-.065-1.434.188-2.773 0-4.445-2.032-.513-.63 3.147-1.193 4.445m-23.854-.76c.458.163.938.247 1.3 0 .033-.943.864-2.477 1.3-3.686-1.855.24-2 2.19-2.6 3.686m-7.807-1.627c.402-.43.693-1.545.76-1.95-.334.515-.984 1.234-.76 1.95m68.742-.324c-.163-.415-.09-1.064-.326-1.408.035.54-.115 1.27.325 1.41m8.456 2.818a2.35 2.35 0 0 1 .11-.975c-.625-.21-1.385-.855-1.953-.76.67.523 1.06 1.327 1.844 1.735m-84.57-.325c.56-.306 1.117-.618 1.41-1.192-.736.132-1.24.493-1.41 1.192m1.3 1.192c.205.088.397.18.652.218-.05-1.208 1.105-1.785 1.3-2.386-.833.54-1.97.776-1.95 2.167m2.71.543c-.032-.793.92-1.538 1.192-2.385-1.328.08-1.746 1.073-1.95 2.274.145.083.756.243.758.11m.76.217c1.052.257 1.013-1.415 1.734-1.844.357-.152 1.083-.503.976-.758-1.085.686-2.4 1.14-2.71 2.602m2.385.542c.057-.372.52-.167.758-.11.24-1.104 1.168-2.072 1.41-2.82-1.5.08-2.9 1.663-2.168 2.93m66.464-1.41c.103.526-.255 1.452.434 1.734.205-.94-.137-2.504-.976-3.254.11.527.43.953.543 1.52m-2.71 2.167c.352.063.504-.074.76-.107-.148-1.334-.696-2.27-.977-3.47h-.543c.1 1.284.978 2.336.76 3.577m-2.278-3.36c.15 1.332.59 2.373.868 3.576.352.063.503-.073.758-.108-.244-1.2-.46-2.43-.866-3.47-.343-.148-.362-.02-.76 0m-57.573 2.495c.213.365.38.776 1.084.65.248-1.306.908-2.198 1.625-3.035-1.154.12-2.15 1.313-2.71 2.385m-2.17 0c.335.208.797.288 1.302.326.158-1.106.7-1.832 1.084-2.71-1.018.57-2.132 1.047-2.385 2.384m67.657 0c0-.18.3-.06.325-.217-.483-.635-.458-1.782-1.193-2.168.366.77.596 1.824.867 2.385m-63.427.975c.19-.217.714.148 1.084.108.36-1.268 1.1-2.15 1.627-3.252-.33.08-.32-.186-.65-.107-.908.79-1.944 2.03-2.06 3.252m53.127-3.143c-5.23.324-12.783.983-18.865.87-1.92-.04-4.23.063-6.29.105-4.566.094-10.043.243-15.72-.217-1.084-.088-2.276-.48-3.145-.217-.935.28-2.02 2.396-1.735 3.145.288.762 2.26.906 3.686.976 5.342.263 8.74.488 13.878.542 3.41.037 6.775-.468 9.977-.434 7.513.08 13.583-.436 20.49-1.3-.06-1.177-.253-3.14-1.408-3.58-.093.97.933 2.293-.11 2.604-.573-.63-.335-1.597-.758-2.494m6.83 2.818c-.083-.793-.07-2.595-.976-2.927h-.215c.422.95.294 2.453 1.193 2.927m-57.356.76c.12-1.166 1.113-2.343 1.627-3.47-.97.374-2.75 2.073-1.628 3.47m4.553-3.252c-.752 1.09-2.028 1.656-1.844 3.687.354.017 1.252.31 1.736.108-.81-1.33.466-2.954.868-3.795h-.76zm55.08 2.06c.152-.588-.002-1.805-.543-2.06.094.773.145 1.59.543 2.06m-58.766 1.408c.407-.083.518.133.866.11.017-1.47.95-2.592 1.192-3.47-1.085.72-1.722 1.89-2.06 3.36m67.55-1.626c1.084.4 2.4 1.665 3.793.76-1.023-.453-2.41-1.67-3.793-.76m-2.06.326c.74.76 2.37 1.54 3.578.867-1-.54-2.113-1.42-3.58-.867m-2.383.54c1.313.096 2.035 1.316 3.36.76-.502-.82-2.293-1.51-3.36-.76m1.084.87c-.83-.22-1.795-.878-2.71-.652.667.45 1.622 1.277 2.71.652m-2.602.217c-.276-.557-.958-.706-1.734-.76.158.672.817.843 1.734.76m-84.246.432c-.036-.286.392-1.028-.108-1.084.068.33-.14.936.108 1.085m96.173.217c.015-.188.353-.888-.107-.866-.095.235-.152.566.108.866m-23.636-.217c.313.316 1.126.032 1.626 0 1.3-.08 2.766.032 3.903-.325-1.713-.268-3.537.358-5.53.325m-71.016 2.277c.298-.664.336-2.063-.108-2.602-.082.858-.175 1.595.107 2.602m4.444 1.735c.467-1.124.247-2.934.652-4.118-.377.085-.417-.164-.76-.11.073 1.372-.142 3.035.11 4.227m-3.037-2.82c-.04-.46.26-.817 0-1.298-.02.343-.282 1.01 0 1.298m5.204 2.71c-.032.54-.126 1.575.65 1.628.264-2.02.113-3.284.217-5.313-.267.014-.523.017-.65-.108.37 1.252-.147 2.642-.218 3.794m82.943.976c.23-1.362.055-3.13.108-4.664-.136-.004-.147-.14-.324-.108-.146 1.65-.084 3.545.217 4.772m-1.84.324c.237-1.097.57-3.706-.325-4.988.43 1.663-.277 3.68.324 4.988m-1.41 0c.28-1.51.057-3.453-.11-4.88h-.324c.586 1.552-.804 4.02.433 4.88m-88.04-1.842c.65-.344.256-2.5.11-2.712.066.974-.347 1.91-.11 2.712m11.168 2.384c1.004.107 1.05-1.43 1.086-2.385.033-.904-.172-1.913 0-2.712-.024-.083-.092-.126-.217-.107-.29 1.345-.475 3.613-.87 5.204m73.512-5.204c-.522 1.34.506 3.64 0 4.987.35-.024.46.19.868.107.202-1.36-.4-3.48-.435-5.095h-.434zm1.41 4.988c.807.008.556-1.075.542-1.627-.027-1.13-.282-2.203-.324-3.254-.024-.083-.092-.126-.22-.107-.178 1.46.04 2.904 0 4.986m-2.708-4.88c-.215 1.56-.02 3.63.325 4.987.698.114.32-.724.324-1.19.016-1.46-.082-2.73-.11-3.797h-.54zm-69.826.11c-.39 1.487-.022 3.733-.65 4.986.433 0 .65.218 1.084.218.14-1.74.547-3.213.435-5.205h-.87zm68.2.107c.51 1.303-.505 3.975.433 4.987h.434c.066-1.18.2-3.258-.215-5.096-.27-.014-.524-.016-.652.11m-.975 3.143c.01.568-.602 1.807.435 1.844a22.63 22.63 0 0 0-.218-4.986h-.543c-.22.866.303 2.03.326 3.143m-65.163-3.034c-.193 1.794-.59 3.383-.76 5.202.514.03.837.25 1.41.218.29-1.197.173-4.075.434-5.313-.206-.192-.717-.08-1.085-.107m63.538 3.903c-.17-.862-.08-2.68-.327-3.797-.604.193-.28.84-.326 1.3-.116 1.22-.34 2.556 0 3.58.814-.044 1.045-.002 1.63-.218.122-1.824-.127-3.272-.327-4.77h-.325c-.404 1.038.524 2.954-.325 3.904m-61.91-3.688c-.05 2.073-.444 3.166-.327 5.313.262.21.872.07 1.3.11-.337-1.783-.254-3.873.326-5.313-.3-.146-1.13-.173-1.3-.11m57.356.11c.04 1.69.202 3.15 0 4.988.6-.147.857-.017 1.517 0 .247-1.17.377-3.64 0-5.206-.574.082-.904.027-1.517.218m2.385 4.77c.177.177.452-.098.867 0 .226-1.48.458-3.387.217-4.988h-.977c-.074 1.56-.14 3.093-.107 4.987m-58.007.543h.758c.02-1.79.208-3.734.218-5.204-.27-.13-.64-.157-.977-.218-.34 1.657.016 3.562 0 5.422m50.636-5.205c-.125 1.863.06 4.037-.434 5.53.394-.315 1.264-.085 1.95-.326.246-1.706.27-3.636.435-5.423-.677.047-1.38.064-1.95.218m2.493-.217c-.412 1.827.242 3.827-.107 5.313.77.085 1.21-.163 1.95-.107.138-1.416.182-3.82.11-5.205h-1.953zm-51.827 1.3c.035-.215.35-1.068-.108-1.083.03.53-.18.734.108 1.084m.218 4.228c.69.07 1.194.324 1.95.324.084-2.19.11-3.386.218-5.528-.53-.013-1.14.06-1.518-.108-.406 1.705-.35 3.388-.65 5.312m46.84-4.987c.192 1.265-.798 3.6-.11 5.423.45-.094 1.03-.056 1.41-.217-.306-1.57.322-3.795.107-5.53-.326.247-1.158-.005-1.407.325m-44.128 5.422c.312.23 1.08.003 1.41.216-.077-1.993-.017-3.83.217-5.746-.59.083-.84-.172-1.41-.108-.067 2.31.024 3.63-.217 5.638m-20.167-2.71c.036-.832.276-2.035 0-2.82-.142 1.125-.113 1.802 0 2.82m22.66-2.82c-.183 1.657-.13 4.178-.217 5.854.818-.05 1.325.128 1.736 0-.28-2.38-.202-3.543.108-5.746-.66.082-.982-.172-1.626-.108m36.54 5.53c.427.012.33.47.757.216.332-1.706.022-3.077.11-5.203.01-.28.422-.155.433-.435-.518.083-.698-.17-1.192-.108-.283 2.01-.147 3.532-.11 5.53m2.06-5.42c-.5 1.814.084 4.407-.107 5.527.327-.034.842.12.866-.218-.37-.213-.34-.98-.324-1.517.026-1.012.128-2.387.433-2.928.754.804.26 2.83.54 4.555h.76c.086-1.494-.165-3.79.218-5.422-.667-.196-1.315.103-2.386 0m28.3 1.3c-.064-.748.093-1.045-.326-1.408.024.555-.018 1.175.326 1.41m-64.73-1.3c-.297 2.14.137 3.716-.217 5.745.765-.026 1.21.137 1.626 0 .02-1.73.246-3.955.108-5.746-.392.167-.885-.09-1.518 0m32.636 5.53h.867c-.367-1.365.237-3.845-.11-5.53h-1.19c.488 1.644.32 3.826.432 5.53m-16.588-5.313c-.43 2.142-.24 3.684-.217 5.53.53-.014 1.143.058 1.517-.11-.24-1.886-.266-3.428 0-5.42-.58.036-.747-.25-1.3 0m2.385 0c-.46 1.485-.025 3.786-.327 5.53.597.055 1.42-.12 1.842.107-.46-1.387-.357-3.728-.215-5.638-.424-.124-.722-.028-1.3 0m11.707 0c-.303 2.16.074 3.52 0 5.53h1.086c-.238-1.638.51-4.058 0-5.638-.473-.075-.61.186-1.086.11m-27.973 5.637a3.49 3.49 0 0 1 1.41.217c-.352-1.87-.582-4.172.217-5.637-.46-.188-1.053-.247-1.733-.218.077 1.535-.068 3.89.107 5.638m5.965.11h.65c.08-2.227-.252-3.577.107-5.64-.255.003-.318-.186-.65-.107-.002 2.635-.015 3.707-.108 5.746m1.84-5.64c-.065.01-.127.02-.106.11.16.093.232.272.217.542-.19.63-.11 1.677-.11 2.603 0 .876-.266 2.05.435 2.275.745-.107.344-.992.326-1.625-.038-1.36.224-3.246-.216-4.013-.306-.09-.28.153-.543.108m2.28-.108c-.592 1.438-.452 4.177-.436 5.53h.976c.142-1.38-.075-3.378 0-5.53h-.54zm8.672 0c-.473 2.155.047 3.71-.217 5.53.466-.103.716.335.975.107.195-1.556-.217-3.548-.108-5.638h-.65zm1.952.108c-.307 1.722-.327 4.827-.108 5.53.683.25 1.365.042 1.952 0a270.515 270.515 0 0 1-.435-5.638c-.478.03-.838.174-1.41.108m2.928-.108c-.226 1.69-.054 3.775-.107 5.638h1.192c.36-1.53.088-3.775-.107-5.638h-.977zm1.954 0c-.18 1.488-.06 3.656.107 5.638h.76c.473-1.763-.027-4.187 0-5.638h-.866zm-23.203 5.855c.04-.134.625.09.977 0-.28-2.074-.32-3.656-.326-5.747h-.758c.175 2.21-.045 3.62.11 5.747m1.083-5.096c.987 1.275.027 3.366.434 4.987.478.157.788.062 1.3 0-.055-2.02-1.14-3.487-.434-5.64-.666-.013-1.45-.145-1.3.653m8.347-.65c-.205 1.82-.038 3.95-.217 5.312.357.006.54.184.976.108.22-2.002-.128-3.758.11-5.422h-.87zm3.686 3.36c.017-.512.095-1.285-.11-1.843-.01.597-.107 1.248.11 1.844m-55.513 3.36c5.77-.107 12.16.532 18.433.436 13.296-.205 28.267.847 40.55.217 1.202-.062 2.466.163 3.578-.325-3.937-.14-8.188-.3-12.36-.326-1.467-.01-2.92.444-4.337.434-2.506-.02-5.045-.324-7.59-.324-2.584 0-5.267.075-7.806-.11-5.083-.37-10.834-1.52-15.722-2.168-2.79-.37-5.44-.713-6.938-2.06-2.52 1.49-5.422 2.6-7.807 4.226m104.63-2.71c-6.193.905-13.166 1.698-19.95 1.734-.532-.098-.415.454-.868.433-.086-.466-.504-.3-.76-.324-3.065-.293-7.107.993-11.167.652-.312.085-.305.492-.76.433-3.19.083-5.156-.396-8.024.218 1.81-.09 4.037.23 5.53.325 2.553.164 5.044-.344 7.697-.434 3.194-.11 6.165-.04 9.325-.11 6.495-.14 13.085-.78 19.408-.648 3.44.07 6.914-.09 10.19-.435-3.232-1.093-6.665-2.423-10.624-1.843m-4.88 3.362c.134.034.67-.02.325-.11h-.648c-.836.032-1.826-.09-2.277.325.918-.14 1.898-.122 2.602-.216m-20.927.54c1.444.163 3.358.255 4.338-.216-1.19.076-3.125-.256-4.338.216m-67.222.108c1.99-.066 4.476.363 6.07 0-2.314-.09-4.583-.34-6.07 0m8.782-.108c.523.063.712.175 1.084-.106-1.498.034-2.236-.03-1.084.106m73.187 0c.18-.012.98.06.65-.106-.913-.02-1.772.128-2.386.106-.045.198 1.413.143 1.737 0m7.047.977c1.54.037 4.837.244 5.963-.435-1.915.234-4.418.155-5.963.435m-25.154.433c.013.133.032.256.216.217 1.624-.272 4.06.392 6.073 0a35.44 35.44 0 0 0-6.29-.217m21.142 0c-.436.07-1.152-.14-1.41.108.436-.07 1.153.142 1.41-.108m-26.238.434c1.588.205 3.31.34 4.77-.108-1.962.117-3.248-.278-4.77.108m54.32.543c-.656-.363-1.81-.817-2.386-.65-2.296.663-5.45.434-8.675.434-2.548 0-5.045.184-7.37.218-6.884.1-13.26-.064-19.735.324-1.534.092-3.01-.114-4.445-.108-4.085.02-8.183.435-12.36.435-7.055 0-14.19-.034-21.36.107a196.057 196.057 0 0 1-17.346-.435c-6.004-.416-12.03.238-17.892.217a690.76 690.76 0 0 1-18.54-.326c-.73.42-2.732 1.084-2.602 1.627 5.147-.095 9.007-.753 13.77-.542 3.474.155 6.996-.055 10.843.325-.99 1.523-2.74.384-4.012.218-1.68-.218-3.87.085-5.963.11-1.9.02-3.902.144-5.746.107-2.337-.045-4.31.208-6.397.326-1.387.078-2.853-.146-4.012.542 5.046.897 10.386-.66 15.18.107-1.536.882-3.892-.188-5.747.217-.433.095-.865.345-1.3.434-1.524.308-3.246.333-4.772.324-.837-.005-1.693-.267-2.494-.216-.384.022-.776.276-1.192.324-.31.038-.983-.41-.977.217 8.153.053 16.69-.628 23.854-.325 5.37.228 10.91-.41 16.263-.107 10.52.594 25.13-.224 36.104-.107 2.35.024 4.806-.17 7.05 0 2.125.16 4.22-.07 6.395-.217 8.94-.61 15.81-.177 24.937-.108 6.27.046 12.558-.365 18.54-.435 1.758-.02 3.344.425 5.097 0-.633-1.118-1.56-2.405-2.71-3.036m-18.43 4.336c-.403.032-1.99-.086-1.52.108.457-.086 1.868.21 1.627-.216-.005.067-.016.13-.107.11m-74.923 1.083c-.286.052-.854.046-.324.108 2.68.32 6.162.073 8.24-.54-2.918-.01-5.73.052-7.916.432m29.275-.215h.65c.39.043.15-.2-.108-.11h-1.3c-.403-.133-2.024-.23-2.603.11 1.28.087 1.91-.005 3.36 0m26.024.65c3.782.13 8.127.468 12.144-.436-5.272-.508-11.364.525-15.938.326 1.185.573 2.552.067 3.794.11m22.985-.435c1.064.58 2.925.243 4.336.218-1.168-.502-3.283-.482-4.337-.218m-55.946.326c-.615-.18-2.206-.323-3.36-.326-.533-.208-1.396-.095-1.845.108 1.567.242 3.39.226 5.205.218m63.1-.11c1.68-.006 2.73-.012 4.122-.217-1.126-.085-3.333-.388-4.122.218m-113.628.217c2.734.207 5.577.674 7.916-.107-2.395-.003-5.832-.3-7.916.108m121.11.218c1.575-.31 2.36.624 4.12.435v-.65c-1.29.042-2.978-.227-4.12.215m-109.074.108h1.734c-.234-.48-1.416-.148-1.734 0m83.27 0c1.577-.155-.393-.192-.543.11.427.004.27-.083.543-.11m-66.247.216c.585.52 2.088.2 3.25.11a51.956 51.956 0 0 0-7.046-.326c.727.606 2.198.036 3.795.216m35.996.22c.817.69 2.037.248 3.035.215 2.164-.07 4.44.05 6.397-.324-3.295-.306-6.15.07-9.43.108m-26.566.325c2.303.33 5.72-.022 8.46-.217-2.642-.324-5.638.098-8.46.217m-36.32-.108c-.13.024-.066.12 0 .217 1.288.273 3.573.13 5.313 0-1.65-.126-3.64-.475-5.313-.217m-13.88.108c2.144.44 4.892.255 7.59.325-2.474-.548-5.042-.495-7.59-.325m35.022.108c-4.7.74-8.5-.83-12.903.326 4.085.624 9.04.248 12.902-.327m-24.722-.108c-.76.035-2.294-.13-2.276.325.565-.23 2.12-.045 2.276-.325m108.316.435c4.2.66 9.547.4 14.205 0-4.466.195-9.614-.486-14.204 0m-22.01.325c-.48-.1-1.374-.355-1.843-.11.69-.04 1.11.193 1.844.11m.217.107c2.254.205 4.396.347 6.723.11 1.407.69 3.526.422 5.53.323 2.31-.112 4.33 0 6.504-.217-6.176-.087-12.88-.73-18.756-.216m-11.71.543c3.64.434 8.24.85 11.71-.11-4.206-.24-7.933-.57-11.71.11m-17.566-.218c.655.765 4.29.493 5.64.218-1.59-.356-4.135-.44-5.64-.218m-62.668.11c-.14.005-.15.138-.326.108 2.405.83 5.29.064 7.916.217 2.957.172 5.877-.02 8.348-.108-5.256-.613-11.51-.07-15.938-.218m28.082.326c3.012.47 6.754.014 9.65-.108-3.155-.038-6.88-.624-9.65.108m16.155.433c1.025-.095 2.46.22 3.145-.216-1.182.04-2.324-.315-3.145.215m4.662 2.927c2.147-.23 4.077.072 6.18-.108 1.39-.118 2.867-.462 4.445-.217.33.05.686.312 1.084.325 1.348.047 2.777-.636 4.12-.65 2.36-.025 4.758.498 7.156.542 2.163.04 4.46-.238 6.72-.324 2.073-.08 4.187-.313 6.29-.217 4.466.202 8.79-.158 13.12-.218 2.756-.037 5.534.053 8.24-.108 3.554-.213 7.382-.163 10.083.108-.2-.486-.09-1.282-.218-1.842-5.633-.218-9.96.248-15.288.433-4.406.152-9.06.6-13.443.325-3.358-.208-7.48-.282-10.625-.433-8.583.535-18.654.434-27.974.434-3.15 0-6.266.336-9.215.327-6.4-.02-12.07-.1-17.89-.108-2.287-.006-4.83-.18-7.48 0-.575.036-1.47.26-2.387.323-.89.062-2.263-.227-2.275.542-.018 1.015 2.542.337 2.927.324 3.333-.088 7.007-.227 9.107-.217 3.926.02 6.74.487 9 .542 1.77.044 2.56.073 3.686.108 1.76-.167 6.366.324 7.916.217-3.975.13-8.453.386-13.012 0a122.323 122.323 0 0 0-19.624-.108v1.844c5.94-.57 10.8-.538 15.286-.65 1.766-.045 3.448.262 5.313.325 2.038.07 4.32-.09 6.505 0 3.204.135 6.866.7 10.3.218.94-.133 1.904-.66 3.037-.867 1.25-.228 2.616-.063 3.903-.54-1.913-.39-3.296.398-5.096-.11-.274-.054.302.54-.217.435-2.99-.13-4.31.243-6.29-.435 1.554.188 5.43-.02 6.614-.218m55.73 12.794v.326c-2.04.29-6.164-.27-8.35.65-.403.04-.284-.44-.76-.326-.03.638-.13 1.426-.325 2.17 4.58-.146 10.01-.423 14.42 0-.29.6-1.288.204-1.517 0-.383.088-.445.265-1.084.325-4.263.404-8.02.31-12.47.867-.188.462-.473.83-.65 1.302 5.025-.187 10.56.08 15.613 0 2.375-.04 4.81.46 6.506-.652-.062.223.033.813.217.434-.195-.234.16-1.362 0-1.844-.866-.408-1.908-.033-2.387-.433.305-.477 1.582-.217 2.387-.217.036-1.087-.026-1.588.108-2.276-1.606-.354-4.62.27-5.855-.218 1.694-.006 3.6-.49 5.855-.215.082-3.784.47-6.902 0-10.845-2.002-.077-3.765-.126-5.312-.217-.394-.024-1.08.34-1.192-.326 2.285-.42 4.544-.148 6.505-.108v-1.192c-4.063-.27-6.894-.57-10.518-.433-3.18.118-6.44-.156-9.758 0-7.62.353-15.184.64-22.445.758 2.064-.058 4.007.84 6.07 1.084 1.177.14 2.502-.05 3.797 0 4.048.153 8.44-.03 12.577-.218.99-.044 1.975.175 2.817-.216.59.234 1.16.165 1.736 0 1.32.388 2.4.035 3.47 0 .618-.02 1.593-.034 2.17.324-.943.75-2.294.435-3.47.435-6.275 0-14.076-.42-19.735.977 3.034 2.4 8.39.52 11.06 1.3-2.16.097-4.77.25-7.263.326 1.087.455 2.854 1.936 4.012 2.168 2.272.458 4.417-.373 5.637.108.208-.213 2.53-.42 3.035.108-2.688.107-5.045.05-8.022.217.633.918 1.924 1.647 3.036 1.736-.107.29-.683.112-.868.324.408.352.738.778.977 1.302.768-.17 1.65-.077 2.06.108-.255.067-.865.433-1.627.325.24 1.047.356 1.348.435 2.276 4.047-.186 5.567-.255 8.782-.107.626-.392 1.628-.355 2.06-.215-.54.045.044.23.108.323-1.177-.137-1.21-.03-1.844-.214m-31.01-11.493c-2.758-.298-5.383-.283-8.24-.433-4.487-.235-9.623-.05-14.097.76-1.64.294-3.338.42-4.77.757-2.056.487-4.085 1.798-5.963 2.71-2.638 1.286-4.844 2.747-6.397 4.664-1.156 2.26-1.633 5.57-.326 7.698.327.532 1.137 1.237 1.844 1.844 1.572 1.347 2.544 1.928 4.337 2.928.77.43 1.414 1.067 2.17 1.41.596.27 1.39.294 2.058.54 1.437.534 2.767 1.14 4.445 1.52 1.176.265 2.33.772 3.362.977 1.732.338 3.75.358 5.637.54 3.98.386 7.337.275 10.842.11.906-.044 1.84-.008 2.71-.11 2.843-.324 5.476-.8 7.916-1.083 2.647-1.018 6.398-2.684 8.89-4.23 1.035-.642 1.594-.84 2.495-1.626.452-.394 1.037-.79 1.3-1.084.13-.142.056-.41.217-.65.124-.18.43-.162.544-.325.268-.386.406-.83.65-1.193.57-.855 1.19-1.532 1.41-2.277.76-2.58-.557-5.288-2.386-5.855-.247-.242.364-.446-.11-.65-.69-.717-1.735-1.082-2.385-1.843-4.688-2.124-10.35-4.47-16.154-5.1m-44.67.436c-.753-.028-1.765-.214-2.495-.108.655.14 1.778.388 2.494.108m-4.663.324c-4.995-.438-9.898.27-14.638.543-.038 2.186.118 4.568.216 5.747 8.392.107 16.84 1.458 24.287.758.72-.797 1.577-1.46 2.168-2.385-2.954-.114-6.405.54-8.89.108.243-.41 2.207-.242 1.844 0 .585-.566 1.945-.27 2.168-.108 1.748-.396 3.648-.488 5.856-.433 1.08-.732 2.358-1.55 3.686-2.17 1.32-.616 2.863-1.094 3.795-1.842-6.558.63-14.052.347-20.493-.218m-5.095 15.18c4.665-.483 8.343.47 13.552-.76-.285-.798-.207-1.96-.217-3.035-1.054-.038-2.284.384-3.035-.324 1.013-.225 2.148-.102 3.035-.218.23-1.286.757-2.277 1.193-3.36-7.783.552-16.23-.388-23.853.217.077 1.213-.01 1.51 0 2.93 2.55.413 5.152-.145 7.59-.11 1.805.024 3.646.407 5.53.324.897-.04 1.814-.092 2.603-.108.685-.014 1.693-.228 2.06.435-6.228.523-11.352.26-17.674.758-.147 1.88-.128 3.166.217 4.988.872.162 1.6-.134 2.06.326 1.712-.532 5.424-.243 7.373.325 1.188-.193 3.568-.144 4.987-.11-.175.033-.29-.145-.107-.216 2.24.178 3.542-.205 5.746.325-.612.393-1.91.314-2.385 0-4.565.438-9.84.283-13.77-.326-1.127.286-2.634.258-3.795.217-.232.347-.24.92-.217 1.52 1.975.26 4.274-.092 5.64.324 3.02-.482 5.803.123 8.67.327.54.038 1.106.046 1.628 0 3.53-.318 7.06-.683 10.734-.65-.56-1.805-2.824-1.1-4.446-1.41.215-.807 1.77-.317 2.495-.325-.543-.954-1.185-1.638-2.384-1.52-5.693.566-13.68-.576-19.733-.432.31-.49-.466.116-.434-.325 2.316-.1 6.066.174 6.94.215m-1.303-4.12c-.26.063-.787-.137-.87.107.242.065.81.272.87-.108m77.632 3.037c1.073-.108-.16-.303-.543.107.32.02.33-.09.542-.108m.217 2.49c.658-.187 1.95-.04 2.6-.323-.703-.064-2.134-.183-2.6.324m18.864-.107c.265.07.56.22.543-.217-.27-.014-.527-.02-.543.217M84.62 180.12c-.037 2.09.05 2.805.218 4.556 5.137.086 8.53.014 13.227.108.673.012 1.466-.327 1.735.217-4.262.473-9.846.724-14.855 1.084-.175.404-.09 1.067-.107 1.627 3.504.013 6.42-.492 10.625-.433 1.924.027 3.977-.247 5.856-.217 5.843.094 10.95-.067 16.37 0 3.565.044 7.128-.167 10.95 0 3.843.168 7.777.24 11.928.326 4.668.093 8.97-.453 13.443-.218 4.44.232 9.087-.105 13.662.108 3.526.165 7.66-.752 10.735-.217 1.778.31 4.198-.117 5.64.432.776-.166 1.473-.036 2.058 0 1.394.09 3.052-.41 3.904.65-2.376.635-4.19-.687-5.855-.216.106 3.402-.027 7.3.217 10.733 2.614.23 4.06.02 5.854-.217-.024-1.672.328-2.304.217-4.012-1.48-.32-2.816-.35-4.553-.54.965-.608 3.105-.542 4.553-.978-.03-.82.082-1.186 0-1.843-2.05-.56-3.78.214-6.18-.218 2.016-.67 3.768-.077 6.18-.435.06-2.61.05-5.48.217-7.59-1.908-.02-2.736-.185-4.12-.434 1.16-.202 2.726-.286 4.012 0-.078-2.493.21-5.187-.217-7.047-.047.243-.535.044-.76.108-.338-.563-1.014-.705-1.625-.76-7.18-.627-13.948.078-20.384.217-.448.615-1.405 1.256-1.41 1.954 2.137-.053 4.167-.365 6.07-.326 2.257.047 5.418.2 7.266-.108 1.298-.217 2.928.184 4.555.217.876.02 1.84.002 2.71 0 .74 0 1.685-.27 2.277.326-8.008.827-16.395.31-24.938 1.084-.668.993-2.243 1.08-2.82 2.168 1.528.124 2.552-.175 2.713.108.85-.55 2.38-.107 2.49-.108 1.785-.025 3.734-.028 5.53-.108 1.052-.045 2.166-.12 3.037-.108-.126 0 .285.005.218 0 .2.016.367-.004.433.324-2.345-.246-4.924.438-7.373.108-.158-.02-.642-.322-.758-.325-.383-.006-1.03.302-1.627.325-.942.038-1.72.146-2.6.108-.283-.012-.704-.228-.98-.217-1.308.045-3.035.663-3.902.976-1.276.46-2.64.87-3.903 1.408 1.31.156 2.98-.313 3.687.218.416-.443.97-.255 1.52-.324 1.748-.225 3.68-.718 5.638-.65.502.016 1.015.302 1.518.323.63.028 2.92-.632 3.36 0 .83-.474 2.628-.066 3.144-.107 1.823-.172 5.956-.494 8.35-.434.864.02 1.89.096 2.386.758-2.09.326-2.74-.333-4.772.11-.043-.263.2-.237.11-.543-.665.04-1.566-.218-2.06.215.578.072 1.44-.142 1.84.108-.543.457-2.012.1-2.708.108.205 0-.823.374-.868 0 .003-.302.295.26.217-.216-.49-.2-.188.39-.435.434-.192-.334-.272-.01-.433 0-1.934.138-4.057-.176-6.29-.106-5.308.16-12.436.424-17.89.758-.766.047-1.467.56-2.276.65-3.472.4-7.18.1-11.06.108-5.27.01-10.47.197-14.962-1.627-.384-.058-.266.386-.65.327-2.144-.423-4.98-.1-6.94-.435 1.172-.924 3.93.142 5.637-.324-.842-.172-1.398-.626-1.843-1.192-.838-.03-1.46-.277-1.952-.65-1.864-.145-4.57-.062-7.047 0-.508.315-1.558.457-1.843-.218 2.2-.5 5.267-.07 7.264-.65-1.112-.13-2.06-1.617-3.254-1.733-.852-.086-1.815.405-2.71.433-.94.028-1.994-.224-3.036-.217-3.502.02-7.3.953-10.735.542-1.05-.125-1.93-.52-2.928-.54-2.767-.053-5.452.54-8.022.324.006.5-.048 1.06.108 1.41 1.387.056 3.465.03 4.445 0 .193.053-.047.114-.108.215.294.264.386-.333.868-.214.682.603.95-.093 1.41.54-2.127-.17-4.288-.233-6.617.005m106.474 2.603c.167-1.53-.41-.407 0 0m-96.933 5.313c.376-.058 1.03.16 1.087-.217-.446-.01-.887-.017-1.086.216m76.114.217c-1.86.162-4.355.29-6.612.218-1.593-.052-3.13.113-4.662.11-1.87-.007-3.727-.337-5.64-.327-3.74.02-7.665-.08-11.384.108-1.9.097-3.58-.078-5.42-.107-4.147-.063-8.37.543-12.578.543-4.276 0-8.527-.45-12.686-.325-6.088.183-12.96-.18-18 .216.067.53.717.813 1.193 1.194.543.436.963.917 1.627 1.084 1.018.257 2.617-.066 4.12-.108 5.703-.158 11.174.038 16.914-.108 5.125-.13 12.147.08 16.914.108 2.71.015 5.826.11 7.373.108.92-.003 2.013-.34 2.82.218.998-.388 2.215-.468 3.36-.435 1.277.036 2.916.04 4.662.108 10.47.418 17.905.028 26.89.217.52-.358 1.207-.853 1.733-1.41.454-.478 1.28-1.357 1.192-1.626-3.848.01-7.843-.127-11.816.217m-85.33.218v2.17c2.033-.142 4.27.42 6.508.433.038-.5.096-.922 0-1.41-1.126-.106-2.637.87-3.362.11.685-.725 2.563-.257 3.47-.76v-.868c-2.25-.367-4.25.446-6.615.326m95.198 3.578c1.166-.544 3.616-1.805 2.82-3.47-.99.897-3.247 2.015-2.82 3.47m-87.715 2.06c.885.245 1.832.973 2.71.867-.057-1.322.062-2.468.11-3.686-.796-.907-1.87-1.53-2.82-2.28-.41 1.737-.133 3.104 0 5.097m84.136 2.82c.565-.785 2.275-.2 3.145-.867.07-.65-.1-1.058-.11-1.626-.247-.302-.676.25-.65-.326.016-.38.664-.13.65-.54-.224-.538.063-1.58-.326-1.953-3.086.017-6.01.287-8.782-.11-11.82.145-26.33-.26-39.466.11-3.336.095-6.896-.143-10.083.11-.963.073-1.737.185-2.494-.326-7.945.096-13.97.473-22.335.648.228 1.166.038 2.566 0 3.254.95.3 2.257-.626 2.818.324-.847-.205-1.827 0-2.818.217v3.36c7.82-.228 16.23-.242 21.685 0-1.23.63-2.677.525-4.012.543-1.827.024-3.698-.233-5.53-.108-2.26.153-4.324.67-6.505.543-1.966-.114-3.937.212-5.746-.11-.373 3.556.176 7.11 0 10.303 3.223.058 6.474-.414 9.323-.217.56.04 1.483.07 1.844.65-3.826.29-7.885.023-11.06.434-.307 1.95.164 4.137 0 5.747 3.092-.253 5.45.133 7.916.216 1.313.045 2.732.277 4.01.217 4.047-.187 8.157-.725 12.145-.325 2.23.225 5.708.003 7.155.542-1.92.54-4.027.198-6.07.11-5.11-.225-10.66-.03-16.047.216-3.172.144-6.735-.064-9.108.65.166 2.395.228 4.106.108 6.613.532.727.945.498 1.95.54 3.393.15 6.79-.138 10.084-.214 6.57-.154 11.698.458 18.216.215.475-.112.356.368.76.326 4.976-.108 10.896.09 15.287-.216 4.013-.282 8.215.065 12.36 0 2.104-.033 4.453.002 6.832-.11 2.473-.114 4.962.232 7.264 0 1.913-.19 4.338.126 6.07-.215.318-.063.65-.296.977-.326 1.51-.143 2.928.252 4.338-.217-.343-2.257-.287-3.87-.542-5.855-.73-.01-2.134.673-2.168-.217.38-.135 1.42-.04 2.168-.326-.06-1.475.22-2.598 0-3.686-.828-.463-2.64-.055-3.145-.543.683-.674 1.66-.136 3.037-.433.24-1.46.076-3.196-.11-4.338-1.158-.018-.438-.555-1.3-.324.326-.438.786-.075 1.3-.325-.03-1.386.37-.825.11-2.062-1.375-.445-2.986-.24-4.663-.323-2.212-.11-4.946-.312-6.938-.434-.938-.058-1.803-.24-2.605-.218-.057-.225-.513-.025-.216-.325-.715.23-1.723.075-2.387-.216-2.713.196-5.78.086-8.892 0-.438-.014-1.11.382-1.406-.217 5.086-.724 8.462-.116 13.227-.11.185.07.18.33.326.435.252-.158-.21-.344.216-.324-.014.27-.207.34.108.433.27-.19.158-.177 0-.432.42.196.964.84 1.63.433-.27.17-.32-.367-.11-.323-.025.282 1.1-.23.976.216 3.212-.254 6.487.34 10.734 0 .007-.476-.045-.896-.218-1.19-1.42.457-3.428.176-4.88-.22-.01.46-1.78.6-1.625-.106 2.06-.318 4.548.34 6.613-.435-.016-.688.155-.754 0-1.3-.81-.072-2.33.523-2.603-.327.718-.267 1.46-.208 2.603-.217.164-.69.04-1.006.11-1.734-.275-.22-.57.235-1.086.107-3.654-.516-8.034-.728-11.167-.866-.86-.037-1.876.195-2.494-.324 4.404-.203 9.284.277 13.227.11.448-.315 1.03-.49 1.52-.762v-1.41c-1.08.092-2.955.405-3.146.11m-8.24 8.564c.353.497 2.576.608 3.47.325-1.365-.056-2.75-.12-3.47-.325m14.638-14.202c-.614.724-1.762.912-2.603 1.408.063.46-.08.718-.11 1.085.423-.07 1.116-.443 1.41 0-.205.373-.8.357-1.192.543-.208.405-.246.98-.217 1.625 1.507.133 1.793-.95 2.93-1.19-.14-1.09.28-2.74-.218-3.47m-98.124 1.19c.056.69-.105 1.172 0 1.627.416-.146 1.307-.167 1.517.22-.454.177-1.087.186-1.517.106v.542c2.156.59 4.124.224 6.614.326v-1.41c-1.365-.097-2.385.147-3.58.217-.236-.226.055-.31 0-.65-.382-.05-1.044.177-.975-.325 1.363-.242 3 .18 4.555.108.036-.766.08-.996 0-1.735-2.39-.212-4.333.562-6.614.975m10.3 6.833c.287-1.323-.13-2.18 0-3.688-.76-.433-1.78-.604-2.603-.976-.255 1.88-.273 5.21 2.602 4.663m85.114-2.495c-.075.633.01.787 0 1.52.59-.015 1.432-.727 1.843-.22.08.748-1.137 1.095-1.842 1.41-.118 1.5.403 2.716.218 3.796 1.317-.163 2.09-.873 2.927-1.52-.1-2.084-.038-4.606-.433-6.07-.78.486-1.716.816-2.71 1.084m-95.414-.216v.868c1.977-.122 4.828.217 6.83 0 .024-.35-.19-.46-.108-.868-1.983-.168-4.696-.313-6.722 0m0 1.517v9c2.143.815 4.235.518 6.614.65-.105-1.734-.02-2.392 0-4.12-1.06-.17-2.826.365-3.362-.326 1.256.206 1.873-.024 3.362-.108.142-.4.096-.986.215-1.41-1.116-.478-2.41.313-3.252.108.91-.728 1.852-.38 3.252-.54.112-.22-.07-.892 0-1.41-1.902.345-4.93.117-6.505.433.056-.38.05-.82.217-1.083 1.935.033 4.257-.018 6.288.216v-1.627c-2.747.363-4.415-.376-6.83.216m7.913 1.193c-.377 10.335-.083 19.136 0 28.73 1.082-.87 2.07-1.832 2.93-2.927.29-2.562.127-4.252 0-6.506-.54-.35-1.577.37-1.954-.215.347-.668 1.5-.525 2.06-.978-.096-2.584-.097-4.387-.216-6.506-.452-.232-1.02-.352-1.41-.648.683-.113 1.075.454 1.3 0 .35-3.826-.193-7.283-.107-10.41-1.34.184-1.812-.5-2.603-.865v.326zm91.73 1.843c1.77.26 3.93-.62 5.638-.326.187-.368.076-.794 0-1.192-1.707-.49-3.758.01-5.64-.324-.336.742.06 1.064 0 1.842m-82.944-1.302c.773-.095 1.954.22 2.385-.217-.735.134-2.008-.272-2.386.217m-9.432 3.47c-.045.392.197.15.108-.108v-1.302c.194-.517.133-1.432-.108-1.844v3.254zm92.377-1.41v1.52c1.35.18 2.584-.766 3.576.324-.974.277-2.57.432-3.47.433.09.834-.318 1.675 0 2.388 1.67-.096 4.203-.164 5.748-.327.22-1.527-.38-1.987.108-2.925.06.156-.128.56.108.542-.097-.847-.37-1.403-.434-2.493-1.883.413-3.596.346-5.637.54m-4.012 2.387c-.074.544.1.84.108 1.3 1.073-.107 1.89.034 2.818-.323-.03-.587.238-1.575-.216-2.17-.672.628-1.562 1.04-2.71 1.194m-88.475.325c.37.11.258-.814.11-.867-.087.25-.092.36-.11.867m88.583 2.168c.058.7-.127 1.645.108 2.17 1.19-.038 1.94-.52 2.818-.87.073-.712-.11-1.657 0-2.058-1.216.012-2.024.433-2.926.758m4.01.435c.058.63-.12 1.495.11 1.95 1.87-.23 3.652.9 5.746.978.15-.463.103-1.774.108-2.71-1.633-.522-4.405-.545-5.963-.218m-4.336 1.626c-.067-.33.14-.936-.107-1.084-.047.37-.257.892.108 1.084m-95.088-.11c.247 2.07.087 4.475.434 6.615 2.66-.063 4.222.198 6.18.107-.036-.444-.136-.97-.11-1.735-1.942-.586-4.808-.25-5.636-1.952.152-.266.55-.67.867-.433.095.35-.357.15-.326.433 1.178 1.104 3.23 1.216 4.988 1.194.15-.776-.035-.854 0-1.844-1.737-.312-3.377-.03-4.553.217 1.168-1.104 2.946-.48 4.446-.76.18-.81.09-1.486 0-2.275-2.104.135-4.444.037-6.288.433m98.125 0c-.754.404-1.667.647-2.71.76.005 1.83-.16 2.396.107 4.228 1.048 0 2.165-.07 2.927.218-.296-1.615.253-3.756-.323-5.205M92.21 213.3c-.08-1.19.188-2.798-.217-3.796.074 1.503-.132 2.623.217 3.796m98.34 1.3c-.28-1.1.076-2.705-.107-3.9-.712-.212-2.204-.13-1.735-.652-1.47-.008-2.512-.915-4.012-.326 1.75.254 3.42.74 4.12 1.735-.186.394-.533.623-.54 1.192-1.216.328-2.243.34-3.69.54-.08.9-.25 2.094.11 2.82 2.642-.703 3.836.055 5.855-1.41m-6.07-3.795c.77.142 1.325.413 1.517.867-.292.504-1.177.415-1.41.977 1.397-.19 2.72.012 3.578-.543-.022-.35.193-.46.11-.867-1.056-.535-2.146-1.037-3.796-.976v.54zm6.614 3.145c.008-.37.033-.757-.217-.868.033.328-.12.844.217.868m-10.41 4.66c.402.253 1.362-.415 1.518.22-.24.335-.8.354-1.41.324-.385 1.84.7 4.05.11 5.746.526.846 1.155 1.592 1.626 2.495.27-.273.993-.09 1.3-.326-.353-3.55.08-8.46-.216-12.036-1.147.025-1.877-.363-2.927-.435-.236 1.15-.1 2.838 0 4.01m8.782-2.71c.29-.073.208.226.326.326.33.078.317-.187.65-.108-.068-.33.138-.934-.11-1.084-.187.39-.78.374-.866.866m-103.87.218c.136 1.85.147 3.343.107 5.204.73.258 1.998.024 2.928.108.415.04 1.162-.046 1.192.435-1.127.063-2.37-.07-3.903 0-.218.798-.17 1.353-.216 2.168 1.714.662 3.643.256 5.854.65.384-2.826.06-5.354.108-8.565-2.254-.018-4.223-.55-6.07 0m105.714.976c-.1-.3.223-1.018-.216-.976.03.366.052.74.216.976m-2.168-.76c-1.784-.083-2.933.466-4.77.327-.043.61-.17 1.135-.11 1.843 2.34.208 3.945.132 6.072.326.01-.677.18-1.195.108-1.954-.393.01-.976-.184-1.3-.54m-96.932 6.288c.093-.906.255-3.673 0-4.554.112 1.897-.218 3.218 0 4.554m92.16-3.47c.108.424-.238.63 0 .867 1.19-.237 3.083-.564 4.554-.866-1.144-.084-2.88.044-4.553 0m2.06.867c.47.87 2.585.09 2.712 1.302-1.41-.014-3.186-1.016-4.77-.324-.262 1.184-.185 2.16-.11 3.252 2.413.09 3.697.166 6.072-.217-.812-.682.053-2.91-.217-4.338-1.402.04-2.514.33-3.686.326m.652 4.448c-.174.314-1.965.167-2.82.433-.193.86.356 1.2.217 2.277 2.33.11 3.834-.25 5.638 0 .327-.812.057-1.553.108-2.6-.99-.07-2.48.088-3.144-.11m-101.486 1.734c1.58.057 4.353-.014 6.07.327v-1.193c-1.517-.758-4.413-.14-6.07-.758v1.625zm58.223.11c-1.387.024-.39.297.542 0-.35-.13-.252-.004-.543 0m9.433 0c-2.733.062-6.325.124-8.674.543 3.423-.29 7.33-.018 10.19-.325-.374-.424-1.003-.23-1.517-.218m8.35.434c4.722.13 9.66.328 13.876.108.68-.036 1.625.06 2.17-.435-4.8-.052-10.81-.385-16.047.327m-66.032-.217c2.052.42 6.923.47 9.11.108-3.404-.032-5.977-.548-9.11-.108m32.312.217c4.464.53 9.895.447 14.528 0-5.147-.283-9.973-.336-14.528 0m-23.094 0c1.943.45 4.132-.012 6.288.217-1.286-.694-4.22-.258-6.288-.216m14.312-.108c-.473.07-1.226-.142-1.518.108.47-.07 1.225.142 1.518-.108m1.084.433c2.546.592 5.35.098 8.132.106-2.736-.43-4.903.068-8.132-.107m-34.48.54c1.877.026 4.69.652 6.073.11.17-.535-.37-.496-.65-.544-1.287-.22-3.843.222-5.313-.107.088.306-.154.28-.11.54m9.433-.54c-.164.17-.992.673-.54.758 4.84.005 9.085.32 13.443-.108-4.013-.65-8.775.128-12.903-.65m18.867.107c-.377 0-2.495.064-1.41.22.896.124 2.385-.03 3.143-.22h-1.733zm46.945.22c.19-.064.637.13.652-.11h-.868c-.282-.055-1.32-.346-1.41.11.77-.007.918-.06 1.625 0m-8.456.105c-2.535 0-4.713-.217-6.507.11-.328.066-.934-.14-1.084.107 2.9.08 4.766.005 7.482-.11.26.068.598-.108.11-.108m1.407 0c-.188.066 1.9.047 1.844-.106-.597.052-1.42-.122-1.844.106m11.06.11c-.007 0-1.072.017-.434.107.718.1 2.27-.057 2.82-.325-.903-.122-2.103.16-2.385.216m3.252.218c1.136.646 3.046-.066 4.662-.108 1.7-.046 3.624.508 4.988-.218-3.236-.165-6.28.216-9.65.326m15.94-.108c1.77.122 2.847.175 4.66-.218-1.406.22-3.288-.036-4.66.218m-74.706.217c1.65-.047 3.73.127 4.77-.217-1.9.14-3.807-.463-4.77.217m26.13.108c1.618-.35 4.538.193 6.83-.325-1.936-.07-5.2-.1-6.83.325m47.382.107c.272-.06.724-.498.108-.54.092.252-.38.466-.108.54m-31.01-.107c2.865.46 6.64.056 8.89-.217-2.73-.144-5.932.228-8.89.217m-72.644 2.276c9.987.264 20.917.884 30.793.652 2.73-.064 5.433.13 8.132.107 9.375-.075 21.16.213 30.684.216 2.12.002 4.238-.308 6.398-.324 7.828-.062 14.48-.143 21.143-.434 1.49.586 3.65.113 5.745.108 4.834-.01 9.982-.01 14.42-.543-1.377-1.093-4.297-2.827-6.937-1.735-1.48-.502-4.41.246-5.64 0-.117.056.154.69-.325.65-4.042.586-8.198.43-12.47.218-4.45-.222-8.675.225-12.575.218-2.413-.006-4.83-.01-7.266 0-6.08.027-12.27.43-18.324.108-6.052-.322-12.012-.32-17.89-.22-5.705.104-11.392-.334-16.806 0-1.82.115-3.683.44-5.313-.106-.505-.168-.86-.645-1.518-.758-2.424-.42-4.767.54-6.83-.11-.343.02-.048-.604-.544-.433-1.557.867-3.368 1.477-4.878 2.386m41.2-2.168c.702-.146.967.07 1.626-.216-.52.094-1.444-.216-1.625.216m-21.796.327h-.975c-.565.063.22.154.433.105 2.458-.123 4.737.312 6.83-.106-1.943-.042-4.3-.114-6.29 0m9.978 0c-.52-.098-1.564-.24-2.06 0 .345.06 1.47.252 2.06 0m67.982.54c1.398-.148 3.236.06 4.88-.324-1.622-.153-3.8-.645-4.88.325m-7.047-.434c-.205.215.87.065 1.192.11 1.257.16 3.108.347 4.012.216-1.755-.48-3.186-.332-5.205-.326m-4.013.218c.33-.068.936.14 1.084-.108-.142-.18-1.228.016-1.084.108m3.037 2.493c-1.004-.03-1.56.11-3.038.218-.74.054-3.094.132-1.625.217 2.3.094 3.007-.22 5.312-.217 1.144.003-.12-.2-.65-.218m23.636.543c.022-.205-.123-.24-.11-.433h-.542c-.072.433.288.435.652.433m-105.823.217c.53.013 1.143-.06 1.518.107-.006-.425-1.688-.21-1.517-.107m45.105 0c-1.732-.1.047.49.758.107-.186-.006-.443-.09-.758-.107m2.71.107c-.472.07-1.225-.14-1.517.11.474-.07 1.226.14 1.52-.11m60.066.11c-4.945-.172-10.807.987-16.697.54-2.25-.17-4.456-.437-6.832-.324-3.168.15-6.77-.066-9.65.108-4.64.28-9.317.13-14.202.217-5.52.1-11.21.425-16.914.108-6.918-.383-14.208.18-21.035-.108-2.026-.086-4.063-.04-6.072 0-2.54.05-5.44-.196-7.157.324-4.69-.508-10.472-.563-15.505-.758-2.815-.11-5.478.11-6.614 1.517a99.66 99.66 0 0 1 20.817.107c-5.964 1.004-13.79-.028-20.818.326-.84.042-1.623.208-2.06.866 8.928.317 17.696.592 24.07.868 1.41-.207 2.698-.493 3.577.215-7.916.193-16.79-.42-25.045-.324-.67.006-1.508.134-2.17.108-.604-.026-1.453-.57-1.733.325 5.746-.02 10.005.107 16.045.107 5.584 0 10.825.322 15.505.543 2.818-.08 7.94-.367 11.167 0-11.42.58-24.75-.09-37.297-.11-2.257-.003-5.22-.81-6.29.76 7.797-.263 15.21.094 22.227.108 1.12.004 2.218-.273 3.252-.216 6.087.34 12.41.223 18.54.325 1.737.03 3.474-.256 5.205-.218 12.17.272 24.258-.398 36.648-.108 4.055.095 8.202.156 12.144-.108 5.92-.396 12.22-.3 16.37-.433 5.653-.186 13.363.032 19.41-.435-.933-4.693-8.687-1.974-12.36-3.254 3.24-.716 6.257.225 8.24-.106-.97-1.242-3.092-.917-4.77-.974m6.937 1.193c-.303-.028-.61-.61-.867-.327.312.02.644.577.867.327m-117.422.324c-.33.068-.935-.138-1.085.11.33-.068.935.138 1.085-.11m120.242 2.605c-.114-.394-.41-.602-.65-.868.063.44.275.737.65.868m-26.89 1.19c.88.004 1.58.132 2.386-.107-.542-.17-2.036-.09-2.386.108m6.29-.108c-1.385.012-.413.25.542 0-.27-.252-.406 0-.543 0m20.168.108c-.18-.182-.636-.086-.977-.108.03.323.91.483.978.108m-4.988.65c-2.787.015-5.28-.106-8.13 0-4.653.174-7.905.603-11.82.542-8.635-.13-17.633.264-26.67 0-2.67-.077-5.444.217-8.242.217-2.795 0-5.586.056-8.348.218-5.483.322-10.986-.482-16.154 0-1.78.165-3.397.15-5.206.108-1.53-.037-3.11-.06-4.662 0-5.95.24-11.243.16-16.915.218-3.01.03-6.174.29-8.782-.108-.822-.127-1.226-.38-2.277-.435-2.638-.14-5.16.252-7.807.108-2.125-.114-4.266.238-6.29.326.07 1.036-.152 2.07 0 2.602 4.082-.183 7.246.168 10.192.217 1.345.02 2.768-.054 4.23-.11 2.708-.105 5.285.14 7.806.216 4.57.14 9.417-.622 14.31-.323 4.592.278 9.285.253 13.88.106 4.62-.144 9.378-.514 13.77-.217 2.192.148 4.413.234 6.615.216 2.366-.018 4.944.162 7.155-.107.424-.054.876-.287 1.3-.326 1.853-.17 3.818.07 5.748.108 5.13.105 11.22.038 16.807.218 1.688.054 3.395.25 5.096.217 5.943-.12 11.602-.017 17.345-.11 3.413-.003 8.83-.408 13.013-.757.13-.404.363-.435 1.084-.22.27-.754.463-2.073.108-3.143-2.214-.006-4.568.204-7.158.217m-124.036 0c.42-.06.528.192.976.106-.03-.5-.744-.282-.976-.106m31.117.433c.443-.016 1.297.366 1.52-.108-.344-.258-1.565-.01-1.52.108m-17.347.543c.61-.07 2.16.194 2.603-.11-.812-.044-1.8-.23-2.604.11m39.683 4.12c.344.083.822-.133.216-.108h-2.06c-.007-.066-.018-.13-.11-.108.447.455 1.29.183 1.953.216m1.626-.217c-.295.067-.86-.138-.977.108.388-.07.838.35.976-.108m-33.938.325c-.33.07-.935-.14-1.084.11.33-.068.933.138 1.084-.11"/></g><g><defs><path id="e" d="M64.328 8.512h203.498v289.93H64.328z"/></defs><clipPath id="f"><use xlink:href="#e" overflow="visible"/></clipPath><path clip-path="url(#f)" fill-rule="evenodd" clip-rule="evenodd" fill="#456A5C" d="M209.308 14.774c.26.262.287-.263.76-.108v.217c.093.02.102-.043.107-.11-.015.01-.466.54-.867 0M130.484 78.853c-.353-.392.365.06.326-.325.17.047.092.34.433.217-.082.346-.803-.114-.76.108M109.558 97.285c2.104-.396 4.844-.486 7.155-.435 1.324.03 2.83.07 3.903.76.47-.185 1.003-.32.977.433-2.17-.048-4.413.13-6.94-.107-1.215-.113-2.502-.25-3.686-.326-.46-.03-1.113.276-1.41-.325M136.23 112.03c-.43-.443 1.446-.388 2.06-.434-.15.61-.94.27-1.41.325-2.117.252-5.114.39-7.588.218-1.062-.073-2.185-.152-2.71-.65 3.108.18 6.325.44 8.673.434.185.06.646-.222.975.108M157.372 161.364c-.185.638-1.446.166-1.517-.326-3.08-.672-7.258-2.25-11.385-2.602-.77-.065-1.52.01-2.278-.11 1.22-.224 3.307-.307 4.88.436.834-.422 2.56-.017 2.494.435 1.02-.204 2.34.434 3.144.434.3.047.006.342-.216.217 1.422.075 3.26.83 4.228 1.52.116.176.33-.28.65-.003M181.552 159.41c.16.47-1.614.34-1.95.327.36-.384 1.565-.3 1.95-.326M172.66 160.172c-.168-.387.37-.066.325-.326.214.37 1.358-.034 1.627 0 .11.07.11.25.325.217-.78.3-1.287.006-2.278.11M172.985 164.51c1.677-.533 4.236-.415 6.396-.978.048-1.01-.362-.13-.432-.76-.374.284-.894.04-1.626.11.004-.186-.08-.28-.218-.326 1.408-.224 2.51.064 2.928 1.192-2.124.803-5.46.737-7.047.76M170.49 164.4c.327.07-.103.23 0 .433-.404-.034-.41-.253-.865 0v-.324c.272.046.714.215.866-.11M172.77 164.4c.16.047-.044.14 0 .324-.404-.064-1.146.205-1.084-.325.31.052.662.18 1.084 0M190.226 165.81c-1.17.204-4.404.443-5.747.325 1.355-.33 4.27-1.042 5.746-.326M184.695 168.628c-.78.646-2.604.246-3.47.435.138-.65.97-.188 1.302-.435-.158.25 1.47.15 1.735-.108.073.382-.162.307.433.108M113.46 171.773c-1.17.575-3.218 1.067-4.336.217-.15-.644-.565-1.023-.867-1.52-.28-2.628 1.512-4.27 4.338-3.468.66.777 1.607 1.985 1.41 3.36-.078.536-.613.816-.544 1.41m-4.336-2.168c1.29-.338 2.52-.732 3.47-1.408-1.087-1.434-3.635-.79-3.47 1.408m.325.976c.447.71 1.274 1.037 2.493.976.564-.483 1.073-1.023 1.192-1.952-1.357.197-2.398.708-3.686.976M177.648 180.013c.357-.06.677.092.433.325-.104-.003-.082-.133-.106-.217-.09.095-.297.065-.325.218-.163-.047.04-.14-.002-.325M179.708 180.12c-.196.445-.838-.138-1.192.22-.094.018-.103-.044-.108-.11.02-.092-.043-.103-.11-.108.297-.224.91.05 1.41-.108.022.087.11.108.11.217-.06.166-.115.007-.11-.11M181.768 180.23c.438-.156 1.364-.223 2.278 0-.25.32-1.31.18-1.627 0 .06.272-.433.272-.652 0M181.01 180.23c-.23.362-.798-.176-.977.107-.11-.282.697-.136.976-.108M190.01 185c-.34.642-1.433.145-2.278.108-4.544-.188-9.517.685-14.53.435-2.658-.133-5.222-.33-7.806-.218-6.647.293-15.034-.017-21.576.543-.034-.282-.122-.735-.54-.435 1.087-.943 2.996-.372 4.336-.325 6.18.22 11.81-.762 16.372-.108.038-.398 1.655-.052 2.492-.107.695-.047 1.392-.275 2.062-.325.472-.036 1.046.222 1.518.217.17-.003.848-.504 1.192 0 1.325-.427 2.59-.322 4.12.108 1.32-.774 2.624-.034 3.794 0 .457.012 1.033-.203 1.52-.217.53-.016 1.03.133 1.517.108.54-.027 1.704-.335 1.953-.326 1.045.038 2.01.02 3.144 0 .788-.013 2.295.08 2.71.542m-30.794.108c-.627-.058-.376.194.108.108.282.312 1.23.09.976-.324.016.45-.754.112-1.084.216m12.577-.108c-.14-.033.915.278 1.3 0-.22-.146-1.914-.145-1.3 0m6.396 0c-.437.07-1.152-.14-1.41.108.353.026.98.164 1.41-.108M102.62 185.108c.287-.374 2.323-.27 3.25 0-1.178.352-2.477-.147-3.25 0M119.64 193.566c.028-.28.188.147.435 0-.068.097-.13.194 0 .217-.017.27-.368.03-.434 0 .07-.096.132-.194 0-.217M129.94 193.892c-.016-.128-.197-.092-.325-.108.086-.25.672-.105.542.216-.656.006-1.364.064-1.735-.216.338.463-1.666-.015-2.276 0 .186-.482 1.47-.258 1.518 0 .614-.284 1.184-.07 2.277.108M149.784 193.566c.122.02.06.108 0 .107 1.498.19 3.354-.435 5.42-.107-.006-.002-.12.18-.108.217.874-.336 1.73-.07 2.06.218-.004-.37 1.215.01 1.628-.434 1.894.01 3.92.37 5.963.435.79.024 1.782-.608 2.276.326-6.744.14-16.47.39-22.12-.11-.572.448-2.458.014-3.468.326.053-.183-.346-.268-.65-.108-.255-.002.04-.296.218-.218-.08-.4-.326.047-.543-.215.408-.087.704-.075 1.3-.326.014.323.43.022.652.327.122-.02.06-.11 0-.108 2.44.188 5.125-.394 6.938.11.103-.187.36-.222.434-.436m6.288.54c-1.525-.19-3.055-.112-4.446-.215 1.07.418 2.64.302 4.446.217M132.11 193.782c.437-.154 1.324.458 1.843 0-.024.184.308.217.434.22-.1.39-1.473.14-2.17.105.012-.153.02-.307-.108-.325M136.013 194.107c1.063-.45 2.054-.062 2.82-.216-.312.597-2.258.253-3.038.11-.26-.05-.42.217-.433.215-.168-.023.366-.783.65-.108M167.78 194.434c-.254-.105-.688-.035-.65-.433.313.357 1.504-.6 2.277.216.112-.105.22-.214.326-.324.256.733-1.676.165-1.953.542M135.363 197.035c-1.61.252-5.164.266-8.13.435-4.01.226-7.11-.903-9.977-1.194-1.107.003-2.73.205-3.252-.324-1.67.022-3.84.044-5.964-.108-3.135-.225-6.263.01-8.565-.435 2.774-.813 6.423-.112 9.975-.107 1.61 0 3.21-.26 4.662 0 .155.027.425-.152.65-.108.26.048.35.31.543.324.554.04 1.06-.173 1.625-.11 2.614.296 6.286.84 9.325.978 1.113.05 2.19-.13 3.254 0 .282.034.584.297.866.325 1.772.17 3.66-.718 4.987.322m-22.77-1.41c.998.298 2.46.32 3.036.218-.768-.258-1.947-.547-3.036-.217m13.444 1.41c.517-.14 1.223.262 1.3-.11-.353.048-1.477-.11-1.3.11M175.264 197.253c-.5.3-2.403.175-3.037-.11.065-.11 2.278-.518 3.037.11M142.627 197.253c.02-.124.108-.06.108 0 .127.018.193-.024.217-.11.175.108.25.29.108.436-.12-.24-.562-.098-.325-.22.02-.092-.042-.1-.108-.107M149.023 197.47c-.37.35-1.43.13-2.168.216.158-.373.576-.136.76-.107-.128-.473.928-.243 1.408-.11M146.314 203.106c.332.79 1.01 1.23 1.408 1.95 1.367.184 2.33-.065 3.36.11-.773.713-2.01.675-3.034.434.708 1.925 1.673 4.713.758 7.266.756-.454 1.076-2.068.65-3.037 1.43-.21.64 2.2.436 3.145.826-.75.713-2.692.758-3.905-.18-.312-1.227.04-1.3-.65.187-.61.773-.216 1.19-.216 4.095-.003 8.634-.235 12.037.434-.196.704-1.485.3-2.71.218-3.147-.213-5.64.07-8.567-.11.042 1.597-.158 2.95-.542 4.122 2.323.33 4.273-.132 5.963.324-1.993.455-4.02.577-5.853.868-1.394 2.728-3.044 5.195-5.748 6.614-.952-.707-1.516.823-2.277-.218 2.38-1.596 4.638-3.313 5.747-6.18-1.966 2.444-3.828 4.99-7.265 5.963-6.046.89-11.32-2.324-13.336-6.832-.226.03-.026.48-.327.435-9.954-.04-18.39-.724-27.323-.65 1.036-.98 3.573-.195 4.446-.217-.02 0 .132-.22.215-.217 1.54.04 2.787.177 4.23.54 4.084-.852 9.185.255 13.77-.108 1.552-.122 3.053-.568 4.88-.216-.565-1.314-.586-3.63-.76-4.99-.948-.2-2.102-.246-2.82 0-.243-.06.132-.168-.106-.324-.377.486-2.187.405-2.71.11-.652.522-1.723-.008-2.712-.11-1.89-.19-4.225.238-6.29-.216 3.05-.67 5.81.094 8.783-.217 1.51-.16 3.52-.35 5.854-.11.552-1.976 1.603-3.455 2.6-4.987-.54-.307-1.288-.123-1.733-.217.79-.605 1.58-.095 2.494-.217.628-.084 1.45-.728 2.278-1.085 1.49-.643 2.84-1.13 4.662-1.3.41.08.075-.576.542-.435 3.04.426 6.17 1.696 8.024 3.902.208-.252-.094-.584.106-.976 3.65-.657 6.653.71 9.868.976 2.645.22 5.575-.036 8.782.325-.066.097-.132.195 0 .218-2.725.34-7.903.188-10.518-.326-2.04.644-5.01-.23-7.91.106m-7.157 13.988c2.522-.15 5.053-1.228 5.963-3.252.186-.415.158-.965.326-1.41.196-.516.707-.923.868-1.41.535-1.628-.422-3.98-.977-5.745-.34-.095-.385-.484-.542-.76-.485-.29-.93-.784-1.41-1.192-.486-.412-1.263-.648-1.302-1.193 1.472-.204 3.382 1.99 4.12 3.36 1.402 2.603.626 6.26.11 8.675.55-1.842 1.394-3.553 1.083-5.53-.27-1.72-1.158-4.273-2.277-5.42-.864-.887-3.15-2.356-4.23-2.603-.29-.065-.617.05-.974 0-.522-.07-1.038-.502-1.52-.543-1.29-.106-3.26.54-4.337 1.087-1.597.123-3.194 1.21-3.904 2.06-.466.56-.874 1.82-1.192 2.82-.938 2.936-.835 5.488.217 8.022.548 1.315 1.635 1.712 2.71 2.492.585.424 1.027 1.027 1.735 1.302 1.027.396 2.096.42 3.037.543.334.062.34.455.758.433 1.84-.077 3.59-.24 4.988-.76.25-.073.158-.492.434-.542.85-.22 1.272-.73 1.952-1.41.396-.397 1.557-1.39.976-1.734-.256-.15-1.417 1.378-1.952 1.844-.768.666-1.678 1.386-2.71 1.627-1.786.416-3.2.02-4.663-.218.867-1.072 1.35-.462 2.712-.543m7.808 1.302c1.2-.825 1.946-2.104 2.602-3.47-.14-.008-.15-.14-.325-.11-.657 1.297-1.486 2.42-2.277 3.58m-1.194 1.19c.087-.313.915-.45.65-.757-.067.332-.874.49-.65.757"/><path clip-path="url(#f)" fill-rule="evenodd" clip-rule="evenodd" fill="#456A5C" d="M147.723 199.963c-.35.658-2.104.404-2.82.326.488-.602 2.28-.067 2.82-.327M123.22 200.396c.044-.24.594-.104.54.108.208-.26.92-.406.87.217-.64-.252-1.124-.018-1.735-.216.002-.33.68.16.324-.108M127.773 200.505c-.428.377-1.612.212-2.385.22-.032-.368.51-.015.217-.22.786-.193 1.58.102 2.168 0M130.7 200.83c-.616.372-1.173-.27-1.734 0 .17-.292-.782-.12-1.084-.108.163-.324 1.187-.208 1.3-.217.48-.033 1.302-.45 1.52.325M155.638 200.722c.6-.08 1.906.108 2.168.435.73-.12 2.214-.304 2.386.215-1.232.315-2.583-.287-4.228-.215.094-.35-.168-.34-.326-.435M166.155 201.373h-.434c-.16.047.044.14 0 .324-.646-.075-1.476.045-2.385 0 .075-.088.17-.297 0-.324 2.48-.412 4.792.275 7.482 0 1.054-.108 2.16.523 3.143.433.55-.05 1.233-.196 1.735.325-.623.4-2.1-.108-3.037-.107.05-.156.097.01.22 0-1.327-.272-5.344-.3-6.94-.325-.06-.24.207-.155.217-.325M107.715 202.13c-.956.502-1.713-.235-2.494.11.067-.482.242-.186.65-.326.122.246.804.285.868 0 1.286.19 1.894.12 3.362.217-.343.152-2.432.32-2.385 0M101.1 202.35c.106-.004.085-.134.108-.22.382.098.357-.02.65.22-.102.335-.896-.096-.866.107-.313.058.166-.424.11-.108M113.135 202.35c.027-.28.187.148.434 0-.072.11-.25.11-.218.323-.323-.002-.66.01-.65-.324.212-.056.693.235.433 0"/><path clip-path="url(#f)" fill-rule="evenodd" clip-rule="evenodd" fill="#456A5C" d="M113.787 202.457c-.054-.144.538-.048.434.216-.34-.12-.245-.01-.65 0-.475-.15.692-.066.217-.216M116.498 211.24c.247-.758 1.862-.19 2.276 0-.12-.135-.093-.225.108-.218v.325h-.326c-.133-.313-1.412.007-2.058-.108M165.938 211.564c-.247.37.896.465.758.107 1.15.724 2.79.218 4.662.436.874-.712 3.305.01 4.88-.324v.324c.285-.403 1.52-.148 1.95-.218-.112.308-.112.452 0 .76-5.713.026-12.887-.437-18.756-.434.357-.532 1.624-.624 1.844-.218.127-.017.09-.197.107-.325.784.234 1.342-.085 1.844-.106.24-.01.416.29.65.218-.14.042.356-.327.326-.327.524-.026 1.12.502 1.735.11m9.216.867c-.425-.336-1.72-.377-2.276-.217.635.103 1.477.036 2.276.217M189.25 213.3c.244.182-.383.404-.65.433.065-.096.13-.194 0-.217.026-.117.215-.072.216-.217.247-.15.41.28.434 0M170.06 216.118c-.005.19.5.33.76.217.278.452-.636.033-.978.108.038-.142.19-.17.217-.325M161.494 218.07c.713-.228 1.89-.313 2.6 0-.583.09-1.47-.022-2.6 0M165.83 218.07c.253.14-1.318.064-1.626.107.02-.125-.023-.19-.108-.216.204-.282.49.192.76-.107.06.295.368.087.974.216M91.45 218.178c-.73.71-2.954-.013-4.01.543-.167-.766 1.06-.752 1.192-.325.816-.297 1.935-.372 2.82-.217M107.607 220.78c-.755.767-4.493.043-5.856.218 1.44-.55 3.68.193 5.857-.22M164.312 221.43c.43.233.732.037 1.3-.107.11.07.113.25.327.218-.4.003-1.354.522-1.628-.11M169.516 221.757c-.805-.21-2.452.146-3.47-.326 1.067-.142 2.834-.233 3.47.327M161.494 221.54c.162-.107.65-.1.976.108-.232.292-.8.01-.976-.108M163.77 221.54c-.408.165-.924.28-1.41 0 .474-.2.946-.047 1.41 0M156.396 222.19c-.79.51-2.267.593-3.252.434-2.234-.362-5.234.614-6.18-.65 2.97-.425 4.132-.66 7.59 0 .337-.405 1.55-.114 1.842.215m-5.528-.325c-1.58-.128-1.35.332 0 0M118.99 234.334c-.74.802-1.685.148-2.602.106-1.666-.073-3.482.255-5.204.11-1.202-.1-3.512-.105-4.664-.217 1.44-.213 2.774-.456 3.905-.326.283.033.52.32.758.326.527.014 2.07-.56 2.385.106.097-.06.618-.31.324-.107 1.803-.115 3.228-.226 5.1 0M162.687 234.116c.46.093-.353.284-.65.326-1.543.22-2.94.017-4.556.108-4.335.244-9.513.346-14.2.216 1.01-.634 2.34-.224 3.576-.216.81.003 1.663-.19 2.494-.217 2.646-.083 5.188-.1 7.372.108 1.716-.573 3.628-.326 5.856-.434-.03.195.103.223.11.11M96.546 234.442a6.956 6.956 0 0 1 2.278-.108c.89.095 2.08-.244 2.602.324-1.41.057-3.71-.02-4.88-.216M106.414 234.225v.326c-.235.062-.67-.437-.868 0-.1-.06-.163-.3-.217-.107-.06-.436.837-.005 1.084-.218M143.17 234.55c-2.89.69-8.625.23-10.41 0 .102-.115.4-.034.325-.325 3.204.475 7.194.09 10.085.326M172.335 235.96c.32-.287 1.008-.37 2.062-.325-.2.68-1.61.5-2.062.325M104.57 236.394c1.663-1.008 5.137-.15 7.59-.434-.732.462-2.092.186-2.93.216-1.38.052-2.916.083-4.66.218M142.735 39.06c.122 1.8-.568 2.46-1.41 3.362-.627.674-1.478 1.505-.217 2.168-.153.387-.597.486-.758.868-2.708-.184-5.634-.15-8.133-.542.01-.154.018-.307-.108-.325-.084-.588.423-.588.65-.867-.352-1.24-1.12-2.062-1.95-2.818-.224-1.197-.153-2.655.54-3.253.52-.022.795-.29 1.41-.217 2.2-1.646 5.688-.928 8.133 0 .384.772 1.473.84 1.842 1.626m-9.54 1.52h.65c.167-.772.316-1.565.326-2.494-.204.023-.24-.123-.433-.11-.384.665-.408 1.69-.542 2.603m1.3.108h.65c.375-.675.346-1.75.542-2.602-1.272-.43-1.066 1.526-1.19 2.602m1.516 0c.398.023.416.15.76 0-.172-.71.258-1.93.107-2.602-.126-.125-.383-.123-.65-.11-.21.768-.017 1.935-.217 2.712m1.3.108h.76c.088-.924.332-1.693.326-2.71-1.42-.554-.85 1.728-1.086 2.71m-4.77-.108c.28-.638.546-1.82.325-2.602h-.327c.02.795-.952 2.23 0 2.602m6.18.217h.652c.416-.807.278-1.515.324-2.71-.33.078-.397-.112-.65-.108-.144.845-.55 1.962-.326 2.818m-7.265-2.494c.052.656-.57 1.713 0 2.17.498-.44.304-1.576.65-2.17-.227-.236-.31.054-.65 0m9.107 2.495c.26-.59.477-1.74.217-2.494-.934-.192-1.078 2.617-.217 2.495m.868 0c.79-.257.223-1.273.866-1.735-.22-.14-.194-.526-.648-.434-.328.468-.19 1.4-.217 2.17m-8.24 1.625c.066-.15.417-.016.433-.216-.485-.175-.688-.658-.215-.977-.562.24-.62-.11-1.194-.108.196.562.384 1.132.975 1.3m6.397-.542c.246-.078.846.196.76-.217-.286.044-.597.057-.76.218m-5.096 1.844c1.658.062 3.892.63 5.203.325-1.625-.142-3.52-.936-5.204-.325M119.75 79.937c-.425.98-1.506.118-2.168.76-2.58.357-5.966-.367-9.325-.543-1.902-.1-3.324-.042-4.444-.325.154-.67.836-.104 1.192-.11.65-.012 1.286-.32 1.842-.434 1.28-.26 2.925.207 4.555.217 2.738.018 5.808-.394 8.348.434M121.702 93.49c-.28.583-.98.332-1.518.434-.986.188-2.753.506-4.012.867 1.91.562 3.12.34 5.096.76-.31.66-1.31.6-2.06.65-3.2.214-7.66-.306-9.65-.65.197-.48 1.254-.445 1.953-.542.535-.074 1.11.234 1.518.217.558-.023 1.26-.532 2.06-.325-1.89-.375-3.75-.85-5.855-.867-.09-.3-.588-.55-.324-.867 4.224.092 8.46.273 12.792.324M137.856 113.115c-1.88.91-5.18.497-7.59.542-.617.01-1.252-.095-1.843-.11-.73-.016-1.483.295-2.168.22-.953-.107-1.63-.54-2.82-.326-1.353.244-2.946.736-4.335.65-1.077-.065-2.073-.67-3.145-.542-.365-.393-.793-.725-1.41-.867-.03-.173.103-.186.108-.324.097-.066.195-.13.217 0 2.97.24 5.67.143 8.457.325.95.064 2.09.547 3.037.652 3.315.368 7.726-.364 11.492-.217M183.937 163.208h.326c.105.504-.142.652-.22.976-3.3 1.16-7.62 2.284-11.273 1.842 1.89.013 4.32-.46 7.047-1.084 1.524-.347 3.93-.788 4.12-1.734M168.54 170.58c-1.248 2.24-5.4 2.378-5.962-.325-.932-4.468 6.837-5.466 5.963.324m-1.844-3.58c-1.68-.376-2.465.496-2.817 1.736 1.305.146 2.727.732 3.794.76-.12-1.035-.264-2.05-.978-2.495m-2.168 4.664c1.222.188 2.802.146 2.82-1.192-1.205-.24-2.22-.672-3.58-.76-.186 1.164 1.147 1.218.76 1.952M91.342 179.688c1.604.44 2.925-.254 4.12.433 1.96-.814 6.256.242 9.65 0-.962.74-2.322.295-3.793.218-1.524-.078-3.773-.274-5.314-.217-.704.028-1.332.586-1.735-.107-.837.544-1.95-.14-2.927.108v-.432zM102.727 183.05c-.403.76-1.167.027-1.734 0-.442-.023-.915.207-1.41.216-3.955.068-7.285.014-11.06-.325-.46.168-1.956.37-2.168-.325 2.894.376 5.79-.056 8.675.435 1.138-.347 3.27-.246 4.012 0 1.2-.357 2.398-.327 3.685 0M106.63 184.893c-.303.597.428-.316.326.216.91-.34 1.657-.284 2.494.216-.667-.117-2.147.104-3.47-.108.092-.234.267-.384.65-.325M141.76 185.65c-.474.576-1.062-.02-1.627-.107-1.05-.16-1.978.16-3.035.217-.713.04-1.51-.258-2.385-.326-3.2-.245-6.804.157-9.76-.108-.98-.087-2.167-.034-3.253-.108-.236-.015-.99.068-1.084-.435.155.263.378.005.435 0 1.986-.14 4.736.26 5.64.11.218-.037 1.717.217 2.168.324 1.82-.133 4.142-.413 6.397-.217.475.042.932.42 1.41.434.498.017.944-.28 1.41-.325 1.41-.136 2.63.34 3.685.54M124.087 193.675c.145-.022.202-.45.217 0 .365-.347.463-.018.976-.217.095.262-.8.24-.217.324-.852.036-2.762.194-4.012-.216.66-.16 2.778-.205 3.037.11M135.146 194c-.017.237-.273.232-.542.216-.076-.375.38-.39.542-.215M170.276 194c.8-.048 1.642-.154 2.383.107-.64.37-1.825.028-2.818.108-.085-.24.843-.002.434-.214M169.733 196.818c.372.32 1.32-.025 2.168.217-.262.08-.802.39-1.19 0-.427.218-1.23.388-1.52-.108.26.044.236-.198.543-.11M152.277 197.035c1.12.196 3.934.033 5.42.218-1.607.827-3.616-.05-5.637.217-.08-.297.216-.22.217-.435M142.735 213.19c.74-.273 1.132-1.83 1.52-2.82.976.68-.31 2.197-.543 3.037.67-.737 1.075-1.743 1.626-2.603.616.53.106 1.708-.108 2.17-.658 1.408-2.28 2.556-3.36 3.36-.58-.194-1.042.12-1.52.326-.924-.25-1.983.267-2.602-.326.223-.898 2.395.167 2.82-.758-1.013.222-1.94-.023-2.82-.218-1.03-.228-2.444-.128-3.144-.434-.44-.193-.808-.887-1.192-1.302-1.295-1.39-2.015-2.318-1.52-5.096.142-.788.604-1.442.65-2.276.96-1.08 2.98-3.074 5.206-2.928 1.067.07 3.953 1.095 4.662 1.844.8.846 1.652 2.576 1.735 4.228.27-.635.076-1.737-.11-2.276.984.11.985 1.953.65 2.71-.203.216-.51.053-.758 0-.156 1.363-.61 2.43-1.192 3.362m-4.662-5.962c.002-1.205 1.098-2.322.216-3.144-1.4-.135-.747 2.36-.217 3.144m-1.41-2.495c.022-.31.015-.593-.323-.543-.23.23.14.41.324.543m-1.084.11c-.44.982.817 1.205.976 1.95.164-1.082-.285-2.08-.976-1.95m4.553 1.95c-.033.23-.513.024-.434-.216.44-.472.71-.824.433-1.628-.77.603-.9 2.422-1.19 3.144.408-.35 1.294-.8 1.19-1.3m.975-.76c.202-.015.363-.07.435-.217-.207-.047-.273-.233-.54-.216-.025.206.12.24.105.435m-4.552 2.385c-.638-.41-1.01-1.086-1.3-1.843-.68.22-.7-.23-1.41-.22.285 1.235 1.637 1.978 2.71 2.063m3.795-.54c1.166.186 1.563-.392 2.06-.868-.51-1.175-1.815.13-2.06.867m-3.143-.22c0-.363 0-.723-.434-.648.025.335.3.42.434.65m-2.278 1.3c-.38-.488-1.236-.498-1.952-.65.157.638 1.424.74 1.95.65m4.77.434c.902.147 1.843.255 2.712.434.025-.494-.183-.757-.326-1.084-.882.13-1.68.34-2.385.65m-7.265.108c.312.022.55-.027.65-.217-.317.028-.332-.244-.65-.216v.434zm.326.867c.92.57 2.72.314 3.47-.215-1.05-.21-2.847-.656-3.47.216m9.217 1.304v-.65c-.752-.01-1.38-.716-1.952-.544.515.533 1.04 1.055 1.952 1.194m-6.073 1.842c1.06.743 1.636-1.758 1.302-2.385-.46.77-.89 1.567-1.302 2.386m-1.95-1.084c1.032.37 1.742-.39 2.06-1.084-1.017.03-1.78.316-2.06 1.084m6.18 1.084c.29-.07.41-.31.65-.434-.225-.823-.746-1.35-1.518-1.626.062.94.09 1.657.867 2.06m-2.06.543h.65c-.045-1.005-.343-1.756-.65-2.495-.245.54-.402 1.99 0 2.494m2.82 1.407c1.335-.11 2.34-1.13 2.603-1.95-.685.834-1.5 1.535-2.603 1.95M177.757 209.07c-1.476.426-3.416.087-4.88-.107 1.174-.56 2.453.047 3.796-.108-.01.153-.018.306.107.323.223-.475.312.004.977-.107M187.623 233.574c-4.353.532-9.426-.057-14.53.434-.107-.15-.177.047-.323-.217-2.362.35-6.592.408-9.76.544.442-.734 2.31-.506 3.037-.326 3.093-.39 6.854-.612 9.866-.324 1.562-.566 4.003-.357 6.07-.11 1.317-.527 3.782.186 5.205-.433.25-.02.634.368.435.434"/></g></svg>