<svg xmlns="http://www.w3.org/2000/svg" xmlns:xlink="http://www.w3.org/1999/xlink" width="194.31" height="157.222" viewBox="0 0 194.3096 157.22197"><g transform="translate(-50.45 -49.613)"><defs><path id="a" d="M50.45 49.613h194.31v157.223H50.45z"/></defs><clipPath id="b"><use xlink:href="#a" overflow="visible" width="289.423" height="257.314"/></clipPath><path clip-path="url(#b)" clip-rule="evenodd" d="M157.978 49.612c.53.81-.056 2.695.972 3.21.568-.145.114-1.31.68-1.46.51.143.217 1.085.293 1.656.463.33.413-.983.975-.584.07 1.834-.73 3.61-1.267 5.157.165 1.882-.357 3.08-1.07 4.088 1.36.154 1.012-2.228 2.142-2.627.567 1.422-1.34 2.41-.584 4.088.055.303.564.15.78.292.075.433-.13.584-.1.974.306.325.524-.65.974-.195-.012.7-.378 1.048-.486 1.654.46.313.527-.475 1.17-.292-.19.8.65 1.27.193 2.043.128.324.602.305.68.68-.475 1.166.143 2.205.29 3.31-.31.444-.978.07-1.36.194-.328.56.914.29.777.972-.185.865-1.672-.174-1.85.68-.026.68 1.025.275.78 1.168-.324.393-1.007.058-1.36-.097-.597.087-.664.7-1.268.78.033.37.516.653.195 1.07-.49.265-.735-.218-1.268-.195-.403.21-.75.48-.68 1.167-1.068.1-1.472.863-1.946 1.557.815 1.685 1.415 3.58 1.947 5.546 5.708-1.945 12.214-3.097 18.196-4.768 2.026-1.443 4.23-2.712 5.547-4.865.188-.72.185-1.63.584-2.14.426.06.58.392.875.583 1.42-.54 2.502-2.074 4.378-1.558-.8 1.146-2.22 1.673-3.21 2.628-.536.892-1.32 1.534-1.85 2.432-1.09.728-2.156 1.477-2.92 2.53.553-.063 1.054-.18 1.46-.39 5.707-.357 10.9-1.227 15.57-2.626 4.84-.412 7.837-2.67 12.26-3.503 2.613-1.082 5.774-1.62 8.466-2.626 2.438.04 3.492-.833 5.937-.875 5.95-1.363 14.56-1.286 19.56 1.07.817.804 1.462 1.78 2.237 2.626-.01.74.193 1.28 0 1.946-3.84 6.605-10.354 10.535-16.833 14.5-2.043.616-3.703 1.616-5.255 2.723-1.4.386-2.24 1.33-3.797 1.557-5.675 2.858-12.656 4.406-19.07 6.52-1.522.2-2.655.784-4.38.78 2.93 1.223 6.358 1.89 9.925 2.236 6.463-.582 13.304.014 19.56.684 3.548.83 6.936 1.822 9.73 3.406.223.297.473.562.68.875 2.475 1.32 4.032 3.56 6.23 5.156.307.892 1.382 1.02 1.265 2.335-3.018 2.758-6.502 5.047-9.73 7.59-2.453.79-4.558 1.93-7.203 2.53-.44.108-.512.587-.874.776-.447.093-.47-.24-.876-.192-2.217.928-4.782 1.51-7.2 2.238-3.863.002-7.308 1.252-11.385 1.363-3.055-.134-7.153.052-10.413.095-.92-.37-2.22-.334-3.21-.39-3.8.466-7.563-.37-11.387-.485-.483.096-1.052.115-1.557.195-.657-.12-1.536-.02-2.14-.195-.437-.047-.435.344-.78.39-.475.022-.448-.46-.777-.585-7.11.803-14.213-1.613-16.64-7.006-1.212 1.675-2.15 3.622-3.016 5.642-.096.96-.097 1.76.098 2.63.246.368.38.85.78 1.07.034.907.314 1.563.874 1.944-.084.766.285 1.078.486 1.557.084 2.43 1.298 5.13.682 7.3-1.14-.384-.896-2.15-1.265-3.31-.29-1.205-.74-2.244-1.267-3.21-.474.142-.23 1-.973.876-.437-.786.255-2.054-.098-3.02-.47.343-.29 1.335-.974 1.462-.846-.143-.256-1.064-.194-1.656-.24-3.92-.002-8.53.973-12.064.135-.486.053-1.11.195-1.557.494-1.56 1.462-2.885 1.654-4.38.028-3.92-1.434-6.35-1.85-9.827-.233-.383-.788-.445-1.265-.584-.462 1.123-.43 2.604 0 3.697-1.4 2.605-.633 6.94-1.556 10.12.1.55.55.746.682 1.266.27.365-.23.674-.195 1.166.017.207.304.38.293.586-.02.39-.325.852-.39 1.264-.18 1.168-.31 2.818-.39 4.184-.044.787-.07 1.56.195 2.14-.025.495-.36.68-.486 1.073.112.503.615.616.778 1.07-.123 3.538-1.194 6.042-1.36 9.73.444 3.714.094 8.228-.78 11.48-.09.46-.475.63-.68.974.347.172.556.482.777.78.938 3.67-.666 7.886.097 11.87-.116.436-.322.78-.486 1.168 1.916 3.225.24 8.21.973 12.65-.043.473-.425.61-.485 1.07.136.416.692.41.778.875-.29 2.775-1.376 6.246 0 8.465-.027.62-.535.762-.68 1.266.114 2.715-.592 5.525-.293 7.785-.06.588-.93.37-.973.973.008.574.477.69.583 1.168-.064 2.53 2.008 2.922 2.53 4.867-1.81.427-2.818-1.577-3.502-2.92-.425.095-.96.24-1.46-.196-.544.562-.91 1.297-1.362 1.947-.328.577-.746 1.9-1.654 1.267.64-1.34 1.665-2.293 1.75-4.184v-1.363c.002-.617.685-.55.78-1.07-.142-.475-.788-.445-.974-.875.393-2.834-.478-5.48-.487-8.078-.138-.477-.506-.723-.68-1.166 1.34-1.802.843-5.116.194-7.298.018-.566.555-.613.585-1.166.032-.588-.418-.688-.488-1.17 1.266-3.994-2.278-9.078.487-12.26-.353-.56-.795-1.023-.975-1.752.188-3.764-.226-7.793 0-11.287.21-.44.407-.89.682-1.266.048-.304-.336-.257-.098-.485a7.42 7.42 0 0 0-.585-1.752c-.456-3.094-.687-7.186-.194-10.12-.22-3.51-1.177-6.282-1.46-9.73.168-.513.542-.82.877-1.167-.065-.422-.45-.523-.486-.973.46-3.178-.548-6.62-.583-9.342.088-.56.455-.843.68-1.265-.678-2.502-.225-5.094-.874-7.688-.047-.305.138-.38.194-.584-1.47-1.51.045-3.79-.778-5.74-.483.102-.94.23-1.267.486-.533 3.417-1.857 6.132-1.946 9.73.63 2.386 1.645 4.388 2.238 6.81.416 2.848.71 5.76.78 8.467-.04.252-.05.533-.196.682.023.33.246.468.194.874 0 .39-.195.584-.195.975-.05.718.646 1.608 0 2.042-.856.01-.654-1.035-1.07-1.46-.377.88.247 2.362-.195 3.017-.655.07-.478-.69-.876-.878-1.385 1.568-1.187 4.717-2.337 6.52-.845-.12-.348-1.417-.29-2.044-.077-.95.236-1.514.193-2.432.22-.432.305-.992.487-1.46v-1.17c.287-1.323 1.352-2.31 1.363-3.6.776-.616 1.075-1.712.972-3.212-.53-2.518-1.938-4.158-2.92-6.227-1.303 2.232-3.156 3.916-5.253 5.354-2.95.99-6.156 2.038-9.73 1.85-.698-.17-1.067-.08-1.752-.196-.4-.008-.297.484-.584.584-.453.03-.543-.3-.876-.39-.657.155-1.56.065-2.24.196-.52-.062-1.09-.078-1.556-.195-3.83.103-7.586.952-11.384.485-.978.092-2.257-.045-3.115.39-3.305-.054-7.436-.226-10.51-.097-4.107-.115-7.597-1.352-11.482-1.363-2.353-.76-4.958-1.27-7.103-2.238-.407-.08-.46.19-.778.193-.462-.12-.597-.568-.974-.777-2.663-.578-4.767-1.72-7.2-2.53-3.32-2.487-6.735-4.878-9.83-7.59-.033-1.233.993-1.407 1.266-2.335 2.236-1.525 3.762-3.764 6.13-5.156 1.95-2.3 5.822-2.676 8.757-3.988.725.043 1.207-.158 1.752-.293 6.28-.657 13.246-1.276 19.46-.683 3.668-.258 6.916-1.088 10.023-2.14-5.15-.883-9.414-2.653-14.304-3.795-3.694-1.173-6.922-2.81-10.608-3.99-1.637-1.09-3.616-1.833-5.158-3.018-2.39-.66-3.953-2.144-6.13-3.015-3.672-2.85-7.85-5.192-10.607-8.956-1.085-.83-1.538-2.288-2.432-3.308.03-.356-.108-.54-.195-.778.083-.37.127-.78.098-1.265.91-.808 1.483-1.954 2.432-2.725 5.042-2.216 13.493-2.347 19.364-.972 1.237.092 2.533.127 3.31.68.698-.134 1.577.27 2.53.194 2.785.945 5.926 1.533 8.562 2.627 3.62.533 5.92 2.384 9.536 2.92a147.6 147.6 0 0 0 11.97 2.625h1.265c2.404.582 5.447.522 7.785 1.168-1.935-1.666-5.38-2.34-6.617-4.378.745-.24 1.356.446 2.044.583-.632-1.026-2.213-2.455-2.63-3.698.89-.1 1.517.877 2.24 1.266.482-.038.477-.56 1.07-.487.514.947.772 2.148 1.265 3.114 1.588 1.88 4.372 2.57 6.033 4.378 6.548 1.043 12.39 2.79 18.197 4.574.14-2.232.342-4.542 1.265-6.23-.657-.647-1.2-1.677-2.53-1.362.1-.747-.83-.465-.778-1.167-1.335-.482-2.263-1.37-3.6-1.85-.188-.33.03-1.068-.292-1.264-1.22-.468-1.916-1.46-2.433-2.628.144-2.03.337-4.01 1.266-5.255.07-.868-.262-1.53.097-2.335.674.053.214.64.68.875.776-.322-.19-1.994.974-2.043-.742-1.755-.537-4.458-2.044-5.45-.117-.538.48-.364.584-.68-.29-1.5-2.053-3.315-.778-4.866.737.457-.04 2.35.875 2.823.478-.074.133-.97.682-.973.51.524-.025 2.43.487 3.21.244.5.834.657.972 1.266.098.52-.166.678-.292.974.18.52.615.962.195 1.557.545.803.678 2.02.68 3.113-.096.456-.535.566-.777.876.45 1.955-1.608 2.964-1.75 4.963.26.548.927.693 1.458.972-.137.87.428 1.223.875 1.75.447.086.762-.466 1.07-.194.54.21.306 1.188.683 1.558a5.918 5.918 0 0 1 1.46 2.042c1.065-.302 1.296 1.432 3.016 1.07.563.022.58.586 1.265.487-.167-1.2-2.23-1.332-2.823-2.43a27.628 27.628 0 0 1-1.167-2.24c-.07-.676-.104-1.387-.292-1.945.365-2.067 1.635-3.23 3.31-3.99 1.082-.013 1.728.41 2.626.584.168-.644.9-.72 1.265-1.168-.304-2.066-3.247-2.005-3.31-3.99 1.12.507 2.342 1.742 3.407 2.627.213.336.396.705.68.972.67-.032 1.98-.41 2.63.194.71-.132.952-.733 1.263-1.265.803-.59 1.44-1.348 2.14-2.043.713-.527 1.228-1.75 2.045-1.85-.874 2.34-3.12 3.304-4.087 5.548.257.328.73.437.876.876 1.636-.32 3.344-.527 5.06 0 .88 1.036 1.584 2.244 1.557 4.184-.323 2.307-1.462 3.793-2.433 5.45.354.188.785-.38 1.46-.195.99-.604 1.594-1.55 2.237-2.628.754-1.26 1.55-2.827 3.31-2.92.2-.766-.945-.99-.682-2.14-.44-.955-1.4-1.39-1.557-2.627-.366-.184-.805-.296-1.07-.583-.12-.984-.88-1.325-1.168-2.14.562-2.054 1.794-4.26.975-6.813-.136-.59.46-.447.39-.974-.547-1.292-2.192-3.45-.974-4.963h.095zm-8.663 16.542c.133.355.188.785.292 1.17.26-.002.556.035.682-.1-.06-.576-.544-1.18-.975-1.07m-9.536 1.752c1.166 0 2.58.094 3.405-.583-.365-1.685-3.82-1.19-3.406.583m12.94-.68c.85.712 1.963 1.665 3.407 1.458.02-1.47-2.41-2.864-3.406-1.46m-6.712.39c.167.005.25-.075.292-.194-.17-.006-.25.075-.292.194m-.78.195c.22.22.428-.068.585-.196-.258.002-.574-.054-.584.195m2.237.096c-.937.297-2.525-.06-2.433 1.266.954.57 2.153-.548 3.698-.292.435.18 1.015.217 1.46.39.078-.344.392-.453.388-.876-.344-.857-2.047-.355-3.113-.488m-7.006 1.07c.06.267.27.382.585.39.17-.752 1.323.084 1.46-.68-.622-.232-1.473.147-2.044.29m13.43 1.363c.175-.28.186-.723.292-1.07-.286-.235-.66-.38-1.17-.39-.297.746.142 1.437.877 1.46m-10.12-.293c.44-.014.392-.517.39-.973-.674-.024-.394.468-.39.973M139 69.27c-.347.62-.096 1.683.585 1.847.313.02.412-.17.778-.097-.303-.735-.515-1.56-1.362-1.75m-74.73.29c-2.795-.19-5.984.016-8.174 1.168 3.084-.75 6.13-.154 9.438-.097-.4-.38-.96-.596-1.265-1.07m166.588 0c-.077.667-.84.653-1.166 1.07 3.328-.155 6.57-.477 9.535 0-2.437-.964-5.45-1.31-8.37-1.07m-85.434 1.265c1.11-.08 2.642-.74 4.088-.292.137-1.534-4.502-1.43-4.087.292m9.44-.194c.567.85 1.766-.048 1.36-.972-.734-.324-1.44.164-1.36.973m-13.04-.097c-.013.24-.015.47.098.584.424-.096.865-.172.973-.584-.424-.227-.553.198-1.07 0M89.86 74.62c-.342-.048-.632-.145-1.07-.097-1.13-.622-2.29-1.214-3.99-1.264-3.108-1.162-6.687-2.304-10.412-2.53-.292.524-.978.58-1.557.582.68.555 1.795.672 2.92.778 3.117 1.297 7.19 1.632 10.51 2.726 3.563.557 6.495 2.263 10.12 2.43-2.014-1.032-4.57-1.525-6.52-2.626m130.88-3.892c-3.705.242-7.23 1.447-10.413 2.53-1.664.086-2.746.758-3.99 1.264-.463-.074-.625.152-1.07.097-1.775 1.24-4.562 1.47-6.323 2.724 5.086-.945 9.453-2.612 14.4-3.697 2.322-.274 4.34-.85 6.228-1.558 1.1-.1 2.185-.216 2.823-.78-.65.052-1.165-.23-1.655-.582M76.82 73.355c-.29-.13-.744-.1-1.166-.097-3.423-.927-7.402-1.806-11.58-1.655-.766-.272-1.786-.29-2.725-.39-.83.194-1.56.187-2.433 0-1.774.843-4.847.57-6.423 1.85 1.105.002 2.178-.026 3.017-.292 2.622.48 5.044.113 7.688.39 7.886.362 15.815 1.5 22.284 3.6 4.194.424 7.54 1.858 11.58 2.24-6.437-2.192-13.518-3.74-20.24-5.645m159.488-2.14c-.345.173-1.02.02-1.363.194-.43-.187-1.002-.23-1.654-.196-.635.24-1.642.11-2.237.39-4.587-.27-8.34 1.13-12.456 1.654-4.595 1.73-10.37 2.278-14.79 4.185-2.066.367-3.99.874-5.644 1.655 2.676-.276 4.847-1.057 7.2-1.655 1.465.13 2.81-.69 4.476-.683 6.115-2.154 13.66-2.88 21.116-3.697.39.096.854.12 1.362.097 2.525-.282 4.933.09 7.492-.39.812.26 1.85.292 2.92.293-1.547-1.31-4.64-1.015-6.422-1.85m-91.08 1.267c1.144.707 3.265-.562 5.06-.195-.62-1.6-4.506-1.123-5.06.195m8.854.194c.616-.03 1.127-.17 1.264-.68-.253-1.124-1.737-.258-1.264.68m-11.774-.585v.583c.354.03.634-.015.876-.097.2-1.014-.374-.702-.876-.487m10.41.973c.276-.354.41-.986-.192-1.07-.16.398-.286.94.193 1.07m-12.55-.68c.152-.01.336.013.29-.195h-.193c0 .097-.08.116-.098.194m13.428 1.265c.403.283.886-.047.875-.487-.352-.34-.967-.15-.875.487m-8.175.39c.636.387 1.907-.042 1.85-.974-.97-.028-1.886-.003-1.85.974m4.866-.293c-.147-.408-1.012-.607-1.46-.39.37.207 1.08.508 1.46.39m-93.222.195c-.316.586-.96 1.16-.68 2.042 2.205-.23 4.354-1.353 6.42-2.043-1.338.093-4.092-.128-5.74 0m175.446 0c2.034.786 4.03 1.613 6.324 2.14.33-.987-.353-1.605-.68-2.24-1.787.1-4.332.133-5.644.1m-180.604.778c.073.64.585.843.682 1.46.732.073 1.582-.375 2.53-.39.164-.613.562-.995.584-1.75-1.312 0-2.86-.008-3.796.68m187.706-.68c-.165.578.396 1.21.585 1.75.848.01 1.765.425 2.336.39.317-.397.623-.805.778-1.363-.73-.895-2.453-.71-3.698-.778m-173.11.096c-3.512.963-7.208 1.743-10.118 3.31 7.965-.07 15.858-.872 22.867 1.07 3.822.525 7.13 1.563 11.093 1.945 2.148.057 4.195.217 5.935.682 1.202-.148 2.977.208 4.087-.194-11.273-2.287-21.482-5.636-33.863-6.813m76.873.487v.195c.438.235 1.044-.095 1.07-.584-.318-.17-.935.067-1.07.39m85.143-.487c-12.228 1.3-22.602 4.45-33.667 6.91 1.354.168 2.608.038 4.184.097 1.71-.495 3.798-.614 5.936-.682 4.032-.38 7.315-1.507 11.288-1.945 3.67-.872 7.326-1.438 11.094-1.363 3.73.075 7.64.41 11.48.194-3.11-1.396-6.62-2.396-10.315-3.21m-80.083.584c.525.835 1.062 1.66 2.043 2.042.824-1.098-.68-2.517-2.043-2.042m-3.99 1.75c.255.233.396.58.78.683 1.036-.193 1.31-1.153 1.653-2.042-.85-.583-2.195.408-2.432 1.36m8.174.196c-.484.09-.414-.306-.778-.097.017.308-.258.326-.195.68.418-.07.427-.548 1.07-.39.002.195.268.124.196.39-.033.355-.333.447-.584.583-.35.025-.356-.292-.682-.292-1.878 1.14-1.862 4.17-4.086 4.964-.132-.032-.187-.14-.39-.098-1.322-2.31-2.955-4.31-4.67-6.227-.553.193-.693.8-.974 1.265-.274 3.102.902 5.402 3.017 6.42-.69.708-1.084 1.708-1.46 2.726.27.67.803 1.08 1.654 1.168.51-.395 1.6-1.045 1.072-1.85-.742.038-.715.843-1.362.973-.146-.18-.504-.147-.487-.487.503-1.474 2.033-1.924 2.628-3.31.986.15 1.22.094 2.24 0 .03.23.152.368.095.683 1.13.59 1.78 1.66 2.433 2.725-.282.106-.366.412-.778.39-.477-.268-.505-.987-1.265-.973-.436.682.454 1.495 1.07 1.75.677-.233 1.326-.49 1.654-1.07-.284-1.144-1.075-1.78-1.655-2.627.83-.694 1.953-1.096 2.725-1.85.6-1.113 1.06-2.81.487-4.28.483-.478.39-.962.486-1.752-.734-.412-.993.415-1.46.586m-99.058.486c.038.35.157.62.486.68.33-.157.558-.416.585-.874-.362-.267-.74.124-1.07.194m187.025-.193c.08.41.324.65.583.874.382-.008.386-.392.585-.583-.3-.21-.73-.506-1.168-.29m-93.804 1.264c.032-.355-.15-.5-.39-.583-.438.253.106.808.39.584m1.946.097c.054-.237.376-.206.29-.582-.123-.007-.134-.125-.29-.098-.16.116-.353.616 0 .68m-86.118-.29c-.37.05-.54.304-.972.29-1.84-.235-2.883.383-4.574.098-.62.224-1.498.895-2.238.39.688 1.128 1.762 1.872 2.822 2.627.576-.057.943.093 1.363.194.27-.25.646-.39 1.07-.486 2.53-.11 4.985-.09 7.785-.098 5.395 1.144 12.505.617 17.904-.194-6.93-2.118-14.423-3.24-23.16-2.82m175.642.387c-1.75.28-2.853-.342-4.768-.098-.397.007-.47-.308-.877-.29-8.737-.427-16.21.72-23.16 2.82 5.45.807 12.562 1.334 18.003.195 2.804.012 5.246-.018 7.785.098.457.094.747.354 1.167.486.286-.235.842-.196 1.362-.194.426-.452 1.04-.714 1.363-1.265.365-.416 1.323-.753 1.167-1.363-.625.506-1.497-.188-2.04-.39m-118.23 3.31c-2.742-.36-5.962-.84-8.758-.195 3.4.458 6.748 1.49 10.215 1.556-.447-.492-.968-.912-1.46-1.36m53.81 1.457c3.562-.397 6.897-1.018 10.122-1.75-3.543-.213-8.466-.777-10.12 1.75m-114.92-.778c.433.83 1.353 1.176 2.043 1.75.627-.798 1.494-1.36 1.945-2.334-1.6-.075-2.47.578-3.987.585m5.934-.585c-1.166.78-2.353 1.54-2.917 2.92 1.423 1.205 2.954 2.3 4.865 3.017.67-2.25 1.897-3.942 3.21-5.546-1.582-.266-3.22-.48-5.158-.39m57.024 2.336c-7.063-.84-13.835-2.983-21.798-2.043-1.137-.128-2.336-.016-3.698.098-.988-.147-1.99-.28-3.113-.29-.583-.097-.556.417-1.167.29-5.032-.93-10.393.227-15.278.39-.817.87-1.378 1.996-2.14 2.918-.364 1.237-1.743 1.94-1.265 3.698 3.976-1.958 8.104-3.766 13.234-4.572 5.153-.43 9.22-.445 14.694-.39 4.63.662 9.375 1.057 14.402 1.458 2.5.84 5.486 1.196 8.076 1.947 1.476-.633 3.092.777 4.28.39-2.67-.703-3.73-3.018-6.226-3.894m98.668 1.362c-.76-.958-1.243-2.193-2.237-2.92-4.837-.19-10.167-1.307-15.18-.387-.54.053-.597-.378-1.168-.29-4.467.63-7.973-.304-12.456 0-6.054.563-12.3 1.362-17.515 2.82-1.466 1.26-2.75 2.7-4.867 3.31 1.23.424 2.808-1.016 4.282-.39 2.675-.73 5.656-1.156 8.27-1.948 5.012-.422 9.734-.817 14.403-1.458 5.42-.07 9.454-.02 14.594.39 1.13.3 2.216.64 3.603.68 3.533.88 6.63 2.71 9.632 3.796.383-1.696-.93-2.406-1.363-3.602m9.828-3.698c-1.95-.1-3.554.144-5.156.39a19.576 19.576 0 0 1 2.82 4.185c.086.564.183 1.116.586 1.363 1.753-.876 3.474-1.783 4.768-3.113a8.43 8.43 0 0 0-3.018-2.825m3.99 2.336c.652-.612 1.58-.95 2.043-1.75-1.573.05-2.292-.665-4.086-.585.57.89 1.27 1.65 2.042 2.336m-103.534-.68c-2.655.073-5.324-1.04-7.785-1.17-.02-.115-.108-.058-.195 0 .212.764.934 1.015 1.363 1.558 5.123.788 11.026 2.208 16.057 2.824-2.882-1.336-6.154-2.28-9.44-3.212m41.162-1.17c-2.626.257-4.963 1.236-7.593 1.17-3.223.993-6.655 1.778-9.34 3.307 5.403-1.103 10.6-1.83 15.86-3.015.485-.457 1.124-.755 1.46-1.363-.02-.11-.107-.15-.194-.194-.02.076-.08.113-.194.097m-99.06.292c-1.908-.7-2.41 1.32-3.6 1.946-.26.916-1.165 1.682-1.072 2.627 1.396-.646 3.366-1.543 5.158-1.17.514-1.3 1.653-1.978 1.946-3.5-.747-.09-1.595.018-2.433.096m146.933 0c.425 1.423 1.492 2.206 2.043 3.502 1.964-.614 3.687.557 5.158 1.07-.466-2.29-2.01-3.503-3.503-4.768-1.145.426-2.678-.182-3.697.195m-72.2 2.14c.14-.084.307-.146.29-.388-.388.052-.294.052-.682 0 .013.247.144.377.392.388m-25.786 3.31c-3.803-1.356-8.198-2.116-13.333-2.14-4.257-.82-8.345-.853-13.526-.976-.124.007-.134.125-.29.098-1.856.025-3.8-.037-5.256.39-1.67-.062-2.658 0-3.697.486-1.995-.146-2.855.84-4.67.874-2.668 1.454-6.126 2.114-8.175 4.186 1.302.904 2.658 1.753 4.477 2.14 2.91-1.537 6.24-3.158 10.022-3.502 7.096-2.378 16.294-1.92 25.008-1.947 3.3.56 6.842.875 10.508 1.07.87.25 2.584.634 3.405.292-1.448-.368-2.647-.98-4.472-.972m92.247-1.267c-1.81-.068-2.71-1.052-4.77-.874-.905-.595-2.086-.492-3.696-.487-1.894-.54-4.538-.33-6.812-.488-.124.007-.135.125-.29.098-4.62-.078-7.986.244-11.874.876-5.127.026-9.51.798-13.33 2.14-1.796.052-3.15.543-4.476 1.07 4.39-.38 9.612-.767 14.013-1.46 1.178.008 2.353.018 3.406-.097 7.356.2 15.543-.1 21.6 2.043.397-.105.613.043 1.17 0 2.19.696 4.362 1.41 6.52 2.14.668.565 1.33 1.133 2.335 1.364 1.74-.465 3.28-1.134 4.38-2.24-2.14-1.946-5.475-2.702-8.175-4.087m-80.475.584c-1.003-.454-2.43-.486-3.405-.973-.662.078-.868-.3-1.557-.194-.186-.043-.244-.21-.486-.196-.098 0-.116.08-.195.098-.004.135.046.212.097.292.85.696 2.48 1.057 3.796.973 1.522.522 3.17.917 4.865 1.267-.57-.89-2.036-.885-3.115-1.267m25.108.487c-.238.25-.582.393-.877.584h1.168c1.357-.262 2.677-.566 4.086-.778 1.063-.557 2.976-.265 3.503-1.363-2.774-.012-5.026 1.33-7.88 1.557m-90.5.682c.957.927 2.535 1.228 3.7 1.947.713-.83.183-2.35.485-3.504-1.86-.313-3.174.698-4.184 1.556m154.525-1.46c.338.928.022 2.507.39 3.407 1.354-.562 2.67-1.157 3.892-1.85-1.013-.967-2.575-2.135-4.282-1.558M90.348 89.702c.098 1.203-.44 1.767-.584 2.726.746 1.038 1.443 2.125 2.725 2.627 1.62-.876 3.105-1.888 4.183-3.308 2.503-1.294 5.65-1.94 8.272-3.113-4.697-.315-10.22.374-14.597 1.068m54.978.78c.636.76 1.303 1.487 2.336 1.85.994-.465 1.823-1.098 2.335-2.045-.708-.258-.327-1.023-.486-1.85-.582.035-.53.702-1.07.78-.605-.115-1.112-.09-1.75 0-.46-.124-.347-.823-.975-.78-.045.943.075 1.484-.39 2.046m44.957-1.85c1.116.766 2.883.88 4.184 1.46 1.45.43 2.632 1.13 4.088 1.556 1.034 1.526 2.59 2.533 4.28 3.405 1.2-.584 2.04-1.53 2.63-2.723-.178-.93-.647-1.746-.585-2.63-4.377-.7-9.894-1.376-14.598-1.068m-78.138.388c-.61.95-.268 3.36-1.653 3.21-.532-.91.772-2.04.292-3.21-5.027.12-9.123 1.867-13.136 3.31-2 2.185-4.727 3.64-7.298 5.254.755.478 1.89.573 2.822.874 1.968-.66 3.583-1.67 5.352-2.528 1.77-.5 3.526-1.016 5.157-1.655 6.24-1.137 13.113-.468 19.655-.098 1.163-.597 1.552-2.644 1.266-4.087-.947-.317-2.07-.46-3.307-.486-.123.33-.135.773-.292 1.07-.694.447-1.01 1.767-1.945 1.655-.477-1.077 1.318-1.438 1.167-2.823-2.7-.248-5.378-.766-8.078-.488m64.322.39c-.45.1-1.358-.253-1.363.29-.266.993 1.847 1.744.973 2.726-.956-.624-1.954-1.648-2.043-2.82-1.207-.013-2.1.21-3.31.387-.43 1.43-.01 3.687 1.362 4.184 6.49-.407 13.335-1.01 19.56.097 2.734 1.093 5.99 1.666 8.174 3.31.846.222 1.54.6 2.334.874.928-.272 1.92-.48 2.822-.777-.688-.74-1.798-1.057-2.627-1.654-.863-.567-1.673-1.18-2.628-1.654-.573-.79-1.383-1.344-2.043-2.043-4.07-1.37-8.352-3.387-13.334-3.21-.23 1.072 1.064 2.28.293 3.21-1.105-.367-1.184-2.134-1.266-3.21-2.16-.402-4.742-.062-6.908.29m-33.767.68c.214.052.535.143.583-.195-.26 0-.574-.054-.584.194m9.827-.098c-.067-.075-.544-.214-.585 0 .208.057.532.336.585 0m-10.022.098c.062.064-.04-.04 0 0m10.12 0c.063.064-.042-.04 0 0m-70.16 1.557c-1.202.71-2.803 1.022-3.6 2.14 2.14.845 4.338 2.148 6.812 2.335.294-.354-.31-.568 0-.972 2.663-.192 2.925-2.782 3.697-4.866-2.36-.368-4.534 1.1-6.91 1.362m53.23-1.46c-3.48.032-6.043-.084-10.024 0 .496 1.375-.49 2.936-.68 3.892 2.762-.125 5.397-.377 7.49-1.17-1.87-.382-4.374.42-5.643-.387.263-1.034 2.25-.347 3.21-.683 2.68.39 5.437-.03 7.98-.875-.815-.222-1.48-.594-2.334-.777m23.743 0c-.717.288-1.54.47-2.14.875 2.695.685 5.253 1.194 7.978.778.908.39 3.043-.447 3.113.778-1.387.59-3.697-.024-5.547.293 2.096.792 4.72 1.057 7.494 1.17-.493-1.076-1.02-2.674-.778-3.893-4.02-.093-6.57.05-10.12 0M215 92.526c-2.852-.913-5.54-1.988-8.856-2.434-.098 0-.117.08-.194.098.554 2.365 1.162 4.675 3.697 5.058.044.37-.253.694 0 .975 2.557-.49 4.61-1.488 6.713-2.434-.31-.566-1.087-.664-1.36-1.264m-75.317-.486c-2.688.36-4.697 1.4-7.006 2.14-2.694.42-5.46.766-8.272 1.07-2.314-.297-4.5-.215-6.81-.583-2.49.06-5.996-.07-9.148-.098-1.365.223-2.57.608-4.184.583-2.66 1.134-6.026 1.564-8.077 3.307-.417.103-.707.33-1.266.292 1.19.628 2.734.9 4.185 1.265 1.487-.847 3.144-1.526 4.28-2.723.732-.372 1.64-.568 2.336-.975.98-.06 1.87-.21 2.727-.39 4.934-.07 8.435 1.295 13.038 1.558 2.316-.478 4.807-.694 6.91-.973.405-.05.533-.374.973-.39.45-.037.56-.122.974 0 1.238-.71 2.95-.94 4.087-1.75 1.675-.305 2.835-1.122 4.183-1.754.452-.275 1.813-.11 1.655-.68h-.292c-.126.006-.137.124-.293.1m59.26 6.42c-1.924-1.84-5.35-2.175-7.98-3.307-4.284-.792-9.517-.445-13.427-.486-2.302.38-4.467.294-6.813.582-4.936-.448-9.59-1.18-13.234-2.918-.94-.002-1.587-.294-2.433-.39-.11.02-.15.107-.194.194.572.24 1.28.342 1.946.486 1.247.732 2.45 1.51 4.183 1.753 1.014.9 2.77 1.057 3.99 1.75.434-.142.57 0 1.07 0 .333.087.422.423.876.39 2.102.284 4.644.522 7.005.974 3.644-.346 6.938-1.042 10.41-1.558 2.038-.155 3.498.265 5.256.388 2.613.86 4.172 2.77 6.716 3.697 1.35-.4 2.787-.714 4.087-1.166-.498-.12-.9-.332-1.46-.39m-53.52-5.546c.326.005.79.375 1.07.098-.472-.306-.75-.808-1.36-.972.07.314.175.6.29.874m3.407.196c.472-.014.818-.155 1.167-.292-.075-.368.12-.466.097-.778-.528.248-.988.568-1.264 1.07m-5.45-.196a.454.454 0 0 1-.292-.096c-1.476.048-2.337.712-3.794.778-1.076.803-2.774.988-3.796 1.85 2.572-.284 4.662-1.05 6.715-1.85.6.01 1.03.194 1.265-.292-.145-.018-.09-.235-.098-.39m8.466.098v.486c2.644.233 5.038 1.93 7.98 1.85-2.442-.935-4.762-2.505-7.98-2.336m-65.39 3.212c.533.73 1.82.707 2.724 1.07.244-.988 1.62-.845 2.042-1.655-.332-.643-1.25-1.54-2.042-2.044-.608 1.175-1.347 2.223-2.725 2.628m117.547-.487c.64.594 1.778.687 2.142 1.557.857-.343 2.02-.38 2.627-.975-1.27-.58-2.073-1.626-2.82-2.724-.6.762-1.546 1.18-1.948 2.14m-59.55-1.168c.144.438.36.806.388 1.363.304.194.515-.08.778.194.418.783.462 1.938 1.46 2.142.588-.856.322-3.103-.194-3.796-.886.078-2.287-.99-2.433.098m4.088-.193c-.638.628-1.1 3.063-.293 3.892 1.272-.148.777-2.493 2.14-2.24.004-.734.696-1.396.195-2.042-.564.245-1.275.346-2.042.39m-9.634 1.75c1.506-.263 3.31-.335 4.38-1.264-1.56-.01-3.342.448-4.38 1.265m13.136-1.264v.293c1.5.327 2.9 1.06 4.38.875-1.134-.64-3.123-1.277-4.38-1.167m-65.682.877c.2.084.437-.253.194-.292-.022.14-.16.162-.194.292m122.51 0c.066-.263-.2-.19-.292-.292-.017.21.08.308.292.292m-66.754 1.458c.602.252 1.268-.205 1.752-.388-.07-.224-.087-.497-.193-.683-.905-.026-1.26.494-1.56 1.07m9.343-.29c.62.06.907.456 1.654.39.26-.568-1.734-2.032-1.654-.39m-43.69.194c-.563-.043-.998.04-1.46.098-.2.158-.397.315-.682.39-1.386.17-2.114 1-3.016 1.653-.518.294-1.23.39-1.363 1.07 2.417.096 4.485-.614 6.617-.486 1.262-.847 2.41-1.808 3.503-2.82-1.035-.324-2.662-.242-3.6.094m84.658 2.045c-.79-1.157-2.48-1.413-3.795-2.045-1.666.025-2.977-.534-4.67-.194.97 1.205 2.208 2.137 3.6 2.92 2.036-.114 4.087.577 6.422.486.042-.58-.925-.946-1.557-1.167m-79.013-1.85c-.973.976-2.803 1.09-3.407 2.435 2.854-.457 5.93-.688 8.272-1.655-1.5-.382-3.196-.567-4.865-.78m26.662 0c-9.36 3.155-20.45 4.963-31.236 6.133-.347 1.73-2.362 1.787-3.503 2.723 2.313.276 3.852-.733 6.13-.778 3.117-1.326 7.838-1.05 10.8-2.53 3.22-.48 5.936-1.46 9.245-1.85 1.338-.806 2.98-1.303 4.67-1.753 1.055-1.126 3.464-.43 4.09-1.85-.1 0-.118-.078-.196-.096m15.082.584c2.774.824 5.986 1.792 8.563 3.113 3.343.387 6.073 1.385 9.34 1.85 2.9 1.516 7.646 1.178 10.704 2.53 2.303-.02 4.024 1.206 6.23.683-1.406-.705-3.11-1.11-3.698-2.627-10.766-1.18-21.817-3.044-31.236-6.132-.07.297.17.285.098.584m27.44.096c-.287-.23-.48-.557-.875-.68-1.6.185-3.093.477-4.67.68.194.617 1.32.304 1.652.778 2.325.107 4.44.945 6.617.877-.79-.672-1.37-1.55-2.726-1.656m-50.502-.486c-.124.004-.134.123-.29.098-.597.247-1.49.196-2.337.194-5.66 1.732-13.124 1.666-19.07 3.113-4.934.208-9.928.553-13.626 2.24 6.267.44 11.855-.997 18.197-1.268 6.808-1.073 13.418-2.345 19.558-4.086-.773-.27-1.852.25-2.433-.292m52.74 3.406c-5.977-1.45-13.438-1.415-19.167-3.113-.992.05-1.858-.024-2.53-.29-.547.61-1.84-.113-2.435.39 6.35 1.528 12.764 3 19.656 3.987 6.29.237 12.108 1.83 18.197 1.167-3.9-1.49-8.73-1.98-13.72-2.14m-39.507-2.335c.153-.01.337.01.292-.195h-.195c0 .095-.078.114-.097.194m4.28 0c.154-.01.338.01.293-.195h-.196c0 .095-.078.114-.097.194m-7.394 3.403c.186.14.277.37.583.39.092-1.172.822-1.706 1.752-2.043-.424-.128-.472-.63-1.07-.582-.575.592-.902 1.432-1.265 2.235m8.562-1.556c1.1.164 1.466 1.063 1.85 1.946.097-.193.43-.154.388-.487-.474-.724-.53-1.87-1.46-2.14-.195.29-.713.26-.778.68m-6.91 1.85c.698-.158 1.977-.468 2.143.39-.89.603-2.483.497-2.822 1.655 1.024-.25 2.337-.593 3.698-.778-.14-1.484-.46-2.692-1.947-3.016.394.985-.947.965-1.07 1.75m4.573 1.265c1.336.13 2.777.726 3.696.685a1.392 1.392 0 0 1-.583-.684c-.652-.452-1.89-.315-2.335-.974.31-.63 1.473-.533 2.14-.29-.082-.73-.896-.725-1.167-1.266-.086-.237.436-.5 0-.485-1.336.39-1.677 1.573-1.75 3.016m-26.37 1.267c-4.494.502-7.647 2.344-10.8 4.186 3.79-.215 7.41-1.402 11.48-1.654 1.782-1.27 4.075-2.026 5.158-3.993-1.96.474-4.574.29-5.84 1.46m50.408 2.53c4.05.18 7.866 1.585 11.48 1.558-2.567-1.455-5.266-2.775-8.27-3.797-1.09.15-1.565-.316-2.53-.29-1.228-1.208-3.883-.983-5.84-1.462 1.097 1.955 3.432 2.67 5.16 3.992m-91.568-3.31c.15 1.275-1.188 1.67-1.654 2.627 1.88.238 4.155-.424 6.13-.096.514-.917 1.48-1.378 1.558-2.726-1.882-.185-4.148.06-6.034.194m127.475-.194c-.007.123-.126.135-.1.29.354 1.01 1.025 1.702 1.656 2.435 1.932-.263 3.948.185 5.934.192-.07-1.006-1.703-1.275-1.557-2.82-2.038.09-4.065-.342-5.934-.098m-133.02.487c-.167.237.24.552.096 1.07-1.207 1.372-4.917.597-6.813.974-.27-.12-.494-.283-.876-.29-.503.142-1.205.09-1.848.095-1.313.24-2.15.962-3.502 1.17-.09.298-1.112.595-.682.776 2.23-.818 4.958-1.14 7.492-1.654 2.81.156 6.358.746 8.855.29.288-1.204 1.657-1.327 1.752-2.724-1.352-.145-3.096.144-4.475.293m12.845-.388c-.462.898-1.02 1.703-1.557 2.53 1.39.132 2.89.063 4.573.097-.088-1.128.64-1.44.778-2.335-1.214-.363-2.373-.213-3.793-.293m118.618 0c-1.323.055-2.428-.04-3.602.293.197.87.94 1.197.877 2.334 1.65-.038 3.12.044 4.476-.1-.61-.817-.927-1.928-1.75-2.528m8.562.096c.328 1.29 1.384 1.86 2.043 2.824 2.595.23 5.962-.207 8.76-.39 2.512.534 5.19.905 7.492 1.653-1.543-1.248-3.634-1.947-6.324-2.043-.358.03-.54.24-.877.29-1.752-.288-4.94.19-6.422-.68-.548-.34.02-1.005-.194-1.458-1.543.044-3.088-.41-4.476-.196m-120.954.097c-.853.574-1.988.867-2.044 2.238 1.42.393 3.51.193 5.255-.098.038-.363.288-.88.097-1.168a8.736 8.736 0 0 0-3.308-.972m106.455 0c-1.36.1-2.413.506-3.407.973-.034.488.06.85.196 1.168 1.637.25 3.83.602 5.252 0-.19-1.2-1.21-1.576-2.043-2.14m-63.738 6.13c.608.055.813-.29 1.265-.39.423-1.116.39-2.17.778-3.212-.246-.814.51-1.602.098-1.945-.598 1.966-1.506 3.62-2.14 5.546m9.048-5.254c.855.8.542 2.77 1.56 3.406.5-1.152.733-2.576 1.36-3.602-1.086.045-1.735.352-2.92-.098-.036.142-.116.167 0 .294m11.873 5.254c-.642-1.953-1.406-3.783-2.237-5.547.655 1.76-.116 5.228 2.237 5.546m-28.997-2.918c.976.223 1.552.846 2.53 1.07 2.095-.47 3.5-1.63 4.087-3.602-2.898-.04-4.176 1.855-6.617 2.532m34.642 1.07c.82-.41 1.812-.653 2.433-1.265-2.676-.34-3.627-2.477-6.52-2.336.502 2.06 1.992 3.133 4.088 3.602m-18.976-3.214c0-.098-.17-.123-.194 0 .11-.008.15.142.194 0m5.74.1h.195v-.198h-.194v.197zm-43.69 1.943c-.274.243-.454.585-.778.778-3.812 1.344-7.786 2.53-12.065 3.404-2.4.166-4.93.953-7.786.977-3.893 1.75-7.152 4.132-9.73 7.196-.7 1.965-1.38 3.94-2.044 5.936 1.685.814 3.29 1.71 5.353 2.14.44-.66.926-1.276 1.655-1.65.835-1.663 1.95-3.046 3.017-4.478 1.956-1.61 4.175-2.96 7.2-3.504 1.467-.77 3.185-1.29 4.768-1.943.36-.07.42.164.778.096 2.85-2.342 5.796-4.586 9.634-5.936 1.14-.842 2.615-1.344 3.7-2.238a16.208 16.208 0 0 0 4.377-2.337c.333.107 1.043-.232.585-.29h-.194c-2.846.594-5.54 1.336-8.468 1.846m77.943.682c.58.49 1.275.865 1.85 1.36 4.32 1.81 8.272 3.99 11.48 6.91.392.03.542-.175.975-.097 1.512.56 3.06 1.395 4.67 1.943.527.182 1.142.125 1.655.293 2.23.733 3.958 1.993 5.546 3.308 1.006 1.334 2.067 2.607 2.822 4.186.77.5 1.28 1.252 1.947 1.848 1.946-.45 3.41-1.385 5.155-2.043-.527-2.228-1.404-4.108-2.043-6.228-2.698-2.848-5.822-5.27-9.632-7.004-2.955-.006-5.47-.838-7.98-.977-.385-.198-.95-.218-1.266-.483-4.146-.393-7.158-1.926-10.702-2.92-.39-.164-.396-.707-.877-.78-2.99-.448-5.805-1.59-8.757-1.75 1.928.605 3.055 2.006 5.157 2.435m-102.756-.584c-3.032.676-6.81.492-9.927.193-.722.413-1.5.77-2.14 1.265-.144 1.29-1.15 2.217-1.46 3.018 7.637-1.395 17.223-.805 24.814-1.752.263.192.646.263 1.07.296 1.645-.37 3.473-.553 4.865-1.17 1.528-.516 3.225-.863 4.282-1.848-7.903.01-13.58.268-21.505 0m143.43 1.557c-.61-.56-1.41-.926-2.14-1.363-3.21.312-6.987.45-10.12-.193-7.876.278-13.53.003-21.41 0 2.447 1.64 5.797 2.376 9.245 3.017.465.008.73-.184 1.07-.295 7.584.94 17.17.37 24.815 1.752-.535-.925-1.285-1.634-1.46-2.92m-171.748 6.423c.552.258.898.725 1.557.875 1.654-1.104 3.665-1.85 5.644-2.627 1.18-1.38 1.577-3.547 3.21-4.477 1.23-.686 3.397-.432 4.378-1.363-6.533.537-11.873 3.113-14.79 7.592m91.567-7.3c-.06-.364-.85-.51-1.17-.292.32.168.75.225 1.17.293m4.767 0c.406-.11.986-.053 1.167-.39-.534-.014-1.008.03-1.167.39m76.97 0c1.963.533 4.312.682 5.45 2.043.673 1.144 1.128 2.505 1.945 3.505 2.057.732 3.997 1.584 5.74 2.627.58-.264 1.19-.496 1.46-1.068-2.582-3.193-5.693-5.855-10.704-6.62-1.016-.538-2.526-.583-3.794-.874h-.193c-.006.17.022.3.097.388m-100.422.098c-.37-.053-.54-.305-.974-.29-1.838.687-4.394.663-6.517 1.07 2.152 1.056 4.86 1.56 6.91 2.724 1.187-1.148 3.353-1.316 4.475-2.53-1.105-.556-2.235-1.248-3.893-.974m42.913-.29c-.198.09-.386.196-.584.29-1.714-.19-3.16.213-3.99 1.166 1.31.932 3.238 1.24 4.38 2.338 1.19-.402 2.198-.982 3.308-1.46 1.105-.52 2.82-.423 3.603-1.265-2.23-.37-4.706-.486-6.717-1.07m-103.34 2.14c-1.893.115-2.953 1.07-3.212 2.82 1.523-.033 2.672-.443 3.99-.68.28-1.246 1.61-1.44 1.75-2.824-.992-.297-1.77.428-2.528.685m61.984 2.53c-.465 1.973-1.277 3.346-2.627 4.38-.488.372-1.125.556-1.557.972-.27.26-.35.81-.68 1.166-.433.47-1.05.596-1.168 1.268-.203.153-.646.067-.875.194-.376.727-.848 1.355-1.07 2.238 1.688.582 3.494 1.047 5.35 1.46 2.872-3.876 6.195-7.3 8.078-12.163.052-.378-.174-.476-.097-.876.27-.64.68-1.137.778-1.947-1.97 1.177-3.817 2.476-6.132 3.308m33.767-1.168c.014.31-.26.324-.195.682.954 2.448 2.396 4.413 3.697 6.517.648 1.04 1.452 1.922 2.335 2.727.8.92 1.172 2.266 2.237 2.918 1.746-.426 3.426-.922 5.158-1.36-.093-1.044-.682-1.59-1.07-2.337-.158-.197-.72.006-.876-.193-.235-.998-1.3-1.166-1.557-2.14-2.037-1.34-3.897-2.853-4.478-5.646-2.234-.88-4.143-2.084-6.032-3.31-.045 1.018.6 1.346.78 2.14m66.558.682c1.15.44 2.473.703 3.99.777-.05-.598-.372-.926-.49-1.46-.795-.628-1.373-1.48-2.916-1.36-.646-.395-1.282-.797-2.337-.78-.1 1.253 1.32 1.782 1.753 2.823m-112.49-2.142c-2.84.986-4.524 3.13-6.81 4.674-.23.645-.83.918-.875 1.75-.41.078-.632.342-1.072.39-.768 1.34-2.25 1.964-3.306 3.017-.506 2.48-2.898 3.066-3.018 5.934.852.19 1.763.317 2.53.585 1.456-2.11 2.588-4.547 3.99-6.713 3.346-1.94 6.268-4.307 9.44-6.422.69-.154 1.223-.463 1.75-.78.312.022.412-.173.778-.097.542-.496 1.334-.742 1.85-1.264-1.443-.668-3.495-.725-5.255-1.074m75.413 9.83c-1.553-1.076-2.634-2.62-4.38-3.504-.02-.758-.553-1.002-.777-1.557-2.25-1.578-3.893-3.764-6.81-4.67-.633.018-1.856.285-2.92.193-.547.525-1.847.297-2.338.877.562.445 1.274.736 1.85 1.166 1.146.024 1.546.79 2.63.878 3.008 2.244 6.007 4.498 9.34 6.422 1.376 2.22 2.448 4.754 4.086 6.713.62-.416 1.816-.258 2.433-.682-.3-2.682-2.503-3.46-3.114-5.834m-79.5-9.635c-.285.108-.56.22-.975.196-1.183.7-3.296.467-4.28 1.363.943.513 1.453 1.462 2.918 1.458a160.975 160.975 0 0 0 3.795-3.113c-.576-.06-.866.168-1.458.096m73.857 3.02c1.454-.038 2.164-.82 2.918-1.558-2.01-.717-4.15-1.3-6.617-1.557 1.163 1.108 2.502 2.037 3.7 3.114m-123.29.876c-.693 2.027-2.818 2.63-3.017 5.156.314.268.55.615 1.07.68.563-.215.816-.74 1.265-1.07 4.753-3.06 11.88-3.754 18.78-4.67 1.543-.742 3.168-1.434 4.573-2.53-7.882.19-15.935.65-22.67 2.434m60.234-2.434c-.006-.06-.015-.117-.098-.1-1.024.73-1.98 1.525-3.502 1.754-2.05 1.13-4.183 2.174-5.84 3.697-1.704 1.504-4.086 2.334-5.643 3.988-.905 2.177-2.127 4.036-3.114 6.132.477.367.783.904 1.46 1.07 1.214-2.418 3.117-4.15 4.768-6.13 1.24-.544 1.82-1.745 2.627-2.724 3.088-2.168 5.79-4.72 10.023-5.74.32-.494 1.098-.525 1.168-1.268-.596-.242-.995-.688-1.846-.678m15.08.098c.126.004.136.123.293.096v-.193c-.01-.24-.32-.023-.292.097m19.463-.098v.193h.29v-.293h-.193c-.005.06-.014.118-.097.1m30.554 9.437c-.195-.163-.452-.26-.486-.585-3.83-2.268-6.96-5.236-11.092-7.2-.393.067-.557-.093-.877-.097-.625-.414-1.148-.93-2.043-1.07-.193-.197-.388-.39-.584-.586-.72.256-1.598.35-1.947.977.332.347.74.622 1.07.97 4.287 1.13 7.137 3.7 10.315 5.936.7 1.148 1.51 2.186 2.725 2.82 1.552 1.955 3.342 3.666 4.573 5.938.622-.285 1.127-.69 1.46-1.264-1.184-1.8-2.176-3.796-3.114-5.84m45.054-7.004c-6.696-1.79-14.726-2.246-22.577-2.434 1.286 1.13 3.017 1.705 4.38 2.53 6.888.895 13.996 1.573 18.78 4.573.562.346.778 1.037 1.557 1.166.35-.136.553-.42.877-.58-.102-2.66-2.29-3.23-3.018-5.254m-95.752.29c.257-.503-.12-1.83-.583-2.237-.533.78.124 1.826.584 2.237m21.213-.098c.377-.216 1.014-1.343.585-2.142h-.292c.025.72-.79 1.588-.293 2.14m-31.624-1.85a.492.492 0 0 0-.292.294c-1.04.354-1.644 1.143-2.528 1.654-4.927 1.594-8.858 4.18-11.677 7.88-.335.22-.664.44-.972.683-1.002 1.69-2.842 2.542-3.504 4.573 1.026-.498 1.592-1.457 2.334-2.24 4.15-2.822 8.06-5.887 13.04-7.88.27-.185.46-.45.68-.68.547-.106.847-.454 1.363-.587.603-1.053 2.147-2.195 1.655-3.697h-.1zm43.692 3.798c.52.06.72.447 1.265.486.11.21.325.32.39.584 5.088 1.95 8.96 5.117 13.232 7.88.707.882 1.312 1.866 2.433 2.337-.737-2.02-2.606-2.906-3.6-4.672-.396-.187-.707-.458-1.07-.68-2.777-3.712-6.708-6.267-11.678-7.784-.837-.785-1.743-1.5-2.92-1.947-.12 1.648 1.16 2.73 1.948 3.796m-67.92-2.336c1.658.104 2.885 1.363 4.67 1.652.547-.36 1.09-.725 1.265-1.457-1.403-1.32-4.73-2.285-5.936-.195m86.408-1.07c-.606.463-1.154.986-1.946 1.266.268.672.69 1.19 1.363 1.457.99-.11 1.626-.574 2.334-.973.73-.373 1.83-.44 2.238-.875-1.025-.96-2.2-1.272-3.99-.875m-41.744.68h.292c.146-.143.01-.504-.292-.486v.486zm.778 0c.385.223.43-.596.097-.486.04.234-.178.21-.097.486m.292 3.988c-.707.06-1.302.008-1.46-.484-.054-1.406-.07-2.848-1.167-3.21-.954.634-.768 2.41-1.362 3.405.168.544.146 1.278.682 1.456 1.942-.72 3.89-.375 5.74-.098 1.074-.734.014-2.03.098-3.21-.41-.5-.396-1.42-1.167-1.556-1.072.612-.467 2.907-1.362 3.696m-14.596-2.432c.28-.01.637.053.778-.096-.087-.303-.1-.68-.486-.682-.01.345-.36.354-.292.778m27.44-.095c.292.216.34.116.778.097-.057-.396-.246-.662-.584-.777-.08.208-.25.33-.194.68m-104.508 2.044c.526.77 1.39 1.203 2.238 1.652.162-1.78 1.463-2.428 1.946-3.89-1.816.323-2.62 1.657-4.184 2.238m45.54-1.75c-1.08-1.02-2.606.26-3.308 1.068 1.987.445 3.01 1.854 5.157 2.14.86-.6 1.89-1.028 2.335-2.042-1.227-.526-2.56-1.65-4.184-1.166m91.08 0c-1.464-.42-2.996.584-3.99 1.264.337.7 1.433 1.484 2.335 1.945 2.102-.266 3.015-1.72 5.06-2.043-.59-1.07-2.215-2.104-3.406-1.166m43.498 3.402c.787-.445 1.584-.88 2.14-1.557-1.335-.806-2.373-1.91-4.087-2.335.29 1.274 1.76 2.194 1.947 3.89m-160.17-2.915c.18.67-.07 1.22 0 2.04 1.122-.595 1.95-1.487 2.822-2.333-.875-.215-2.204-.074-2.822.293m139.635-.197c.932.725 1.646 1.664 2.726 2.238.23-.595-.19-1.403.1-2.04-.6-.29-2.14-.64-2.826-.197M69.134 116.66c-1.393 1.62-3.545 2.785-3.21 5.836a6.613 6.613 0 0 0 1.946.78c.93-1.278 1.598-2.813 2.92-3.7.13-.19.092-.555.193-.777.228-.032.402-.118.584-.194.52-1.172 2.293-1.594 2.432-2.822-1.883.124-3.195.778-4.866.876m156.96 0c-1.752-.012-3.428-1.107-4.966-.684 1.02 1.06 2.062 2.09 3.212 3.016.112.117.11.346.098.584 1.293.914 2.068 2.344 2.92 3.7.76-.118 1.267-.485 1.944-.683.37-3.417-1.827-4.27-3.21-5.933m-93.708.194c.71 1.27 2.27 1.688 3.31 2.627-.246-1.247-.653-2.33-1.072-3.403-.765.2-2.28-.43-2.238.777m28.316-.778c-.567.924-.732 2.25-1.166 3.307 1.063-.594 2.75-1.398 3.405-2.723-.115-.146-.282-.24-.293-.488-.634-.264-1.332.1-1.947-.096m-88.55 4.766c.988-.123 1.73-.066 2.627.098.843-1.086.855-3.277.39-4.572-.844 1.61-3.422 1.927-3.017 4.474m148.298.097c.9-.13 1.663-.25 2.627-.1.422-2.567-2.115-3.003-3.113-4.474-.28 1.868-.278 3.294.486 4.573m-80.67-.194c.01-1.322-.71-2.715-1.36-3.697.5 1.182.75 2.62 1.36 3.696m15.667 0c.528-.705.718-1.748.975-2.727.22-.2.304-.538.39-.874-.022-.078-.083-.115-.195-.098-.232 1.39-1.18 2.063-1.17 3.698m-57.8-3.504a22.34 22.34 0 0 0-4.184 5.06c.51.067 1.15-.524 1.558-.876 1.435-.61 3.407-.68 5.256-.877.81-.423 1.822-.642 2.432-1.265-1.34-.982-2.96-2.14-5.06-2.043m100.033 0c-2.116-.025-4.006.893-5.063 2.238.78.357 1.604.668 2.336 1.068 2.732.158 5.268.508 6.812 1.85-.98-2.1-2.59-3.572-4.086-5.156m-112.393 5.156c.61 2.148-.416 5.45 1.265 6.715.956-.018 1.88.414 2.726.193.195-.355.008-.652 0-1.07.58-.88 1.04-1.877 1.75-2.627.76-2.55 2.09-4.526 3.407-6.52.496-.64 1.406-.864 1.557-1.85-3.624 1.668-8.35 2.225-10.705 5.158m118.327-3.406c-1.283-.666-3.04-1.367-4.38-1.654-.037.363.395.256.293.682 2.276 1.78 3.594 4.516 4.67 7.492.757.8 1.226 1.89 1.85 2.824-.188.303-.253.7 0 .97.82.194 1.917-.144 2.724-.29 1.648-1.418.597-4.658 1.17-6.81-1.638-1.542-3.636-2.726-6.326-3.214M61.74 120.26c.845.773 1.906 1.336 3.112 1.75-.083-2.002 1.216-3.127 1.558-4.38-1.923.51-3.698 1.17-4.67 2.63m168.632 1.75c1.26-.46 2.505-.934 3.212-1.947-1.272-1.127-2.75-2.05-4.77-2.432.547 1.436 1.637 2.323 1.558 4.38m-98.766-4.28c-.7 1.31-1.536 2.487-2.53 3.503-.117 1.926.718 3.414.875 5.35.393.068.558-.092.878-.096 1.173-1.973 1.583-4.71 2.432-7.006-.525-.61-.872-1.398-1.654-1.75m34.544 3.502c-1.036-1.01-1.695-2.393-2.63-3.504-.533.568-1.193 1.012-1.458 1.848.812 2.4 1.236 4.756 2.24 6.812.325.062.497.28.972.193.21-1.803 1.088-3.475.876-5.348m-18.683-1.752c-.816.71-1.056 1.994-1.266 3.31.247.177.215.628.684.583.486-.064.403-.7.778-.877.33.156.386.588.68.78.35.024.356-.294.682-.294-.092-1.593-.102-3.27-1.557-3.502m-32.306 3.502c.94 1.04 1.747 2.213 3.116 2.822.113-.832.662-1.984.097-2.63.794-.952 1.226-2.274 1.85-3.403-1.82.556-3.74 1.84-5.062 3.212m61.694.194c-.524.684.066 2 .196 2.63 1.306-.704 2.23-1.788 3.113-2.92-1.502-1.257-3.14-2.372-5.06-3.21.44 1.306 1.08 2.422 1.75 3.5m-33.18-3.014c.64 2.625.753 5.643.68 8.758.417-.2.62-.615.877-.975v-2.238c-.415-1.918-.014-4.656-1.168-5.838-.188.04-.42.034-.39.292m7.395-.195c-.315.105-.367.475-.584.682.082 2.76-.642 5.942.194 8.27.503.113.103-.678.486-.684-.018-2.912.425-5.322.098-8.27h-.193zm-16.64.293c-.83 1.215-1.476 3.125-1.654 4.67.965-.5 2.108-1.652 2.627-2.92-.408-.338-.18-1.312-.583-1.654-.185.023-.215-.11-.39-.096m26.177 0c-.493.383-.402 1.35-.683 1.945.647 1.078 1.584 2.37 2.628 2.725-.47-1.735-.686-3.723-1.944-4.67m32.597.68c.272.93 1.122 1.28 1.462 2.14.954.05 1.835.176 2.725.293-.1-.81-.918-.9-.974-1.754-1.105-.132-2.4-.575-3.212-.68m-94.387.78c-.036.84-.86.892-.973 1.653.902-.105 1.77-.242 2.725-.293.437-.793 1.13-1.334 1.557-2.14-1.128.236-2.265.458-3.31.78m-29.872 2.14c.534.31 1.1.583 1.85.68.408-.69.66-2.657.096-3.407-1.12.437-1.39 1.724-1.946 2.726m155.596.68c.75-.093 1.273-.41 1.847-.68-.695-.93-.81-2.435-2.142-2.728-.243 1.266-.307 2.507.296 3.407M72.15 122.204c-.055.95-.132 1.877-.39 2.627.358.26.814.42 1.267.584.688-.9 1.132-2.047 1.36-3.406-.63-.422-1.77-.32-2.237.195m148.686-.195c.272 1.318.73 2.45 1.362 3.406.514-.07.838-.332 1.265-.486-.135-.936-.333-1.805-.388-2.824-.585-.38-1.61-.52-2.24-.096m-127.568 2.14h-.682c-.508 1.44-1.198 2.697-1.85 3.99.232.55-.044.846-.194 1.266 1.584-.363 3.187.137 4.672 0-.203-.697-.28-.78-.097-1.557-.208-.25-.66-.25-.68-.685.155-.363.594-.44.874-.68-.096-1.23.64-1.633.583-2.824.625-.354 1.383-1.067 1.265-1.845-1.76.316-2.83 1.324-3.89 2.335m108.594 0c-.882-1.1-2.23-2.24-3.893-2.238.206.96 1 1.334 1.458 2.043.004 1.068.636 1.506.585 2.627.336.184.798.24.875.684-.107.412-.742.293-.778.777.36.527.02.824-.097 1.363 1.504.146 3.087-.36 4.67 0-.094-.547-.448-.744-.097-1.266-.765-1.213-1.333-2.625-1.946-3.99h-.778zm-138.86-1.945c-.074.02-.19.002-.193.098.075-.024.19-.002.193-.098m169.316.098c.063.064-.042-.04 0 0m-169.025.095c-.075.023-.19.002-.194.098.076-.02.193-.002.195-.098m168.83 0c-.076.023-.19.002-.196.098.076-.02.193-.002.195-.098m-168.052.293c-.075.022-.19.003-.194.1.076-.022.19-.003.193-.1m167.176.1c.062.062-.042-.042 0 0m-103.44 0c-1.083 1.77-2.543 3.163-3.308 5.253 1.418-.045 3.363-.396 4.38-1.168.014-1.635-.56-2.686-.78-4.086h-.292zm38.535 3.99c.918.938 3.018 1.185 4.477 1.263-1.01-1.977-2.084-3.885-3.698-5.254-.24 1.5-.666 2.556-.78 3.99m-99.06-2.727c-.715-.45-1.78-1.07-2.724-.973.886.283 1.952.904 2.725.973m160.656.097c.864-.434 2.022-.572 2.724-1.168-1.063.235-2.062.532-2.723 1.168m-144.21-.097c-.61 1.598-2.136 2.79-2.822 3.99 1.34.19 2.724.838 4.087.682-.03-.62-.47-.828-.68-1.266.11-.995.258-2.94 0-3.99-.155.233-.35.43-.585.583m28.9.486c.207 2.128 1.914 2.757 2.726 4.282.855-.44 2.277-.318 3.21-.682.13-.682-.2-.9-.39-1.266-1.85-.582-2.75-2.115-3.89-3.406-.82.093-1.232.587-1.656 1.07m68.506-1.07c-1.347 1.315-2.43 2.892-4.282 3.698-.068.29-.29.426-.194.877.795.533 2.367.293 3.212.78.857-1.513 2.61-2.126 2.723-4.38-.44-.37-.788-.836-1.46-.974m29.776 4.087c-.22.39-.768.766-.583 1.266a18.22 18.22 0 0 0 4.088-.877c-1.38-1.312-2.258-3.127-3.602-4.477-.057 1.085.037 3.09.098 4.087m-91.078-3.698c-.077.02-.114.08-.097.192-.173.414-.095 1.076-.195 1.557 1.637.054 3.456.43 4.378.876.25-.434.64-.72.778-1.264-1.297-.716-3.212-1.324-4.864-1.363m50.795 1.458c.168.48.475.82.778 1.168.84-.49 2.718-.785 4.282-.877.074-.425-.03-1.442-.292-1.85-1.744.37-3.633.586-4.768 1.558m-73.372-1.168c-.625.38-.87 1.14-1.07 1.945 1.376.084 2.844.094 3.795-.486-.075-.595.127-.91.097-1.46-.676-.045-1.857.032-2.822 0m98.087 1.557c1.053.426 2.354.49 3.698.39-.164-.81-.396-1.548-.974-1.946-1.736.065-3.564-.576-2.724 1.557m-83.976-.484c-.98.64-1.57 1.672-2.433 2.43-.502.406-1.298.518-1.46 1.268 1.52.288 4.355-.034 6.327-.194-.825-1.09-1.48-2.348-2.24-3.502h-.194zm75.12 2.627c-.588-.742-1.386-1.273-1.848-2.143-.422-.064-.52-.45-.974-.484h-.194c-.35 1.465-1.333 2.3-1.947 3.502 1.935.242 4.61.32 6.23.29-.07-.74-.68-.94-1.266-1.165m-66.947 0c1.08.05 3.367.912 3.6-.486-.823-.378-4.082-1.573-3.6.486m52.545-.293c.587 1.066 2.31.31 3.603.39.135-.31.135-.86 0-1.167-1.28-.19-2.92.048-3.603.777m-75.997-.098c-.258.558-.206 1.34-.097 1.847 1.157.145 2.965.117 3.796-.387-.116-.77-.19-1.238-.097-2.045-1.126-.11-2.678.172-3.602.584m4.768-.68c-.427.63-.21 1.583 0 2.333 1.08-.223 3.318.463 4.185-.193-1.03-1.096-2.23-2.256-4.184-2.14m89.426 2.333c1.166.283 2.764-.246 3.99.098.39-.522.574-1.872.097-2.43-1.872-.024-3.333.947-4.088 2.333m5.353-2.238c-.037.572-.126 1.586-.098 2.14.96.403 2.388.34 3.698.392.177-.44.13-1.404 0-1.85-.816-.553-2.472-.764-3.6-.682M148.44 152.76c2.54-1.943 1.918-7.898 1.07-11.19.135-.48.64-.59.68-1.17.277-2.858.696-5.183.78-8.075-.264-.547-.517-1.105-.78-1.654-.836-.772-2.122-1.544-3.794-1.165-1.164.555-1.448 1.99-2.433 2.723.65 3.016.55 6.783 1.558 9.44-.912 3.33-.608 8.48.876 10.897.57.343 1.452.058 2.044.195m-2.24 2.724c-.538.238-.546 1.008-.68 1.654-.108.465.303.41.194.877.033.387-.173.537-.097.973.147.684-.018 1.078 0 1.848.352 1.555-.37 4.783.875 5.74.19-.135.3-.348.585-.387-.484-3.43-.17-7.833-.682-10.706h-.194zm2.045 11.192c.73-.02.687-.81.875-1.363-.212-3.264.44-6.176.195-9.146-.275-.244-.65-.385-1.07-.486-.153 3.36-.12 8.047 0 10.996m-1.85 4.865c-.005.124-.123.134-.096.294-.388 2.15.188 4.898.29 7.2-.106.49-.437 1.456.098 1.75 1.195.185.64-2.16.486-3.114-.367-2.018.545-4.803-.583-6.13h-.194zm2.045.196c-.006.123-.125.133-.1.29.08.4-.148.5-.096.876.154 2.58-.275 5.895.487 7.98.643-.204.382-1.306.584-1.948.076-.398-.15-.498-.097-.875-.23-2.04.515-5.056-.486-6.323h-.29zm-1.848 12.358c.507.236.686.805.973 1.264 1.012-.05 1.615-.947 1.556-1.752-.554-.213-2.67-.608-2.528.488m.387 1.75h.29c.03-.22-.02-.365-.192-.39-.03.132-.14.187-.1.39m0 .877c.31.41 1.32.345 1.754.097.326-1.262-1.906-1.096-1.753-.096m0 2.044h.29c-.02-.172.1-.486-.192-.39-.03.132-.14.187-.1.39m-.485 1.457c.658.51 2.482.55 3.018-.095-.215-.713-2.78-.656-3.017.096m.585 4.966c-.19.484.23 1.195.778 1.266.41-.365 1.37-.188 1.264-1.07-.346-.353-1.695-.16-2.042-.196" fill="#456a5c" fill-rule="evenodd"/></g><g transform="translate(-50.45 -49.613)"><defs><path id="c" d="M50.45 49.613h206.494v180.25H50.45z"/></defs><clipPath id="d"><use xlink:href="#c" overflow="visible" width="289.423" height="257.314"/></clipPath><path clip-path="url(#d)" clip-rule="evenodd" d="M142.796 78.027c-.354.062-.52-.066-.682-.196-.196-1.136 1.192-.55.682.197M151.943 78.123c.5.084.847.322.875.876-.13.063-.182.207-.193.387-.83.13-1.286-.822-.682-1.264M143.672 79c-.15.434-.445.72-1.07.68-.2-.155-.226-.49-.194-.876.426-.364 1.13-.55 1.264.196M152.234 81.042c-.818-.057-1.127-.623-1.36-1.264.615-.856 1.987.57 1.36 1.264" fill="#456a5c" fill-rule="evenodd"/><path clip-path="url(#d)" clip-rule="evenodd" d="M144.45 80.362c-.387.37-.975.913-1.752.584-.29-1.235 1.62-1.725 1.752-.584M151.358 81.433c-.026.668-1 .92-1.264.292-.076-1.224 1.038-1.217 1.264-.292M145.326 81.334c.076.562-.123.85-.292 1.168-.644.027-1.283.05-1.363-.486.075-.773 1.116-1.218 1.656-.682M149.704 131.645c-.045.473-.71.326-.778.78 0 .726.587.882 1.266.68-.46 1.745-.63 3.78-.973 5.644.158.618.584 1.07.192 1.75-1.113-.26-2.542-.15-3.697 0 .07-.298-.1-.355-.097-.585.002-.42.428-.414.487-.777-.484-1.826-.99-4.127-1.072-6.033.77.154 1.036-.025 1.266-.584-.167-.448-.74-.493-.78-1.07.172-.087.18-.34.293-.485 1.26-.2 3.502-.824 3.89.68m-1.75.582c.042-.184.21-.244.194-.486-.133-.153-.734.165-.973-.095-.086.54.27.636.78.582m-.292 3.017c.092-.297.284-1.422-.098-1.557-.06.58-.125 1.07.098 1.557m-1.07 1.46c-.055-.175-.05-.403-.195-.487.042.185-.132.586.194.486m2.24.098c-.107-.247.33-.5-.098-.485.053.142-.113.5.097.486m-.293 1.557c-.043.89.252-.234 0 0m-1.85.39c.07-.07.242-.476-.097-.39.017.147-.033.36.098.39M148.83 142.154c1.02 2.535.775 6.73 0 9.34-.682-.047-.928.283-1.655.39-.826-.212-.77-1.306-1.167-1.946-.06-2.555-.373-5.777.39-7.783.595-.473 1.846-.512 2.43 0m-1.264 3.988c.064.064-.04-.04 0 0" fill="#456a5c" fill-rule="evenodd"/></g></svg>