<svg xmlns="http://www.w3.org/2000/svg" xmlns:xlink="http://www.w3.org/1999/xlink" width="97.585" height="241.645" viewBox="0 0 97.584731 241.64457"><g transform="translate(-96.327 -7.6)"><defs><path id="B" d="M84.852 1.867h127.625v252.07H84.852z"/></defs><clipPath id="C"><use xlink:href="#B" overflow="visible" width="289.423" height="257.314"/></clipPath><path clip-path="url(#C)" clip-rule="evenodd" d="M144.78 94.33c-.15.603-.792.205-1.247.164-1.57-.137-3.438.01-5.073-.33-.1-.11-.032-.13 0-.25 2.222-.183 4.858.206 6.32.415M147.775 94.577c-.135.656-1.203.193-1.664.166v-.33c.615-.135 1.264-.105 1.665.164M162.16 95.57c-.38.86-1.666.823-2.41 1.322 1.406.206 2.986-.99 4.076-.826-.125.495-.77.422-1.164.58-1.025.403-2.412.975-3.994 1.074-.348.098-.146-.35-.332-.413-4.95.835-10.96 1.157-16.465 1.405-.932.042-1.97-.006-2.91-.083-4.363-.356-8.17-.57-10.56-2.398.61-.536 1.82.474 2.494.66 1.538.43 3.256.332 4.906.498 1.212.122 2.434.42 3.66.497 4.865.3 10-.065 14.884-.33.38.02.324-.396.666-.414 2.605-.276 4.9-.862 6.902-1.737.11.027.13.143.248.163M157.754 105.49c.135-.022.143.08.248.083.334.63-.744.51-.912.91-1.91.256-3.914 1.177-6.155 1.405-3.467.353-7.26.003-10.728-.166-2.094-.103-3.977-.408-5.822-.744-1.285-.233-2.875.003-3.243-.91.91-.047 1.825.284 2.827.414 2.892.377 6.098.706 9.313.662 3.198-.044 6.483-.32 9.648-.744 1.912-.255 3.4-.106 4.824-.91M125.155 113.758c-.016-.07.033-.077.083-.082.84-.195 1.798.32 2.412.496 2.654.756 5.672.497 8.65.91-.77.66-2.552.46-3.66.413-2.772-.12-5.72-.53-7.484-1.488-.018-.14.14-.214 0-.25M173.39 118.306a28.883 28.883 0 0 0-6.155-1.902c1.264-.552 4.07.657 5.156 1.158.42.195 1.124.218 1 .744M136.14 118.34c-2.986.252-7.844-.416-10.32-1.025-.387-.097-.925-.05-1.082-.414v-.247c.068-.016.084-.083.167-.083 1.423.292 3.22.9 5.24.992 1.51.068 3.364.544 4.77.443.674-.048 1.78.29 1.224.334M174.97 118.14c-.808-.384-1.612-.767-2.413-1.157v-.247c.914-.01 2.396.52 2.412 1.405M167.732 117.148c.793.15 1.816.07 2.08.744-.594.188-1.066-.417-1.914-.248-.02-.22-.347-.314-.166-.496M137.07 119.107c-.264.56-1.814.464-2.66.497-2.776.105-4.55-.224-7.094-.473-.742-.072-1.9-.305-2.327-.907v-.25c.066-.014.082-.08.165-.08 3.307 1.162 8.098 1.432 11.916 1.214M124.774 119.258c2.437.702 4.68 1.492 7.608 1.486 1.494-.002 2.67-.1 3.525.173-3.042.48-4.347.185-7.812-.267-1.29-.167-3.32-.886-3.32-1.392M132.64 122.37c-2.843-.135-5.902-.737-8.068-1.666v-.25c.075-.05.15-.1.167 0 .07.017.077-.03.082-.08 2.8 1.002 6.426 1.682 9.98 1.583.528-.015-1.006.47-2.163.414M114.177 121.943c-.458 1.28-1.578 2.345-2.33 3.06-.277-.452.33-1.05.666-1.488.452-.59.922-1.056 1.332-1.57h.332zM114.095 123.845c.102.64-.715 1.21-1.082 1.902-.71 1.342-1.12 3.78-1.497 5.705-.326 1.67-.54 3.482-.748 5.208-.766 6.305-1.7 12.2-2.413 18.85-.058.55.082 1.42-.5 1.82-.047-1.803.31-3.777.5-5.788.186-1.96.525-3.947.75-5.952.22-1.963.107-3.97.415-5.954.312-1.998.383-3.992.667-5.87.59-3.913 1.62-7.726 3.743-10.003.07-.016.077.03.083.082h.082zM123.907 125.085c4.287 1.237 8.885 1.815 13.64 2.15-4.4.046-9.854-.176-13.64-1.82v-.33zM139.79 129.302c-3.07.163-6.31.56-9.062.414-1.113-.06-2.292-.357-3.41-.496-1.14-.143-2.33-.05-3.244-.66v-.25c.075-.052.15-.1.167 0 4.42.592 9.453 1.238 13.89.66.414.43.846.378 1.66.332M141.206 130.873c-3.94.404-7.62.325-11.393 0-1.965-.17-4.13-.145-5.572-1.157v-.25c.068-.014.084-.08.167-.08 2.12.6 4.563.878 7.152 1.074 2.13.16 4.33-.145 6.068.165 1.097.194 2.477.397 3.578.248M154.345 134.345c-.9.207-1.936.282-3.077.25.03-.222.44-.353.748-.415.77-.157 2.136-.263 2.33.165M136.05 138.562c-1.43.25-3.533.032-5.323-.166-.89-.097-1.93.002-2.412-.578v-.247c2.797-.216 4.773 1.096 7.734.992M128.398 138.562c2.233.78 5.997.873 8.482.992-1.026.205-3.167.122-5.322 0-1.246-.07-2.632-.096-3.244-.743.098-.013.07-.15.084-.248M136.714 141.126c-2.38-.217-6.147.01-8.482-.91v-.25c.066-.014.083-.08.166-.08 2.574.793 5.253.836 8.316 1.24M137.213 145.177c-.66-.06-.895-.13-1.33.165-1.8.065-3.283-.13-4.74-.414-.905-.175-1.88-.247-2.58-.744-.022-.134.08-.143.084-.247.067-.016.083-.085.166-.083 2.78.624 5.56 1.044 8.4 1.323M129.396 145.342c.777.233 2.362.193 2.994.826-1.096.256-2.044-.332-3.077-.413-.07-.234.117-.215.083-.413M138.544 146.913c-1.94.44-3.195-.254-4.74-.497.57-.354 1.5-.024 2.41.083.83.098 1.802-.074 2.33.413M163.908 152.452c.002-.08.102-.064.164-.083.754.21 1.037 1.32 1.582 1.983.537 2.694.93 5.618 1.33 8.434.17 1.187.916 2.838.084 3.72-.186-3.256-.822-6.614-1.414-9.92-.297-1.66-.756-3.005-1.746-4.135" fill="#456a5c" fill-rule="evenodd"/><path clip-path="url(#C)" clip-rule="evenodd" d="M163.244 152.947c.432.094.43.62.914.662 1.113 3.982 1.754 8.717 2.16 12.98-.424-.443-.332-1.683-.496-2.647a32.606 32.606 0 0 0-.502-2.398c-.545-3.308-.728-6.13-2.076-8.598M162.078 153.278h.166c1.062.32 1.314 1.698 1.582 2.73.322 1.25.336 2.765.666 4.133-.424-.524-.586-1.4-.752-2.23-.312-1.587-.69-3.58-1.662-4.632M161.164 153.774c1.482.812 1.53 3.055 1.662 5.21-.436-.37-.246-.982-.332-1.49-.14-.825-.434-1.86-.748-2.562-.195-.437-.617-.707-.582-1.158M160.332 154.188c.99.04 1.473 2.42.666 3.308.49-1.133-.047-2.557-.666-3.308M132.39 158.9c.08-1.4.14-3.318 1.414-3.555-.24.41-.72.86-.915 1.488.042.496-.1 1.415-.25 1.984-.12-.006-.237-.012-.25.084M107.69 158.322c.09.02.057.164.167.165-.788 6.708-2.026 12.92-2.828 19.43-.253 2.053-.484 4.137-.75 6.2-.07.556.03 1.126-.082 1.736-.26 1.434-.692 3.328-.748 4.878-.033.905.567 2.394-.583 2.813-.157-1.853.387-3.938.665-6.036.205-1.553.475-3.234.665-4.63.29-2.127.265-4.32.583-6.448.292-1.97.57-3.904.914-5.87.703-4.012 1.11-8.22 1.83-11.99.03-.108.147-.13.166-.248M136.464 168.326h.25c.137.427-.127.69-.167.908-.02.11.344.637-.166.58.15-.527.08-.693.084-1.488M131.475 170.476c.316-.06.18.536-.083.413-.026-.193.013-.318.083-.414M127.317 172.212c-1.694-.47-4.304-.456-5.738-.91 1.84-.306 4.335.272 5.737.91M165.156 173.452c.133-.022.143.08.248.082-.174 2.873-.84 5.79-1.912 8.27.572-2.456 1.477-5.48 1.664-8.352M130.976 175.27c-.127-.14.03-.3-.083-.577.367-.072.298.538.083.578M131.06 175.767c.332.843.035 2.735.914 3.64-1.352-.077-.65-2.36-1.08-3.06.232-.31-.09-.23.165-.58M167.484 177.752c.09.02.057.163.166.164-.236.4-.49.783-.998.91-.222-.546.403-.908.832-1.074M101.87 194.535c.125 3.073.208 5.73 1.663 7.523.272 1.79 1.548 2.58 2.744 3.72 1.67 1.596 3.406 2.41 5.323 3.804.826.602 2.126.896 2.412 1.985-.97-.573-1.96-1.142-2.91-1.82-1.912-1.362-3.692-2.225-5.407-3.886-1.917-1.853-3.393-3.953-3.99-7.192-.27-1.46-.124-2.688-.75-3.885-.435-.09-.89-.164-1.247-.33.267-.806 1.77-.243 2.162.082M135.717 197.182c-.648.525-2.195-.02-3.16-.166-.035-.174.056-.22.083-.33a.39.39 0 0 1 .25-.083c.772.174 1.624.21 2.163.413.192-.06.708-.227.664.166M135.883 198.09c-.78.624-2.338-.017-3.16-.166a.38.38 0 0 1-.083-.247c1.002-.082 2.544.157 3.243.413M142.868 198.173c-.088.515-1.628.165-1.996-.083.408-.478 1.35-.092 1.996.083M135.883 199c-.667.484-2.303.11-3.078-.25v-.246c.456-.166.897.127 1.414.164.54.042 1.423-.33 1.663.332M142.203 199.66c-1.16.158-2.46-.25-3.326-.66.036-.102.105-.17.25-.166.786.514 2.65-.043 3.076.826M133.14 199.495c.84.267 1.982-.226 2.327.578-.773.208-1.777-.043-2.41-.246-.013-.148.1-.175.082-.332M138.128 199.827c.67-.14 1.51.114 2.33.246.59.097 1.384.104 1.58.58-1.192.252-3.137-.117-3.91-.826M135.633 203.71c-1.355.175-3.145-.237-4.325-.74v-.25c.067-.043.135-.087.25-.082.548-.107.93.335 1.497.495.84.238 2.002-.06 2.578.578M158.836 203.63c-.344.647-1.236.696-1.914.826-5.115.987-10.062 1.415-15.55.58 1.607-.385 3.102.023 4.574.082 1.03.04 2.044-.195 3.076-.248 2.906-.147 6.265-.394 9.398-1.323.06-.018.332-.004.416.084M135.466 204.787c-1.51.215-2.923-.33-4.075-.744-.06-.28.308-.137.334-.332.07-.014.078.034.083.085.67.197 1.556.55 2.41.66.43.057 1.085-.216 1.25.332" fill="#456a5c" fill-rule="evenodd"/><path clip-path="url(#C)" clip-rule="evenodd" d="M158.918 204.87c-4.322 1.756-9.586 1.422-14.885 1.322-.713-.013-1.78.357-2.33-.165-.003-.33.676-.14 1.166-.166 3.802-.187 7.61.276 11.642-.33 1.21-.18 2.26-.55 3.243-.826.222-.06 1.278-.24 1.163.166M131.31 204.87c1.412.304 3.02.413 4.158.99-.73.432-1.922-.24-2.91-.33-.562-.05-1.002.064-1.25-.33v-.33zM135.218 207.103c-1.253.193-3.26-.136-3.91-1.075.068-.017.084-.084.168-.082.797.562 2.106.498 3.16.743.203.046.56.067.582.413M134.8 208.01c-.87-.24-3.113-.262-3.325-1.155.254-.15.61.187.83.33.833.277 2.16.057 2.496.826M126.485 212.807c-.414.368-1.05-.43-1.58-.496.433-.418 1.47.332 1.58.497M126.236 214.047c-1.382.243-2.587-.404-3.41-.99v-.25c1.078.145 2.335.817 3.41 1.24M121.83 214.047c1.202.237 2.21.667 3.16 1.158-1.072.36-2.29-.45-3.16-.827v-.33zM120.498 214.874c1.435.337 2.662.883 3.826 1.488-1.045.1-2.938-.508-3.826-1.157v-.33zM124.074 217.355c-1.56.53-3.81-.254-4.408-1.49a.39.39 0 0 1 .25-.082c1.21.696 2.658 1.16 4.158 1.572M162.328 216.032c-.088.54-.973.48-1.58.578-1.117.18-2.11.49-3.326.66-.367.054-1.164.35-1.248-.247.336-.463.996-.198 1.58-.248 1.42-.12 3.057-.715 4.574-.743M123.575 219.008c-1.776-.495-4.396-.865-5.49-2.315 1.748.25 3.243 1.46 5.157 1.82-.01.284.34.21.333.495M162.91 216.94c-1.092.778-3.1 1.147-4.908 1.488-.865.164-1.826.363-2.576.166.332-.63 1.89-.5 2.994-.66.8-.12 1.496-.38 2.078-.58.54.148 1.586-.18 2.164-.497.133-.023.14.08.248.084M123.325 220c-.828.364-1.893-.115-2.827-.33-1.63-.377-3.44-.604-4.158-1.82.223.058.16-.17.25-.248 2.08.963 4.393 1.695 6.735 2.398M114.842 218.43c2.69 1.32 5.57 2.455 8.898 3.142-.998.263-2.158-.056-3.16-.332-2.215-.61-4.165-1.346-5.738-2.48v-.33zM169.562 221.57c-.348.734-1.654.848-2.744 1.075-1.48.31-2.97.8-4.324.58 1.94-1.16 5.186-.833 7.068-1.654M161.246 223.473c-1.56.434-3.424.663-5.488.826-.525.04-1.24.342-1.58-.166.27-.35.996-.193 1.58-.25 1.367-.124 3.152-.47 4.49-.577.36-.03.805-.34.998.166M176.965 224.38c-.217.59-1.014.713-1.58.912-.584.204-1.236.49-1.83.66-3.1.877-6.64 1.56-10.062 1.82 1.89-.81 5.016-.943 7.234-1.49.645-.157 1.248-.484 1.912-.66 1.458-.388 2.84-.64 4.075-1.323.135-.025.142.077.25.08M115.59 225.457c-.015-.07.033-.08.084-.083 2.506.856 5.104 2.277 8.067 2.646.487.06 1.272-.183 1.582.33-3.71-.17-7.238-1.238-9.73-2.893M176.383 226.366c-.482.17-1.16.538-1.664.413.428-.185 1.432-1.07 1.663-.414M126.818 229.84c-.98.216-2.04-.154-2.994-.332-2.936-.545-5.727-1.725-8.233-2.73.014-.096-.018-.146-.082-.163.037-.075.074-.15.166-.166 3.704 1.5 6.738 2.484 11.144 3.39M173.305 227.275c-2.27.964-5.55 1.53-8.48 1.323 1.246-.52 3.322-.378 5.072-.66 1.267-.207 2.376-1.01 3.408-.663M176.3 227.606c-2.647 1.608-6.9 1.935-10.478 2.15.406-.384 1.117-.43 1.662-.496 2.754-.343 6.324-.575 8.398-1.818.266-.073.26.13.417.164M115.59 227.688c.842.183 1.415.635 2.08.993-.87.175-1.657-.446-2.08-.992M175.967 229.012c-.258.474-1.328.872-2.08 1.075-2.406.648-5.115.787-7.4.91 2.576-.95 5.496-.562 7.982-1.49.43-.16.745-.503 1.247-.577.12-.008.236-.015.25.082M125.32 230.997c-.217.33-1.317.064-1.912-.084-1.533-.38-3.293-1.125-4.657-1.57-.133.022-.142-.078-.25-.082.037-.102.108-.17.25-.166 2.16.665 4.42 1.23 6.57 1.903M125.736 232.402c-.23.466-.855.077-1.163 0-2.77-.704-6.286-1.66-8.566-2.895-.067-.015-.083-.082-.166-.082.037-.102.107-.17.25-.165 2.86 1.38 6.65 2.158 9.646 3.142M176.547 230.087c-.152.504-.615.283-.996.414-.366.125-.688.43-1.08.58-.856.325-2.05.428-3.16.66-1.614.337-2.937.614-4.657.826-.336.042-.95.3-1.164-.164 3.5-.605 7.604-1.16 10.81-2.48.108.028.13.144.247.165M125.654 233.808c-3.474-.434-6.745-1.782-9.73-2.977-.013-.096.02-.146.084-.164.074-.05.15-.1.166 0 2.603.84 5.29 1.976 8.233 2.646.393.088 1.082-.072 1.247.496M117.836 232.65c2.137.338 4.623 1.43 6.903 1.9.456.095 1.184-.17 1.33.497-2.807-.408-5.92-1.223-8.234-2.398M175.717 232.898c-.11.526-.455.23-.832.33-2.758.73-6.66 1.667-9.48 1.9.994-.55 2.27-.61 3.492-.908 1.863-.453 4.027-.608 5.738-1.322.2-.084.687-.173 1.082 0M179.293 233.56c1.29 1.285-1.613 2.32-2.828 2.81-3.666 1.48-8.447 2.26-12.557 2.978-6.354 1.106-12.818 1.48-18.628 1.323 1.582-.56 3.45-.192 5.156-.33.65-.052 1.326-.274 1.996-.33 5.586-.477 11.172-.92 16.05-2.15 1.228-.31 2.776-.872 4.157-1.322 1.43-.468 2.874-.797 4.075-1.323.933-.41 1.697-1.212 2.578-1.656M114.51 236.04c2.663.824 4.77 2.203 7.9 2.562-3.054.334-5.546-1.32-7.734-2.398-.14.03-.157-.064-.166-.164M114.01 237.03c3.05 1.24 6.36 2.223 9.564 3.31.56.074 1.313-.04 1.497.413-4.026-.507-8.618-2.15-11.06-3.722M181.455 237.28c.492.3-.027.724.748.827-.535 1.425-2.14 1.963-3.908 2.728-1.627.702-3.084 1.548-4.906 2.067-2.6.74-5.85 1.368-9.15 1.817-3.188.435-6.56.895-9.728 1.075-1.82.103-4.078.094-5.57-.083-.144.062-1.112.383-1.416 0 1.327-.07 2.914-.297 4.408-.33.356-.008.725.145 1.082.08.626-.108 1.284-.486 2.245-.577 2.335-.217 4.884-.312 7.235-.578 6.688-.76 12.738-2.492 17.547-5.044-.832-.1-1.59.4-2.328.662-2.088.738-4.31 1.536-6.57 2.066-1.506.355-2.998.566-4.656.827-1.453.23-2.83.628-4.326.827-1.475.196-3.008.254-4.572.33-3.64.182-7.07.778-10.645.828.314-.656 1.152-.392 1.664-.413 1.17-.054 2.507-.104 3.824-.333.538-.092 1.043-.393 1.58-.495 2.28-.438 4.754-.438 7.068-.66 3.154-.307 6.273-.553 9.148-1.324.646-.174 1.234-.52 1.912-.66 1.596-.33 3.37-.615 4.824-1.324 1.514-.74 2.856-1.79 4.49-2.314M113.93 238.024c4.263 1.908 9.34 3.447 13.887 4.38-.606.38-1.237-.12-1.83-.246-3.727-.796-7.886-1.567-10.812-3.473-.576.075-.722-.275-1.164-.33-.045-.17-.25-.163-.08-.33M128.814 243.812c-.753.204-1.55-.11-2.33-.248-2.236-.398-5.034-.945-7.317-1.737-1.472-.51-2.424-.938-3.742-1.486-.844-.353-1.547-.6-2.08-1.075.635-.198 1.477.776 2.412.827.083.11.225.162.25.33.36-.054.515.095.665.25 1.856.36 3.75 1.234 5.822 1.818 2.075.582 4.36.646 6.32 1.322M144.614 242.158c-.588.46-1.68-.112-2.078.247-4.63-.408-9.118-.808-14.138-1.405-.607-.072-1.305.024-1.83-.247.106-.34.616-.058.83 0 .232-.146.236-.062.418-.166 4.403.572 9.967 1.044 14.553 1.405.838.066 1.77-.28 2.244.166M129.147 242.323c4.568.518 10.964.755 15.135 1.075-2.905.408-7.33-.044-10.646-.248-1.533-.096-2.99-.285-4.324-.578-.053-.086-.19-.087-.165-.25M144.365 243.314c.09-.186.523-.03.75-.083-.01.15.102.177.083.333-.138.11-.485-.067-.832 0-.018-.142.142-.214 0-.25M145.53 244.886c-.553.315-1.537.188-2.33.248-2.04.155-4.297-.245-6.403-.412a70.517 70.517 0 0 1-3.326-.33c-1.01-.132-2.053-.067-2.91-.497.11.01.31-.278.333-.083 1.423.15 2.633.134 3.742.496 2.345-.098 5.107.41 7.568.496 1.242.044 2.377-.33 3.326.082" fill="#456a5c" fill-rule="evenodd"/></g><g transform="translate(-96.327 -7.6)"><defs><path id="D" d="M96.323 7.6h97.59v241.646h-97.59z"/></defs><clipPath id="E"><use xlink:href="#D" overflow="visible" width="289.423" height="257.314"/></clipPath><path clip-path="url(#E)" clip-rule="evenodd" d="M145.28 245.713c-.72.22-1.537.36-2.33.33-4.226-.162-8.93-.46-12.806-1.157.43-.228.93-.225 1.497-.166 2.318.24 6.13.836 9.15.828.343 0 .746-.095 1.08-.084.526.02 1.015.257 1.498.25.64-.012 1.346-.526 1.912 0" fill="#456a5c" fill-rule="evenodd"/><path clip-path="url(#E)" clip-rule="evenodd" d="M178.545 232.484c-.234-.238.32.318 0 .414-1.355 1.77-3.53 2.33-6.07 3.06-1.19.34-2.492.382-3.744.742-.395.114-.757.39-1.163.496-1.05.28-2.29.29-3.408.497-1.13.207-2.175.457-3.245.578-2.033.232-4.023.658-6.07.828-1.36.112-2.764-.13-4.158.082-2.77.42-6.243.575-9.813.414-.646-.03-1.29.148-1.83.082-.282-.033-.554-.214-.832-.247-1.717-.212-3.408-.12-4.99-.25-4.527-.367-8.778-.938-12.64-2.314-3.407-.5-6.094-1.714-7.984-3.722.39-.092 1.04.437 1.58.745 2.187 1.25 5.113 1.955 8.15 2.562 1.132.228 2.23.62 3.408.743 1.44.15 3.145.296 4.326.662 1.79.237 3.817.32 5.903.413 1.945.087 3.948.444 5.655.496 1.598.05 3.708-.248 6.072-.248 2.232 0 4.458-.32 6.486-.66 2.137-.36 4.373-.404 6.57-.745 2.14-.332 4.266-.852 6.32-1.157 4.28-.64 8.2-1.477 11.31-3.555-.296-.287-.396-.422-.497-.826-.354-1.387-.21-2.938-.25-4.3-.038-1.37-.024-2.762-.083-4.382-2.938 1.418-6.39 2.562-10.23 3.226-2.728.47-5.405 1.26-8.48 1.57-4.003.403-8.386.826-13.058.826-2.562 0-5.114.258-7.486.083-1.152-.085-2.223-.445-3.326-.578-1.812-.22-3.628.028-5.322-.084-.818-.054-1.656-.26-2.495-.33-.83-.07-1.75-.096-2.494-.25-.487-.1-.914-.393-1.414-.495-1.737-.353-3.358-.632-4.99-1.156-2.152-.692-4.213-1.722-5.82-2.977.074 2.65-.133 6.173-.167 9.425-.36.346-.55.03-1 .33-.51.343-1.786 1.958-2.245 2.896-.392.803-1.166 2.562-1.08 3.14.075.508 1.88 2.22 2.412 2.563 1.08.7 2.277 1.3 3.244 1.655 1.642.604 3.688 1.075 5.655 1.654.633.184 1.19.513 1.747.66 2.296.61 5.396.76 7.152.91 1.872.435 4.724.578 7.234.578.736 0 1.318.032 1.746.247-.048-.024.48-.065.166.082.436.305-.6.32-.665 0-2.384.062-5.77.104-9.146-.164-1.23-.098-2.147-.454-3.41-.66-1.377-.227-2.72-.32-4.075-.58-1.25-.24-2.42-.755-3.66-1.074-2.273-.588-5.015-1.53-6.82-2.647-.842-.524-1.624-1.303-1.91-2.398-.27.45-.13 1.336-.084 1.9.62.704 1.54 1.28 2.496 1.82 1.865 1.056 4.13 1.994 6.486 2.646 1.156.32 2.427.338 3.492.91 5.66 1.106 12.494 1.777 18.713 2.15-.598.284-1.41.275-2.163.247-2.624-.098-5.42-.368-8.233-.578-1.706-.13-3.418-.523-5.156-.744-1.693-.217-3.406-.596-4.906-.91-2.704-.57-5.63-1.406-7.817-2.563-.99-.524-2.7-1.685-3.077-2.562-.598-1.392-.334-3.567.583-4.38.26-1.972 1.508-3.194 2.578-4.55.553-.697 1.203-1.152 1.332-2.065.178-1.265.005-3.058 0-4.63-.003-1.172-.344-2.37-.25-3.39.037-.386.276-.755.334-1.158.16-1.107-.35-2.286.083-3.308-.143-.3-.416-.47-.583-.744.05-.42.212-.727.333-1.075-1.993-1.793-4.33-3.017-6.487-4.71a44.19 44.19 0 0 1-3.41-2.978c-3.104-3.01-5.098-6.728-5.405-12.237-.363-6.51-.002-13.303.832-19.926.435-3.457.774-7.05 1.248-10.252.163-1.105.465-2.22.582-3.31.238-2.202.268-4.433.665-6.613.75-4.12.862-8.37 1.58-12.648.736-4.385 1.39-8.763 2.08-13.312-.373-.184-.987-.25-1.248-.66-.648-1.02-.07-2.242-.25-3.39-.097-.627-.7-1.192-.915-1.82-1.2-3.5 1.378-6.275 3.825-7.937-.314-2.734-.735-5.996-.915-8.764-.107-1.665-.33-3.803.25-5.953.473-1.75 1.515-3.54 2.495-5.207 1.613-2.743 3.032-4.98 3.327-8.93.23-3.064-.668-6.507-.832-9.84-.077-1.583-.252-3.203-.333-4.793-.18-3.566-.266-6.54-.416-9.59-.165-3.337-.277-6.414-.25-9.508.015-1.566-.166-3.193 0-4.63.036-.308.225-.605.25-.91.148-1.763.026-3.548.748-5.207-.075-1.334.394-2.346.75-3.638.232-.85.445-1.756.747-2.563.62-1.656 1.255-3.478 1.995-4.713.246-.407.66-.64.916-.99.726-.997 1.16-2.1 1.913-3.06.71-.904 1.592-1.71 2.33-2.646 1.374-1.75 3.156-3.495 5.156-4.795.956-.624 1.873-1.433 2.91-2.068 1.032-.633 2.194-1.11 3.243-1.737 2.127-1.27 4.58-1.826 6.818-3.142 1.957-1.15 3.928-3.08 5.823-4.63 1.083-.887 1.932-1.6 3.16-1.653 2.17.43 3.75 1.88 5.49 3.06 1.71 1.158 3.728 2 5.57 2.976 3.833 2.026 7.82 3.58 10.978 6.118 1.647 1.324 3.417 2.376 4.74 3.803.683.735 1.265 1.6 1.913 2.398.625.767 1.344 1.5 1.914 2.315.547.783.96 1.816 1.496 2.81 1.39 2.577 2.197 5.338 3.244 8.517.27.824.686 2.528.832 3.638.087.676-.09 1.332-.085 2.067.016 2.223.404 4.69.416 6.944.007 1.386-.103 2.89-.167 4.382-.14 3.307-.36 6.546-.58 9.673-.332 4.685-.676 8.358-1.082 13.312-.1 1.206-.34 2.225-.413 3.307-.295 4.36.23 7.794 1.412 11.16.526 1.5 1.34 2.973 2.08 4.466.647 1.31 1.788 2.702 2.16 4.217.16.655.157 1.586.25 2.397.452 3.94-.517 7.62-.75 11.657 1.44 1.18 2.776 2.443 3.41 4.63.42 1.45.1 2.687-.5 3.887-.278.563-.85 1.015-.913 1.57-.05.44.266.858.25 1.24-.037.94-.79 2.11-1.664 2.315.883 7.368 2.6 14.19 3.658 21.494.522 3.578 1.07 7.147 1.667 10.75.312 1.898.352 3.854.58 5.787.428 3.61 1.285 7.063 1.664 10.996.194 2.024.243 4.15.417 6.283.178 2.172.584 4.145.748 6.118.168 2.003.326 3.933.166 6.034-.18 2.35-1.08 4.393-1.993 6.202-.91 1.803-1.71 3.737-2.912 5.208-.533.652-1.508 1.28-2.328 2.067-.764.73-1.408 1.61-2.164 2.148-.727.52-1.8 1.03-2.742 1.654-.73.482-2.108 1.193-2.493 1.818-.17.274-.22.755-.416 1.157-.22.446-.452.82-.5 1.158-.183 1.328.77 1.765.75 2.728-.01.37-.323.69-.417 1.076-.28 1.16-.096 2.818-.082 4.214.017 1.48.062 2.877.167 4.052 1.256.653 1.916 1.3 2.826 2.646.713 1.054 1.08 1.703 1.664 2.977.578 1.263 1.008 2.85.498 4.464-.953.26-1.512 1.16-2.326 1.654-2.48 1.5-5.76 2.383-9.067 3.224-4.41 1.124-9.264 1.692-14.22 2.067-6.48.488-13.097 1.29-19.127.412.87-.433 2.007-.305 3.077-.33 1.022-.025 1.962.026 2.91 0 5.427-.16 11.99-.82 18.462-1.323 5.066-.395 10.006-1.408 13.89-2.812 1.42-.515 2.917-1.082 3.907-1.818.438-.326 1.357-1.147 1.58-1.49.344-.523.363-1.304.166-2.066-3.99 4.09-11.62 5.983-18.96 7.11-1.683.258-3.452.336-5.24.58-1.753.238-3.554.324-5.32.33-4.964.014-10.08.282-14.637 0 .858-.696 2.034-.496 2.995-.496 3.312 0 5.8.075 8.815-.083 2.046-.11 4.166-.25 6.238-.413 1.98-.157 3.88-.506 5.654-.662 2.08-.183 4.125-.197 5.988-.66 1.865-.465 3.68-.835 5.404-1.407 1.668-.552 3.295-1.28 4.824-1.983 1.516-.696 2.81-1.694 3.908-2.895-1.03-1.372-1.004-3.43-2.162-4.63-.59-.602-1.265-.73-1.92-1.32m-12.39-119.553c.725.324 1.963.1 3.074.33 2.36.493 4.994 1.23 6.57 2.233.492.312 1.48 1.415 1.748.908 1.72-.274 3.09-.04 4.822-.412.416-1.705.623-3.554.666-5.373.047-1.935.295-4.127 0-5.87-.314-1.86-1.322-3.824-2.162-5.458-.895-1.737-2.21-3.3-2.828-4.878-1.023-2.608-1.105-5.942-.748-9.01.535-4.58.98-9.3 1.248-14.635.164-3.302 1.12-7.88.666-10.914.29-2.87.223-6.14.082-8.764-.262-4.85-.898-8.81-2.246-13.063-1.332-4.21-3.39-7.75-5.904-10.583-.807-.91-1.48-1.934-2.246-2.646-.97-.9-2.213-1.69-3.326-2.563-1.984-1.554-3.963-2.8-6.07-4.134-5.537-2.1-10.256-5.015-14.386-8.515-2.277.7-3.41 2.704-4.99 3.97-2.686 2.146-5.73 3.5-9.065 5.125-2.104 1.026-4.178 2.006-6.07 3.39-2.33 1.7-4.544 3.55-6.155 5.787-.368.51-.87.873-1.248 1.323-.443.526-.746 1.28-1.164 1.9-1.266 1.882-2.31 3.783-3.16 6.036-1.076 2.85-2.32 6.248-2.745 9.508-.458 3.518-.246 7.118-.25 10.83-.004 6.23 1.466 12.9 1.164 19.76.795 6.662 1.318 12.788-1.247 17.86-.44.868-1.26 1.56-1.746 2.397-1.74 3-2.59 6.862-2.247 11.245.08 1.023.036 2.145.166 3.142.052.408.28.754.332 1.158.143 1.09-.037 2.542.166 3.142 1.764.057 3.448.52 4.907.413 1.145-.694 2.633-1.85 3.99-2.23.67-.19 1.542-.16 2.413-.332 1.695-.334 3.303-1.112 4.74-.496.383-.608.924-.786 1.08-1.57.212-1.054-.17-2.397.417-3.39 1.125-1.004 3.467-1.147 5.156-1.323.422-1.158-.658-3.573.25-4.715.25-.313.897-.27.832-.744-.426-.458-1.162-.4-1.747-.495-1.873-.295-3.823-.822-5.49-1.322-.768-.626-1.235-2.564-.497-3.473 3.42-1.148 7.072-2.062 10.894-2.81.458-.022-.292.186.166.164 2.04-.123 3.368-.952 4.99-1.49.356-.926.978-1.58 1.58-2.23 1.21-1.303 2.45-1.893 4.492-2.646 1.32-.487 2.77-.767 4.242-1.076 3.28-.688 5.956-1.405 8.98-1.405 1.978 0 4.065.468 4.157 2.067.095 1.626-2.05 2.502-3.16 3.225-2.487 1.616-5.548 3.173-7.9 4.546 1.037-.1 2.002-.804 2.91-.992.99-.204 2.4-.154 3.493-.165 1.355-.015 2.28.457 3.492.66 1.492.25 3 .184 4.158.992.178.43.533.684.75 1.075-.076 1.027-.162 2.043-.584 2.73-1.15.908-2.88 1.138-4.657 1.57-1.135.274-2.31.442-3.41.66.2 1.02 1.293 1.197 1.996 1.9-.24 1.16-.036 2.986-.083 4.136 1.252.393 4.03.16 4.654 1.157.526.835.017 2.145.42 3.307.8-.33 1.016.785 1.664 1.075m-40-93.26c-1.127.685-2.347 1.307-3.327 2.065-.607.47-1.1 1.226-1.664 1.736-.623.562-1.413.884-1.664 1.654 3.243-2.562 6.84-4.772 10.394-7.028-1.458-.01-2.643.9-3.74 1.57m46.403 6.863c-.01.308-.326.005-.332.165 1.39 1.48 2.25 3.132 3.16 5.043.25.526.602 1.018.914 1.572 2.175 3.867 2.718 8.624 4.073 13.312.172-1.27.11-2.55-.166-3.804-.912-4.16-2.22-8.244-4.074-11.492-1.22-2.13-2.55-4.715-4.242-5.87.29.292.534.627.667 1.075m-63.785 33.32c.04-.036.036-1.045-.083-.91.05.43-.194.673.082.91m.5 2.727c-.02-.1-.093-.05-.168 0h-.166c.345 3.002.063 6.114.333 9.095.29 3.22.908 6.084 1.082 9.012.12 2-.123 3.978.417 5.87.12-7.996-.274-16.283-1.5-23.977m48.234 23.812c-3.045.266-7.132.67-9.562 1.406-2.632.796-4.8 1.58-6.32 3.06-.41.4-.996.76-.998 1.322 2.038.273 3.88.23 5.49.33 1.594.103 3.264.817 4.406.663.775-.105 1.854-1.04 2.662-1.488 2.778-1.542 5.427-2.98 7.567-4.96-.988-.46-2.123-.43-3.246-.333m-2.66 5.044c-1.352.804-2.738 1.856-4.158 2.315-.552.18-1.24-.026-1.497.745 1 .268 1.863-.416 2.66-.91 1.63-1.008 3.11-1.706 4.822-2.728.686-.41 2.492-1.212 2.496-1.82-1.258.88-2.897 1.55-4.324 2.4m24.033-1.325c.13-.23.094-.886-.166-.99.153.34-.054.642.167.99m2.078 6.45c-.762-2.08-1.31-4.374-2.16-6.367-.35 2.613.91 4.677 2.16 6.366m-42.578-3.637c-.41.448-1.024.69-1.414 1.158 3.184.997 7.917.82 11.227.993.047-.725.564-.982.75-1.57-3.248-.74-7.545-.904-10.563-.58m-7.733 2.233c1.368 1.065 3.88 1.177 6.153 1.405 1.803.184 3.614.345 4.907.084-3.25-.407-6.772-.543-9.563-1.406-.203-.203.182-.477-.165-.496-.447.137-.957.208-1.33.414m30.27 0c-.118.02-.142.136-.25.166-1.75 1.316-5.134 1.573-7.817 1.82-3.166.288-6.685.586-9.813.495-4.417-.13-8.835 0-12.14-1.323-.522-.208-1.11-.836-1.665-.91-.805-.107-2.138.34-2.994.58-.992.277-1.95.65-2.495 1.074 5.737 1.757 12.81 1.923 19.378 1.653 1.153-.046 2.327.188 3.493.166 6.814-.124 13.546-.42 18.71-2.645-.826-.997-2.58-1.07-4.406-1.074m-19.792 4.713c3.04-.11 6.02.283 8.98 0 .808-.078 1.62-.19 2.413-.25.864-.064 1.75.022 2.58-.082.386-.048.763-.263 1.163-.33 3.316-.57 6.97-.41 9.062-2.15-6.963 2.428-16.25 2.34-24.198 2.81m-18.046-1.983c.055.91.403 1.527.998 1.9.877-.042 1.403.26 2.163.332-.093-.616.16-.89.333-1.24-1.214-.23-2.825-.5-3.494-.992m10.146 4.3c.642.044 2.245.753 2.162-.415-.776.263-2.175-.607-2.162.414m19.21-.414c-.57.03-1.592-.168-1.248.496.54-.203 2.292.145 2.828-.33-.12-.47-.96-.198-1.58-.166m-7.734.166c-.027.194-.13.31-.083.578 1.052.225 2.027-.14 2.994-.082-.067-.287.123-.318.082-.58-1.174.03-1.944-.05-2.994.084m-5.573.33c.37.486 1.604.115 2.246.332-.04-.26.15-.293.084-.58-.816.198-2.024-.483-2.33.248m15.97.332c-1.067.155-2.35-.01-3.493.082-2.357.188-5.277.29-7.983.413-1.583.07-3.113-.122-4.574-.082-1.627.045-2.962-.147-4.325-.165-.408-.005-.877.18-1.33.166-.967-.03-2.157-.782-2.91 0 3.453 1.266 7.928.995 11.808.91 1.31-.028 2.587.043 3.825 0 .708-.024 1.38-.264 2.08-.25.38.01.782.16 1.164.168 1.56.026 3.136-.452 4.74-.58 1.153-.09 2.294-.058 3.41-.413-.578-.907-1.39-.4-2.41-.247m-18.463 2.066c-.357-.072.16.36-.332.247-2.14-.212-4.146-.56-5.988-1.072.07 1.453-.02 2.18 0 3.968 2.132.72 4.87.98 7.568 1.24.938.09 1.853.287 2.745.33 2.69.133 5.734-.17 8.316-.413 3.458-.324 6.995-.42 9.48-2.15.16-1.186.04-2.06-.085-3.224-6.647.585-14.407 1.464-21.704 1.074m7.818-.58c1.033.036-.06-.478-.083 0 .002-.12.064 0 .083 0m-19.626 5.128c.99.828 2.432.827 3.66 1.075 5.242 1.058 10.906 1.696 16.632 1.405a84.376 84.376 0 0 0 8.73-.91c2.18-.35 4.155-.713 5.987-1.323.76-.253 1.616-.405 2.165-.91-1.113-.39-2.72-.693-3.16.496-.34.062-.287-.267-.666-.165a56.035 56.035 0 0 1-14.638 1.82c-4.71-.04-9.506-.737-13.555-1.985-.282-.134-.097-.73-.417-.826-1.676.042-4.078 0-4.738 1.322m23.036 10.086c3.962-.142 8.156-.152 11.808-1.57-3.035.4-6.36.64-9.147.66-3.737.03-7.316.086-9.98.166 5.166-.768 11.767-.23 17.214-1.984-4.59.223-10.615 1.015-15.135.91.386-.167.94-.168 1.413-.248.072-.175 5.192-.608 6.985-.744.943-.07 1.87-.255 2.828-.33 1.943-.156 3.998-.466 5.738-1.24-5.42.55-10.795 1.317-16.3 1.405.34-.258.607-.18 1.08-.497 5.072-.315 10.302-.79 14.472-2.232-4.165.82-9.124 1.293-13.805 1.324.523-.15 1.12.06 1.414-.167-1.11-.144-2.297.297-2.91-.08 1.16-.502 2.552-.585 3.825-.693 3.12-.262 6.208-.754 9.064-1.292 1.145-.215 2.398-.114 2.994-.91-1.043-.052-2.096.266-3.16.497-3.217.697-7.118.755-10.812.992-5.786.37-11.453-.77-16.217-1.736-1.612-.326-3.146-1.01-4.492-1.57-.197 3.93-.502 7.327-.832 11.574 4.284 1.815 10.46 1.716 15.302 1.488.27.035.24.368.582.33 5.664-.09 10.424-.294 15.303-.825 1.96-.215 3.998-.23 5.654-.993-2.553.097-16.29 1.708-20.336.908.704-.1 12.317-.965 12.604-.99 1.92-.176 3.74-.238 5.653-.58.473-.084 1.395.012 1.58-.66-2.928.457-6.41.908-9.896.908-3.215 0-6.107.4-9.645-.164 3.374-.145 10.082-.133 12.584-.58-2.684-.08-8.254.334-10.506-.082 1.984-.36 13.468-.28 16.88-1.24-5.613.614-12.268.992-17.38.414 1.75-.08 3.652-.1 5.574-.168m5.157-7.442c2.214-.177 5.138-.336 7.15-1.24-2.255.495-4.792.678-7.15 1.24m8.73-.083v.166c.74.324.888-.248 1.58-.33-.048-.284-.06-.604-.415-.58-.084.55-1.017.256-1.164.743m.166 1.16c.002.3-.047.65.166.743.486-.177.754-.573 1.414-.578-.05-.198-.12-.378-.084-.66-.64.023-.994.332-1.496.494m-39.917 12.32c.485-.207.33-1.053.582-1.49-1.45-1.584 1.614-2.352.333-3.802.43-1.69.687-4.925.498-6.367-.43 3.288-1.55 8.578-1.413 11.658m-17.38 3.225c-.62 3.268-.96 6.804-1.58 10.336-.494 2.806-.584 5.735-.916 8.682-1.263 11.222-3.194 21.893-4.242 33.733-.733 8.277-1.907 18.715 2.162 24.142 2.84 3.787 6.185 6.815 10.48 8.93a4.157 4.157 0 0 0 1.995 1.405c.205.552-.457 1.256-.333 1.736.532-.09.768-.648 1.083-.992a18.616 18.616 0 0 1 3.74-3.142c2.033-1.273 4.42-2.13 6.57-3.308-3.503 1.036-6.525 2.55-8.897 4.713-.88.183-1.237 1.26-2.245.908-.36-.125-.465-.706-.75-.993-.603-.61-1.542-.832-2.328-1.24-1.285-.665-2.416-1.613-3.41-2.48-.594-.52-1.133-.985-1.58-1.487-1.873-2.11-4.035-4.61-5.073-7.36-.328-.868-.52-1.975-.832-3.14-.29-1.09-.74-2.105-.832-3.225-.217-2.634.21-5.52.333-8.104.186-3.923.736-8.272 1.166-12.32.146-1.372.163-2.805.332-4.217.816-6.777 2.068-13.81 2.662-20.668.303-3.502.703-7.02 1.248-10.336.262-1.6.65-3.176.83-4.713.203-1.726.226-3.443.5-5.044.088-.51.42-1.117.5-1.57.036-.203-.046-.728 0-1.075.13-1.017.686-2.193 1.164-3.225.483-1.043.874-2.173 1.33-3.142.25-.524 1.977-3.375 2.58-3.39.038 0 .746-.01.415.414 3.01-1.863 6.97-3.272 10.812-3.722.403-.046 1.02.296 1.246-.33-.246-.503-.94-.525-1.413-.496-.46.03-1.17.23-1.58.33-1.82.443-3.4 1.088-4.99 1.572-.72.22-1.472.436-1.996.743-.436.257-.87 1.067-1.165 1.16-.64.198-1.69-.337-2.33-.497-.895-.223-1.64-.393-2.494-.413-.064.726.12 1.202.083 1.9.973.47.757 1.572.418 2.73-.464 1.576-1.51 2.993-2.662 3.474-.323 1.07-.335 2.663-.002 3.72m57.382-14.054c0 .22-.033.473.082.578.54-.123.998-.33 1.498-.495.06-1.453-.904-.06-1.58-.083m13.055 1.902c-1.714-.996-3.952-1.912-6.32-1.984 2.24.49 4.688 1.415 6.32 1.984m15.968 73.5c-.133-2.59-.27-5.234-.414-7.937-.195-3.696-1.133-7.31-1.332-10.832-.17-3.013-.902-5.68-1.33-8.185-.19-1.123-.46-4.533-.998-5.21.023.03-.045.204-.084.168-.21-.21.287-.345-.082-.332-.12-.312.23-.158.166-.413-.566-1.084-.36-2.567-.498-3.968-.303-3.074-1.27-5.51-1.416-8.27-.066-.177-.312-.182-.332-.412-.146-2.708-.57-4.882-.914-7.275-.135-.95-.574-1.83-.666-2.728-.025-.254.102-.576.084-.827-.08-1.168-.37-2.406-.582-3.473-.86-4.325-3.094-7.99-4.738-11.492-.533-.52-1.213-1.33-1.832-1.488.21.06.488.573.166.66-2.53-1.892-6.28-2.572-9.896-3.39-.145.14.074.278 0 .58 2.113.243 4.242.47 5.572 1.488-.453.403-.92-.166-1.496-.33-1.406-.4-3.03-.44-3.908-.662.02.694.043 1.39.25 1.9 2.398 1.004 5.484.97 7.068 2.647 2.902 3.07 4.44 8.235 5.406 13.23.775-.293 2.055-.873 2.91-.333-.566.79-2.422.734-2.328 1.9.727-.326 2.045-1.153 2.826-.41-.994.58-2.885.27-3.076 1.65 1.146-.057 2.467-.78 3.408-.495-.79.646-2.225.655-3.326.992-.062.312.102.396.082.662 1.143.206 2.494-1.3 2.996-.165-.805.332-1.906.366-2.828.58-.057.332.078.472.082.742 1.145-.11 2.512-.81 3.41-.412-.81.627-2.414.465-3.242 1.074.197.053-.014.51.166.578.98-.086 2.568-1.11 3.16-.082-.924.35-2.1.45-3.078.745-.066.286.125.316.084.578 1.104-.033 2.154-.56 3.16-.414-.023.556-.848.505-1.33.577-.623.096-1.232.12-1.664.332v.66c.998-.014 2.184-.676 2.994-.33-.55.69-2.11.38-2.91.827-.066.34.127.423.082.744 1.092.1 2.63-1.114 3.244-.165-1.01.234-2.084.408-3.078.662v.826c.94.14 2.36-.99 2.744-.083-.86.3-2.102.475-2.66.827.26.646 1.146.188 1.746.08.705-.12 1.443-.267 1.912-.245.066.394-.338.323-.664.33-.68.537-1.898.54-2.828.826.02.257.084.468.168.662.947-.08 2.71-.82 3.324-.165-.943.41-2.455.26-3.324.743.045.26.066.54.164.745.684-.177 1.496-.23 2.246-.33.432-.06 1.158-.403 1.33.08-.94.545-2.55.522-3.492.83-.047.267.057.384.084.577.988-.167 1.988-.192 2.91-.578.123.207.418.244.332.66-1.22.002-1.994.442-3.076.58-.06.33.08.47.082.743.07.238 3.238-.878 3.244-.247.002.266-1.096.46-1.246.494-.73.167-1.26.22-1.914.25.03.298.107.553.166.826a15.234 15.234 0 0 0 1.912-.166c.602-.084 1.312-.5 1.748-.083-.693.923-2.424.332-3.576.826v.744c.94-.003 2.514-.747 3.158-.164-.564.647-2.053.38-2.992.66v.662c1.05.038 2.314-.465 3.076 0-.45.764-2.012.426-2.994.66.078.28.113.607.168.91.33.08.033-.462.332-.413.96.283 2.213-.52 2.66.33-.742.473-2.39.05-2.828.828.768.747 2.486-.643 3.16.33-.8.14-1.78.102-2.41.412.654.784 1.998-.128 2.66.415-.166.33-.64.355-1.08.412-.184.263.342.396.332.745.37.064.498-.11.832-.083-.125.18-.416.192-.416.496.762 1.33.727 3.318-.166 4.63.512.166 1.217-.376 1.332.166-.717.254-2.305.078-2.082.992.727-.035 1.77-.354 2.082.08-.613.358-1.945-.002-2.496.415-.064.312.102.396.082.662.504.134 2.02-.213 2.414.083-.043.206-.158.34-.252.495-.613.135-1.422.074-1.994.25-.057.33.078.47.082.742.73-.127 1.742-.516 2.246-.165-.15.816-1.623.315-2.164.744-.057.332.082.473.084.744 1.03.106 1.965-.604 2.496.166-.56.298-1.568.15-2.328.247-.01.34-.018.68.082.91.797.334 1.762-.328 2.246 0-.004 1.02-1.668.382-2.08.993v.165c.514.51 1.814-.345 2.328.165-.12.9-1.37.27-2.162.578-.057.335.08.474.084.745.94.025 2.055-.05 2.578.166.03.28-.143.354-.248.498-.486.113-1.43.073-2.164.164v.578c.703.294 1.906.092 2.578.414-.686.383-1.564.077-2.41.496v.497c.674.358 1.984-.343 2.244.33-.447.355-1.584.02-2.08.33-.05.133-.05.785.168.91.664-.095 2.05-.727 2.494 0-.562.405-1.506.433-2.494.413v.578c.686.34 1.77-.406 2.328.084-.516.396-1.773.056-2.162.578v.33c.68.31 2.072-.213 2.412.248-.568.318-1.434.34-2.246.414v.496c.773.377 1.828-.412 2.162.33-.63.147-1.416.138-1.996.33-.057.334.08.473.082.745.695-.006 1.938-.492 2.162.248-.662.168-1.39.272-2.076.414-.05.377.146.516.082.91.312-.252 1.674-.512 1.83.082-.365.327-1.186.2-1.748.33-.06.394.096.57.084.91.564.21 1.982-.447 2.16.332-.523.25-1.676-.125-2.076.248.21.092-.033.64.166.743.773.09 1.416-.202 1.746.33-.416.25-1.148.182-1.664.33-.037.285.033.464.084.66.76.298 1.467-.308 1.914.25-.426.29-1.066.025-1.832.248.023.28-.064.67.084.826.594.125 1.717-.274 1.912.248-.598.05-1.168.09-1.912.166-.057.332.08.472.084.744.316.235 1.334-.323 1.746.082-.31.354-.947.384-1.58.413.027.305-.07.732.082.91.684.086 1.182-.14 1.666.165-.264.32-1.064.102-1.582.166.027.303-.07.73.084.91.338.296 1.5-.225 1.58.33-.402.152-1.055.056-1.58.083v.58c.56.29 1.395-.253 1.912 0-.314.43-1.172.32-1.83.412.135.212-.13.57.082.827.348-.014 1.23-.218 1.498.246-.44.392-.982-.187-1.58.084v.66c.574.134 1.537-.237 1.662.496-.387.493-1.44-.035-1.662.496.375.647 2.133-.08 2.246.827-.844.136-1.338-.086-2.246.08a2.57 2.57 0 0 0-.166.91c.582.058 1.832-.06 2.328.084-.08.643-.9.312-1.414.33-.367.014-.66.16-.998.082.06.308-.14.355-.082.662.678.215 2.023-.008 2.578.083.955-3.257.435-6.934.248-10.568m-68.774-74.74c-2.042.24-4.57 1.002-6.652 1.818-1.945.763-3.917 1.675-5.24 2.977-1.332 1.31-2.012 3.02-2.827 4.712-.196.193.014.405 0 .66-.99 1.662-1.497 4.19-1.33 6.284 2.093.382 3.196-.942 3.66-2.563.216-.758.068-1.754.83-2.147-.34 1.543-.78 5.247-2.495 5.786-1.344.423-1.916-.54-2.745-.992.038-.28.076-.562-.083-.827-1.625 7.866-2.56 17.105-3.66 25.633-.526 4.086-1.264 8.257-1.663 12.565-.57 6.167-1.396 12.138-1.664 18.188-.137 3.08-.682 6.137-.417 8.352.223 1.866.948 4.05 1.663 5.953 1.508 4.013 3.91 6.572 6.736 9.013.383.33.693.798 1.08 1.074 1.665 1.19 3.707 1.956 5.405 3.225 1.125-1.226 2.76-1.942 3.826-3.225-.233-.644-1.038-.585-1.58-.826-.815-.364-1.768-1.023-2.743-1.57-.916-.514-1.853-1.043-2.662-1.653-1.684-1.272-3.805-2.332-4.74-3.885-1.337-2.225-2.614-6.208-1.996-9.178.22 6.68 3.793 10.434 8.232 13.062 2.037 1.207 4.044 2.602 5.905 3.225.364.122 1.182.13 1.497.084 2-.3 3.6-1.766 5.738-1.985.264-.422 1.408-.548 1.33-1.075-.12-.813-3.74-.89-4.574-1.075-3.73-1-7.165-2.206-9.73-4.217-1.097-.86-2.5-3.093-2.91-4.548-1.22-4.343-.173-10.007.25-14.467.187-1.97.624-3.88.75-5.705.1-1.455.07-2.318.165-3.64.045-.624.375-1.71.5-2.562.358-2.455.856-4.8 1.164-7.275.417-3.36 1.08-6.757 1.498-10.087.14-1.12.043-2.22.166-3.307.325-2.88 1.032-5.92 1.498-8.928.19-1.23.808-2.65.416-3.72.983-4.588.97-10.935 4.16-13.477.717-.574 1.55-.694 2.41-1.24.23-1.266.4-2.365.583-3.805-2.573.53-4.558 1.643-6.07 3.225-.687-.166-.646.766-1.248.414.366-1.024 1.552-1.897 2.744-2.647 1.123-.707 2.403-1.748 3.743-1.654.43.03.725.35.83.247.183-.15.016-.647.168-.827-2.527.217-4.02 1.46-6.07 2.15 1.268-1.743 3.87-2.16 6.236-2.812-.192-.994.546-2.062 0-2.728h-.086zm39.834.91c.006.104.107.113.082.246.88-.05 1.81.113 1.498-.91-.597.15-1.318.18-1.58.663m3.908 5.292c.176 1.28.012 2.605.5 3.803.102-2.19-.43-4.683-.748-7.027-.07-.497.03-1.035-.25-1.488-.002 1.832.285 3.155.498 4.712m-2.41-4.465c-.402.18-.94.223-1.332.414-.01.204-.014.398.084.497.526-.096 1.7-.388 1.248-.91m15.717.083c-.28.053-.773-.106-.916.082.26.013.812.253.916-.082m-76.925 8.682c-.045-.433.282-1.206.416-1.737-1.147-2.15.26-5.245 2.33-5.457-.07-.428.044-1.036-.334-1.156-2.33 1.348-4.99 5.805-2.412 8.35m83.245-5.21c.21.39.383 1.125.998 1.075-1.02-1.354-1.59-3.16-3.66-3.473 1.382.46 2.048 1.276 2.663 2.4m-23.203-1.407c.46.082 1.357-.072 1.83-.247-.013-.972-1.486-.01-1.83.247m4.74.33c1.605.058 2.86.466 3.992.993.926 1.09 2.047 1.645 2.912 2.812 1.61 2.18 2.21 6.43 2.742 9.424.2 1.12.393 2.323.998 3.226-.48.228.006.618.168.91-.14.08-.213.228-.168.495 1.244 4.607 1.982 9.717 2.578 14.965.027.34.86.2.582.578.014.235-.543-.1-.414.248.193.953.414 2.52.582 3.722.047.336-.016 1.044.498.99.465-.526.088-1.54 0-2.23-.47-3.71-1.182-7.928-1.746-11.74-.232-1.57-.39-3.19-.748-4.713-1.68-7.104-2.37-14.692-6.57-18.77-.2-.05-.38-.117-.666-.08-.91-1.328-3.154-1.328-4.906-1.82.043.34.12.65.166.99m-63.867 3.722c.21-.314.314-.736.665-.91.38-.02.58.14.832.248-.046-1.31.062-2.672.083-3.474-1.008.676-2.463 2.422-1.58 4.135m59.045-2.895c.666.032 1.664-.766 1.912.082-.404.535-1.307.574-1.83.992.713.02 1.498-.116 2.162-.33.05-.552-.193-.897.084-1.24-.287.01-.19-.365-.416-.415-.57.37-1.408.474-1.912.91m20.207 2.15c.064.294.193.524.5.577.314-.762 1.832-.363 2.078.166.39-1.214-.094-2.695-.748-3.39-.172 1.317-.28 2.697-1.83 2.646m-7.484 5.622c-.298-.923-.53-1.9-.913-2.73-.822-1.773-2.082-3.453-3.078-4.215-.907-.695-2.165-1.172-2.993-.247-.088 1.51 1.473 2.05 2.244 2.976 1.812 2.17 2.755 5.157 3.495 8.35.64-.06.94-.057 1.412.166 1.217-1.22.38-2.615-.166-4.3m-16.964-4.464c2.03.206 4.107-.92 6.072-1.323-2.123.342-4.094.836-6.072 1.322m26.28 6.862c-.208-2.237 2.345-4.196 2.827-6.2.158-.658.115-1.752-.25-1.736.56 3.563-4.086 4.237-2.578 7.936m-22.37-6.696c-.013.233.25.19.25.413.724-.383 1.84-.375 2.41-.908-.696.046-1.704.437-2.66.496m-36.84.495c2.244.48 4.028 1.113 6.32.827a53.873 53.873 0 0 1-7.65-1.654c.236.482 1.088.35 1.33.827m21.04.827c4.136-.2 7.863-.365 11.31-1.405-3.484.752-8.12.362-11.31 1.405m37.838-.496c-.855.05-.904-.7-1.498-.91-.228.683.824 1.614 1.498.91m-7.486 35.883c-.762-4.777-1.39-9.766-2.078-14.965-.417-3.163-.843-6.486-1.33-9.426-.817-4.922-1.587-9.984-5.407-11.74h-.166c-.19-.025-.092.24-.248.248-.1.384.49.378.747.496 3.352 1.555 3.826 7.02 4.408 11.41.316 2.395.846 4.868 1.162 7.274.488 3.708.78 7.49 1.332 11.08.42 2.757.903 5.478 1.245 7.854.125.86.064 1.844.582 2.562.488-1.535.008-3.196-.25-4.793m-41.662-25.135c.237.095.438.226.666.33 7.055.24 13.202.418 20.126-.33.254-.05.328-.278.582-.33 2.34-.513 4.98-.727 6.9-1.653.148-.014-.035-.148-.082 0-2.453.265-4.99 1.317-7.566.908 3.287-.464 7.008-1.167 10.312-2.067-.367-.538-1.014-.144-1.498 0-1.69.51-3.643.993-5.406 1.16-1.248.115-2.324.67-3.408.163 1.04-.222 2.06-.263 2.91-.413a79.208 79.208 0 0 0 5.072-1.074c.502-.124 1.045-.314 1.414-.662-4.518.477-9.44 1.742-14.636 2.15-1.683.132-3.58 0-5.406 0-1.777 0-3.595.176-5.24.082-.76-.043-1.532-.215-2.328-.247-3.072-.127-6.917-.45-9.812-.993-.96-.18-2.12-.097-2.828-.828 1.726-.614 4.43.8 6.154.165-.095.26.13.2.166.33 3.273.18 6.595.168 10.146.166 5.762-.002 11.198.072 16.548-1.24.064-.266.377-.287.582-.413-1.582.398-3.38.147-4.905.663-.262.038-.188-.254-.5-.166-1.897.375-4.053.4-6.153.495-.825.037-2.148.38-2.744-.25 3.947-.25 6.392-.275 10.146-.825.312.063.057-.438.415-.33.928-.033 1.93-.135 2.912-.332.97-.193 2.05-.237 2.744-.743-1.89.072-3.797.762-5.822.91-.807.058-1.607.007-2.41.082-3.02.28-6.395 1.08-9.148.166 4.414.23 8.326-.507 12.556-.993-2.557.06-4.795-.068-7.068.083-1.778.12-3.806.72-5.57-.248 4.593.5 9.428-.337 13.887-1.074-.872-.042-1.56.1-2.245.247-.69-.625-1.684-.142-2.577-.165-2.726-.07-5.874.253-8.483 0 2.545-.367 6.002-.32 9.066-.58 1.178-.098 2.316-.474 3.493-.66 1.56-.247 3.223-.156 4.49-.91-5.838.59-10.49 1.463-16.8 1.323 4.576-.376 9.126-.81 13.474-1.57.262-.345.95-.27 1.246-.578-2.68-.054-5.484.557-8.398.744-2.83.182-5.633.862-8.316.58-2.807-.3-6.158.076-8.982-.25-3.168-.364-6.024-.73-8.816-1.652-.198 1.893.116 4.444-.25 6.614-1.085.41-1.828 1.157-2.328 2.15 3.806 1.454 9.066 2.442 13.72 2.064m27.942-10.087c.592.29 1.44-.51 1.998 0v-.496c-.707.126-1.49.175-1.998.495m21.457.662c.06-.287.414-.28.664-.165.23-.205.986-.703.666-.91-.285.462-1.515.423-1.33 1.075m-51.478-.744c-.31.11-.575-.246-.75 0 .17.034.62.205.75 0m-11.56.413c-2.998.745-2.925 3.572-3.41 6.78-.23 1.527-.773 3.106-.997 4.794-.16 1.218-.19 2.473-.333 3.722-.264 2.306-.86 4.596-1.164 6.86-.18 1.35-.256 2.197-.415 3.392-.303 2.285-.407 4.784-.665 6.778-.12.916-.397 1.632-.333 2.398.05.586.354 1.26.5 1.9.766 3.4 1.61 6.548 2.744 9.428.06-1.314 1.092-1.64 2.163-1.736.682-4.977.708-10.87 2.08-15.214.71-.81 1.118-1.92 1.83-2.728-.342-.477-.738-1.07-.5-1.737.182-.51.616-.384.832-.826-.15-1.428-.126-2.686.915-3.39.928-.63 2.167-.884 2.495-1.82.303-.862 0-2.354 0-3.637 0-1.342.053-2.654-.083-3.886-1.36-.253-2.74-.48-4.158-.91-1.116-.338-3.326-.618-3.243-1.9.035-.52.592-.65 1-.992.4-.34 2.022-1.79 2.16-2.232.247-.786.047-1.723.084-2.398.043-.795.135-1.53.084-2.563-.267.38-1.175.55-1.582-.084m49.65 49.938h-.17c.337-1.916-.118-4.84 1.665-5.62a44.894 44.894 0 0 1 1.08-4.796c.427-1.528 1.222-3.116 1.083-4.797-.03-.373-.19-.7-.252-1.072-.532-3.368-.724-6.634-1.08-10.42-.124-1.346-.438-2.71-.663-4.133-.547-3.468-1.008-7.147-1.414-10.252-.46-3.52-.992-7.277-3.742-8.68-.493.196-1.07.31-1.66.41.13 1.448.405 3.17.497 4.383.268.343.633.585.666 1.158.83.724 2.564 1.028 1.912 2.73-1.9 1.308-4.623 1.798-7.402 2.23-.248 2.47.295 5.29.168 7.36 1.323 1.424 3.675 2.386 3.41 4.877.75.332 1.33 2.183 0 2.315 3.386 3.2 3.013 10.668 3.99 15.544.583.053.813-.24 1.415-.167.955 1.26-.447 2.5-1.33 2.977-.13 3.437.17 6.623-.168 9.426-.398 3.313-2.318 5.16-3.824 7.77.027.496-.2.74-.248 1.158.723.108 1.443.217 2.078.414.406-1.342.648-2.706 1.08-4.052.473-1.468 1.215-2.896 1.664-4.382.113-.38.047-.785.166-1.158.158-.49.574-.893.75-1.405.332-.974.52-2.025.58-3.06-.227.275-.075.922-.248 1.244m-6.823-49.11c.406-.025.342-.085.834-.083.03-.636-.677-.087-.834.083m-1.41.413c.453-.07.834-.217 1.078-.495-.426-.158-1.25-.193-1.078.496m-.418 1.075c.8.103 1.834-.577 2.662-.247.107-.15.188-.8-.082-.827-.687.53-1.95.49-2.58 1.075m-59.21 1.24c.095-.756-.377-.946-.583-1.404-.01.674.09 1.235.584 1.405m60.458-.41c.277-.027.523-.087.666-.25-.28.026-.523.085-.666.25m0 .742c.467.385.87-.384 1.414-.165.047-.183.12-.456-.168-.496-.058.574-.912.36-1.246.662m21.373 5.54c-.057-1.104-.113-2.204-.5-2.977.098 1.06.264 2.052.5 2.976m-11.31-1.9c-.027.274-.314.292-.416.495.134.225.104.61.165.91.834-.36 2.28-.23 3.078-.828-.004-.62-.12-.658 0-1.156-.627.135-1.672.974-2.828.58m-42.58 3.06c.266.06.633-.102.168-.084h-.832c-3.145-.717-6.353-.94-9.23-1.985-.104-.192-.273-.593-.498-.412-.337.09.025.395-.083.745 2.94 1.137 6.962 1.667 10.476 1.736m31.602-.828c1.81-.157 3.64-.294 4.656-1.24-1.627.34-3.19.74-4.656 1.24m11.723.166c.575-.04 1.134-.088 1.583-.248-.504-.583-1.38-.605-1.582.248m10.48 1.9c-.034-.598-.06-1.208-.247-1.653-.03.665.024 1.244.248 1.654m-10.31-1.324c.05.198-.105.6.083.66.502-.38 1.508-.263 1.912-.742-.715-.17-1.295.02-1.996.082M159.5 150.22c-4.612.952-10.823 1.56-15.634 1.57-.528.002-1.365.1-1.58-.495.603-.168 2.636.234 3.492-.167-1.672.128-2.87-.122-4.075-.33-.59-.102-1.48-.028-1.58-.578 3.65.435 7.12.597 10.728 0-1.528.235-3.134.12-4.74.083-.74-.018-1.6.228-2.328.165-.27-.022-.556-.214-.832-.248-1.947-.236-4.005-.006-5.988-.166-.724-.058-1.377-.277-2.08-.33-.664-.05-1.354.04-1.995 0-2.38-.147-4.593-.878-6.82-1.157-.238-.424-1.035-.294-1.08-.91.887-.244 1.75.597 2.66.744.407.067.825-.05 1.248 0 .79.097 1.56.392 2.412.498 2.196.27 4.617.07 6.82.412.22.034.44.22.665.25.6.08 1.287-.033 1.996 0 2.306.103 4.993.214 7.402-.25.298.05 0-.493.332-.412 1.704-.05 2.815 0 4.325-.413-1.854-.087-5.042 0-7.318.247-.195-.322-.435-.38-.416-.744 3.63-.406 7.98-.338 10.976-1.323-1.176.255-2.436.16-3.74.25-1.462.098-2.99.508-4.408.494-1.07-.01-2.243-.107-3.41-.083-1.115.023-2.35.395-3.244-.166 3.195-.28 7.414-.127 10.728-.826-1.744-.467-3.94.142-6.07.33-.97.087-2.05 0-3.078 0-.982 0-2.103.218-2.827-.33 4.32.26 8.59-.446 12.475-1.074.788-.127 2.304.02 2.412-.744-4.077.536-8.496.726-12.724.744-.686.004-1.717.307-2.246-.248 5.282-.15 10.693-.108 15.302-1.57-2.165-.008-4.642.505-6.82.66-2.115.15-4.405.002-6.32-.083-.632-.027-1.383.038-1.83-.414 5.713-.145 10.376-.323 15.467-1.405-1.83-.18-3.483.104-5.488.25-3.414.247-7.132.22-9.564 0 .833-.345 2.115-.212 2.993-.083 3.393-.34 8.253-.786 11.56-1.488-1.5-.437-3.983.152-6.155.248-3.68.16-6.384.5-9.315 0 5.408-.1 10.087-.53 15.053-1.323 0-.33.34-.325.498-.497-4.044.212-8.315.77-12.64.58-.858-.04-1.952.132-2.494-.414 4.94.32 10.957-.106 14.887-1.158-1.183-.302-3.266.29-4.408.33-1 .035-2.248-.06-3.576 0-2.634.12-5.7.52-7.486-.33 4.61.302 9.37-.277 13.888-.413.2-.546 1.33-.165 1.747-.496-9.44.282-18.69.44-27.362-.827-.223 2.598.523 6.58-.58 8.35-1.7.822-3.51 1.967-3.078 4.632.968.526 1.87 1.095 3.16 1.322 2.18.385 5.096.804 7.65 1.074 1.322.14 2.65-.032 3.91.083.937.087 1.945.298 2.828.25 5.958-.325 12.027-.27 17.797-1.984.14.02.205-.094 0-.083h-.085zm-.748-13.23c.102.43.697-.145.914.166 0 .083.068.1.084.166-.188.28-.637.303-1.082.33v.496c.52.146 1.207-.53 1.414.165-.285.24-.9.152-1.164.414.293.324-.498.272-.498.578.557.02 1.504-.73 1.746 0-.506.186-.984.4-1.58.497-.035.2.152.18.082.413.502.276.916-.172 1.414-.166 0 .083.066.098.084.165-.146.793-1.258.624-1.746 1.074.47.576 1.39.177 1.912.413-.295.615-1.4.426-1.83.908.467.88 1.727-.478 2.164.167-.05-2.228-.166-4.066-.25-6.118-.535.13-1.36-.028-1.664.33m15.883.827c.426-.193 1.64-.29 2.33-.495-.125-.07-.12-.268-.168-.414-.92.103-2.024.03-2.162.91m.168.66v.497c.55-.04 1.822-.216 2.412-.248.066-.287-.125-.318-.086-.58-.866.023-1.642.132-2.327.332m0 1.156c-.025.302.012.54.082.745.93-.225 1.66-.31 2.662-.33.074-.377-.14-.468-.168-.744-1.034-.062-1.694.246-2.577.33m.166 1.49c-.067.367.11.495.08.826.903-.178 1.77-.395 2.83-.413.036-.37-.06-.604-.167-.828-.91.142-2.172-.065-2.744.414m.247 1.322c.027.303-.07.73.084.91.776-.332 1.95-.27 2.913-.414.002-.195-.145-.244-.086-.496-.772-.358-1.826.146-2.91 0m10.728.164c.588 4.984 1.098 10.215 1.996 14.8.33 1.678.37 3.33.583 5.044.39 3.137 1.002 6.234 1.498 9.26 1.026 6.26 1.347 12.08 1.497 17.528.084 3.03.377 6.3.166 9.507-.064.993-.4 1.548-.498 2.233-.072.497.057 1.282-.084 1.82-.235.902-1.077 1.782-1.66 2.645-.64.942-1.07 1.69-1.75 2.398-.663.69-1.56 1.28-2.327 1.983-1.545 1.416-3.148 2.855-4.906 3.885-.857.502-2.26.704-2.494 1.902 1.564-.65 3.035-1.502 4.406-2.48.696-.497 1.237-1.048 1.913-1.653.627-.563 1.426-1.008 1.994-1.57.28-.276.412-.68.666-.993.79-.97 1.78-1.73 2.496-2.728.954-1.335 2.005-2.895 2.575-4.382.566-1.476.52-2.926.666-4.382.063-.624.1-1.25.083-1.9-.072-3.664-.346-7.53-.664-11.08-.075-.845-.13-1.748-.25-2.562-.546-3.688-.927-7.404-1.33-11.08-.19-1.706-.58-3.407-.75-5.126-.22-2.235-.58-4.806-1.08-6.448-.726-5.756-1.55-11.412-2.663-16.783-.002-.052-.012-.1-.082-.084v.246zm-27.277.91c-.06.255.23.158.168.414.715.12 1.27-.724 1.662-.165-.322.81-1.752.518-2.078 1.323.797-.02 1.738-.504 2.41-.91-.29-.235.176-1.22-.25-1.322-.383.474-1.262.453-1.912.662m16.717.332c-.066.367.11.496.082.827 1.064-.044 2.213-.762 2.91-.413v-.495c-.967-.22-2.242.194-2.992.082m.25 1.57v.662c1.092-.152 2.227-.267 2.91-.827v-.332c-1.025-.212-1.918.403-2.91.495m-22.454.58h.75c.027-.435-.72-.242-.75 0m10.228.58c-.48.703-1.668.71-2.328 1.24.803-.137 1.867-.516 2.496-1.075-.015-.426-.36-.814-.168-.166m-6.818.082c.37-.074.908.02 1.08-.248-.31.133-.85.036-1.08.248m21.955-.248c-.75.386-2.025.246-2.746.66.085.247 0 .662.25.746.772-.387 2.08-.245 2.827-.662-.084-.273-.01-.707-.332-.744m.498 1.488c-.926-.088-1.873.503-2.91.58.023.28-.062.67.082.825 1.02-.23 2.068-.426 2.912-.826-.027-.195-.13-.31-.084-.58m-16.965.33c.195-.136.57-.094.666-.33-.252.03-.805.187-.666.33m1.83.828c.254.06.244-.144.498-.084v-.578a.386.386 0 0 1-.248-.082c-.103.23-.244.42-.25.744m-11.975 1.737c2.016-.154 4.327-.44 6.07-.91 1.606-.434 3.49-.343 4.74-1.323-3.575.725-7.358 1.654-10.81 2.232m7.9-.58c.858-.324 2.108-.214 2.327-.826-.752.297-1.607.494-2.328.826m16.55.083c-.05.352.06.547.083.825.953-.236 1.877-.504 3.078-.494-.05-.45-.05-.943-.25-1.24-.725.285-2.027.524-2.91.91m-50.313 1.982c2.614.626 5.835.764 8.898.413-3.835-.87-8.62-.802-11.726-2.397-.094 1.23 1.82 1.743 2.828 1.983m7.983 21.745c1.425-.113 2.258.442 3.41.414-5.268-1.826-10.485-3.3-16.217-4.217 4.073-.125 7.897 1.188 11.227 2.15 1.012.29 2.01.422 2.994.743.92.3 1.824.654 2.744.99 1.855.686 3.832 1.07 5.406 2.152 1.24-.613 2.652-1.057 3.908-1.653.633.073 1.46-.843 1.748-.084-.05.39-.546.34-1 .33-2.91 1.074-5.592 2.376-8.482 3.473-1.482 1.264-4.373 1.817-6.32 2.894 1.057.377 1.737-.453 2.578-.827 4.922-2.19 10.408-4.032 15.3-6.366.004-.35-.16-.534 0-.826 3.165-.825 5.75-2.664 8.817-3.307.172-.272.4-.323.664-.414 2.43-.844 5.134-1.376 7.317-2.562-.732-5.347-.656-10.925-2.828-14.716-.265-.204-.61-.33-.75-.66-3.206 1.472-7.362 2.092-11.557 2.56-3.894.438-8.538.525-12.808.333-4.44-.2-8.686-.275-12.807-1.24-.398.017-.315.514-.83.413-.25-.23.306-.514-.084-.662-.913.146-.843 1.69-1.664 1.654.236-.675.65-1.174.915-1.82-2.09 1.09-2.27 4.08-3.076 6.45-.154-1.534.513-2.96.747-4.38.412-.783 1.252-1.562 1.414-2.316-.96.83-2.104 1.958-2.493 3.472-.46 1.786-.404 3.88-1.164 5.54.358-2.124.266-4.86.998-6.532.225-.512.76-.94 1.08-1.405.288-.414.986-1.195.584-1.487-.693.44-.97 1.304-1.415 2.066-.42.725-.957 1.58-1.165 2.48-.196.85-.194 1.893-.333 2.894-.392 2.83-.613 5.975-.748 8.93-.077 1.687-.098 3.765-.583 4.712 3.565 3.1 7.746 5.584 12.56 7.44 2.86-1.096 6.292-2.343 9.313-3.556-1.688-1.102-4.22-1.685-6.32-2.313-.646-.193-1.646-.296-1.913-.992.33-.247.407.327.833.246m42.494-21.826c.12.102.16.284.168.495.828-.306 1.86-.41 2.992-.414.176-.184-.088-.398 0-.743-1.3-.025-2.46.087-3.16.66m.334 1.323v.91c1.032-.215 1.993-.5 3.16-.58.015-.4-.108-.662-.165-.99-1.117.1-1.967.47-2.994.66m-29.355-.164c.834.04.446-.15-.166-.084-2.396.17-5.052-.23-7.32 0 2.942.392 4.47.444 7.485.084m32.682 1.24c-1.002-.026-1.98.673-3.078.827v.66c1.165-.267 1.755-.623 3.243-.497.004-.39-.144-.625-.166-.99m-2.992 2.313c.025.277.084.52.248.662 1.066-.347 2.027-.704 3.078-.662.024-.384 0-.716-.167-.91-1.318.04-2.21.505-3.158.91m.248 1.49c-.035.337.076.527.166.743 1.548-.005 2.468-.635 3.16-1.49-1.464-.103-2.474.242-3.327.745m1.83 1.902c.492-.147.617-.58.998-.827.485-.313 1.366-.57 2.08-.66 1.24-.158 1.724.69 2.66.908-.887-2.7-4.907-1.54-5.737.58m-66.363-.415c-.83 2.56-.563 5.538-1.164 8.517-1.022 5.058-1.59 10.774-2.247 16.204-.414 3.43-1.263 6.795-.915 10.17.225 2.193 1.054 4.342 2.078 5.622.762.95 1.95 1.79 2.994 2.563 2.612 1.93 6.422 3.058 10.312 3.554.673.086 1.926.057 2.41.413.466.34.202.742.5 1.405.216-.392.673-.543.666-1.158-.9-.935-2.33-.774-3.493-.99-1.204-.226-2.4-.633-3.575-.993-3.03-.926-5.813-2.007-7.9-3.636-.46-.358-1.037-.664-1.415-.992-.962-.84-1.033-1.67-1.413-2.977-.158-.546-.49-1.025-.583-1.488-.416-2.062.06-4.51.25-6.284.238-2.225.28-4.605.583-7.028.28-2.25.728-4.553.998-6.86.27-2.304.467-4.636.832-6.863.293-1.79.543-3.476.75-5.126.07-.57-.016-1.24.082-1.736.028-.138.308-.333.333-.413.207-.647.108-1.372.083-1.984-.11-.002-.076-.145-.166-.167v.247zm64.95.33c-.007.365.003.71.247.828.203-.35.41-.694.584-1.075-.38-.018-.58.14-.83.25m3.91.33c.224 1.428.323 2.982.745 4.216 1.096-.882.648-2.93.332-4.38-.36-.17-.795.015-1.078.165m-1.333 1.487c.236-.124.574-.146.916-.164-.078-.28-.113-.607-.168-.91-.297.257-.732.813-.748 1.074m-60.375 19.596c.442 1.116.446 2.513.915 3.555.175.388.762.6.5 1.075-.494.13-.652-.433-.75-.663-.463-1.09-.787-2.564-1.165-3.885-.328-1.147-.518-2.227-.832-3.39-.24-.892-.687-1.682-.998-2.563-.107-.306-.064-.678-.166-.99-.576-1.794-1.337-3.547-1.746-5.293-.184-.784-.206-1.285-.5-1.818.19-1.04-.67-2.812-.665-3.72-.646.006-.36-1.625-.915-1.985.02.828-.293 1.295-.083 1.902.026.195.395.05.333.33 2.882 7.305 3.624 16.736 7.235 23.316.132-.942 1.204-.953 1.497-1.737-.905-1.358-1.956-2.573-2.66-4.132m54.387-17.28c.278-.756.894-1.495.25-2.316-.107.695-.447 1.598-.25 2.315m5.155-.91c.502-.246 1.184-.312 1.83-.413-.014-.233.07-.567-.168-.578-.463.377-1.652-.007-1.662.99m-.332.828c-.068.337-.014.286 0 .663.867-.158 1.53-.52 2.412-.663.008-.256-.102-.395-.168-.578-.873.07-1.56.323-2.244.578m2.578.828c-.823-.022-1.624.35-2.495.414.035.296.02.64.25.744.662-.31 1.547-.39 2.246-.663v-.495zm-7.235 3.803c.514-.014 1.002-.052 1.248-.33-.2-1.126-.27-2.377-.582-3.392-.083 1.2-.663 2.508-.665 3.722m-63.7 18.024c3.278.433 3.804 3.603 4.49 6.614 1.026.966 2.726.92 4.242.99 1.612.078 3.203.124 4.657.083-.096-.21-.445-.878-.83-1.073-.748.506-3.28 1.26-3.328-.084-.035-.944 1.495-1.097 2.08-1.653-1.37-1.778-2.438-3.902-3.327-6.45-.34-.97-.676-2.14-1-3.223-.46-1.546-1.112-2.684-1.08-4.052-1.383-3.86-2.372-8.114-3.41-12.318-.02-.065-.07-.097-.166-.084-1.038 6.922-1.592 14.07-2.33 21.25m68.11-16.454c.144 1.04.218 2.062.33 3.06.24 2.075.85 4.032 1.25 5.952.85 4.08 1.278 8.104 1.995 11.99.304.103.68.945.83.66-2.028-8.395-2.425-17.714-4.655-25.63-.342 1.234.062 2.632.248 3.968m.664-3.06v.25c.252.003 1.014-.135 1.332-.332-.237-.15-.2-.573-.5-.66-.095.428-.73.32-.833.742m3.744 2.316c.17.917.325 1.946.417 2.893.566 5.805 1.7 12.11 2.328 18.106.195 1.87.076 4.214.748 5.706-.354 2.127-.45 4.367-1.164 6.283-.544.305-.726.918-1.165 1.322-3.164 2.902-7.385 4.802-11.893 6.366-.25.026-.098.454-.332.497-.57-.324-1.645-.002-1.996.413-.854-.324-1.674-.954-2.578-1.405-.824-.413-1.828-1.18-2.744-.745 2.527 1.07 4.97 2.185 7.402 3.142 2.094-1.484 4.576-2.378 6.9-3.803 1.63-.998 3.752-2.2 4.908-3.556.217-.253.277-.64.498-.908.56-.68 1.322-1.114 1.664-1.9-.055-.785.52-1.44.666-2.15.312-1.53.074-3.25 0-4.88-.346-7.444-1.572-15.42-2.414-21.742-.06-.243-.51-.1-.498-.414a70.177 70.177 0 0 0-.998-5.788c-.536.827.1 1.755.25 2.564m-10.643-.332c.684-.174.74-1.41.748-1.984-.205.708-.485 1.34-.748 1.984m7.068-.908c-.06.252.084.3.082.495.865.04 1.746-.78 2.33-.247-.275-1.264-1.576-.428-2.412-.248m-12.06 0c-.302.35-1.458.585-2.245.825a19.63 19.63 0 0 0-2.244.828c-5.58 2.514-11.907 4.756-17.464 7.11 1.064.12 2.576 1.39 3.658 1.32.4-.02 1.33-.602 1.914-.907 1.98-1.044 3.978-2.165 5.655-3.06.927-.497 1.938-.86 2.91-1.405 1.89-1.062 3.858-1.952 5.653-2.977.922-.524 2.08-.94 2.412-1.984-.284-.133-.075.048-.25.25m12.226 1.074c.028.4.095.388.085.91.898-.052 1.73-.584 2.494-.497.095-1.724-1.772-.022-2.58-.414m10.978 1.654c-.168-.438-.11-1.102-.332-1.487.105.447.054 1.486.332 1.487m-25.614 12.65c.363-.445.78-.932 1.164-1.406 2.203-2.704 2.25-8.055 1.58-12.236-.543.23-.95.598-1.412.91.43 3.317-.166 6.096-.582 8.516.068.177.78-.223.83.165-1.025.963-1.482 2.493-2.16 3.802-.344.323-1.104.98-.584 1.405.588-.02.817-.732 1.164-1.157m8.817-13.394c-.304 1.018-.983 2.584-1.165 3.97-.182 1.39.13 3.14.25 4.63.123 1.478.23 2.93.664 4.05.718-4 1.188-8.243 1.665-12.483-.31-.22-.89-.164-1.414-.167m6.07.496c.112.22.026.635.25.744.472-.306 1.437-.313 2.245-.496.027-.304-.092-.46-.166-.66-.847.067-1.442.384-2.33.412M164.99 181.06c.105-.226-.012-.543.084-.745.107-.227.463-.337.582-.58.154-.307.268-.828.332-1.157.416-2.09.537-4.684.5-7.108-.084 0-.1-.068-.168-.084-4.53 2.936-9.62 5.316-14.386 8.02 3.538 1.442 7.288 2.674 10.646 4.3.883-.74 1.914-1.566 2.41-2.647m-43.492-5.79c-1.35-.944-2.698-1.89-3.244-3.637-.114.005-.182-.04-.25-.082.014 2.013 1.94 3.242 3.494 3.72m59.045-2.976c.07.207.108.444.083.744.47.026 1.33-.333 2.328-.248.062-.415-.14-.576-.083-.99-.742.195-1.504.376-2.326.494m-4.24 8.848c-.52 3.04-.454 5.91-1.83 8.02.142.327.093.845.165 1.24.36.058.453.377.75.497 5.53-1.37-.27-10.558 3.076-13.644-.362-1.537-.58-3.39-.83-4.796-.17 2.733-.864 5.953-1.33 8.682m4.49-7.524c.01.237-.046.54.083.66.82-.202 1.893-.158 2.244-.826-.806-.306-1.494.222-2.328.166m-61.623 4.547c-.078-1.096-.238-2.126-.083-3.06-.473-.523-1.08-1.35-1.58-1.57.517 1.58 1.05 3.144 1.663 4.63m61.872-2.977c.058.188.073.422.165.578.633-.196 1.373-.287 2.08-.413.05-.352-.06-.547-.084-.826-.68.262-1.554.328-2.16.66m-57.88 10.088c-.88-2.032-2.967-3.956-2.746-6.283.487.48.708 1.224.832 2.066.98 1.202 1.726 2.64 2.994 3.555 1.933-.715 3.928-2.17 6.07-2.81-1.705 1.28-4.21 1.766-5.655 3.306.55.45 1.193-.154 1.664-.413.57-.314 1.164-.633 1.745-.91 1.218-.58 2.557-1.045 3.576-1.735-4.502-1.614-8.172-4.057-11.974-6.368.018 4.337 1.495 7.223 3.493 9.59m45.82-1.653c.97-2.315 2.646-4.366 2.328-7.687-.847 2.435-1.644 5.365-2.328 7.688m12.307-7.026c.08.307-.012.784.25.91.46-.287 1.393-.452 1.996-.332.033-.39-.027-.69-.082-.99-.76.095-1.446.27-2.163.412m-33.43 2.067c.293.137.824.57 1 .166-1.23-.485-2.437-.994-3.742-1.405.682.536 1.892.847 2.743 1.24m33.68-.66v.496c.46-.08 1.724-.04 2.16-.414-.09-.075-.024-.153-.08-.413a4.5 4.5 0 0 0-2.08.33m-37.755-.084c-3.025 1.266-6.435 2.146-8.982 3.887 1.355.527 2.657 1.107 4.16 1.488.376-.513 1.584-.738 2.162-.33a243.94 243.94 0 0 0 6.486-3.473c-1.165-.632-2.607-.99-3.825-1.57m37.922 1.322c.016.258-.057.606.084.744.655-.117 1.397-.15 1.993-.33v-.746c-.697.108-1.46.148-2.078.33m.166 13.148c.32 2.48-.106 5.58-.915 7.274-1.477 1.077-2.566 2.58-4.322 3.473-3.438 1.747-8.115 2.827-11.977 3.804-.668.17-1.504.326-1.83.992.527.356 1.113.658 1.746.908.047-.514-.422-.517-.414-.99 2.086-1.5 4.72-1.2 7.4-1.986.652-.19.988-.55 1.496-.743 1.56-.594 3.232-1.108 4.74-2.068.637-.405 1.31-.964 1.998-1.405.703-.453 1.523-1.05 1.912-1.572.943-1.267.914-4.13.83-5.787-.078-1.557-.46-3.334-.746-4.96-.604-3.397-.95-6.644-1.832-10.17.43 4.14 1.353 8.887 1.915 13.228m-31.184-12.32c1.204.088 2.443.596 3.576.66-1.2-.09-2.573-1.434-3.576-.66m31.267.993c.098.013.09.13.084.247.693-.03 1.45-.337 1.996-.248-.068-.264-.053-.61-.166-.827-.722.19-1.8.03-1.914.826m-27.525.992c-1.47-.623-2.924-1.16-4.24-1.737h-.168a69.403 69.403 0 0 1-4.074 2.315c1.443.18 2.673-.017 3.492.495.86.537 1.786 1.543 2.495 1.984.71.44 1.505.165 2.495.247 1.516.126 3.006.478 4.49.827.225-.246.89-.052 1.082-.33-1.79-.708-3.863-.805-6.154-.91-.565-.025-1.584.075-1.83-.414 1.46.03 3.3-.01 5.156.25 1.018.142 2.014.7 2.994.495-1.055-1.957-3.52-2.286-5.738-3.223m-8.815-.58c.316.04.52-.034.582-.247-.297-.02-.5.053-.582.247m-8.317 4.217c-1.115.62-2.287 1.177-3.326 1.9 3.833-1.73 7.83-4.013 11.56-6.12a136.72 136.72 0 0 0-8.234 4.22m44.907-2.896c.625-.12 1.223-.27 1.912-.33.05-.352-.06-.547-.082-.826-.94.037-2.185.093-1.83 1.156m-49.812-.33c-1.525.66-3.73 1.362-5.157 2.398 3.342-.844 5.776-.355 9.315-.663-1.482-.483-2.665-1.263-4.157-1.736m-10.228 7.523c.44-.553-.128-1.285-.583-1.652.03.364.496.813 0 .99-.947-1.4-1.755-3.392-2.33-5.04-.224-.647-.257-1.49-.665-1.655.746 2.565 1.716 5.625 3.577 7.357m46.32-.496c.674-.954 1.95-1.31 3.492-1.404.178-2.324-1.275-3.38-1.08-5.456-.615 2.42-1.892 4.624-2.412 6.86m13.887-6.2c-.04.284-.103.59.165.745.34-.436 1.27-.28 1.748-.578.002-.195-.143-.244-.084-.496-.618.103-1.16.28-1.83.33m-22.204.083c-.02-.256-.297-.258-.5-.33-.03.304.305.25.5.33m22.37 1.075c.02.34.013.704.25.827.548-.172 1.196-.244 1.66-.496.058-.304-.177-.317-.163-.58-.7-.053-1.168.444-1.748.248m-40.166.165c.327.145.884.496 1.247.33-.394-.066-.822-.826-1.248-.33m-5.24.166c-1.798-.322-3.82-.047-5.405.164-.474.063-1.126-.1-1.332.413 1.813-.447 4.517.084 6.238-.165.252-.036 1.11-.405.832-.58-.17-.177-.283-.003-.332.167m9.73 1.405c-.86-.302-1.82-.944-2.744-.91.883.28 1.912.854 2.744.91m35.925-.082v.412c.443.168 1.008-.194 1.662-.08.158-.263.146-.497 0-.83-.736-.015-1.154.285-1.662.498m-57.796 1.983c.123 1.05-.026 2.053.83 2.232.25-1.888-.9-3.483-2.162-4.38.362.797.947 1.372 1.33 2.148m8.483-1.488c-1.2-.06-.057.36.25-.083-.113-.04-.184.088-.25.083m15.136.33c.48.047 1.002.49 1.413.33-.463-.064-1.03-.46-1.414-.33m34.345.167c-.02.298.155.397.167.66.473-.193 1.016-.313 1.498-.496.01-.88-.988.096-1.664-.165m-59.957.247c.09.38.47.47.83.58.085-.656-.594-1.428-.83-.58m8.98-.247c.335-.058.476.078.75.08.107-.32-.994-.157-.75-.08m16.882.908c-.4-.043-.652-.233-.914-.413-.307-.034-.743-.14-1.164-.248-.277-.07-.958-.364-.75-.166.993.174 1.853.916 2.83.827m7.068.91c2.232 1.025 6.047-.332 7.402-1.654-2.3.386-4.812 1.278-7.402 1.653m-10.395-1.158c-.512-.044-1.008-.54-1.498-.33.457.098 1.093.454 1.497.33m-28.775 7.276c-.49-.135-1.29-.58-1.58-.99-.722-1.02-.6-2.954-1.165-4.134-.387-.81-1.115-1.247-1.58-1.984-.546.03-1.19-.672-1.497-.332-.005.05-.013.098-.083.083.165.387.86.25 1.247.413 2.216 1.188 1.462 5.326 3.327 6.863 3.152.602 7.04 1.107 9.98.577-2.888-.474-6.124.202-8.65-.496m10.23-5.29c.157-.818-.375-1.666-.915-2.067.196.748.475 1.834.914 2.067m.582-.25c.547-.177 0-1.065 0-1.487-.12.045-.43-.096-.416.083.3.308.427.79.416 1.405m55.72-1.073c-.038.284.03.463.08.662.562.06.772-.23 1.33-.167v-.744c-.59-.037-.878.226-1.41.247m-18.548.33c.54.155 1.092.294 1.166.91-.41.612-1.43.62-1.832 1.24.287-.074.71.224 1.084.165.512-.08 2.184-1.365 2.162-1.736-.05-.81-1.62-.814-2.58-.99v.412zm-10.892.66c-1.042-.272-2.15-.72-2.994-.74.98.21 1.94.88 2.994.74m9.48.25c.305.026.46-.092.664-.166-.025-.358-.17-.6-.25-.91-.197.3-.205.79-.414 1.077m-40.666.827c.505.145 1.62.68 1.912.247a1.012 1.012 0 0 1-.748-1.404c.205-.012.4-.013.5.082-.17-1.655-1.565.36-1.664 1.076m21.872-1.323c-.8-.086-1.97-.48-2.66 0 .95-.23 2.08.203 2.66 0m17.464 0v1.075c.305.056.318-.18.582-.164-.043-.422.178-1.445-.582-.91m-12.724.33c.417-.053 1.05.11 1.33-.082-.396-.13-.778-.272-1.248-.33-.07.097-.11.222-.082.413m28.107 1.408c-.962.616-2.44.74-3.41.742-.247.745.683.317 1.08.332.32.01.603.182.833.164 1.518-.108 3.256-1.34 2.744-3.058-.354.63-.572 1.386-1.248 1.82m-63.95 3.637c-.48-.582-.884-1.672-1-2.398-.21-1.323-.06-2.976-1.662-2.976a.4.4 0 0 1-.084.248c-.36 3.632-.546 8.468 1.747 10.665.544.522 1.262.938 1.913 1.323.387-1.52.972-3.12 1.997-3.968.218-.18 1.073-.427.832-.744-2.024-.3-2.75-.936-3.743-2.15m19.792-3.057c.04.155.028.49.333.413.158-.902.26-2.465-.583-2.646.132.8.092 1.6.25 2.233m.997.496c.12.128.425.072.665.082-.004-1.104.15-2.07-.333-2.81h-.416c.14.778.274 1.88.083 2.728m1.663.248c.264-.936.205-2.367-.5-2.81.332.7-.19 2.475.5 2.81m25.363-2.067c.06-.333-.078-.472-.082-.745h-.25c-.143.348-.277.835.332.745m22.37-.496c-.013.4.067.706.167.992.43.04.697-.08.914-.25v-.91c-.496-.08-.635.197-1.08.167m-46.986 2.564h.584c.012-.976.094-1.877-.25-2.645h-.5c-.048.805.143 1.685.167 2.646m-4.573-2.563c-.283.383.002 1.69.083 1.983.106.006.116.107.25.084-.072-.72.294-1.55-.084-2.067h-.25zm5.655 2.564h.582c-.05-1.008.118-1.813-.083-2.562-1.265.02 0 1.737-.498 2.563m1.247.083c.796.008.9-2.324 0-2.562h-.167c.1.812-.205 2.023.166 2.563m1.33-.082h.25c.147-.687.433-2.173-.332-2.397-.257.667-.287 1.947.083 2.398m.998 0c.138.14.488.065.75.083.072-.96-.2-1.81-.25-2.396-.2.05-.604-.105-.666.08.34.507.272 1.514.166 2.234m1.248.083h.748c-.09-1.202.117-1.682-.166-2.396h-.582c.048.88-.01 1.423 0 2.396m1.247-2.316c-.01 1.043-.115 1.444.083 2.398.254.06.303-.085.5-.083 0-.8-.03-1.627.082-2.315-.26-.11-.44-.073-.665 0m1.164 2.316c.254-.06.245.143.5.083.26-.623.173-1.59.248-2.398-.25.114-.296-.038-.665 0-.14.804-.12 1.486-.083 2.315m1.58 0c.368-.186.205-1.614.416-2.23-.255-.153-.374.072-.582-.085-.027.513-.343 2.137.167 2.315m3.327.083c.292.014.533-.022.665-.165-.37-.596-.07-1.565.082-2.148-.277-.09-.284.024-.583-.084-.256.778-.078 1.478-.166 2.398m1.414-.083c.507-.434.363-1.513.5-2.315-1.19.006-.686 1.628-.5 2.315m1.33-.082c.248-.664-.103-1.843.084-2.232h-.25c-.164.505-.416 1.983.167 2.233m-5.24.083c.312-.062.396.1.664.083.175-.653.023-1.63.167-2.314h-.665a29.906 29.906 0 0 0-.166 2.23m1.745.084c.186-.668.064-1.646.25-2.314h-.583c.008.574-.278 2.073.333 2.314m-18.295-2.15c0 .468.06.88.166 1.24h.417c.062-.53-.098-.842-.083-1.323-.255-.06-.247.144-.5.082m22.454 1.902h.666c-.008-.708-.182-1.213-.084-1.818-.254.06-.303-.085-.5-.084-.15.8.1 1.107-.082 1.9m16.88-1.487c-1.4 1.21-.364 4.33-1.413 5.868-1.167 1.37-3.687 1.667-5.903 1.323-1.037.953-2.055 1.927-4.074 1.903 1.19 1.493 1.465 4.146 1.164 6.944.863.242 1.572.14 2.08.744.65-1.386 2.857-1.276 4.49-1.653.51-.116.97-.373 1.496-.495 1.55-.354 3.074-.565 4.492-1.157 1.38-.576 2.707-1.198 3.574-2.15-.827-.528-1.65-1.06-2.245-1.82-.666-3.14-1.258-6.355-1.664-9.755-.785-.035-1.306.19-1.995.25m-40 .66c.202-.15.007-.606-.083-.743-.09.248-.17.717.083.744m24.366.663h.5c-.03-.59-.014-.712 0-1.323-.254.06-.244-.144-.5-.083v1.406zm1.082-.166h.666c-.018-.32-.004-.61.082-.827-.256-.156-.508-.072-.664-.164-.014.474-.07.463-.084.99m1.248-.08c.35-.066.88.046.914-.332-.125-.234-.49-.23-.832-.248-.115.106-.082.358-.082.58m16.965.825c.086.19.05.5.164.662 1.792.033 4.15-.19 4.99-1.735-1.493.525-3.12 1.62-5.155 1.074m-16.715.084c-1.29.176-2.672.142-3.992.248-9 .724-17.434.565-25.365-1.24-.14-.08-.692.135-.832.33 4.73 1.11 9.942 1.754 15.053 1.9 1.585.05 3.167.202 4.74.085.952-.072 1.836.03 2.745 0 4.562-.15 8.675-.683 12.722-1.902-1.828-.77-3.228.327-5.07.58m28.523-.084c-.502.555-1.898.702-2.746.414-.062.48.12.708.084 1.158 1.02-.55 2.013.046 3.077 0-.18-.394.118-1.335-.414-1.57m-59.377 2.148c.29.03.76.066 1.082-.083-.91-.42-1.346-1.307-2.163-1.818.065.604.782 1.253 1.08 1.9m33.1-.578c.245.835 1.577 1.292 2.66 1.57.872-.677 1.423-1.672 1.913-2.728.02-.104.13-.17-.082-.165-1.3.637-2.826 1.05-4.492 1.322m7.234-1.158c-.568 1.06-1.326 1.933-1.83 3.06 1.436.534 2.56-.426 3.16-1.24-.176-.54.016-1.448-.248-1.9a3.926 3.926 0 0 1-1.082.08m-38.42 1.736c1.116.37 2.592-.014 3.493-.414-1.593-.618-3.636-.792-5.32-1.322.45.42 1.03 1.472 1.83 1.736m45.987-.083c.85-.227 1.79-.12 2.328-.495-1.008-.12-1.756-.072-2.41-.165-.065.31.1.395.082.66m-41.248-.33c-.02-.127-.138-.012-.167.082.064.018.097.068.083.165 1.638 1.126 3.86 1.244 6.32 1.405 3.7.242 7.996.41 12.058-.247-5.508-.62-12.782-.194-18.295-1.407m50.56 1.158c.38-.228 1.155-.063 1.415-.413-.72-.02-1.234.1-1.414.414m-9.063-.248c-.05.27.057.385.082.578.673.01 1.368.037 1.745-.247-.99.24-1.09-.554-1.828-.33m11.476.08c-.133-.065-.508-.312-.666-.08.225-.025.477.346.666.08m-10.146 1.077c1.428.124 2.29-.312 3.078-.827-1.06.242-2.21.395-3.078.827m-30.104 3.473c-.9-.04-1.93-.026-2.66-.413 4.115-.144 7.856.123 12.14-.332.798-.085 2.062.064 2.41-.827-3.493.338-8.98.702-12.64.25-.304-.04-.866.208-.997-.25 3.902-.342 8.443.17 12.224-.578.46-.09 1.09-.104 1.414-.495-3.072.39-6.045.68-9.396.66-.392 0-1.046.208-1.33-.247 3.008-.48 8.175-.295 10.81-1.57-3.6.85-7.918.625-12.06.743-4.523.13-9.295-.12-13.222-.827a25.178 25.178 0 0 0-.166 3.475c-.38.724-.996 1.214-1.247 2.066 2.22.684 4.83 1.262 7.484 1.49.543.045 1.13-.14 1.664-.084.26.027.553.215.833.247.36.045.687-.11 1.08-.082.412.03.842.227 1.25.25 1.033.057 2.1-.135 3.16-.167 1.605-.046 3.312-.12 4.987-.247 1.846-.14 3.72-.053 5.24-.414.857-.203 1.564-.76 2.412-.413-.123-.678-.498-1.104-.916-1.488-1.443.942-3.31 1.916-5.32 2.148-1.336.155-2.98-.02-4.658-.082-1.524-.057-3.13.09-4.49 0-1.654-.11-2.813-.492-4.16-.744-1.8-.335-3.425-.653-4.99-.993-.746-.16-1.695-.205-2.077-.907 1.223-.027 2.495.553 3.826.744.71.102 1.495-.02 2.245.082 2.314.32 4.496.55 6.903.577 4.228.053 9.194.152 11.975-1.24-3.726.396-8.087 1.002-12.307.662-.775-.063-1.79-.112-2.078-.58 4.757-.496 11.115.544 14.386-.99-3.385.302-7.697.758-11.725.577m13.055-2.48c.488-.096.857-.307 1.248-.497-.328-.39-.67-.768-1.33-.826.02.542-.182.936.082 1.322m24.617-.66c.818-.27 2.146.414 2.742.082-.857-.35-1.63-.297-2.66-.413.006.142-.02.256-.082.33m-8.234.827c1.237.402 2.82-.126 3.66-.827-1.183.312-2.495.494-3.66.827m-47.567-.662c-1.434-.342-2.62.232-4.408 0 1.027 1.062 2.088 3.195 1.83 5.54 1.71.213 2.998.416 4.657.58-.086-1.85 1.125-2.412 1.58-3.722-1.608-.034-2.253-2.06-3.66-2.398m-6.735.745c.14.11.28.218.583.165-.132-.545.24-.59.332-.91h-.75c-.13.172-.057.55-.165.745m-1.33-.496c.045.318-.15.4-.083.742.3.022.4-.152.665-.165.063-.312-.103-.396-.084-.66-.254-.062-.245.14-.5.082m2.746.824c.193.184.472-.015.666-.082.014-.29-.293-.26-.417-.413-.033.215-.247.248-.248.494m56.965-.082c.018-.104.13-.168-.084-.165-1.115.6-2.666.768-3.826 1.323 1.375.237 2.8-.614 3.91-1.158m4.572 0c.753.08 1.33.33 2.245.248-.26-.48-1.84-.453-2.246-.248m-65.864.167c.134.223.2.517.582.494.018-.093.093-.13.167-.165.017-.39-.587-.86-.75-.33m4.992.99c.18.187.283-.068.58 0-.032-.27-.07-.535-.33-.578-.08.197-.335.217-.25.578m-6.155.082c.39.027.36.47.75.496.378-.482-.685-1.184-.75-.496m60.707.662c1.103.02 1.84-.32 2.413-.827-.012-.102-.027-.196-.168-.166-.55.528-1.52.64-2.246.994m8.565-.084v-.33c-.74-.146-1.777-.436-2.578-.248.865.14 1.838.59 2.578.578m-62.786.413c.312-.062.396.102.664.083.005-.308-.134-.474-.332-.578-.02.256-.415.14-.333.495m-1.498 0c.05.05.394.195.416 0-.195-.024-.05-.39-.332-.33-.027.113-.12.158-.084.33m-5.738.745c.185.065.323.174.582.165.083-.29.02-.89-.25-1.074-.293.12-.308.52-.332.908m66.363-.496c.977.465 2.277.752 3.242.992-.04-.262.147-.292.083-.578-1.168.052-2.54-.9-3.326-.414m-58.38 1.24v-.744h-.25c0 .334.025.64.25.745m64.202-.58c-.187.01-.038.35-.085.497.693.387 1.3.065 2.246.247.08-.25.167-.495.25-.744-1.153.07-1.52-.174-2.41 0m-68.112.663c.284-.187.67-.27.833-.58-.445-.027-.873.4-.832.58m61.707 0c1.223.188 2.06.76 3.16 1.074-.014-.205.13-.255.164-.412-1.09-.12-2.538-1.306-3.325-.662m-66.114.496c.332-.054.335.22.666.166-.027-.195-.132-.31-.083-.58h-.582v.414zm37.59 1.818c-3.38.355-7.438.486-10.478.083-1.73-.23-3.49.017-5.074-.248-2.484-.416-4.485-1.41-6.902-1.736-.017-.102-.092-.052-.166 0v.164c0 .78-.273 1.935-.25 2.977.02.82.328 1.46-.166 1.737 1.613.932 3.666 1.427 5.655 1.984 1.872-.728 3.71-1.492 6.236-1.57.714-.4 1.727-.372 2.66-.413 2.955-.13 6.454.132 9.48-.33.878-.135 1.67-.362 2.413-.497.78-.14 1.534-.458 2.327-.33-.02.475-.67.327-.832.662-3.2.547-5.97.902-9.73 1.074 3.443 1.13 8.09-.74 10.894-.992-.25-1.278.235-2.775-.165-3.886-1.57 1.066-3.747 1.094-5.904 1.322m34.263-1.322c.725.106 1.428.232 2.246.248-.038-.2.15-.18.08-.414-.76-.145-1.585-.005-2.08-.248.042.26-.22.218-.247.414m-3.744 1.405c-.013-.262.222-.275.167-.578-.71-.152-1.45-.706-2.162-.58.748.304 1.223.88 1.994 1.158m-54.553-.412c-.94-.557-2.603-.68-3.743-.58 1.277.166 2.39.49 3.743.58m57.712 0c.575.255 1.267.395 1.913.58.064-.242.395-.216.334-.58-.828-.006-1.387-.277-2.082-.413.016.205-.13.256-.166.414m-63.618.58c.223.052.316.234.5.33.043-.232.122-.43.165-.662-.414-.08-.565.1-.665.33m59.543.662c-.31-.522-1.295-.806-1.83-.827.764.06 1.266 1.105 1.83.827m-57.963-.827c-.097.51-.292.922-.416 1.405 1.71.146 3.298.415 3.992 1.57.412-.196.668-.547 1.164-.66-.123-.466.068-1.006 0-1.654a40.986 40.986 0 0 0-4.74-.66m53.473.247c-.066.02-.096.07-.082.166.844.62 1.85 1.08 2.66 1.736.074-.2.465-.09.414-.414-1.12-.32-2.012-1.3-2.992-1.487m7.9.332c.592.32 1.518.31 1.914.826.01-.375.366-.403.33-.826-.583.104-1.956-.79-2.245 0m-63.618.496c.328.067.92.224.916-.248-.372-.023-.898-.248-.916.248m54.47-.082c-.008.155-.275.057-.25.247.166.077.396.27.582.083.42.772 1.82 1.688 2.745 1.157-.86-.662-2.092-.952-3.078-1.487m10.81.578c-.61-.11-1.396-.486-1.994-.33.596.138 1.643.972 1.994.33m-2.66.247c.13.464 1.234.64 1.662 1.076.17-.16.405-.26.415-.578-.7-.112-1.418-.616-2.078-.497m-7.152 1.738c.21-.096.57-.038.582-.33-.662-.472-1.54-.73-2.328-1.075.495.554 1.382.72 1.745 1.405m-1.412.662c.133-.115.426-.07.496-.25-.93-.563-1.792-1.19-2.83-1.65.655.754 1.68 1.14 2.333 1.9m8.064-1.24c.514-.04.713.23 1.248.164.186.008.475.612.5.25-.305-.33-1.277-.715-1.998-.91-.072.32.205.294.25.496m-12.14.083c.773.44 1.467.967 2.246 1.405-.027.112-.12.158-.084.33.29.1.718-.092.915-.33-.908-.487-2.12-1.52-3.078-1.405m-43.16-.083c-.334.164-.665.33-.998.496.59 1.115 2.512 1.354 4.074 1.736 1.21.298 2.367.98 2.745-.083-2.19-.472-4.273-1.047-5.824-2.15m53.805.578c.884.12 1.507 1.27 2.33.91-.452-.506-1.628-1.462-2.33-.91m-31.932.662c.234.538 1.154.395 1.58.744 1.576-.394 3.947-.55 4.656-1.57-2.076.285-4.08.866-6.236.826m19.875 0c.646.324 1.428.686 2.078.91v.33c.187-.064.454-.048.503-.248-.94-.666-2.19-1.02-3.16-1.654-.354.336.273.506.58.662m1.828 11.987c-.103-.115-.437-.004-.33-.33 1.577-.132 2.4-.883 3.327-1.57.61-.45 1.3-.785 1.662-1.405-.165-.167-.33-.332-.5-.496-.91 1.61-2.726 2.14-4.655 2.81-1.7.59-3.41 1.246-5.24 1.82-1.857.582-3.758.866-5.822 1.24-1.805.327-3.61.72-5.154.827-.653.044-1.614.238-2.163-.33 7.723-1.22 16.307-3.074 22.37-6.698-.294-.453-.817-.678-1.33-.91-.27.663-1.12.672-1.665 1.075-.236.175-.322.5-.582.662-.502.312-1.28.625-1.912.91-4.1 1.832-9.574 2.72-14.47 3.72-.65.132-1.253.596-1.83.08.23-.45.862-.257 1.247-.328.23-.043.438-.2.666-.25 6.466-1.372 13.546-2.977 17.964-6.282-.352-.203-.754-.354-1.082-.58-1.912 1.847-4.908 3.313-7.982 4.052-2.848.686-5.816 1.342-8.482 1.82-.705.126-1.828.528-2.162-.083 6.314-1.12 13.297-2.948 17.713-6.283-.84-.71-1.253.002-2.08.496-.505.302-1.062.565-1.413.745-.955.485-2.152 1.108-2.994 1.322-.21.054-.46-.035-.666 0-.58.1-1.146.638-1.828.413 2.716-1.018 5.317-2.153 7.565-3.637-.305-.083-.498-.275-.832-.33-1.62 1.032-3.283 2.024-5.322 2.645-.224.077-.392.132-.495-.082-.008.414-.812.663-.916.248.02-.607.767-.623 1.16-.744 1.784-.543 3.68-1.44 4.74-2.48-.302-.085-.51-.26-.83-.33-2.667 2.338-7.124 3.284-11.392 4.052-.37.065-1 .37-1.248-.084 1.61-.603 3.764-.716 5.488-1.323.312-.11.596-.404.914-.495 1.174-.337 2.06-.758 2.994-1.24.785-.405 1.455-.96 2.08-1.405-.877-.707-1.418.4-2.08.744-1.838.958-4.658 1.61-7.068 2.15-.77.172-2.023.6-2.494 0 1.55-.74 3.39-.64 4.988-1.074 1.932-.525 3.504-1.673 4.908-2.646-.945-.487-1.64.51-2.412.91-2.11 1.09-4.768 1.874-7.568 2.314.002 1.23.002 2.3-.082 3.06-.715.365-1.075 1.08-1.746 1.487-.027.443-.393.548-.5.91.36.194.645.464.748.91-.176.403-.476.685-.997.745.48.623.113 1.558.166 2.15-.54.014-.662.443-1.25.412.043.188.166.423 0 .578-3.56 1.148-8.208.587-12.14.247-.975-.084-1.836-.354-2.743-.496-3.318-.512-6.785-.714-9.398-1.9 1.37-.014 2.754.87 4.157.66-.222-.053-.52-.032-.666-.165 1.865.027 2.994.718 5.074.746-.218-.724-.872-.63-1.33-.992-1.89-.26-3.844-.67-5.656-1.075-.553-.124-1.328-.178-1.58-.745 2.467.697 5.558 1.384 8.15 1.158-.226-1.027-1.398-.757-2.41-.91-1.387-.21-2.954-.677-4.242-.992-.404-.098-1.05-.125-1.164-.577.517.084.778.265.915-.083 1.87.43 3.735.862 5.655 1.24.148-.156.06-.547.083-.827-1.99-.173-3.78-.54-5.572-.91.137-.333.192-.372.333-.577 1.96.33 3.603 1.256 5.905.99-.408-.647-1.468-.878-2.41-1.073-1.008-.21-2.28-.018-2.83-.744 1.072-.228 2.59.502 3.993.494-.04-.735-.66-.63-1.414-.66-.416-.018-.985-.24-1.414-.33-.493-.106-1.24-.032-1-.58.823-.21 1.93.45 2.747.248-.08-1.133-2.302-.137-2.33-1.322.605-.11 1.423.077 2.08.164.186-.812-.723-.668-1.164-.743-.555-.093-1.098-.107-1.415-.33.665-.02 1.83.158 2.66.25-.047-.862-.26-1.562-.248-2.482-1.002-.285-2.105-.554-3.077-.908-.916-.336-2.006-.72-2.495-1.488.564-.355.836.276 1.248.496 1.262.674 2.923.82 4.324 1.405.47-.25.97-.47 1.165-.992-2.18-.746-4.514-.848-5.99-2.315-.432.396-.56 1.095-.997 1.49-1.538.79-3.508 1.186-4.99 1.983-2.338 1.26-4.367 2.84-6.486 4.548-.79.634-2.78 1.755-2.828 2.73-.038.735.677 1.083.998 1.568 5.485 3.17 13.92 4.018 21.54 4.548 1.414.57 3.586.228 5.57.33 2.167.113 4.42.138 6.404.25 4.568.256 8.224-.595 12.224-.91 1.758-.14 2.877-.363 4.242-.578 2.49-.396 4.445-.856 6.402-1.49 2.137-.69 4.293-1.173 5.904-2.15.533-.32 1.277-.695 1.414-1.32-.588-.13-1.002.362-1.498.58-1.47.635-3.05 1.275-4.822 1.65.41-.583 1.473-.52 1.99-.997m-1.495-10.913c.178.326.77.866 1.082.33-1.06-.407-1.92-1.453-3.078-1.487.72.33 1.217.883 1.995 1.157m10.396-.826c.85.283 1.43.84 2.08 1.322.075-.145.308-.136.333-.33-.844-.202-1.556-1.602-2.412-.992m-56.8.91c-1.823.633.73-.094 1.25-.33-.247-.183.198-.622-.167-.746-.218.5-.7.74-1.082 1.076m35.844-.414c.346-.18.893-.16 1.164-.415-.392-.168-.89.2-1.164.414m9.98 1.156c-1.147-.318-1.655-1.274-2.827-1.57.583.786 1.667 1.902 2.828 1.57m-16.883-.33c.193.057.223.275.416.33-.023-.188.02-.31.166-.33 1.25-.217 2.385-.55 3.326-1.075-1.145.516-2.832.492-3.908 1.075m-19.127 2.233c-.03-.838 1.27-1.19 1.497-1.984.34.006.64-.44 1-.662.288-.182 1.076-.463.83-.414-.925.394-2.63.768-3.327 1.653-1.05 1.334-.12 2.552 1.164 2.894-.404-.484-1.144-.89-1.165-1.487m45.904-2.894c.667.468 1.75.52 1.995 1.404.256.062.16-.227.416-.165-.65-.46-1.585-1.76-2.41-1.24m-20.708.248c.266-.043.79-.26.666-.414-.2.158-.492.228-.666.414m21.54 2.148c.114-.19.413-.194.5-.413-.728-.464-1.49-1.33-2.497-1.24.52.694 1.713.723 1.996 1.653m-18.378-1.652c-2.04 1.357-4.56 2.247-7.484 2.728-.094.153.06.613 0 .992.26-.018.61.056.748-.083.21-.058-.2-.47.166-.494 2.748-.117 5.354-1.415 7.154-2.977-.236-.016-.347-.152-.584-.166m-6.902.743c.646-.13 1.266-.286 1.746-.578-.71.066-1.318.23-1.746.577m-19.792 1.902c.262.125.406.368.748.413.855-1.218 2.24-1.908 3.493-2.73-1.915.276-3.114 1.26-4.242 2.316m44.325-.414c-.746-.666-1.822-1.44-2.828-1.57.834.58 1.894 1.363 2.828 1.57m-4.408-.827c.787.594 1.773.99 2.494 1.652.108.105.308.105.415 0-.844-.55-1.818-2.16-2.91-1.653m-38.005 2.48c1.345.59 3.207.854 5.073.825 3.12-.048 6.836-.06 9.065-1.156-1.015.074-2.29.005-3.493.08-.663.043-1.682.514-1.996-.165 1.707-.302 3.19-.36 4.822-.66-1.513-.73-4.175-.508-5.904-.083-.514.127-1.343.726-1.497-.083 1.77-.784 4.705-.736 6.82-.91-2-.405-4.115-.01-5.738.414-1.515.394-2.6.477-3.326 1.32-.25.26.36.545.083.828-.71.276-2.015.058-2.662-.578-.182-1.367 1.302-1.518 1.414-2.314-1.092.622-2.347 1.083-2.662 2.48m37.923.165c-.516-.57-1.45-1.146-2.082-1.323.38.65 1.782 1.145 2.083 1.323m-21.373 1.818c.08-.72.473-1.656.084-2.398-.493.552-.365 1.726-.084 2.398m-21.04.662c.002-.195-.143-.243-.083-.497h.415c.014-.502-.23-1.12-.083-1.487-.356.052-.34-.27-.666-.248.31.702-.183 1.99.416 2.233m19.96 1.075c.088-.27.453-.266.58-.496-.318-.714.012-2.188-.332-2.646-.526.32-.526 2.165-.248 3.142m-5.573-2.563c-2.84.315-4.93.104-7.817-.083 2.167.852 5.417.48 7.817.083m-13.223.744c.19-.25.044-.717-.25-.743.056.277.23 1.687.25.744m35.593 0c.125-.156.766-.225.582-.413-.124.156-.765.227-.583.414m-34.844 2.07c.346-.016.694-.03.832.164-.256-.656-.042-1.646.166-2.315-.345-.125-.77-.173-1.163-.25.115.74.13 1.578.166 2.4m17.05-2.235c-.185.343-.784.27-1.166.413-.37.827-.02 1.95-.083 2.977.52-.116.623-.648 1.248-.662-.01-.99.388-2.01 0-2.728m-14.72 3.06c.51.07.963.198 1.496.247.075-1.12-.146-1.95-.416-2.728-.283-.077-.61-.11-.915-.166.053 1.015-.115 1.976-.166 2.647m10.978-2.233c.067.682-.41 2.136 0 2.894.464.037.837-.192 1.33 0 .1-.506-.126-1.07-.166-1.654-.034-.5.098-1.13 0-1.322-.25-.164-.775.107-1.164.082m-7.982.083c-.32.652-.68 1.687-.5 2.562.72-.194 1.096-.1 1.746.083.02-.956-.01-1.866-.165-2.646-.465-.037-.64-.094-1.08 0m2.326.166c-.076.948-.048 1.948.25 2.73.493-.185.938.016 1.497 0 .042-1.063-.084-1.957-.25-2.812-.256-.078-1.155-.194-1.497.082m2.994-.082c-.174.96-.1 1.814 0 2.728.443-.04.875-.19 1.58-.165.055-.964-.165-1.654-.166-2.56h-1.413zm21.54.413c.308.054.704-.23.58-.33-.14.164-.475.132-.58.33m-37.09 1.572c-.226-.033-.94-.337-.832-.165.212.066.6.39.83.165m.084 1.157c-.655-.178-1.328-.336-1.997-.496.438.336 1.427.564 1.996.495m7.15.66c-.817-.213-1.82-1.106-2.328-.66 1.154.92 2.68 1.245 4.49 1.653.624.14 1.337.377 1.914.414.896.054 2.05-.02 2.577-.25-.14-.164.008-.104 0-.33-2.282-.145-4.7-.316-6.652-.827m14.056-.413c.242.217.492-.062.582-.248-.182.095-.538.017-.582.247m-39.918 1.82c1.132.905 2.593 1.58 4.076 2.232 1.41.616 2.926 1.407 4.49 1.815 2.116.555 5.28.995 7.983 1.24 2.406.22 4.784.09 7.32.25 1.005.062 2.032-.053 3.076 0 7.762.383 16.274.21 23.95-1.157a116.52 116.52 0 0 0 5.986-1.24c2.212-.513 3.874-1.03 5.74-1.902 1.048-.492 2.507-.55 2.66-2.066-2.58 1.15-6.405 2.52-9.397 2.893-1.375.17-2.746.703-4.16.992-1.46.3-2.963.474-4.572.58-3.08.2-6.312.588-9.645.577-6.64-.02-13.442.396-19.71-.247-1.29-.133-2.702-.57-4.074-.744-5.478-.698-10.375-2.187-13.72-4.794v1.57zm36.59-1.076c-.026.195-.13.312-.083.58.593-.02 1.284.063 1.164-.66-.437-.05-.63.145-1.08.08m12.972 1.16c1.732-.152 3.143-.625 4.656-.993-1.668.215-3.265.5-4.656.992m-17.547 1.323c-1.304-.026-2.527-.423-3.825-.166 1.218.067 2.347.504 3.493.58 2.393.154 4.605-.37 6.486-.498.552-.038 1.22.21 1.247-.58-2.363-.105-4.91.71-7.402.663m38.752 14.715c-.12-.18-.162-.445-.332-.578-.078.328.28.65.332.578" fill="#456a5c" fill-rule="evenodd"/></g><g transform="translate(-96.327 -7.6)"><defs><path id="F" d="M84.852 1.867h127.625v252.07H84.852z"/></defs><clipPath id="G"><use xlink:href="#F" overflow="visible" width="289.423" height="257.314"/></clipPath><path clip-path="url(#G)" clip-rule="evenodd" d="M176.633 119.215v-.165c2.723 2.942 3.87 7.452 5.32 11.657-.11.962-2.305 1.608-2.578.66.215-.384.52-.178.916-.164.612-.246.43-1.283.833-1.736-1.158-3.754-2.652-7.173-4.49-10.252M140.374 128.144c-.61.302-1.477.034-2.412.083-2.608.137-5.777.227-8.566-.165-1.978-.277-4-.22-5.322-1.158.458-.525 1.25-.057 1.747.084 4.106 1.158 9.637.86 14.554 1.156M129.73 154.602c-1.18 1.374-1.906 3.13-2.247 5.21-.517 3.145-.126 6.906-.83 10.334h-.25c-.014-.097.018-.147.083-.166-.076-.11-.086-.6-.084-.992.023-4.07.3-7.692.75-12.65.255-.323.64-.52.665-1.073.688-.124 1.125-1.414 1.912-.663m-1.83 2.15c.017-.182.374-.446.165-.58-.003.197-.426.395-.166.58m-.25.743c.067-.13.315-.505.082-.66.017.213-.265.553-.083.66m-.5 2.316c-.087-.474.35-.86.084-1.24-.025.364-.343.868-.083 1.24M132.39 158.9c.23.71-.033 2.26-.25 3.06.3-.098.342.67 0 .827.217.252.075 1.404-.166 1.736-.084-1.18.116-3.756.166-5.456.142.002.215-.062.25-.166M131.974 165.433c-.3-.155-.015-.48-.166-.827.56.572-.094 2.114.166 2.73-.367-.348-.302-1.175 0-1.903M136.548 167.665c.387.048-.022.408.167.578-.38-.042.052-.378-.167-.578M131.89 168.326c.046.287-.23.697-.082.99-.254.192-.183-.93.083-.99M136.382 170.062c.236.06.298.59.333 1.076h-.333c-.232-.462.126-.746 0-1.076M167.65 172.543c.48.285.506 1.728.416 2.48-.587-.442-.068-2.102-.416-2.48M157.006 229.177c1.986.24 4.36-.56 5.988.084.73.726 1.492 1.9 1.412 2.978-.115 1.588-1.842 2.67-3.576 2.976-.504.09-1.062.02-1.58.082-.412.05-.75.26-1.164.33-2.857.504-7.394.354-10.394.332-.48-.004-.977-.174-1.414-.166-1.132.02-2.153.318-3.244.25-2.656-.172-5.68.155-8.732-.25-.073-.01-.677-.098-.665-.082-.1-.123.052-.088-.415-.083-1.09.012-3.76-.337-4.574-1.074-.195.025-.312.13-.583.083a4.522 4.522 0 0 0-1.247-.992c-.595-1.053.174-2.148 0-3.226.38-.475.758-.953 1.247-1.323 1.83-.553 3.853.19 5.738.332.94.07 1.872.022 2.827.164.23.035.42.226.665.25 1.31.13 2.85-.135 4.242-.166 1.83-.04 3.464.088 4.74.166 3.74-.11 6.703-.185 10.394-.578.085.11.228.162.25.33.264-.06.11-.222.086-.415m-.998.496c-.252.02-.498.144-.748.166-4.16.373-9.137.263-13.556.247-1.412-.005-2.905.25-4.157 0-.175-.035-.24.102-.417.083-2.812-.294-6.276-.938-8.73-.58-.785.6-.985 1.78-.916 3.226 1.104 2.068 4.476 1.8 7.068 2.397.484.11 1.015.13 1.58.166.625.038 1.304.225 1.83.246 3.463.142 6.967-.155 10.562-.083 3.667.072 7.235.037 10.313-.413 1.54-.537 4.758-.763 4.99-2.812.115-1.032-.566-1.998-1.164-2.73-2.145-.275-4.905-.063-6.655.085M118.17 234.22c.015-.093.082-.045.082 0 .072.017.08-.03.083-.082 1.34.197 2.83.953 4.49 1.322 1.573.35 3.59.332 4.74.993-.738.278-1.52-.135-2.327-.25-2.6-.363-5.263-.925-7.07-1.982M180.707 235.875c-.67-.352-1.22.335-1.748.578-1.79.82-3.862 1.35-5.987 1.983-4.137 1.233-8.566 2.114-13.473 2.646-1.777.193-3.39.48-5.322.497-2.442.02-5.74.434-7.9.082.286-.314 1.647-.318 2.828-.33.997-.012 2.084.12 3.076 0 2.17-.267 4.207-.663 6.736-.828 3.488-.228 7.438-.91 10.98-1.818 4.2-1.08 7.997-1.97 10.476-4.05.605.12.97.75.416 1.155.334.085.504.328.666.58-.748.864-1.91 1.28-2.994 1.82-5.29 2.636-12.676 3.844-19.71 4.3-1.882.12-3.75.543-5.653.577-1.84.033-4.442-.06-6.156.083.485-.683 2.493-.326 3.576-.414.45-.037.858-.27 1.248-.33 1.612-.26 3.335-.157 4.99-.33 3.474-.366 6.69-.823 9.895-1.323 5.425-.85 10.206-2.343 14.054-4.878M136.512 114.136c.346-.022-8.797-.154-11.31-2.066v-.248c.066-.016.082-.084.165-.083 3.22 1.258 6.434 1.514 10.146 1.982.297.174.77.173 1 .414M130.893 116.322c2.005.436 4.002.047 5.405.08-.04.374-.57.26-.665.58-3.88-.176-7.504-.304-10.645-1.322-.04-.26.224-.218.25-.413 1.865.543 5.827 1.025 5.655 1.075M102.036 192.468c-.146-.075-.29-.153-.25-.413-.1.23-.183.478-.415.58-.913.053-1.576-.144-2.08-.498.08-.418.13-.863.418-1.074.49-.103.277.496.582.578.75-2.405.917-5.045 1.33-7.687.405-2.578 1.095-5.214 1.166-7.854.014-.494-.15-.99-.167-1.488-.055-1.728.413-3.658.748-5.54.33-1.865.566-3.804.748-5.623.47-4.693 1.107-9.13 1.747-13.312.068-.446.012-.887.083-1.322.185-1.152.543-2.188.665-3.392.15-1.486.97-3.356 1.166-5.042.134-1.163-.248-2.374-.167-3.555.06-.893.122-2.168-.584-2.73-.244-.193-1.01-.185-.914-.58.86-.505 2.18.557 2.827 1.077.618 3.266-.446 6.92-.333 10.17-.526 1.665-.5 3.463-.75 5.29-.204 1.508-.598 3.312-.914 5.043-.394 2.16-.747 4.006-.998 6.615-.44 4.564-1.472 9.313-2.163 14.055-.793 5.438-1.052 11.046-1.746 16.7m5.654-45.39c-.033-.396.372-.784.084-1.156.018.38-.323.833-.084 1.157m-.83 6.45c.124-1.558.728-3.08.582-4.63-.375 1.31-.58 3.227-.583 4.63m-2.246 9.59c.292.064.194-.682.083-.744.066.342-.128.424-.083.745m-.25 6.2c.384-1.05.58-2.73.582-3.886-.258 1.23-.39 2.59-.582 3.885m-1.414 5.044c-.086-.337.256-.675 0-.908-.003.25-.223.71 0 .91m-1.745 14.882c.125-.318.422-.9.25-1.24-.096.35-.494.83-.25 1.24M134.385 142.282c-.025.112-.208.07-.332.083 1.288.21 1.676.204 2.994.166-.614.424-1.5.29-2.163.248-2.162-.134-4.195-.812-6.403-1.074-.167-.17.037-.163.084-.33 1.802.11 3.877.663 5.82.908M128.648 142.612c2.913.246 5.27 1.046 8.315 1.16-.62.443-2.15.378-3.492.245-1.83-.18-3.99-.29-4.822-1.073v-.332zm4.407 1.076c1.32.104-.428-.218-.75-.25.056.228.523.232.75.25M176.05 231.244c.132.006.317-.04.333.082-.123.565-.88.53-1.332.662-2.51.738-5.808 1.622-8.895 1.736 1.498-.837 3.562-.674 5.404-1.158 1.05-.275 2.694-.656 3.825-.99.228-.068.414-.24.666-.332M144.282 240.835c-.317.338-1.048.324-1.497.33-.453.006-1.142-.03-1.58-.247-1.552.422-3.122-.13-4.575-.248-4.402-.365-8.506-.8-12.64-1.735-.015-.097.017-.15.082-.167 6.566.622 14.3 2.193 20.21 2.067M113.096 240.587c2.195.514 4.468 1.565 6.403 2.23.52.18 1.262.19 1.912.414.422.146.876.537 1.248.58.216.026.383-.115.582-.082 1.78.3 3.562.584 5.738.827-5.04.27-10.805-1.85-15.884-3.638.14-.164-.008-.105 0-.33" fill="#456a5c" fill-rule="evenodd"/></g></svg>