<svg xmlns="http://www.w3.org/2000/svg" xmlns:xlink="http://www.w3.org/1999/xlink" width="203.057" height="211.039" viewBox="0 0 203.05699 211.03855"><g transform="translate(-39.003 -14.57)"><defs><path id="B" d="M22.468 14.563h235.275v228.19H22.468z"/></defs><clipPath id="C"><use width="289.423" height="257.314" xlink:href="#B" overflow="visible"/></clipPath><path d="M147.074 16.356a.686.686 0 0 1 .41.41c-.033.512-.56.53-.955.68-.472-.57.234-.873.544-1.09M154.568 16.902c.588-.05.527.34.41.682-.425.062-.437-.292-.41-.682M150.073 18.13c.3 1.023-1.6 1.886-2.59 1.226-.145-1.438 1.73-1.603 2.59-1.227M165.337 19.63c-.33.29-1.068.16-.955-.41.334-.294 1.008-.102.955.41M142.44 19.9c.043.543-.262.74-.817.683V19.9c.47.112.575-.253.817 0M167.653 23.72c-.066-1.042-.723-2.274-.682-3.272 1.62-.537 3.18 3.142.683 3.272M140.805 21.4c-.877 1.086-1.674 2.953-3.68 2.456.02-.16-.03-.243-.137-.273.247-1.57 2.234-1.4 2.726-2.727.637-.09.785.307 1.09.545M152.523 20.856c.557-.057.86.14.818.682-.32-.003-.4.234-.817.136-.185-.174-.185-.644 0-.818M144.075 21.947c.265 1.337-1.892 1.81-2.316.818.32-.665 1.46-1.547 2.315-.818M151.025 24.128c-.218 1.327-.906 2.184-2.18 2.455-.317-1.195.82-2.922 2.18-2.455M171.876 23.856c.408.002.465.354.818.41-.176.18-.18.507.137.545-.39.354-.58.778-1.226.546.215-.665.035-.713 0-1.363.16.022.243-.03.272-.137M169.15 25.083c1.07.212 1.905 2.817.274 3 .013-.75-.355-2.005-.273-3M132.764 26.174c-.112.797-.602 1.217-1.363 1.363-.367.97-1.487 2.103-2.724 1.364 0-2.162 1.866-3.666 4.088-2.726m-2.998 1.773c.22-.825 1.61-.48 1.77-1.364-.897.058-1.944.687-1.77 1.364M137.943 26.583c.147.034.093.27.272.273-.07.52-.486.695-1.09.682.188-.174.084-.644.27-.818.22-.012.522.065.548-.137M174.058 26.856c.002.638-.447.824-.953.954-.502-.742.367-1.704.953-.954M175.284 26.583c1.264.18 2.29 2.856.818 3 .254-1.35-1.097-1.78-.818-3M134.4 27.265c.022.916-.954 1.46-1.772 1.09-.038-.975.97-1.378 1.77-1.09M164.382 27.947c.066 1.065-.758 1.242-1.363 1.636-2.863-.505-.144-3.747 1.362-1.636M126.222 28.628c.478 1.813-.255 5.33-2.726 4.636-.175-2.092.838-4.157 2.726-4.636M167.517 29.174c.28.174.69.217.682.682-.243.12-.35.38-.82.272-.193-.42-.06-.613.137-.954M175.01 29.31c.034 1.17-.073 2.198-1.226 2.182.035-1.068.203-2.537 1.227-2.182M135.9 29.855c.05.87-.5 1.14-.82 1.636-.644-.217-1.27-.452-1.634-.953.456-.785 1.8-1.204 2.453-.682M131.674 31.9c-.32.044-.512.217-.954.138-1.485-1.757 1.876-2.717.954-.137M177.192 31.083c-.184.635-.242 1.395-1.227 1.227-.42-.9.542-2.172 1.227-1.227M127.995 31.083c.77-.172.583.76.27.955-.108-.072-.22-.143-.407-.136-.098-.418.14-.498.137-.82M145.71 31.22c-.163 1.15-1.334 1.88-2.59 1.5.198-1.143 1.788-1.805 2.59-1.5M168.335 31.628c-.186 1.133-.97 1.667-2.318 1.636-.194-1.35 1.662-2.452 2.318-1.636M137.67 31.765c.092.915-.48.727-.954.818-.42-.6.34-1.284.954-.818M159.34 32.446c-.788.024-.886.968-1.907 1.09-.264-.436.08-.687-.137-1.226.77-.06 1.506-.29 2.043.136M163.7 32.583c.123.622-.227.773-.273 1.227-.736.16-1.355.187-1.635-.41.367-.61 1.16-1.793 1.908-.817M172.558 32.72c.117 1.87-1.166 3.55-2.588 3 .297-.912 1.218-3.607 2.588-3M130.04 33.265c-.18.048-.215.24-.41.272-.436-.018-.6-.31-.545-.818.512-.286.943-.04.954.545M175.42 33.265c.33 1.226-.534 2.807-1.907 2.318-.426-1.323.718-2.623 1.908-2.318M136.307 35.583c-1.46-.176-2.696-.575-2.86-2.045 1.527-.968 4.618.534 2.86 2.045M127.72 34.765c-.12.06-.242.12-.27.272-2.456-.01.237-2.735.27-.272M139.17 34.355c.188.358-.38.927-.955.954.075-.303-.26-.195-.272-.41-.063-.68.938-1.022 1.227-.545M132.492 36.4c-1.44 1.206-2.876-.38-3.543-1.227.457-1.13 4.12-.81 3.542 1.228M158.66 37.628c-.077-.243-.073-.566-.274-.683.48-1.118 2.975-.745 3.95-1.09.69-.243 2.54-2.206 2.864-.41.215 1.198-2.496 2.912-3.953 2.864-.85-.028-1.72-.624-2.588-.682m1.09-.818c.286.575 1.29.434 1.77.818-.13-.857.863-.59 1.09-1.09-.994.184-1.99.307-2.86.272M122.68 37.083c-1.633-.034-.544-3.138.545-2.045.098.85.176 1.714-.546 2.045M126.222 38.583c-.38.44-1.493.553-2.18.272-.618-1.357-.155-3.47.954-3.954 1.346.285 1.34 2.355 1.226 3.683M140.124 36.673c.426 1.25-.543 1.406-1.5 2.045-.785.526-1.16 1.236-1.635 1.228-1.198-.023-1.105-1.328-1.228-2.864.99-1.068 3.215-1.664 4.362-.41m-3.135 2.047c.57-.522 1.314-.866 2.18-1.09v-.684c-1.072-.853-2.6.445-2.18 1.773M128.13 36.128c.2.3.414.586.41 1.09-.3.156-.558.354-1.09.273-.215-.526-.315-1.645.68-1.362M134.81 36.264c.347 1.726-1.058 2.38-2.454 1.91.195-1.182 1.293-2.142 2.453-1.91M141.758 37.355c-.483-.016-.548-.452-.545-.955.65-.868 1.432.7.545.955M167.925 36.537c.05.686-.4.873-.953.955-.54-.65.36-1.44.953-.955M172.286 36.537c-.008.538-.28.81-.818.818-.59-.47.193-1.25.818-.818M153.07 37.492c-.186 1.326-1.605 2.104-2.998 1.772-.1-1.53 2.074-2.587 2.998-1.772M130.72 37.492c-.065.57-.405.867-1.09.818.056-.33-.25-.296-.137-.682.226-.228.8-.108 1.227-.136M144.757 38.446c-.342.273-1.072.063-.954-.545.393-.324.984.027.954.546M165.2 37.9c-.023.16.03.243.137.273-.098.584-1.463 1.055-1.502.136-.014-.58.936-.706 1.365-.41M170.378 37.9c-.018.938-.508 1.4-1.498 1.364-.53-.96.55-1.896 1.498-1.363M158.93 38.173c.118.11.08.374.272.41-.008 1.082-.826 1.354-1.77 1.5-.888-1.022.005-2.123 1.5-1.91M149.39 38.72c-.292.308.177.6-.272.817.175.416.817.364.818.955-.146.625-2.492 1.673-2.998.41.245-.937.943-1.42 1.09-2.456.675-.27.813.103 1.363.273M167.925 38.31c-.406 2.06-2.645 2.973-4.498 3.136-1.096-1.724 3.138-2.298 4.498-3.136M142.85 39.127c-.385 1.07-1.11 1.8-2.59 1.773-1.792-1.34 1.754-3.442 2.59-1.773M128.95 39.264c-.074.935-1.803 1.34-2.182.41-.266-1.092 2.047-1.388 2.18-.41M134.4 38.992c.132.743 0 1.452-.41 2.318-.685-.223-1.6-.217-2.18-.545-.23-1.22 1.232-2.536 2.59-1.773M155.25 39.537c.258 1.14-1.78 1.1-1.36-.136.5-.097.872-.07 1.36.137M155.795 42.537c-.338.02-.422-.214-.68-.273-.062-.797.3-1.128.545-1.91 2.087-.52 1.097 1.748.135 2.183M144.62 40.9c-.03.422-.482.426-.816.545-.115-.158-.18-.365-.137-.682.183-.185.952-.26.954.137M154.705 41.855c-.342 2.25-3.482 1.696-4.906 2.863-.83-.26-.936-1.754-.546-2.454 1.564-.216 1.882-1.906 3.68-1.5.084.87 1.17.74 1.77 1.09M141.077 42.264c-.756 1.01-2.448 1.39-3.68 1.228-.887-.118-1.686-.727-2.588-.818-.267-2.757 3.36-1.734 4.495-.682.777-.107 1.394-.486 1.772.272M147.074 41.718c.423.17.767.415.817.955-.263.664-1.83.807-1.906-.136.194-.442.784-.488 1.09-.82M145.3 42.946c-.177 1.048-.937 1.516-1.906 1.773-.638-.41-1.144-.947-2.18-.956.19-2.35 3.036-1.974 4.087-.818M116.274 78.125c.156.758-.744.995-1.227.683-.02-.85.898-.872 1.227-.683M123.497 78.808c1.7 2.026-1.578 2.072-2.316 3.27-.753.165-.99-.188-1.36-.407-.08-2.258 1.74-2.618 3.677-2.862M113.003 79.353c-.096.827-1.58 1.775-2.18.818.39-.776 1.578-1.37 2.18-.817M118.727 79.216c.314-.04.152.395.408.41-.27.316-.406.773-1.09.682.004-.32-.234-.402-.135-.82.508-.132.8.154.817-.272M129.358 81.26c.057 1.99-2.44 2.076-3.136 2.865-1.554-1.814 1.165-3.844 3.136-2.864M110.005 81.807c-.3 1.745-1.312 2.78-2.453 3.682-3.063-1.022.78-5.364 2.453-3.683M125.132 82.216c-.062 2.158-2.952 3.746-3.815 1.637.17-1.538 2.84-3.032 3.815-1.637M128.676 84.26c0-1.522 2.682-1.608 2.59-.68-.075.742-1.467 1.024-2.59.68M189.185 83.307c.844.314 1.322.38 1.908 1.09.11.793-.72.645-.955 1.092-.414-.604-1.305-1.24-.953-2.183M120.635 83.99c.01.6-.326.854-.682 1.09-.428.064-.36-.366-.682-.408.027-.765.788-1.236 1.365-.683M137.943 83.99c-.008.9-.554 1.263-1.363 1.363-.4-.268-.083-.96 0-1.5.585-.014 1.034-.31 1.363.136M115.866 84.26c-.03 1.243-.84 1.707-1.908 1.91-.06-.26-.294-.342-.272-.682.368-.73 1.125-1.612 2.18-1.227M125.678 84.807c.138 1.002-.637 1.09-1.5 1.09-.51-.588.533-1.637 1.5-1.09M149.254 86.17c-.518.528-1.053 1.037-1.77 1.364-.376-.353-1.176-.28-1.364-.818.35-.833 1.142-1.222 1.5-2.045.952.093 1.33.76 1.634 1.5M109.733 84.944c1.26.514 2.56.406 2.59 1.772.042 2.043-3.958 3.403-4.226.955-.145-1.336 1.18-1.818 1.636-2.726m-.41 3.545c.238-.01.425.03.547.135a.633.633 0 0 1 .136-.408c-.237.01-.424-.03-.546-.137.006.187-.064.3-.136.41M118.455 85.08c.51.405.305 1.06.136 1.772-.997-.12-1.44.043-2.45-.272.517-.882 1.087-1.67 2.315-1.5M120.908 85.49c.003.566.05.675.682.817.005.94-1.374 1.134-2.044.954.197-.846.53-1.556 1.362-1.77M106.735 86.307c-.385 1.796-.928 3.436-2.045 4.5-.653-.437-1.297-.884-1.635-1.637.838-1.478 1.518-3.868 3.68-2.863M143.258 86.307c-.175.69-.05 1.68-.545 2.045-.765-.08-.996.06-1.5-.136.19-.628.41-1.228.545-1.91.746-.04.918-.366 1.5 0M133.99 86.17c-.16.244.2 1-.408 1.09a1.364 1.364 0 0 1-.954-.953c.29.224.662-.348 1.363-.136M151.707 86.307c.156.93-.377 1.17-1.226 1.09-.438-.73.44-1.607 1.227-1.09M139.987 86.444c-.83 1.117-2.138 2.352-3.543 2.454.48-.495-.186-.473-.408-.954 1.05-1.327 2.374-1.157 3.95-1.5M188.503 86.444c.354.175.428.28.273.682-.316.043-.523-.022-.682-.137-.118-.44.354-.284.41-.546M130.856 87.26c3.193.186-2.122 3.745-2.453 1.5-.105-.71 1.404-1.56 2.453-1.5M116.274 87.944c-.69 1.138-2.05 1.898-3.135 2.863-.93.824-2.175 2.464-3.68 1.77-.095-.685.23-.95.136-1.635 1.738-1.362 3.783-4.513 6.678-2.998M168.743 88.76c-1.086.15-2.037.104-2.045-1.09.89-.357 2.125.03 2.045 1.09M186.187 87.807c.072 1.3-.828 1.626-1.635 2.045-1.72-.748.185-3.264 1.635-2.045M181.688 88.08c-.273.906-.207 2.155-1.498 2.046-.136-.867.3-2.886 1.498-2.046M163.02 89.443c-.077.127-.38.207-.138.273-1.125.34-2.367-.107-2.86-1.092.684-1.485 2.31.543 2.997.82M107.96 89.035c-.34.57-.68 1.137-1.498 1.227-.725-.92.854-2.773 1.5-1.227M118.59 88.352c.36-.04.108.53.545.41-.006.556-.828.81-1.226.545-.042-.588.557-.533.68-.955M190.003 93.26c-.55-1.044.178-2.498-.273-3.544 2.257-3.074 3.626 3.714.273 3.545M194.09 88.76c.655-.083.35.378 1.09.41-.04.913-.175 1.733-.952 1.91-.438-.546.125-1.376-.137-2.32M148.982 89.58c-.132.64-.82.727-1.5.818-.192-.42-.06-.613.137-.955.58.076.974-.534 1.362.137M139.17 89.716c.192.86-.28 2.027-1.364 2.045-.182-.68-.517-1.21-.817-1.77.666-.1 1.48-.65 2.18-.274M109.324 90.125c-.34 1.69-3.122 6.553-3.27 1.5 1.507.6 1.817-2.924 3.27-1.5M129.084 89.99c-.052.506.553.355.41.953-2.398 1.102-5.994 2.388-8.86 1.364 2.162-1.763 5.36-2.848 8.45-2.318M117.092 90.125c-.105 1.98-1.816 3.44-3.68 2.454-.296-1.735 1.92-2.775 3.68-2.455M171.604 89.99c.275.18.46.447.545.817-.366.27-.673.6-1.364.545-.254-.242.11-.347 0-.818.22.177.637-.27.818-.545M186.73 90.943c.4-.3.67-.424 1.228-.272.982 1.243-1.37 1.957-1.227.273M119.818 91.625c-.265.752-1.723 1.178-1.772 0 .212-.482 1.705-.955 1.772 0M132.22 92.17c-.395 1.38-1.778 1.768-2.317 3-.736-.037-1.242-.305-1.5-.818.025-2.29 2.02-3.933 3.816-2.182M142.713 91.625c-.13 1.043-.742 1.23-1.363.954-.142-.986.752-1.513 1.363-.955M177.464 91.49c-.092 1.883-2.107 3.992-3.133 2.18.618-1.303 1.67-2.056 3.134-2.18M182.507 91.49c.764.008.268 1.277.408 1.907-.492.12-1.326 1.438-2.453.955.174-1.465 1.336-1.936 2.045-2.863M170.24 93.67c-.913.142-2.106.287-2.997 0 .322-.31.264-.496-.27-.546.47-1.332 3.225-1.15 3.268.546M134.945 93.534c-.688.617-1.664 2.137-3 1.228.14-1.134.895-1.652 1.364-2.454.732.22 1.237.67 1.635 1.226M137.125 92.58c.12.848-.64.813-1.227.954-.71-.634.42-1.484 1.227-.954M195.044 92.852c.123 1.306-.537 1.825-.68 2.863-1.268.102-2.22 1.82-3.27.546.468-1.53 1.68-2.315 2.315-3.68.593.042 1.114.157 1.634.272M125.95 94.352c-.025.326 1.225.573 1.77.818-.31 1.116-1.76 1.86-2.997 1.227-.004-1.004.097-1.903.955-2.045-.12-.336-.604-.306-.546-.818.34-.68 1.593-.952 2.453-.682-.022.16.03.243.136.272-.044.867-1.41 1.13-1.77 1.228M178.556 92.715c.217.236.412.497.953.41-.12 1.4-.878 3.016-1.772 3.545-.44-.33-1.053-.492-1.363-.955.72-1.007 1.542-1.91 2.18-3M112.323 96.534c-.49.464-1.035.873-1.227 1.637-1.867-.018-3.797-1.217-3.68-2.727.084-1.093 1.24-1.12 1.635-2.182 1.685.5 2.03 2.334 3.273 3.274M124.178 94.352c-1.385.494-3.18.52-4.77 1.09a3.236 3.236 0 0 1-.545-.545c-.184-.23.39-1.81.817-1.636 1.527.62 3.797-.722 4.498 1.092M117.91 93.534c.755 1.127.07 3.126-1.636 3-.74-1.465.38-2.706 1.637-3M162.474 94.215c-.184.815-.445 1.555-1.09 1.91-1.64-.62.16-3.476 1.09-1.91" clip-path="url(#C)" fill="#456a5c" fill-rule="evenodd"/><path d="M114.502 93.943c.11.072.22.143.408.137.093.645.186 1.245.273 2.182 1.32.834 1.424 1.853 2.727 1.772.164-.01.328-.267.27-.272-.07-.008.283.407.41.41.162 0 .91-.32 1.09.407-1.696 1.81-6.024.825-6.678-1.228.71-.925.48-2.793 1.5-3.41M108.37 98.99c-2.862.38-5.123-3.36-2.726-4.91 1.075.623 1.425 2.635 2.18 3.954.21.363.764.395.546.955M112.73 94.215c.58.164.477.884.41 1.364-.32.042-.513.214-.954.135-.49-.365-.113-1.947.545-1.5M154.297 94.49c.62-.075.703.88.27 1.09-.64-.046-.577-.755-.27-1.09M189.05 94.49c.72.003.688.764.953 1.226-.4.67-1.326 1.714-2.182 1.09-.046-1.228 1.052-1.31 1.23-2.317M151.707 95.443c-.2.8-1.004.994-1.226 1.772-.98-.02-2.066.895-2.725 0 1.006-1.253 2.037-1.88 3.952-1.772M175.42 95.58c.058.954-.815 2.524-2.18 2.045-.077-1.412.863-2.482 2.18-2.045M121.317 95.99c-.044.728-.63.913-.955 1.362-.74.06-1.105-.257-1.498-.546-.056-1.158 1.82-1.58 2.453-.817M122.134 95.58h.68c.688.63-.397 1.293-.952.682.057-.262.388-.248.272-.682M136.853 95.99c-.507.77-.712 1.2-1.363 1.635-.372.1-.274-.27-.545-.272-.216-1.338.96-2.002 1.908-1.364M166.835 96.125c.215.675-.033 2.154-.137 2.864-.77.237-1.188.168-1.908.27-.166-1.385.29-3.225 2.045-3.135M158.112 96.67c-.033 1.01-.8 1.292-1.227 1.908-1.338-.465.386-2.356 1.227-1.908M181.688 96.534c.14.09.14.313.41.272-.19.833-.705 1.99-1.77 1.5-.1-1.144.958-1.13 1.36-1.772M103.873 97.08c-.294.523-.874.76-1.5.954-.824-.727.99-1.997 1.5-.955M184.688 96.806c1.17 1.453-.84 2.755-.955 4.227-3.146 1.852-6.02 3.977-10.492 4.5 1.06-3.268 5.765-4.023 8.448-5.59 1.268-.778 1.93-2.16 3-3.137M124.178 96.943c1.635 2.51-2.295 3.41-4.088 4.227-.316-.183-.512-.488-.682-.818.76-2.054 2.27-3.47 4.77-3.41M129.494 96.943c.18.05.214.24.41.272.017.7-.34 1.026-.955 1.09-.062-.12-.12-.242-.273-.27.04-.596.492-.78.817-1.092M128.13 97.215c-.022.16.03.243.136.273-.258 1.175-1.086 1.167-1.907 1.227-.496-1.047.574-1.737 1.77-1.5M187.958 97.49c.355.69 1.102.988 1.363 1.77-1.02.673-2.114.8-3.134 1.228-.2-1.262 1.028-2.233 1.772-3M133.31 97.625c.49-.087 1.263.416.817 1.228-.395-.288-.852-.512-.818-1.228M113.413 99.806c-1.008.628-2.2 1.07-3.68 1.227-.455-.616-1.047-1.994-.546-2.727.75.07 1.087.55 1.91.546.755-1.414 2.378-.57 2.316.954M145.575 98.034c1.773.267 3.102.146 4.225.818-1.286 1.036-4.03 2.437-4.633-.137-.146-.507.51-.215.408-.68M154.16 98.034c.252 1.437-1.596 4.25-3.135 2.59.672-1.237 1.477-2.34 3.135-2.59m-1.637 2.59c.236-.128.225-.503.682-.408-.422-.477.656-.603.273-.954-.203.482-1.1.985-.955 1.363M191.638 98.034c-.02.158.03.243.137.272-.12.604-.895 1.14-1.5.818-.028-.844.59-1.046 1.363-1.09M163.292 98.306c1.734 1.675-.8 3.198-1.77 3.274-.837-.808.743-1.96.68-3.274.555-.112.47-.02 1.09 0M178.282 98.715c.03.578-.398.693-.545 1.09-1.394-.263-.55-1.857.545-1.09M142.85 98.58c.328 1.27-1.145 1.75-2.045 1.09.3-.244.898-.19.682-.954.595.095.767-.232 1.363-.137M160.294 98.58c.76 1.58-1.258 2.95-3.408 3.135-.798-1.255.693-2.407 2.316-2.726-.16-.758 1.078-.196 1.092-.41M132.22 99.67c-.975 1.343-1.575 3.06-3.817 3.136-1.223-1.078 1.452-2.874 2.317-3.955.323-.403 1.382.805 1.5.82M175.42 98.852c.708 2.226-1.626 3.722-3.815 3.955-2.46-2.012 2.51-3.244 3.816-3.955M129.084 99.534c-.73.95-1.748 1.613-2.862 2.18-.002-.996-.91-1.086-1.362-1.635.847-1.316 3.125-.594 4.224-.546M108.642 100.897c-.334 1.376-1.808 2.263-2.998 1.636-1.134-2.112 2.336-4.325 2.998-1.636" clip-path="url(#C)" fill="#456a5c" fill-rule="evenodd"/><path d="M118.455 100.08c-.065 2.06-3.448 1.067-5.18 1.364-.032-2.6 3.594-1.463 5.18-1.365M185.778 101.033c-.4.055-.46.447-.818.547-.77-.127-.703-.97-.408-1.5.97-.263 1.09.168 1.226.953M124.723 101.033c-.157.8-1.168 1.232-1.908 1.91-.895.82-2.045 2.87-3.95 2.318-.642-.187-.582-1.077-1.09-1.5-.787-.653-1.75-.03-2.046-1.09.755-.91 2.665-.985 3.542-.41 2.213.1 3.657-1.79 5.45-1.227M149.254 100.897c.987.17 1.808 1.332 1.635 2.728-1.474.145-3.01.963-4.226 1.77-1.31-1.134 1.116-2.26 2.18-2.726-.053-.646.045-1.14.138-1.638.167.154.28.12.272-.135M147.346 102.533c-.684.445-1.976.877-2.316-.137.138-1.406 2.256-1.312 2.316.137M143.53 101.443c.328.672.265 1.344-.136 1.908-.43-.065-.48.247-.954.138-.37-.904-.128-2.285 1.09-2.045M108.506 103.078c.25-.385.21-1.06.545-1.363 1.27-.064 3.087-.332 2.863 1.23-.197 1.37-2.492.987-3.407.133M112.594 101.715c.87.607 2.068.09 2.727.955-.565.66-1.325 1.13-2.316 1.363-.207-.722-.55-1.498-.41-2.318M155.115 101.988c.043.953-.59 1.23-1.227 1.5-.428-.3-.777-.678-.684-1.5.728-.04 1.347-.55 1.91 0M184.688 101.715c.164.426.316.865.27 1.5-.74.533-1.24 1.305-2.315 1.5-.527-.615.266-1.25-.137-2.182.647-.353 1.02-.98 2.182-.818M163.02 101.988c-.747 1.432-.067 4.055-2.046 4.5-.39-.918-.014-1.367 0-2.455-.44-.33-1.086-.457-1.225-1.09-.095-.55.57-.336.544-.818 1.254.303 1.725-.334 2.725-.137M127.176 102.943c-.033 1.22-.193 1.475-.545 2.318-1.196-.03-2.24-.212-3.134-.546.022-2.42 2.165-2.886 3.68-1.77M165.2 102.67c.102 1.658-1.94 2.162-1.908.818.014-.57 1.047-1.478 1.908-.818M153.07 104.44c1.38 1.222 3.565-3.044 3.952-.544.14.898-2.96 3.867-3.544 3.818-1.412-.116-.302-2.288-.408-3.273M160.02 103.896c.095 1.05-.548 1.832-1.226 1.773-1.69-.145-.29-3.186 1.227-1.774M169.288 103.488c.244-.018.287.166.545.137.05.87-.227 2.03.408 2.727-.837 1.38-2.282 2.828-4.224 1.637.05-2.017 2.772-2.49 3.272-4.502M172.286 103.896c.162 1.164-.393 1.607-1.09 1.91-.135-.186-.363-.273-.547-.41-.094-1.162.697-1.775 1.636-1.5M138.215 104.44c.17.9-.156 1.013 0 1.774-1.058.396-2.023-.043-2.726-.408-.407-1.927 1.81-2.31 2.725-1.365" clip-path="url(#C)" fill="#456a5c" fill-rule="evenodd"/><path d="M141.487 107.033c.002.32-.236.402-.137.818-.533-.08-.79.118-1.09.274.627 1.082-.676 1.854-.273 2.727-.518.255-1 .544-1.5.82-1.364-.68-.787-3.304-2.997-3.138.022-2.113 2.065-1.188 3.544-1.363.115-.997-.064-2.657.27-3.274 1.183.184 1.48 1.25 1.5 2.592.242.166.553.266.683.545M143.394 104.852c.663-.062.856-.598 1.5-.682.48-.074.335.482.817.408 0 2.334.27 3.77-1.636 4.5-.763-.19-1.092-.816-1.226-1.635-1.03-.652-1.522-1.842-1.908-3.137.795-.986 1.72.247 2.454.546M116.956 104.17c.238.398.496.775.545 1.363-1.358.912-2.976 1.566-5.177 1.637-.587-.703-.546-1.248-.546-2.592 1.75.736 3.684-.93 5.18-.408M122.68 104.578c.293.97.2 2.19 0 2.73-.563.374-.99.104-1.636.27-.228-.637-.772-.953-.683-1.908.828-.242 1.482-1.31 2.32-1.092M129.494 104.44c1.22 1.405-1.07 4.08-2.59 2.73.936-1.01 1.327-2.777 2.59-2.73M110.823 105.807c-.133.004-.105.166-.136.27-.358.144-.837.165-1.363.138-.22-.326-.448-.64-.41-1.227.56-.697 2.148-.453 1.91.82M152.115 105.262c-.06 1.027-.844 1.334-1.363 1.908-1.872-.535-.162-3.033 1.363-1.908M163.972 109.352c-.816-.32-1.988-.283-2.316-1.092 1.6-.998 2.03-3.594 4.227-2.998.055 1.564-1.036 3.015-1.91 4.09M177.464 105.262c.248.947.11 2.504-1.36 2.727-.522-.253-.91-.638-1.364-.956.52-.925 1.515-1.98 2.724-1.772M125.678 106.625a4.237 4.237 0 0 1-1.5.27c-.207-.382-.646-.534-.545-1.226.71-.883 1.884.074 2.045.955M135.354 106.215c.02.432-.362.455-.273.955-2.09 1.303-4.483 3.338-7.085 3.27 1.203-1.43 1.65-2.864 2.59-4.634 1.86 1.114 3.4-.562 4.77.41M148.3 105.67c.142 1.086.845 1.61.954 2.727-.54.07-.965.53-1.363 0-.36.273-.33.94-.816 1.092-1.713-.664-.628-4.166 1.226-3.82M159.884 106.352c.074.482-.22.598-.408.818.453.283.59-.717 1.363-.545.905.72.397 2.588-1.09 2.453-.513-.5.108-1.465-.41-1.77-.41.46.09 1.68-.817 1.907-1.318.006-2.51-2.8-1.5-3.273.36-.168.455.252.818.273.704.043 1.74-.527 2.044.137M156.34 107.307c-.486 1.783-1.48 3.062-3.135 3.682-.75-.745-.465-.94-.408-2.183 1.98.377 1.812-2.082 3.543-1.5M114.366 108.125c-.105.12-.146.307-.136.545-.585.332-1.17.244-1.772 0v-.818c.578-.426 1.59-.288 1.908.273M151.98 108.26c.05 1.143-.218 1.965-.68 2.592-2.01-.336-1.41-3.346.68-2.592M142.985 108.533c0 1.47.326 1.842-.136 3-.967.266-1.397.754-2.318.137.512-1.22.61-4.14 2.453-3.137M113.413 116.033c-.022.158.03.242.137.27-.365.858-2.44 1.735-2.862.548.393-.715 1.66-1.217 2.725-.817M187.958 116.986c.234 1.123-1.246 1.938-1.635.818.3-.52.955-1.09 1.635-.818M120.362 118.215c.786.293 1.55-.314 1.908.682-1.29-.057-3.135.934-3.815-.137.467-.04 1.66.097 1.907-.545M169.425 124.486c-.256-.41.604-1.06 1.225-.953.15-1.418 3.484-.986 4.225-2.592 1.084.298.107 1.25-.135 1.774-1.328.533-2.383 1.342-3.543 2.045-1.9-.487-3.363 2.02-5.725 2.317.406-.855 1.174-.982 1.635-1.227.642-.34 1.134-1.055 2.318-1.364M100.465 132.668c.496.412 1.087.73 1.227 1.5-.97.123-1.643-.676-1.227-1.5M164.382 132.94c-.832.95-2.668 1.59-3.816 1.772-.256-.26.08-.246 0-.682.908-.026 2.07-1.116 3.816-1.09M132.083 135.123c-.822.424-2.002.77-2.86 1.5-.204-.162-.61-.12-.546-.545.655.02.556-.717.953-.955.68.23 1.68-.674 2.453 0M110.55 140.85c1.368-1.266 3.296-1.975 4.634-3.27-2.51.278-3.685-2.09-5.86-.548-.607-.545-.95-1.025-2.044-1.09-1.305-.078-3.533 1.074-3.543-.955 2.212.89 5.037-.26 6.813 0 1.314.19 2.32 1.53 3.952 1.908 1.395.322 2.983-.447 4.633-.27.438.046.668.306 1.092.407.912.22 2.334.23 3.406.273.676.027 1.168-.117 1.908-.137-.048.18-.24.215-.27.41-1.338-.016-2.885.48-4.635.408-1.17-.05-2.348-.604-3.27-.408-2.262.475-4.27 3.74-6.815 3.272M149.254 137.986c-.012.707-.51 1.402-1.636 1.363.13-.977.924-1.73 1.636-1.364M141.213 152.576c-.058.285.094.36.137.545-.93.903-2.963.552-4.77.683-1.273.094-3.686.318-5.314.137-1.01-.11-2.195-.508-3.135-.682-1.01-.188-2.478-.152-2.59-1.227.11.026.137.138.273.136 1.97-.182 5.52.725 8.858.684 2.64-.034 4.856-.207 6.543-.274M147.346 153.668c-.887.205-1.76.256-2.453 0 .432-.742 2.277-1.438 2.453 0M138.488 155.713c-2.147.465-6.4.266-8.177-.818.92-1.238 2.855-.086 4.5 0 1.345.068 3.48-.733 3.678.818M193.954 167.303c-.887-.04-1.195-.05-1.77-.545-.718.1-1.157.48-1.09 1.363-.312.19-.513-.35-.546 0-.295-1.772 2.892-2.188 3.406-.817M180.735 166.895c-.404 1.414-2.396 2.418-3.406 3.682-.522-1.205 1.358-1.184 1.36-2.318.813-.326 1.145-1.13 2.045-1.365M54.675 203.438c-.357.328-.865.19-1.362 0-.28-.995 1.62-.905 1.362 0M57.81 203.438c-.29.424-1.307.314-1.5-.137.27-.546 1.547-.78 1.5.138M66.123 203.71c-.668.91-2.262-.034-3.27-.136-1.25-.127-2.147.29-3.136 0 .17-.33.558-.44.954-.547-.163.18-.052.215 0 .41 1.833-.347 3.497-.42 5.453.274M49.36 207.39c-2.686.55-7.237.167-10.357.41 1.337-1.747 5.036-.25 7.495-1.09.786.32 1.31.524 1.908.136.112.388.986.013.954.545M65.17 208.89c-.286 1.3-2.007.98-2.863.956-4.146-.113-7.125-.203-11.584 0-1.404.064-3.37.318-4.497-.273 1.014-.992 3.613-.39 5.452-.545 4.632-.39 10.184.072 13.49-.137M54.266 211.62c-.314.29-1.78.522-2.044 0-.008-.927 2.098-.936 2.044 0M86.974 216.254c-.786.74-2.02.236-3 .137-1.7-.17-3.332.06-5.314.138-2.344.092-4.717-.31-6.95-.273-1.403.023-2.804.04-4.09-.27.9-1.17 3.155.31 4.362-.41 4.213.48 8.067-.124 12.947.272.716.057 1.625-.204 2.044.407M237.43 216.8c-4.112.067-8.83.733-11.858.546.58-1.215 3.105-.822 5.314-.955.72-.042 1.605-.017 2.182 0 1.5.046 3.523-.667 4.36.41M223.528 217.482c-.4.682-1.535.37-2.182.408-7.19.436-14.193.953-20.85.41-1.574.537-4.465-.033-5.86.682-.392-.383-1.493-.055-1.772-.547.195-.89 1.682-.273 1.908-.816 2.723.59 5.195-.128 7.904 0 3.213.147 7.732-.16 11.584-.274 2.082-.062 4.275.11 6.404 0 .91-.047 2.3-.617 2.864.136M191.638 218.436c-3.105.834-7.43.547-11.31.547-9.294 0-16.632-.344-26.85-.547-1.656-.03-4.86.033-4.77-.953.1-.13.25-.207.41-.273 3.29.348 6.995-.186 10.357.137.564.053 1.096.355 1.635.408 1.805.178 3.67-.074 5.45 0 6.825.287 14.93.512 21.806.273 1.035-.038 2.354-.292 3.272.408M97.875 217.754c.265 1.14-1.367.932-1.635.41-2.47.537-5.915.176-7.904.27-.233.013-.255-.075-.272-.27-3.357.727-6.856.562-11.312.545-.885-.005-2.213.354-2.453-.546 2.777-.13 6.19-.174 8.72.137.26-.386 3.358-.673 3.68-.136 4.022-.996 7.25.285 11.175-.41M104.553 218.71c2.516-.812 4.377.042 7.496-.546-.103.42.374.262.272.682-.182.137-.508.13-.546.408-3.633-.78-7.186-.148-11.584-.545-.133-.796.814.01.683-.546 1.167.63 3.148-.338 3.678.545M147.62 219.527c-.445 1.188-2.868.65-4.635.818-4.103.39-8.912.318-13.355 0-5.41-.39-11.16-.648-15.535-1.23-.04-.218.13-.233.136-.407.11-.025.137-.137.273-.137 3.496.132 6.667.51 8.858.546 1.367.023 2.76-.383 4.09-.27 1.215.1 2.3.425 3.543.407.475-.006.982-.275 1.5-.27.61.003 1.16.366 1.77.407.964.064 1.965-.29 3-.273 1.85.035 3.773.398 5.722.41 1.697.01 3.58-.574 4.634 0M232.386 219.117c-1.098.605-4.672.89-5.723.273.852-1.058 4.21-.574 5.723-.273M224.753 219.664c-.338.71-.893.154-1.36.135-3.946-.16-8.958.468-13.493.546.674-1.205 3.082-.68 4.77-.818 2.768-.227 6.158-.406 8.86-.41.346 0 1.37-.313 1.223.546M108.915 219.664c.48.29 1.458.086 1.363.955-.85.257-.964.145-1.908-.138.105-.123.146-.31.137-.547.273.047.425-.027.408-.27M162.474 220.21c-.47.958-1.697.17-2.453.136-3.226-.148-6.998.043-10.492 0 .236-.28-.103-.268.135-.547 2.08-.243 3.812-.142 5.18.136.978-.34 2.46-.203 3.95-.137.437.02.966.282 1.364.272.772-.017 1.87-.875 2.317.137M100.33 220.072c-3.797.78-9.675.348-14.446.273.702-.707 1.958-.396 2.862-.41 2.87-.037 5.87-.24 8.45.41 1.22-.515 2.333-.4 3.134-.273M104.282 219.8c1.234.417 3.164-.34 3.952.683-1.993.01-2.778-.053-4.36-.137-.202-.52.607-.028.408-.547M100.74 219.936c1.147.475 1.96-.096 2.997.41-1.223.145-2.023.383-3.27 0 .087-.14.312-.14.272-.41M207.446 220.072c.06.26.293.344.27.682-.517.488-1.37-.39-1.77 0-.375.06-.127-.508-.408-.545.486-.274 1.33-.106 1.908-.138M196 220.346c-1.157.588-2.073.26-3.544.137 1.576-.462 2.318-.356 3.543-.137M197.907 220.754c-.312.213-1.324.213-1.637 0v-.545c.48-.233 1.838-.34 1.637.544M192.32 220.482c-4.005.658-9.435.498-13.356.682.133-.97 1.426-.824 2.045-.818 1.23.01 2.628.2 3.95.137 1.545-.074 2.863-.53 4.225 0 .95-.327 2.095-.344 3.134 0M146.256 221.572c-.034.148-.27.092-.272.273 1.42-.365 3.66.02 5.178 0-3.798.54-8.28.094-12.947 0-7.626-.156-16.857.27-26.166-.682-.085-.123-.165-.244 0-.273 8.128.39 21.377.27 29.845.545 1.33.044 2.593.33 4.36.137M229.796 221.572c-.432 1.176-1.146.316-1.906.273-2.578-.146-5.38.295-7.633.27-.21 0-.475-.276-.682-.27-2.365.05-4.195.59-6.678.408-1.05-.076-2.066.066-2.998.137-.396.03-1.138.578-1.364-.137 6.135-1.104 12.63-.428 18.81-.953.743-.064 1.762-.355 2.45.272M151.3 221.572h1.497c-.018.244.168.287.137.545-.438.264-.81-.113-1.363.137.102-.42-.468-.166-.27-.682M103.873 221.846c.482-.074.335.482.817.408-.488.693-.963.803-1.77.41.21-.38.65-.53.953-.818M169.696 222.527c-.11.79-1.078.71-1.635.408-2.01-.322-4.554-.346-6.813-.27-.71.022-1.553-.02-2.045-.41 2.646-.856 5.996.187 8.86.136.623-.01 1.152-.472 1.634.137M106.87 222.936c-.035-.535.786-.24 1.092-.27 2.207-.237 4.998-.144 7.63.134 3.628-.52 8.09.867 11.994-.27.137.18.225.41.41.544.077.67-.862.32-.956.818-.305-.148-.592-.316-.953-.408-7.61-.132-15.212-.627-19.216-.548M190.548 223.072c.516.523-.76.658-.41.137-4.898.722-10.5.55-15.672.136-1.02-.082-2.23.418-2.998-.273.795-.75 2.035-.238 3.135-.137 3.59.336 9.79.365 13.9 0-.428.543 2.11-.215 2.045.136M204.585 222.936c-.213.854-.89.605-1.635.41.154-.748 1.002-.787 1.635-.41M137.67 222.8c.18.4.6.015.817.546-.147.918-.98.29-1.5.27-1.917-.06-4.536.35-6.54-.27 1.598-.996 5.31.765 7.223-.547" clip-path="url(#C)" fill="#456a5c" fill-rule="evenodd"/></g><g transform="translate(-39.003 -14.57)"><defs><path id="D" d="M39.002 14.564h203.06V225.61H39z"/></defs><clipPath id="E"><use width="289.423" height="257.314" xlink:href="#D" overflow="visible"/></clipPath><path d="M202.405 223.072c-.385.8-3.564.17-4.635.273 1.157-.478 3.827-.322 4.635-.273M175.284 224.846c-.11 1.254-1.223.6-1.908.545-3.008-.24-6.88.218-9.268-.136-.037-.31.033-.512.273-.545 2.532-.276 6.196.425 8.995.27.747-.04 1.32-.64 1.91-.134M233.612 159.53c-.178 1.292-1.346 2.427-1.363 3.954-.02 1.777 1.22 3.828 1.636 5.59.37 1.576.29 3.94.27 5.182-.01.576.294 1.143.274 1.637-.105 2.738-.398 5.176-1.09 7.91 1.64-.764 3.467-1.008 4.904-1.91 1.447-.906 2.45-2.232 3.816-2.727-.145 1.047-.78 2.695-1.227 3.545-.217 1.915-2.29 22.32-15.945 28.772.96.396 3.756-.514 5.316 0-1.04.963-2.77.68-4.36.818-1.774.152-3.34.578-4.77.682 2.825.016 6.83.03 10.22-.273 1.018-.09 2.37-.718 3.135.136-1.55 1.086-4.41.574-6.27.682-7.01.404-13.032 1.234-19.626 1.637 7.996.71 17.29-1.072 27.258-1.5.77-.033 1.863-.55 2.45.273-.948.816-2.077.328-3.132.408-6.426.484-12.865 1.46-19.354 1.637-4.387.12-8.635-.064-13.49.408-4.488.44-9.875-.25-15.537 0-3.618.16-7.153-.288-10.63.138-2.227.273-4.582.87-7.633.682-5.033-.31-10.213-.613-15.265-.682-5.998-.082-12.79-.176-19.214-.408-.838-.03-1.642.326-2.453.27-2.17-.142-4.647-.913-6.814-.817-1.304.06-4.035.71-5.04.547-3.468-1.025-7.82-.512-12.13-.682-4.138-.166-8.557-.623-12.674-.547-8.59.16-19.73-.376-29.437-.817-1.054-.047-2.212.37-3.136-.408 1.792-.496 3.806-.393 5.724-.273 7.837.494 15.98.682 24.53.682 3.792 0 6.215.207 8.586.137-2.202-.704-4.566-1.202-7.223-1.226-11.73-.11-26.068-.453-37.204-1.5.223-1.215 1.607-.584 2.18-.547 4.368.29 7.396.143 11.72.684 6.878-.33 11.965.147 17.31-.546.187-.404-.932-.242-.955-.27-.003-.007.17-.267.137-.274-.858-.195-2.74-.21-4.36-.27-3.993-.16-9.462.106-14.583-.41-.436-.046-1.452.327-1.5-.546 5.68-.305 13.03.498 17.31-.41-6.798-.283-18.486-1.248-26.848-1.5a47.043 47.043 0 0 0-2.862 0c-.752.023-2.092.613-2.453-.408 3.594-1.002 7.766.11 11.857.27 1.925.077 3.98.015 5.997.138 2.185.135 4.226-.43 6.27-.408 1.637.018 3.41.264 4.496 0-1.486-.717-3.897-.277-6.132-.273-.964.002-1.896-.367-2.726-.408-4.087-.21-8.88-.633-13.356-.818-.634-.027-1.4.354-1.908-.273.042-.766 1.08-.498.954-.137 1-.172 1.32-.162 1.77.273.857-.23 1.195-.34 2.318.137 4.618-.723 9.856.12 14.99-.818-2.11-.71-6.24.313-7.358-.954 1.043-.855 2.29-.096 3.816-.273-2.443-1.53-6.54-.88-9.812-1.092 1.336-1.468 4.378-.19 6.405-.68-1.478-1.237-3.036-1.884-4.087-3.272-.3-.398-.367-.95-.682-1.365-1.165-1.53-3.02-1.793-3.814-3.135-.404-.682-.597-1.314-.955-1.773-.41-.525-1.018-.752-1.498-1.363-2.98-3.793-2.987-10.695-1.09-15.27.848-2.048 2.003-4.003 2.862-6.41 1.616-4.528 3.348-8.94 7.223-11.317 2.104-1.293 4.818-1.916 6.678-3.273 1.752-1.277 3.294-2.916 5.18-4.227 3.072-2.137 7.123-3.617 11.583-3.408.662-.5 1.94-.697 2.59-.137-.18-.973-1.247-1.008-1.91-1.637-.356-.34-.5-1.05-.953-1.635-.348-.455-.966-.81-1.227-1.23-1.99-3.202-3.593-7.802-3.27-11.315.417-4.566 3.202-7.9 5.723-11.318 2.723-1.982 5.664-3.53 8.86-4.908 3.07-1.324 5.53-3.842 8.585-5.045-3.74-2.486-6.666-5.785-9.13-9.546-1.74-5.51-.978-13.444 2.588-17.18.935-.752 2.247-2.065 3.952-3.138.132-.082.422-.176.545-.272.348-.27.465-.833.818-1.09.585-.427 1.818-.71 2.86-1.228 1.476-.734 2.03-1.137 3.953-1.637 1.11-.287 1.993-.698 3.545-.816-2.25-1.23-4.627-2.263-6.405-4.228-.754-.833-1.245-1.938-1.908-2.863-.354-.493-.905-.842-1.227-1.364-.912-1.482-1.4-4.483-1.227-6.41.29-3.208 1.466-6.37 3.135-8.454 2.423-1.913 5.22-3.824 8.448-5.045 1.103-.416 1.993-.417 2.864-.954.924-.57 2.05-1.55 3.27-2.182-.513-.917-1.624-1.112-2.316-1.91-2.555-2.938-2.715-7.905-.682-11.59.1-.308.576-.24.818-.408-.153-.165-.39-.248-.273-.682.35-.333.576-.79.683-1.364 1.434-1.62 3.48-2.172 4.906-3.545 2.708-.876 5.67-1.81 8.312-3.272 1.696-.938 3.075-2.39 4.906-3.545 1.99-1.255 7.017-2.51 10.766-2.318 1.617.083 3.19.464 4.77.68 5.948.82 9.733 2.1 13.356 5.046.768.625 1.4 1.326 2.18 1.91 1.336 1 3.807 2.065 4.77 3.41 1.342 1.867 1.27 4.995.547 7.362-.252.822-.297 1.053-.818 1.91-2.308 3.787-6.985 8.177-11.585 9.68 7.104 1.367 12.568 4.288 17.99 7.908.676 1.12 1.592 2.08 2.725 2.864 1.328.92 3.186 1.153 4.36 2.318 1.606 1.592 3.177 5.303 1.91 8.454-.503 1.247-1.79 3.15-3 4.5-1.1 1.23-2.59 2.938-3.68 3.682-.448.306-1.054.418-1.5.682-1.888 1.12-3.427 2.66-5.313 3.136 1.176.953 2.756.48 4.225.954.625.202 1.154.844 1.77 1.092 1.485.598 2.948.73 4.362 1.363.637.287 1.186.928 1.908.82 3.85 2.755 8.59 5.37 7.494 11.59-.734 4.18-5.285 8.857-8.723 11.18-1.412.956-3.037 1.515-4.223 2.454 1.7.934 3.033 2.236 5.04 2.863 1.925 1.44 3.15 3.574 4.636 5.455 1.926 4.31 2.062 11.918 1.36 18.27-.056.507-.62 1.896-.952 2.864-1.146 3.338-2.617 4.998-4.906 7.227-.81.79-1.414 1.812-2.043 2.318-2.29 1.84-4.914 3.1-7.088 5.046 3.396 2.027 8.674 2.94 9.95 7.5 2.675-1.59 3.854-4.084 5.585-6.408.734.947 1.686 1.678 2.455 2.59 4.113 2.11 7.004 5.447 8.45 10.23 1.024-.997.003-3.308 1.226-3.956 1.246 1.607 2.902 3.252 3.814 4.77 2.018-1.208 3.357-3.095 5.588-4.09 3.265-1.332 11.064-.557 14.587-2.733M168.606 19.9c-2.432-1.217-4.72-3.26-8.04-3.137-5.44-1.8-13.276-1.602-17.99.682-4.37 3.172-9.352 5.733-15.127 7.5-3.647 2.143-5.573 6.672-6.134 11.454.336.118.402.506.682.683.04.268-.185.27-.273.41.676.368.98 1.11 1.77 1.362v.955c.62.644 1.056.538 2.183.41.385.296 1.065.87.816 1.362.926-.107 1.344.292 1.908.546.014-.424-.43-.39-.27-.955.457-.086.696-.392 1.36-.273.095-1.08.92-2.288 1.91-1.636-.23 1.5-1.314 2.14-2.182 3 1.127 1.17 3.65-1.738 4.497.41-.34.358-.09.517-.41.954 2.216.084 4.93 1.056 7.497.41 1.23.738 2.54 1.655 4.496 1.5.167-.24-.148-.952.137-1.364 1.1-.82 3.83-.405 2.59 1.363.747.486 1.357.31 2.316.136.057-1.256 2.585-2 2.998-.273.507.097.587-.232 1.093-.136.283-.206-.523-.467-.41-.955 1.62-.6 2.858-1.316 3.952-2.592.738-.857 1.643-2.363 3.27-1.5.292 2.343-1.126 2.13-2.315 2.863-1.14.702-2.037 1.958-3 2.046 1.158-.296 2.398-.51 3.953-.41.053-.505-.55-.355-.408-.954.436-.69 2.646-1.443 3.135-.41-.002.772-.79.755-1.227 1.092 1.297.116 1.863-.498 2.725-.818.818-1.46 2.18-3.072 4.09-3 .82.03 1.545.844 1.908-.273-.385-.025-.582-.237-.547-.682.33-.656 1.14-.56 1.77-.27.592-.636.986-1.47 1.227-2.455 3.123-.775 5.773-4.33 5.043-8.59-.064-.383-.674-.822-.408-1.364-1.934-2.656-5.252-3.926-7.633-6.135.075 0 .155-.11 0-.137-.31-.176-.772.027-.954-.816M125.27 45.945c1.025.91 2.34-.707 3.542-.41-.63-.838-2.88-.05-3.543.41m2.043.955c.387.205.896.285 1.363.41.85-.923 2.127-1.177 2.998-1.773-1.398-.024-3.232.666-4.36 1.363m3.134.818c.62-.077.85.242 1.498.137.352-1.194 1.924-1.167 2.59-2.046-1.438.56-3.06.937-4.088 1.908m35.57-1.773c-1.26 2.352-4.6 1.81-7.495 1.91-2.995.103-6.224.068-8.723.272-8.385.685-19.68 2.08-26.03-2.045-1.88.935-4.534 1.1-5.995 2.455 1.484 3.01 5.087 2.953 8.72 3 2.628.034 5.33-.002 8.042.545 3.32.67 6.476 1.39 9.13 1.636-4.872.37-10.364-1.34-14.99-1.228-1.356.034-2.674.59-3.952.682-3.807.276-7.85-.81-8.994-3.818-2.228.7-5.016 3.48-3.27 6.41.932 1.56 4.902 3.6 7.36 4.09 7.987 1.596 16.55 1.222 24.666 1.09.997-.015 2.028.162 3.27.137 3.105-.06 6.976.317 10.086.274 3.186-.044 6.023.602 9.676-.136 5.963-1.205 13.28-2.5 13.22-8.864-1.44-1.38-3.204-2.43-5.18-3.272-.694 3.554-2.993 4.826-5.587 6.545-2.462 1.63-3.808 2.47-7.087 3-1.87.302-4.014.705-5.996.818-6.08.346-11.79-1.142-16.217-1.364 2.098-.8 3.105-.118 4.633-.408.007.188-.063.3-.135.41.398-.243.46-.187.817-.273 1.126.622 1.448.247 2.86.408 2.582.294 6.02 1.092 9.405.137.277.04.363.273.545.41-.012-.314.016-.342.273-.41 1.09-.288 2.3-.15 3.27-.41.617-.164 1.068-.602 1.77-.817 1.112-.34 2.556-.422 3.546-.818 1.076-.432 1.805-1.4 2.86-1.636 1.42-1.807 3.974-2.48 3.952-5.727-.41-.453-.96-.766-1.635-.955-.218 1.714-1.575 2.958-2.724 3.955-1.93 1.672-4.48 3.35-7.225 3.682.54-1.275 1.935-.978 2.864-1.364 1.814-.756 2.8-2.413 4.36-3.682.114-1.302.804-2.332.272-3.545-1.75-.21-2.695-1.135-4.36-1.095m-31.753 1.91c.566.018.028.09 0 .272 1.374-.242 2.57-.693 3.68-1.5-1.433-.326-2.548.803-3.68 1.228m3.952.136c1.304.124 2.186-.175 2.726-.817-1.014.167-2.117.243-2.725.818m4.362-.272c.406.19.834.16.953-.273-.43-.02-.822-.004-.953.273m33.252 12.408c-4.874.83-9.812 2.58-15.265 2.182-2.928-.213-6.16-.346-8.995-.41-5.675-.125-11.916.584-18.125.82-3.212.12-5.938-.697-8.723-1.228-3.89-.742-7.507-1.18-10.22-3-1.618-1.085-3.002-2.77-3.68-4.636-.29.53-.618 1.018-.818 1.636.976 4.9 5.3 6.407 10.493 7.227 2.09.33 4.384.372 6.54.682 2.362.338 4.693.552 6.952.817 4.065.477 8.41 1.558 12.81 1.91 8.736.697 16.22.05 24.258-1.5 3.803-.735 8.318-1.953 11.72-3.137 1.876-.654 4.032-3.26 3.136-5.318-1.525-.383-2.227-1.593-3.27-2.455-.92 3.308-3.33 5.125-6.405 6.273-.053-.27-.702-.262-.41.136m-63.372 3.137c1.533.436 3.09.556 4.36 1.227.33.056.298-.25.683-.136 3.23 1.502 6.287.85 10.903 1.09.912.048 2.192.195 3.27.683.62-.536 1.556.623 1.908 0-.098.598.272-.11.273.272-.083.007-.16.02-.136.136 3.03.085 5.015.98 8.586 1.363 0 .18-.24.124-.272.27 2.747.11 5.37.66 8.995 0-12.302-2.21-25.3-3.706-37.476-6.135-.677-.643-1.77-.866-2.046-1.91-.896-.21-1.624-1.987-2.18-1.635-.21.427-.266 1.008-.273 1.636.842 1.342 2.51 1.856 3.408 3.137m12.674 5.727c.535-.027 1.24-.432 1.636-.41.408.025 1.086.36 1.635.41.717.064 1.085-.147 1.5.273 1.543-.166 2.596-.166 3.68.545 1.952.01 1.443.333 2.997.273.197.326.207.335.41.41 4.327.658 8.76 1.268 13.083.955 2.478-.18 4.738-1.11 6.813-.818-.17-.642.76-.215.955-.273 2.8-.734 6.35-.59 8.722-.682 1.236-.047 1.844.398 2.998.41.2 0 .46-.264.682-.274.723-.032 1.613.198 2.316.137 2.842-.246 5.658-1.714 9.13-2.182 1.726-.775 2.91-2.088 5.044-2.455.672-.642 1.895-1.32 2.59-1.5-.053.015-.2-.05-.137-.137.977-1.32 3.084-3.966.273-5.316-.057.645-.074.622-.137 1.364-1.337 2.424-3.77 3.087-5.995 4.227-.68.347-1.29 1.03-2.045 1.364-.93.41-1.996.768-2.998 1.09-3.086.99-6.488.633-9.947 1.228-1.908.327-3.9.957-6.133 1.09-1.924.116-3.842-.48-5.725-.272-2.847.312-5.43.82-7.905.818-5.72-.006-10.666-1.636-16.08-2.318-3.124-.393-6.347-.07-9.404-.136-6.407-.138-10.623-1.887-14.037-4.91-.495 2.45 1.155 3.69 1.772 5.455 1.725 1.465 5.332 2.845 7.088 2.863 1.9.02 6.222.454 8.994.818 6.8.896 11.193 3.88 17.17 3-.195.24-.124.312.273.273 2.043-.393 4.674-.154 7.63.408 2.86-.38 5.99-.95 9.405-1.092 1.123-.046 2.373.308 3.543.273 1.756-.053 3.402-.297 5.18-.41 3.32-.212 7.54-1.542 10.63-2.182.003 0 .294-.095.407-.137 1.49-.547 2.89-2.09 4.635-3 2.457-1.276 5.188-1.5 5.45-3.953-2.093 2.368-5.317 2.397-7.903 3.954-.666.4-1.086 1.228-1.77 1.637-.82.49-2.144.955-3.272 1.364-1.17.425-2.2.31-3.27.546-1.013.224-1.77.607-2.454.682-4.838.527-10.62.188-14.854.272-3.407.067-6.802.666-10.085.682-7.05.034-12.152-2.327-18.262-3.955-.513.327-2.098-.05-3.27-.136-.442.446-3 .324-3.136 0 .713-.45 1.29-.224 2.18-.27m57.92 3.546c-2.47 1.062-5.412.914-8.857 1.363 1.355.305 2.338.183 3.543.68 4.54-.328 10.232-2.45 11.584-5.726-2.555.364-4.012 2.71-6.27 3.682m-58.055 1.772c2.025.32 4.115.28 5.996.817 1.988.567 3.71 1.38 5.587 1.772 1.847.387 3.738.758 5.588.955 3.84.408 7.987-.37 12.13-.955 6.947-.98 15.754.388 21.53-1.363-2.626-.537-5.14.25-7.63.137-2.512-.114-4.854-.63-7.496-.408-2.693.225-5.274 1.357-8.042 1.228-.992-.047-1.99-.396-2.998-.41-1.677-.02-3.33.553-5.042.683-5.562.422-8.268-1.258-12.675-2.318-2.37-.57-5.09-.695-7.494-.954-2.5-.27-4.776-.724-7.087-1.227 2.02 1.07 5.007 1.628 7.634 2.045m25.484 9.953c.31.078-.165.214.138.41-.48.266-.932.43-1.5.273-.396-.194-.205-.976-.682-1.09-.886-.295-1.182 1.177-2.452.953-.364-.136.18-1.18-.41-1.09.08 1.45-3.537 1.654-2.18-.683-1.05-.695-1.712.63-3.27.818-.184-.635-.92-.716-.818-1.636-1.475-.784-2.325.66-3.952.545.106.56-.21.7-.137 1.227-2.027 1.442-4.18 2.805-7.086 2.455.1-.278.428-.54.136-.818 1.25-.664 2.482-.46 3.816-.954.482-.836 1.445-1.19 2.045-1.91.32.334.253-.203.682-.136-.09-.77.295-1.067.544-1.5-.867.047-1.707-.653-2.453-.272.58-.125.583.327.546.818-.486.98-3.155 1.02-3.135-.41.724-.488 1.522-.356 2.182-.682-.585.016-.458-.268-1.226-.27-.42.487-1.18.637-2.045.68-.177-.458-.138-1.133-.544-1.363-1.368.04-1.703 1.115-3.135 1.09-.185-.633-.895-.738-.817-1.636-1.804-1.12-4.635-.26-7.086-.137-.398-.282-.48-.885-.41-1.637-1.905-.318-3.74 1.578-5.04.137-.755.52-1.757.79-2.454 1.364.357 1.29-1.672 2.463-2.727 1.908-.617.94-2.12 1.063-2.316 2.182-.008.052.533.666.545.818.084 1.094-.92 1.763-1.908 2.318-.412.004-.13-.687-.544-.682-.128.51-.647.626-.682 1.228.27.23.844.156 1.092.41.285 1.55-1.35 2.26-2.59 2.727.166.275-.42.993 0 1.636.274-.814 1.058-1.122 1.77-1.5.497.21.366.686.138 1.092 3.79-.062 1.827 6.244-1.227 5.454.266.916.55 1.812.817 2.728.79-.255 1.296-.794 2.452-.682 1.703 1.27-.14 2.75-.816 3.954.71 1.754 4.234.234 4.77 1.91-.143.447-.7.482-1.09.682-.257 1.656 1.677 1.875 3.27 1.5.28.29.803 2.13.41 1.77.98 1.093 2.733 1.448 4.088.548-.456-2.074 3.932-3.41 4.634-1.5-.645 1.264-2.948.867-3.135 2.59 1.404-.334 2.425-1.834 4.36-2.045.453.41.467 1.263.955 1.638-.27.64-1.286.53-1.5 1.227 1.053.357 1.75-.416 2.59-.682.42-2.03 3.3-1.98 4.906-1.09-.172 2.047-2.877 2.09-3.543 2.863 1.552.713 3.485-1.605 5.18.135-.007-1.644 2.204-2.378 2.59-1.226.352 1.057-.972 1.057-.818 1.773-.43-.215-.6.074-1.09.137.18.586.048.963-.273 1.363.633.043.908-.273 1.498-.273-.197-.91 1.085-1.38.545-1.773 1.3-.644 2.71-1.007 3.68-1.362-.376-.98-1.437.322-2.316.137 0-.137-.11-.162-.137-.273.057-1.17 1.156-1.297 2.316-1.363.574.983 1.81 1.837 1.908 2.862 1.117-.393 2.023.928 2.727.273-.548 1.367-1.907 1.277-2.997 1.908-.68-.553-1.293-.44-1.908.137 3.193.47 4.518-.934 6.27-1.908 1.953.803 2.27-1.982 3.406-2.863.395.24.638.634.818 1.09-.38 1.093-1.67 1.784-1.363 3.136.888-.197.638-1.086 1.772-1.227-.79-1.71.47-2.897 2.044-3.274 1.27.322 1.39 1.793 2.045 2.727-.67.967-2.712.56-3.68 1.23 3.007 1.394 3.602-1.796 6.406-2.046.63.7-.044 1.537-.272 2.182 1.008.034 2.723.585 2.998-.683-.623.398-1.057.658-2.043.408-.146-1.986 1.742-2.936 2.588-4.363.2.074.707-.16.684.137.018.603-.322 1.83.273 2.452-.498.55-1.25.84-1.5 1.637 1.8-.2 1.805-2.194 2.59-3.41.393.017.893-.075 1.09.138.066 1.523.38 2.8.818 3.953.648-.077 1.203-.247 1.36-.817-.376-1.135-1.82-1.887-1.36-3.408.98.082 1.475.09 2.45-.137 1.315.822 1.714 2.56 3 3.41.315-.188.76-.24.683-.818-2.96-.49.44-4.28 1.77-2.047.136 1.137-.638 1.36-1.09 1.91 1.104-.03 1.167-1.105 2.18-1.23-.626-2.653 2.843-3.608 3.954-4.09 1.184 2.208-2.312 3.69-3.682 4.228.156.57-.54 1.456-.816 2.048 1.516-.172 2.154-2.846 4.36-2.318-.354-1.684 2.67-3.244 3.407-1.23.388-.384.772-.77 1.364-.952.225-2.367 1.746-3.436 3.406-4.365 1.557 1.05-.857 2.234-.682 3.137 1.084-.37 1.762-1.146 2.863-1.5.16.205.17.56.41.682.237-.715.874-1.03 1.634-1.227.203.16.61.117.545.545.817-.27 1.147-1.03 1.226-2.045-.604.014-1.02-.162-1.09-.682.594-1.917 3.748-2.688 5.588-2.455-.25 1.45-1.86 1.402-2.182 2.455 1.553-.22 2.002-.98 3.135-1.773.273-1.36-.613-3.137 1.092-3.408.446.295.456.9.815.954.105.226.646-.252.545-.682-.094-.543-.947-.324-.953-.955.742-.667 1.105-1.713 1.635-2.592.742-.17.64-.004 1.5-.136-.03-.57.22-.645 0-1.09a2.96 2.96 0 0 1-1.227.135c-.043-.412-.422-.487-.273-1.09 1.87-1.08 1.346-4.387-.27-5.318-.087.73-1.347.288-2.046.408-.318-.63.08-1.25.273-1.772-1.907-1.82-4.49-2.963-7.226-3.955-.572.382-1.594.315-1.635 1.23.722.14 1.09.637 1.362 1.227-.654.967-2.36.674-3.135-.273a27.533 27.533 0 0 1-9.947 2.592c-.027.66 1.016.255.816 1.09-.615.703-1.217 1.42-2.59 1.363-.43-.638-.578-1.324-.27-2.182-.685-.286-.82.26-1.09.136-.032-.105-.005-.27-.138-.272-2.184.187-6.867.668-8.996 0-1.033-.324-2.36-.07-3.406-.272-.18-.035-.4-.35-.545-.41-.775-.315-1.775-.307-2.453-.27.37.082.535.373.547.817.338.177.564-.4.68 0 0 .136.11.162.137.272-.718.622-2.34.56-2.997 0-.123-.773.297-1.267-.137-1.638-.41.082-1.805-.737-2.315-.55m26.167-6.41c-4.207 1.318-8.898.576-14.037.82-3.01.142-5.885.053-8.722-.138-6.107-.41-11.207 1.012-16.492.41 3.717.924 8.578 1.052 12.947.816 6.233-.335 11.143.666 17.036.41 4.04-.176 5.763-.42 8.585-1.773.31-.147 1.027-.172.818-.545h-.136zm1.635 2.32c1.096-.155 3.88 1.932 4.633.407-1.473.295-3.617-1.22-4.633-.41m-9.947 2.046c.73.544 1.54-.602 1.36-.955-.604.168-1.25.296-1.36.956m12.537.274c-.89-.2-1.844-1.324-2.453-.955.645.4 1.796 1.016 2.452.955m-5.998.135c1.678-.51 2.137 1.233 3 .682-.61-.774-1.973-1.338-3-.682m-6.404 2.32h.545c.184-.78-.463-1.407-1.09-1.774-.236.373-1.752-.497-2.998 0 1.205.773 3.652-.412 3.543 1.774m-4.907-.41c.6-.182 1.127.41 1.5 0-.54.065-1.216-.65-1.5 0m23.032 26.59c-.547-.454-1.447-1.276-2.316-.954.778.152 1.66 1.58 2.315.955m-14.037.545c.61-.027 1.076-.197 1.363-.545-.413.004-.528-.29-.815-.41-.053.447-.4.6-.547.955m20.988 3.953c-1.53-1.877-3.188-3.627-5.725-4.498-.458.676-.813 1.455-1.36 2.045 1.62.12 2.332.527 4.36.682 1.108 1.055 1.23 2.572 2.317 3.816-.01-.828.438-1.197.41-2.045m-7.497-3.408c-.936-.52-2.34-.566-3.406-.955.52.742 2.84 2.006 3.406.955m-1.498 1.5c.05-.844-.936-.63-1.5-.818-1.064-.36-2.428-1.18-3.27-.682 1.653.53 3.08 1.195 4.77 1.5m-77.68-.408c-3.262.762-6.82 2.756-9.677 4.227 1.313.04 2.355-.19 2.998-.818.185.043.26.193.546.137 2.168-1.557 5.08-2.37 8.31-2.863.216-.377.465-.72.82-.955-.89-1.103-1.647-.045-3 .272m70.867-.137c1.305.754 2.88.943 3.95 1.637.595.092.757-.246.956-.547-1.427-.36-3.492-2.06-4.906-1.09m-2.59.818c1.19.588 1.75.97 3.27 1.227-.388.404.585.217.546.682.75-.44.7-.082 1.363-.682-1.77-.36-3.514-1.994-5.18-1.227m14.583 26.862c1.39-1.336 2.974-2.48 3.68-4.5-1.065.367-1.784-.22-2.726 0-2.09.486-3.29 3.22-5.588 3.137.193-.898.912-1.27 2.043-1.227.978-.75 1.81-2.016 3.134-2.455 1.006-.334 1.977.14 2.863-.273 1.674-.775 2.352-2.637 2.588-4.908-.977 1.45-1.686 2.824-2.998 3.545-1.027.563-2.148.21-3.27.68-.77.325-1.55 1.17-2.182 1.638-.766.564-1.34 1.213-2.316 1.5-2.048.6-5.136.883-6.95.682-.344-.037-.662-.297-1.092-.273-2.08.12-3.66 1.975-5.45 2.047 1.444-1.125 3.33-2.242 5.724-2.73 1.148-.23 2.354.12 3.406-.134 2.17-.527 4.104-1.633 4.498-3.684 1.56-.848 1.654-2.625 3.135-2.727-.897 1.798-2.698 3.292-2.59 5.317 1.446-.645 2.544-1.637 3.544-2.727 3.28.55 6.56-2.754 6.814-6.955-1.432-1.22.016-4.525-.408-6.682-.205-1.033-.32-2.67-1.363-2.863-.816.82-1.28 1.992-2.316 2.59.577-1.9-.31-4.037-1.772-5.59-1.475-.068-2.777-.31-4.223-.408-2.83 2.64-7.197 3.346-11.857 4.363 2.322 1.28 5.326.982 7.223 1.5 1.57-.213 2.812-.44 4.5.135 1.122.383 2.747 1.623 3.68 2.047.853.39 1.694 1.014 2.315 1.09.865.107 1.46-.838 2.18-.137.258.426-.404.902-.408 1.5-1.035.014-1.81 2.19-3.27 1.773.114-.543 1.058-.86 1.09-1.5.07-1.408-3.327-2.922-4.77-3-.934-.05-1.81.625-2.996.408-.813-.145-1.64-1-2.59-1.226-3.634-.86-7.32-1.203-9.81-2.045-3.983.333-7.978.942-11.585 1.09-1.906.08-4.048-.235-6.134 0-.806.09-1.62.595-2.452.683-1.626.17-3.58-.193-5.314-.273-4.645-.217-9.416-1.117-13.63-1.5-4.445-.404-7.183 2.977-10.492 3.955-1.507.445-3.087.16-4.497.408-2.137.377-1.978 2.8-4.226 3 .64-.838.662-1.13 1.227-1.773 1.438-1.637 3.283-2.42 5.587-2.727 3.16-.42 5.98-.91 7.77-3.27-3.425-.913-6.915-1.315-10.223-2.456-1.41-.486-3.048-1.314-4.36-1.363-1.74-.068-3.382.816-4.905 1.227-1.463.396-3.092.618-4.635 1.093-1.5.46-2.922 1.322-4.224 1.5-.665.09-1.8-.18-2.18-.137-2.26.258-4.735 2.783-6.406 4.5-.55.564-1.397 1.77-1.635 2.316-.782 1.797-.344 2.604.41 3.684.667.957.945 1.72 2.043 1.908 1.142-.88 2.697-.99 4.224-1.5.81-.27 1.53-.84 2.182-.955 1.398-.245 3.172.708 4.905.68.385.024.316-.41.68-.407.986-.072 2.145-.496 3.136-1.092.923-.552 1.65-1.903 2.59-1.497-1.323 1.438-2.735 2.584-4.77 3.27-1.636.554-3.478.306-5.452.546-2.644.32-5.178 1.968-7.496 2.317-1.034-.875-2.223-1.594-3.27-2.455-.228 2.633-.28 6.412 1.226 8.318 1.515-.094 1.402-.877 2.726-.27-.145.38-.8.735-.41 1.226.913.943 1.737.027 3.272.137 1.065.074 2.508.828 3.952.953 2.023.178 4.045-.56 5.042.41-3.375 1.24-8.222-1.246-10.085 1.363.804.243 1.243.972 2.182 1.226 1.128.307 2.887-.432 3.544.818-2.664-.008-4.464-.766-6.678-.818.186.86.89 1.2 1.772 1.363 1.48 1.65 3.525 2.636 6.133 3.41.953.28 1.967.835 2.725.952 2.958.46 6.02-.486 8.723-.408 3.15-.29 5.095-3.207 8.177-3.682 2.963-.455 7.04.42 9.812-1.637.688-.887 1.6-2.277 2.18-2.453.093-1.027 1.128-2.463 2.454-2.73-.053.013.47.265.545.274 1.077.13 4.47-.662 5.722-1.23 2.128-.958 3.21-3.145 5.588-3.407-3.28 2.128-6.13 5.02-10.902 5.862-2.972 1.133-4.986 4.955-7.768 6.273-2.057.975-5.427.117-7.496.408-2.855.52-4.44 3.377-7.495 3.953-1.545.293-3.81.225-5.316.684 1.188.08 2.27.805 3.408.953 3.777.498 7.436-.656 10.902.137 1.047.24 1.71.96 2.725 1.365 1.506.602 3.33 1.08 4.77 2.453 2.915.648 4.6.777 7.495 1.637 2.715-1.36 5.153-3.71 7.495-4.637.185-.99 1.423-2.002 2.454-2.592.75-1.7 2.874-2.97 4.224-4.498 1.682-.537 1.678-.436 2.998-.955 1.256.406 3.103-.85 4.09-.682.942-.395 2-.91 2.724-1.362.293-.184.84-.357 1.092-.545 1.275-.957 2.283-2.596 3.68-3.682.44-.34 1.158-.476 1.908-.817 1.492-.68 2.018-1.307 3.814-1.637 1.887-.348 3.525-1.982 5.316-1.773-3.336 2.617-9.04 2.865-9.812 8.047-1.357 1.268-3.37 1.336-5.45 2.045-2.562.87-4.466 2.512-6.953 1.09-1.037.418-2.332.715-3.68 1.363-3.086 3.594-6.81 6.55-9.538 10.5 1.865.23 2.61-1.146 3.407-1.363.767-.21 1.28.555 2.453.273.587-.822.925-1.893 1.907-2.318.63.412.63.852 1.363.953 1.17-1.236 2.617-2.197 3.816-3.408 2.16-.434 3.9-.352 5.587-1.092 5.812-.193 10.852-3.252 14.037-6.953-.746 1.355-1.63 2.074-2.725 2.727-.676 1.752-2.195 2.44-3.816 3.545-2.867 1.957-7.168 2.46-11.04 3.137-1.32 1.177-2.71 2.284-4.088 3.41 1.41-.103 3.5-1.042 5.18-1.23 3.347-1.738 6.9-1.45 9.948-3.545 1.062-.047 1.746-1.305 2.453-.545-1.56 1.35-3.5 2.316-5.315 3.408 6.104.38 7.893-3.557 11.447-5.727 2.36.417 4.617-1.98 6.404-3.407.447-1.748 1.037-3.018 2.727-3.137 1.3-.092 3.004.78 3.953-.545-.473.134-.896.478-1.092-.136.436-1.166 1.512-2.383 2.86-2.182.056 1.018-1.233 1.407-1.095 2.048m-16.626-26.18c.453.96 2.06.922 2.725 1.77.472-.16 1.058-.212 1.362-.544-1.332-.36-2.492-1.584-4.088-1.226m.68 2.182c-.404-.16.447-.17.41-.41-1.297-.252-2.246-1.256-3.408-1.227.52.935 1.8 1.834 2.998 1.637m-2.86.27c-1.53-.798-2.396-1.173-3.68-1.5 1.09.503 1.984 2.495 3.68 1.5m-10.63 1.364c-.078-1.023-1.678-1.06-1.5-1.908-.684.133-.697-1.113-1.36-.545.557.678 1.75 2.305 2.86 2.453m6.95-1.363c-.907-.137-1.183-.906-1.907-1.227-.016.166-.043.322-.273.273 0-.077-.11-.157-.137 0 .728.4 1.39 1.953 2.316.953m-3.135.818c-1.033-.556-1.697-1.06-2.453-1.636.508-.04-.4-.338-.27 0 1.028.34 1.516 2.346 2.723 1.637m-6.812.683c-.104-.852-1.146-1.488-1.636-1.5.512.53 1.12.97 1.636 1.5m9.13 22.09c0 .076.11.154.136 0-.078-.715.912-1.54 1.092-2.453-1.824.582-2.623 2.193-4.09 3.135.04.86-1.307 1.053-1.09 1.637 1.724-.675 3.498-.76 3.953-2.32m17.85 2.864c-2.163 4.062-7.216 5.232-10.493 8.182 1.762.146 2.385-1.723 4.498-1.91 2.475-2.25 5.682-3.768 8.178-5.998-1.006-.102-1.217-.297-2.182-.274m-91.716 6.272c1.048.44 1.888 1.703 3.27 1.365-.173-.78-.77-1.14-1.09-1.773-.865 0-1.73-.002-2.18.408m-12.54 5.455c1.192.096 1.794-1.244 2.727-1.908 1.056-.754 2.488-1.02 3.27-2.045-3.102-1.848-5.325 1.787-5.997 3.953m6.95-2.864c.143.72.71 1.017.546 2.044 1.4-1.148 2.948-2.06 4.36-2.863-1.396-1.67-3.475.42-4.906.82m-11.312 2.318c.95.094 1.66-.176 2.317 0 .74-.588.9-1.814.68-2.727-.87 1.038-2.12 1.7-2.998 2.728m40.612-2.182c2.574 1.076 5.676 1.752 8.723 2.045-2.855-1.21-5.018-2.56-8.723-2.044m66.096 1.637c.35-.06.627-.19.818-.41-.176-.188-.592-.135-.953-.135-.01.236.03.424.135.545m-88.31.27c-.005-.187.064-.298.136-.407-.992.188-1.658.703-2.316 1.227 1.054.822 2.833.193 3.27-1.09-.44.168-.103-.44-.544-.273-.018.347-.2.53-.545.544m8.45-.136c-2.08.69-3.976 1.568-5.315 3.002 2.43.262 4.97-.46 5.588-2.455-.253-.022-.084-.463-.273-.547m-19.897 1.365c.205 1.27 2.597 1.352 3.543.682.01-2.57-2.356-1.74-3.543-.682m122.517 9.408c1.88 1.19 2.465 4.103 3.543 6.41-.117-.437.215-.423.27-.683-.692-3.502-2.16-6.846-3.132-9.27-1.622-2.41-6-5.187-6.132-5.183-.75-.805-1.518-1.492-2.316-1.91-1.992 4.3-8.14 5.83-7.904 11.455 1.744-1.64 4.754-2.763 5.314-4.774.137 0 .162-.11.27-.135.485.743.91 1.544 2.183 1.5.832 1.09 2.438 1.288 3.406 1.91.237-1.452-.634-1.915-.134-2.593 1.65 1.5 3.507 1.827 4.634 3.274m-20.307-8.454c.182-.096.777-.945 1.092-1.363-.574-.016-.654-.527-1.227-.545-.537.508-1.19.9-1.5 1.637.483.37 1.247.375 1.635.27m3.543 6c-2.594-3.538-7.736-4.528-11.31-7.09-2.028 4.66-6 7.448-6.27 13.5.847.927 1.675 2.595 2.726 2.864.463-3.556 3.62-6.23 4.225-9.683.438-.02.596-.73.953-.41.814.988 2.844 1.88 4.36 2.047.454-.457.673-1.146 1.364-1.365.152-.548-.182-1.077.545-1.228.803.977 2.375 1.07 3.406 1.364m-85.31-5.453c1.4-.34 2.464.484 3.542-.137-.113-2.435-2.562-.488-3.543.137m68.82-.274c.108.606-.18.817-.134 1.362.183.227.772.047.954.273.363-.865 1.445-1.008 2.045-1.637-.552-.086-.452-.82-.956-.953-.605.347-1.355.552-1.908.954m-85.31 2.044c1.15.537 2.256-.506 3.27-.137 1.072-.54.72-1.62.273-2.59-1.966.042-2.915 1.804-3.545 2.727m-13.083 1.774c1.222.186 2.18.635 3.407.818.342-1.52 1.146-2.58 1.77-3.818-2.4-.33-4.137 1.2-5.178 3m88.855-.274c.922-.014 1.473.346 2.453.273.756-.562 1.21-1.426 1.637-2.318-2.014-1.102-3.172.84-4.09 2.044m-54.512.137c.594.27 1.038.69 1.635.956.412-.725 1.072-1.2 1.5-1.91-.984-.38-1.573-1.152-2.59-1.498-.056.943-.426 1.572-.545 2.453m-38.568-.136c.83.164 1.61.658 2.453.41.135-.684.432-1.205.545-1.91-1.6-.627-2.527.29-2.998 1.5m64.46-1.363c.51.25 1.563.747 1.908 0-.744-.097-1.392-.708-1.907 0m-55.74 2.864c.885-.48 1.594-1.133 2.182-1.908-.627.082-.384-.707-.818-.818-.745.617-.95 1.777-1.363 2.726m43.064-2.455c-.305.696-1.195.804-.954 2.046 2.317 1.178 6.31.27 8.312.408.113-.34.373-.535.41-.953-1.937-1.368-4.337-1.54-7.768-1.5m46.744 1.773c.32.18.412.588.818.682.955-.707 2.69-.893 3.135-2.045-1.71-.833-3.13.456-3.952 1.363m-76.317.68c-.02.34.215.423.274.683 1.007-.672 2.077-1.283 2.862-2.182-.97-.27-2.253.852-3.135 1.5m-7.767.137c.825.157 1.762.7 3.27.546.902-.688 2.13-1.05 2.727-2.045-1.98.034-4.11.94-5.997 1.5m64.188-.544c.497.188 1.693.01 2.046-.682-.554-.47-1.867-.052-2.045.682m-51.513 0c-.372.19-.71.78-1.09 1.09-1.65 1.354-3.447 2.164-3.408 5.047 1.98-.068 4.202.266 5.995.816 1.387-.692 2.376-1.855 3.816-2.317 1.124-.363 2.672-.158 3.272-1.5-2.077-1.668-5.293-4.836-8.585-3.137m129.33 9.682c.124 4.44 1.89 8.346.956 12.27-.125.522-.664 1.73-.545 2.59 4.51-4.108 5.043-11.142 4.904-18.134-.027-1.412-.488-2.617-.408-3.818.074-1.104.69-2.105 1.09-3-2.984 1.12-6.703.396-10.357 1.363-1.15.304-2.793 1.19-3.95 2.046-.985.725-2.815 2.217-2.864 3.27-.027.638.668 1.313.955 1.91.64 1.33 1.047 2.804 1.498 3.817 1.6-1.057 3.16-2.613 4.77-4.09 1.086-.994 1.88-2.557 3.408-2.863 1.157.913.497 2.917.544 4.638m-120.2-9c.892.697 1.56 1.62 2.316 2.455 3.864-.557-1.077-5.377-2.316-2.455m7.63-.41c-.856 1.086-2.58 3.39-2.042 4.092.54.1.547.1 1.09 0 .414-1.676 1.73-2.45 2.044-4.23-.548-.228-.796-.233-1.09.138m2.18 2.318c.864.043 1.233.266 2.317.137.182-.73.748-1.068.545-2.182-1.55-.88-2.297.575-2.86 2.046m16.352-.953c.94.014 1.334.574 2.316.545.36-.277.713-.56.682-1.23-1.187-.057-2.69-.782-2.998.685m66.778 3.682c.277.04.268.367.545.408.48-.592.824-.562 1.635-.682-.148-.395-.123-.966-.27-1.362-1.55-1.184-3.767-1.668-5.452-3-1.512 2.17-4.38 2.98-5.45 5.59.665 1.037 2.392.172 3.27.955.538-.648 1.558-1.373 2.452-1.227.78-1.094.736-1.385 2.59-1.363.12.445-.082.918.545 1.09.275-.648-.695-.746-.273-1.09.398.17.844.64.408.682m-10.357-.274c-.22-.362.426-1.022.408-1.636-.686-.797-1.91-2.156-3.406-2.59-.184.996-1.256 1.107-1.498 2.045.567.114 1.15.933 1.36.954-.105-.03-.158-.115-.137-.273 1.08.7 2.21 1.237 3.272 1.5m-123.2-2.044c.9.564 2.46.453 3.272-.137v-1.364c-1.29-.972-3.375.258-3.27 1.5m149.91 5.59c-.827-1.8-4.294-6.432-5.044-7.363-.555 2.95-1.36 4.428-.545 7.5.87-.268.75-1.523 1.227-2.182.51.013.39.153.818 0 1.172 2.69 3.51 4.214 4.088 7.5 1.717-1.09.16-3.923-.544-5.454m-63.917-6.137c1.54-.024 3.03.528 4.905.546.2-.533.023-.852-.135-1.5-1.615-.22-3.62.264-4.77.953m36.523 5.044c-.32-.416.508-.85.818-1.09-2.556-2.295-6.24-3.596-9.267-5.045-1.295 3-4.057 5.356-3.816 9.952 1-.045 2.098-1.05 2.998-1.635 1.87-.44 3.617-1.695 4.906-3.137.51.492.18 1.82.548 2.59 1.372-.378 2.45-1.692 3.815-1.636M70.075 163.62c.06.624-.137 1.503.137 1.91.58.056 1.404-.132 1.77.136.218-.828.702-1.39.82-2.316-.94-.313-1.84.13-2.727.27m97.168 3c.11-1.267 1.543-2.62 1.227-3.407-.877 1.004-3.703 2.566-1.227 3.408m33.797.138c.416.36.873.81.955 2.045.748.115.953.773 1.363 1.227.318-.635.45-1.457 1.36-1.5.733 1.133 1.948 1.78 3 2.592-.17-1.838-1.542-3.633-2.317-5.318-.698.018-.603-.758-1.09-.955-.673-.282-2.12-.968-2.86-1.636-.46 1.348.153 2.616-.41 3.544m-124.015-.955c1.59-.182 4.015-.137 5.86-.27-.014-.562.545-.548.41-1.23-1.768-.07-6.56-1.475-6.27 1.5m45.518-.682a3.05 3.05 0 0 0 4.225-.544c-1.457-.45-3.4-.883-4.225.545m16.217-.68c.137.59.392 1.06.546 1.636 1.226-.14 2.927-.525 2.59-1.773-.462.26-2.32.668-3.136.136m40.75 23.044c-.517-2.697-1.15-4.547-2.046-6.955-2.254-3.43-4.027-7.333-7.086-9.954-1.87-2.81-5.467-3.895-8.04-6 .548 2.938 1.354 6.13 1.634 9.135.076.802-.008 1.99 0 2.32.178 6.542 1.752 13.274 4.227 17.726 1.144 2.062 3.067 3.992 4.632 5.59 1.346 1.375 2.174 1.584 3.68 2.592 1.475.986 2.69 2.232 4.36 2.318-1.54-1.738-4.932-7.676-1.363-16.772m-92.673-21.136c-.277.54-.505 1.13-.545 1.91.996.377 1.64.73 3 .953.596-1.27 2.75-2.524 1.635-4.226-1.627.38-2.52.815-4.09 1.364m54.65 1.09c-.836.595-1.44.89-2.045 1.364.156.564-.287.53-.27.955 2.5.35 3.56-1.88 5.45-2.592.062-.635.184-.91 0-1.5-1.498-.36-2.05 1-3.135 1.774m-4.77-1.5c-2.03 1.315-5.402 3.58-5.86 6 2.413-1.95 5.426-3.3 7.358-5.728-.183-.09-.254-.293-.272-.547-.638-.13-1.02.14-1.227.274m-10.22 1.908c.967-.164 2.138.344 2.998-.27.04-.587-.19-.903-.41-1.23-1.33.033-1.986.74-2.59 1.5m31.21 0c.27-1.46-1.337-1.576-1.91-1.227.66.39 1.316.776 1.91 1.228m-75.227.273c.965.33 2.32-.132 2.316-1.226-.66-.02-2.016.436-2.316 1.227m114.34 1.364c-.037-.887.604-1.715 1.09-1.637-1.494-2.472-2.992 1.385-1.09 1.637m-39.93-.136c-.03-.846-2.576-2.236-3.545-2.045-1.404.277-3.138.258-3.814.682 1.626.32 3.234.297 3.27 1.773.026 1.115-1.4 1.477-1.228 2.59 1.113.406 2.035-.492 2.727-.955 1.152-.317 2.632-.875 2.59-2.045m1.635.41c.61.207 1.006.627 1.77.682-.026-1.52.29-3.38-1.5-3.137-.188 1.01-.293 1.26-.27 2.455m-46.608.68c1.058.368 1.938-.827 2.997-1.228.896-.336 1.995-.53 2.864-.682.62-.107 1.72.312 1.635-.816-2.97-.452-6.01.847-7.496 2.727m87.628-2.727c.04.398.734.996 1.09 1.498.344-.245.89-.29.955-.815-.467-.502-1.238-1.31-2.045-.682m-138.87 2.863c.77-.865 1.657-1.615 2.316-2.592-1.167-.646-2.44 1.51-2.317 2.592m156.726 19.908c1.28-2.53 3.602-4.482 4.633-6.955.288-.694.198-1.67 1.09-2.32 1.265-4.52 1.06-8.714 1.77-13.362-.028-.105-.112-.158-.27-.135-.025.2-.33.123-.545.135-1.793 2.61-3.986 3.672-6.133 5.863-.754.772-1.754 1.667-2.318 2.456-1.627 2.283-2.318 4.18-2.18 7.227.193 4.244-.385 7.984-1.77 10.908 2.473-.702 3.958-2.4 5.722-3.816M74.164 171.12c.417-.1.4.235.817.138.758-.834 1.393-1.79 1.637-3.137-2.263-.446-2.413 1.224-2.453 3m34.342-2.046c1.023.02 1.1.992 1.908 1.23.664-.52.738-1.626 1.362-2.183-1.537.167-2.512.05-3.27.954m84.903 1.092c.858.562 2.638.605 2.726-.682-.773-.135-.898-.92-1.363-1.363-.77.368-1.497.776-1.364 2.046m4.497.545c.807-.216.748.435 1.227.548.225-.32.61-.482.682-.955-.28-.557.174-1.463-.955-1.908-1.004.134-1.896 1.447-.953 2.316m-9.676-1.5c.476-.298-.104.888.546.956.24-.607.67-.787.408-1.5-.292.123-1.232.3-.953.545m-88.31 1.5c2.19 1.034 5.012.206 6.133-1.362-2.414-.377-4.534.494-6.133 1.363m90.083.41c.48.183.326.478.953.272-.166-1.166 1.09-.908 1.227-1.77-1.403-.597-2.473-.298-2.18 1.5m-119.52-.274h.818c.184-.498.52-.844.683-1.363-.887.066-1.14.77-1.5 1.363m72.502 1.636c1.416.23 2.602.03 4.09 0 .348-.582.29-1.422.136-2.182-1.503-1.49-4.43-.372-4.225 2.182m57.24-1.636c-.815.275-1.09 1.094-1.228 2.045.244 0 .793.367.955 0-.02-.434.38-1.617.816-2.045.236.355.44.74.955.818.203-.16.557-.17.682-.408-.248-.543.094-.86-.273-1.5-.914-.45-2.05-.24-1.908 1.09m12.81 9c1.408-1.86 1.69-5.068.27-6.682.17-.016.325-.04.274-.273-1.152-.893-1.463-2.627-2.725-3.408-.445 1.236-1.332 2.03-1.91 3.137 2.035 1.68 2.78 4.306 4.09 7.226m-90.08-7.91c.665 1.126 2.26.81 3.406 1.09 1.092-.462 1.98-1.577 1.635-3.27-2.013-.254-4.008.685-5.043 2.18m81.496-2.317c-.908 1.41-1.72 2.913-2.316 4.636-.6.234-.947 1.008-1.5 1.5-1.443 1.29-3.512 2.352-4.36 4.23 6.944 3.77 9.216 12.407 6.542 20.452 1.537-.32 2.36-.766 3.68-1.092.848-1.9 1.53-3.96 2.043-6.27.834-3.75.23-7.647-.27-11.456-.212-1.602-.608-2.885-.956-4.363-.075-.32.065-.607 0-.953-.25-1.36-1.55-2.637-1.09-3.955 2.038 3.683 2.528 8.1 4.09 12.68.456 5.382-.472 8.575-1.364 13.09 6.625-8.487 4.672-23.39-4.498-28.5m-18.533 9.818c.11-.635-.637-1.7-.682-2.453-.06-.98-.674-1.654-.955-2.455.076 0 .154-.11 0-.137-.91-.955-1.77-3.342-1.908-4.5-1.998 1.23-5.518 2.39-6.404 4.23-.643 1.327.24 1.92.682 2.726 1.178 2.145 2.8 5.84 3.95 8.726-.038-.68 5.233-5.67 5.317-6.138M83.022 171.12c.392.29.352 1.01.818 1.228.5-.73 2.412-.766 1.908-2.045-1.11.672-2.445-.865-2.726.818m102.756-.68c.713.97-.062 1.388.137 2.452 1.025.027.938-1.06 1.77-1.227.225-.906-.445-.918-.545-1.5-.635-.09-.875.216-1.362.274M63.67 172.755c.744.256 1.916.084 2.726.273.193-.915 1.518-2.095 1.09-2.728-1.583.51-3.675.507-3.816 2.454m29.436-.953c.73.453 1.6 1.328 2.862.818-.003-.778.72-1.548.41-2.18-.94.105-2.538.61-3.272 1.363m-5.996.818c1.122.16 1.814-1.022 2.59-1.636-.867-.133-1.437-.562-2.59-.408-.15.725-.15 1.32 0 2.045m96.623-1.636c.05.49.21.658 0 1.09.576-.03.31.783 1.09.547.045-.5.338-.755.41-1.228-.334-.64-.816-.736-1.5-.408m8.995 2.182c.568-.902.783-1.55 0-2.318-1.622.007-1.385 2.203 0 2.318m-117.475.545c-1.054 1.794-2.503 4.548-1.908 7.093.308-1.816 1.89-3.45 2.316-5.592 1.558-1.214 4.02-1.522 6.134-2.18.027-1.073-.618-1.472-1.09-2.046-2.594.13-3.374 2.078-5.45 2.727m100.985 30.136c.073 0 .153-.11 0-.135-9.597-5.782-11.962-19.128-11.995-19.228-.32-.95-.414-2.56-.545-3.816-.316-3.05-.307-6.564-1.227-9.408.068 3.566-.39 6.496-.408 9.408-.05 7.512 3.295 13.17 5.996 18.68 2.524 2.385 4.767 5.05 9.132 5.592.27.412 1.502.582 2.043.27-.9-.552-2.328-.577-2.996-1.362m-74.548-31.498c.176.55.514.94.545 1.637 1.254-.2 1.738-1.17 2.862-1.5-.113-.342.264-1.174-.273-1.092-.598.767-2.03.697-3.135.955m86.54.273c-.214 1.386 1.218 1.075 1.905.683v-1.092c-.615.026-.5-.68-1.088-.68-.055.796-.506.835-.82 1.09m-115.43.273c.606.834 1.82.072 2.045-.682-.48-.153-1.122-.15-1.635-.27.143.597-.46.447-.41.953m82.45.545c1.062.303 2.005.723 3.136.955.238-.443.516-.848.408-1.637-1.324-.338-3.12-.72-3.544.682m45.382.136c.436-.115.518.12.682.273.066-.707.79-.754.818-1.5h-1.227c-.06.44-.26.74-.273 1.227m-94.034-.68v1.228c1.02 1.49 3.688 1.303 3.407-1.23-.797-.462-2.444-.42-3.407 0m8.177 0c-.122.743-.728 1-.817 1.774.844.145 1.872.102 2.86 0-.034-.902 1.093-1.36.683-2.182-.558.104-1.764.303-2.725.41m-17.58 1.09c.85.363 2.157.64 3.815.682-.08-.646-.38-1.074-.545-1.637-1.102.216-2.996.365-3.27.954m97.85-.955c-.538 1.765-2.345 3.61-1.907 5.454 1.008.217 1.615.838 2.588 1.09 1.05-2.04 3.027-3.152 4.36-4.908-1.333-1.44-3.21-.744-5.042-1.637m-7.086 4.5c.523-1.802.062-3.142-.682-4.093-.275 1.194.66 2.807.682 4.092m-57.647-2.32c-.076.136.05.558 0 .683-.235.605-.917.977-.544 1.227 1.06-.672 1.963-1.47 2.86-2.59-.262-1.69-1.723-.354-2.315.68m62.146-1.362c.078.473.67 1.14.953.955-.226-.02.142-.57 0-.955-.5.12-.725-.24-.954 0m-50.152.818c1.412 2.287 2.636 5.084 3.68 7.635.888 2.17 2.384 3.782 3.407 5.73 1.727 2.09 3.924 3.71 5.997 5.455 1.765.91 3.542 1.95 5.452 2.86 1.895.91 3.964 1.858 5.858 2.185-.947-1.578-2.088-2.342-2.453-4.637-1.637-2.29-2.354-7.72-2.453-8.318-.676-1.977-.197-2.877-.408-5.863-.107-.03-.158-.113-.137-.273-3.266-4.82-12.42-5.09-19.08-5.183-.006.188.065.3.137.41m79.998 19.226c8.56-4.066 10.98-16.4 10.22-19.5-.576 3.187-4.543 13.818-10.22 19.5m-87.903-18.82c.21.472.425 1.2.136 1.774 1.36-.412 3.177-.367 3.816-1.5-.256.008-.29-.105-.137-.273-1.224-.367-3.12-.51-3.816 0m-65.28.274c.02.752.418 1.127.41 1.908 1.552 1.22 2.68-1.22 2.59-2.453-1.112.07-2.003.36-3 .545m121.154 1.226c-.06-.44.18-1.178-.27-1.227.083.616-.155 1.25.27 1.227m-62.553-1.09c-.724.047-1.144.4-1.77.545.132 1.282.32 1.673.272 3.136 1.16-.46 1.81-2.633 1.636-3.545-.008.144-.174.107-.137-.136m64.6 2.045c-.062-.813.458-1.08.68-1.91-.51.013-.388.153-.817 0-.286.538-.834 1.86.136 1.91m-134.647 3.273c.258.242.9.1 1.363.137.285-1.625 1.338-2.48 1.772-3.955-2.014-2.34-3.333 1.136-3.135 3.818m26.71-2.592c.35-.286 1.255-.017 1.5-.407-.063-.732.25-1.043-.136-1.5-.226.363-1.687 1.033-1.363 1.908m-1.77-.544c.214-1.777-2.926-1.463-3.817-.41.412.66.215 1.535.41 2.455 1.008-.64 3.267-.892 3.406-2.044m8.45 2.727c.68-1.512 1.71-2.186 2.316-3.953-3.048-.417-3.722 2.376-2.318 3.953m-29.71-.41c1.09-.274 1.958-.77 2.727-1.362-.252-.575.242-1.413-.137-2.046-2.015-.015-2.012 1.988-2.59 3.41m51.65-2.728c-1.806.998-3.866.924-5.587 1.91.203 2.377-2.06 3.46-1.227 5.59 1.89.072 3.81-.01 5.177-.545 1.927.29 4.38-.07 5.996-.544.727-1.795 1.855-2.865 2.045-4.91-1.764-.37-2.8 1.086-3.68 2.047-1.89.11-3.117-1.367-2.18-3.273-.44.167-.104-.442-.545-.274m109.98 12.955c-.02.224.447-1.497.68-1.91.303-.532.096.07.137-.407.037-.436.465-.732.682-1.363.863-2.518 1.54-6.668.955-9-.174 1.014-.46 1.684-.41 2.727-.988 2.54-2.414 5.756-4.088 7.91-.792 1.016-2.11 1.725-2.862 2.863-.057.084.066.336 0 .408-1.23 1.322-3.596 2.213-4.635 3.545-1.23.596-2.674 2.137-3.406 3.682 2.383-.178 5.518-.615 5.723-.953 3.548 0 7.005-7.007 7.223-7.5M96.65 182.847c1.265-.69.804-3.105.954-4.908-2.27.005-1.215 3.394-.954 4.908m26.165-.682c1.805-.5 1.814-2.74 1.363-4.227-1.898.146-1.832 3.064-1.363 4.226m77.137 8.59c.014.24.098.34.135.818 1.334 3.373-.365 6.498-.408 10.227 1.11-.022 1.31-.956 2.315-1.09 1.09-2.993 1.596-6.935.955-10.09-.943-4.638-3.984-7.632-8.04-9-1.67-1.33-3.747-2.253-5.59-3.41-1.464 1.763-3.354 3.1-5.18 4.5-2.804 1.657-4.743 5.38-5.313 9.138-.113.75-.008 1.768 0 2.182.03 1.553.127 2.65.273 3.816.346 2.752.904 3.717 2.588 5.592.2.223.297.742.547.953 1.617 1.38 3.047 2.337 5.178 3-.43-1.007-1.227-1.784-1.635-2.726-2.19-5.025-1.764-9.63-.682-14.998.412-2.053.965-3.996 1.227-5.592-.105.832.148 1.787.137 2.182-.033 1.004-.416 1.645-.682 2.863-.734 3.356-.256 7.925.27 9.954-.16-.02 3.876 7.982 4.49 8.04-1.894-7.956-1.298-25.454-.673-26.04.514.885.463 2.082.682 2.182.54 5.094 1.016 9.066.955 12.273 0 4.317 1.584 9.735 1.906 11.315.62.21.922-1.074 1.5-1.363.04-3.398.465-6.69.682-9 .29-3.12-.816-6.367-.547-8.316-.775.074-.28-1.148-.27-1.23 1.356 2.47 1.216 5.485 1.362 8.593.13 2.78-.633 5.79 0 8.726.615-.93 1.705-1.385 2.588-2.047.27-1.634-.012-3.458.955-4.91.723-4.175-1.738-10.01-1.637-13.77h.274c.142 3.294.75 4.755 1.638 7.226m-60.51-11.318c-.447 2.365 4.39 1.795 3.135-.682-1.12-.352-2.893-.596-3.135.682m-3.952-.545c-.628.754-.76 1.508-1.362 2.047.978-.12 1.455.03 2.59 0 .318-1.004-.34-2.252-1.228-2.047m-51.65.818c-.053.962-.01 1.83.408 2.32 1.557.147 1.992-.827 2.862-1.364-.18-.78.18-1.262-.41-1.637-1.006.173-1.83.53-2.86.68m-16.218 0c.115.93-.27 2.36.272 2.864.54-.207 1.606-.232 2.044-.137.358-1.324-.566-4.12-2.316-2.726m11.857 3c.524.02.783.308.953.683.98-.336 2.046-.588 2.453-1.5-.713-.195-.898-.918-1.5-1.227-.658.658-1.487 1.148-1.907 2.045m-14.175 1.638c.32-1.44-.708-2.148-.954-3.408-1.883.574-.21 3.05.955 3.408m35.842-2.73c.112 1.206.045 2.595 1.09 2.864.332-.94.895-1.648.818-2.998-.562-.355-1.408-.005-1.908.135m135.6 4.228c-2.898 5.145-5.248 10.84-9.268 14.86-2.853 2.294-5.704 4.485-9.27 5.73-1.153 1.57-2.567 2.885-3.95 4.227 4.3-.752 7.777-3.223 10.766-5.182 1.13-.742 2.29-1.37 3.27-2.182 4.118-3.415 6.47-7.622 8.587-12.68.38-2.53 2.04-5.687 2.316-8.32-.792.382-1.606.93-2.726 1.366-.93.36-2.336.412-3.135.953-.94.636-1.25 2.5-1.774 3.68-1.262 2.845-2.947 5.962-4.633 8.046-.67.83-1.998 1.56-2.182 2.184-.235.81.77 2.027.685 2.727 2.39-1.482 4.172-4.264 5.723-6.137 1.21-2.207 2.59-4.91 4.225-8.045.205-.023 1.215-1.213 1.5-1.5 0 .136-.11.16-.136.273m-107.798-1.91c.645.264 1.097.72 1.906.818.002-.86.802-.926.954-1.635-.358-.16-.474-.17-.136-.41-1-.16-2.463-.024-2.725 1.228m9.402-.817c.193 1.08.196 2.35.954 2.864.358-1.096.86-2.047 1.09-3.273-.843-.024-1.384.253-2.044.41m-60.1 1.636c.598.008 1.126-.055 1.5-.273-.705-.342-1.463-1.352-2.18-1.227.518.207.367 1.086.68 1.5m12.4-.682c.006.494-.075 1.076.274 1.227.992-.772 2.222-.91 2.86-1.77-1.058-.31-2.297.195-3.133.544m31.072 0c1.017.256 1.61.936 2.59 1.227.465-.214.908-.454 1.09-.952-.93-.926-2.39-1.11-3.68-.274m-45.79-.136c-.87.22-.57 1.61-.818 2.455.7-.027 1.575.12 1.908-.273-.634-.456-.194-1.987-1.09-2.182M61.49 185.3c.308.92 1.242 1.212 1.77 1.91.795-.224 1.275-1.27 1.09-2.044-.978.063-2.003-.978-2.86.135m11.174-.407c-1.66.762-2.98 3.37-1.227 4.908 1.616-.523 2.37-3.605 1.227-4.907m47.154.955c1.443.21 3.138 1.594 3.952.137-1.205-.45-3.106-1.878-3.952-.137m26.71 3c-.558-1.396-.895-3.016-1.907-3.955h-.27c.015 1.77.193 4.277 2.18 3.955m-4.907-3.137c.435 2.065.952 4.048 2.18 5.32-.336-1.817-.923-4.02-1.09-5.864-.48-.38-.743.367-1.09.545m-55.875 3.41c.253-1.128.93-2.597.272-3.82-1.35.255-.657 2.874-.272 3.82m27.665-2.32c.89.34 1.503.952 2.453 1.23.23-.678.586-1.232.817-1.91-1.38.214-2.29.066-3.27.68m16.49.548c-.184.453-.383.89-.545 1.363 2.542 1.48 6.95.312 8.312-1.5-1.488-2.11-5.736-.224-7.767.138m-36.387 1.908c.682.092.816-.363 1.09-.682-.59-.592-.698-1.666-1.636-1.908-.724.85.327 1.822.546 2.59m2.043-2.318c.06.71.642.902.954 1.363.088-.966-.332-.74-.273-1.5-.316-.042-.523.024-.68.138m21.804 3c.687-.094.95.232 1.637.137.462-.576.61-2.166.272-2.727-1.684-.213-1.88 1.574-1.908 2.59m-7.223-1.09c.698.492 1.02 1.69 1.773 1.637.76-.057.845-1.545 1.77-1.773-.695-1.21-3.26-1.81-3.542.136m-7.085 1.09c-.205.768.574 1.45 0 2.182 3.605.687.787-5.14 0-2.182m6.133.683c.56.106.7-.21 1.227-.136a1.36 1.36 0 0 0-.955-.955c-.228.343-.535.61-.272 1.09m-41.703 4.5c.617-1.124-.75-2.36-.41-4.09-.33-.444-.83-.716-1.226-1.093-1.302 1.65.223 4.983 1.635 5.182m34.07-2.727c-.084-.23.06-1.39 0-2.045-.486-.408-.878-.09-1.498-.273.1.37-.27.273-.273.547.487.603 1.215 1.69 1.77 1.77m-13.353-.136c.79-.086.68.32 1.363.545.316-.784 1.477-1.425.545-2.315-1.135.09-1.302 1.15-1.907 1.77m25.213.683c.824.135 1.252.58 1.908.547.114-.918.487-1.887.272-2.73-1.388.065-2.064.843-2.18 2.183m16.217 2.726c.493-1.232 1.797-1.654 2.315-2.863-.556-.48-1.59-.84-2.316-.952.166 1.05-.403 3.04 0 3.816m19.898.274c.236-.764.694-1.305.68-2.318-.682-.59-1.197-1.348-2.043-1.77-.96 1.61.058 3.527 1.363 4.088m-71.14-3.41c.605.53 1.73.542 2.59.82.24-.124.422-.308.545-.548-1.124-.11-2.264-1.07-3.135-.27m-7.087.954c.115 1.406.347 2.373.41 3.543.884-.713 1.317-3.002.41-3.953-.05.36-.328.49-.82.41m53.015 2.862c1.194.578 1.705 1.84 2.86 2.455-.255-1.952-.943-3.485-1.226-5.452-.26.03-.302-.154-.546-.137-.36 1.05-.716 2.1-1.09 3.136m-41.156-.682c1.013.004 1.61.19 2.317.273.03-.836-.512-1.713-.273-2.318-1.98-.36-2.89.59-2.044 2.044m-7.223-1.226c.74.652 1.773 2.365 2.86 1.773-1.16-.32-1.467-2.538-2.86-1.772m44.564-.137c-.713.827-.64 2.538.27 3.138.756-.473.96-1.496.955-2.727-.4-.153-.674-.335-.68-.546-.027.203-.33.127-.546.137m16.49 1.23c.02.882-.324 1.4-.273 2.315.94-.27 1.32-.56 2.317-.545.198-.938.154-1.91 0-2.727-.86.142-1.338.66-2.045.956m-30.937 2.452c1.94.348 2.613-2.365 1.227-3-.696.713-.97 1.848-1.227 3m-7.632-.136c.367-.496.674-1.053.546-2.045-.452-.333-1.493-.33-1.77-.136.353.783.282 1.99 1.225 2.182m15.538-2.045c-.21.397-.006.89-.137 1.5.567-.16 1.284-.17 1.91-.272-.18-.594.302-1.23 0-1.498-.31.13-1.093.156-1.772.27m19.35 3c.813-.554 1.147-1.505.82-2.862-1.78-.983-1.936 2.197-.82 2.863m-22.35-2.318c-1.07 2.06.754 5.03 2.59 5.045-1.358-1.185-.29-4.8-2.59-5.045m43.476 1.23c.63-.044 1.18 0 1.498.27-.01-.236.03-.424.137-.545-.726-.23-1.19-.72-1.91-.955-.133.635.176.825.274 1.23m67.594 0c.248-.39.775-.5.955-.956-.994.28-2.244.303-2.863.955 1.24.124 2.13.595 3.27.82-.272-.827.49-1.323.272-1.638-.354.374-1.165 1.01-1.634.82m-76.727 3.27c.616-.75 2.313-.414 2.59-1.5-.908-.727-1.557-1.713-2.59-2.318-.092 1.44-.016 2.678 0 3.818m-44.425-.955c.78.215 1.387.88.953 1.91.484.016.495.504 1.09.408-.324-1.535.39-2.877-.136-4.363-.504.815-1.836.8-1.907 2.045m-22.35 1.637c.21-1.893-2.094-3.244-3.408-3.135.2 1.458 1.575 2.86 3.407 3.134m4.77-1.09c.83.053 2.063-.05 2.862-.41-.69-.582-1.2-1.344-2.316-1.5.06.88-.316 1.322-.546 1.91m43.065 1.227c.122-1.626-1.348-2.34-2.454-3.136.387 1.477 1.438 2.287 2.453 3.137m96.623-2.044c-.648-1.287-2.6-.916-3.408-.818-4.902.59-11.414.406-15.535 2.318-5.447 1.188-9.268 4-11.312 8.59 2.828 1.742 9.523-.027 9.54-.273 6.55-3.563 11.413-9.188 20.715-9.817m-72.775.682c1.167.316 2.478.344 2.863-.682-.91-.572-1.188-.994-2.725-.818-.075.332-.143.773-.137 1.5m50.29 12.953c1.552.12 3.108-.616 4.087-.954 4.104-1.416 6.912-5.59 9.402-6.953 1.27-2.105 5.38-3.236 7.36-4.637-3.743.76-7.136 1.678-9.813 3.41-2.48 1.604-5.076 3.81-7.36 5.453-.808.583-1.32 1.167-2.042 1.636-1.195.78-2.682.668-3.953 1.363.985-.083 1.505.618 2.317.68m23.848-12.408c-1.75 1.248-3.61 2.39-4.904 4.09 2.044-.953 4.044-1.95 5.587-3.408.245-.285-.186-.72-.682-.682m-83.95 6.272c-.136-.453-.244-.936-.408-1.363-2.782-.124-3.56-2.253-4.77-3.952-.888 3.804 1.994 5.597 5.18 5.316M96.92 203.71c-.465-.815-1.795-2.558-2.453-.82.35.6 1.724 1.185 2.315.685-.005.144.065.345.137.136m89.81 4.5c-2.61-1.374-6.325-2.286-10.085-2.32-1.332-.687-2.742-.895-4.09-1.634-.8-.44-2.13-1.725-2.86-1.773-2.866-.188-6.53.143-9.54-.137-4.362-.404-7.823.98-10.495 3.137 1.443.205 3.095.49 4.09.408 1.776.86 4.12 1.593 5.996 2.32 6.086 2.362 13.035.09 19.76.954 2.914-.602 7.55.74 10.494.545-.22-.88-2.196-1.82-3.27-1.5m-63.78-3.41c-.352-1.347-1.814-1.444-2.453-2.18-.226 0-.077.376-.272.407-.03-.105-.004-.268-.137-.27.052 1.59 1.362 2.722 2.862 2.044m-16.762 2.32c.53-.042 1.078.353 1.498 0-.197-1.167-.738-1.99-1.226-2.864h-.683c-.11 1.2.282 1.9.41 2.863m24.53-1.91c-.462 1.464.61 2.444 1.5 3 .984-.962.132-4.177-1.5-3m-37.34 2.044c.442.238.903.46 1.36.684.307-.604.895-.924.818-1.91-.852-.907-1.975.26-2.18 1.226m118.156 3.273c1.91-1.318 4.172-3.008 5.043-4.908-1.703 1.523-3.785 3.394-5.043 4.907m-126.332-4.5a31.604 31.604 0 0 0 2.726 2.182c.572-.2 1.21-.335 1.227-1.09-1.5-.66-2.592-1.538-3.953-1.093m26.166 3.545c1.275.275 2.556 1.193 3.953.547-.726-.956-1.617-1.747-2.59-2.456-.335.36-.865 1.3-1.362 1.908m48.744 3.2c3.283.94 7.89 2.09 10.947 1.99 10.628-.356 14.696-3.382 15.67-3.907-3.42-2.19-12.638-.482-13.9-1.01-3.34.426-6.675.74-10.085.41-3.174-.31-9.718-3.215-12.358-3.307 2.283 1 7.24 5.114 9.725 5.825m-38.658-4.29c.12.38.17.83.408 1.09.873-.34 1.902-.024 2.453.136.098-.206.104-.575 0-.683-.418-.445-1.584-1.16-2.86-.545m-23.443 1.09c.674.19.728 1 1.5 1.092.1-.492.492-.69.408-1.363-.68-.243-1.496-.335-1.908.272m5.315-.408c-.52.07-1.02.16-1.226.545 1.563 1.476 4.122 3.278 6.95 2.59-1.947-1.005-4.03-1.874-5.723-3.136m38.568.955c.405.41.36 1.274.682 1.77.983-.11 2.64-.35 2.725-1.77-.752-1.108-2.567-.788-3.407 0m7.768 2.452c1.248-.205 2.287-.62 3.134-1.227-.762-.465-1.06-1.395-1.908-1.773-.91.705-1.972 1.746-1.227 3m49.197-1.636c-.51.062-.877.268-1.09.273.268.228 1.077.17 1.09-.274m-2.998 2.183c-1.87-.13-2.814-1.91-4.36-1.91 1.09.91 2.847 1.876 4.36 1.91m-65.414.544c.893.16 2.88.164 3.27-.955-.195-.49-1.13-.956-1.635-.683.178.727-1.303.967-1.635 1.637m5.042 0c1.126.168 3.195.723 3.68-.408-1.187-.75-3.307-1.518-3.68.408m50.288-.137c3.656-.242 4.69.48 7.63 0-1.87-.86-5.9-1.267-7.63 0m-32.163 0c-.572-.516-2.426-.23-3.134.273.772.1 1.766-.145 2.725-.137.88.008 2.006.582 2.318-.137-.96.425-.92-.688-1.908 0m54.92.683c.335-.35.9-.466 1.364-.683-2.038-.11-5.632.928-8.995.682-1.55-.112-2.95-.708-4.36-.546 3.352 1.402 8.722 1.305 11.99.545m-17.58.544c-3.395.146-7.08-.436-9.675.684 3.018.24 5.832-.037 7.633 0 2.182.043 6.166.105 7.494-.137 1.18.23 2.16.407 2.863 0-2.523-.868-5.46-.667-8.314-.546m-42.656.41c2.276.146 5.407.158 7.63.273.64.03 1.455.174 1.773-.273-3.273.082-6.648-.9-9.403 0m-1.362-.273c-.804.257-1.23-.233-1.908.274.883-.146 1.492.23 1.908-.273m-2.045.137c-.504.086-1.357-.178-1.635.137.396.04 1.053.274 1.635-.137" clip-path="url(#E)" fill="#456a5c" fill-rule="evenodd"/></g><g transform="translate(-39.003 -14.57)"><defs><path id="F" d="M22.468 14.563h235.275v228.19H22.468z"/></defs><clipPath id="G"><use width="289.423" height="257.314" xlink:href="#F" overflow="visible"/></clipPath><path d="M116.274 82.76c.46-.146.047-1.393.818-1.77.492-.038.312.597.545.817.698-.002.578-.117 1.227-.272.258.698-.154 1.577-.41 2.182-.963.216-1.967-.045-2.18-.956M154.297 89.716c-.127.1-.207.248-.273.41-.11-.073-.22-.144-.408-.138-.098-.417.14-.497.137-.818.13.004.105.167.137.272.244.018.285-.167.545-.136.113.158.178.365.135.682-.158-.022-.242.03-.27.137-.206-.06.05-.174-.003-.41M159.75 90.26c.294-.02.06.485.134.683-.52-.03-.553 1.51-1.77 1.228-.364-.464.073-1.035.136-1.5.302.133.995-.31 1.5-.41M171.33 95.58c1.147.844-.81 2.463-1.36 2.045-.303-.855.74-2.1 1.36-2.045M132.9 99.943c.155.026.076.137 0 .136.374.2 1.08.078 1.636.545-.19.81-.78 1.22-1.77 1.227-.268-.58-.096-1.427.135-1.91M94.606 123.123c1.71-.42 3.336-3.02 5.724-3.545.417-.092.91.045 1.362 0 2.86-.29 5.11-3.11 7.496-1.91-2.477.703-4.473 1.89-6.133 3.41-1.843-.316-3.643.518-5.18.953-.81.526-3.025 1.874-3.406 1.093.155-.164.345-.053.136 0M136.17 132.668c.193-1.56 3.037-1.455 3.953-2.727-4.89-1.296-10.154 1.737-14.72 1.364-1.053-.086-1.995-.5-2.86-.408-.712.074-1.766.98-2.045-.137 1.982-.528 3.963.06 5.724-.138 1.995-.223 3.46-1.434 5.588-1.637.16-.02.114-.248.136-.408 1.967.31 3.768-1.15 6.27-1.773 1.38-.13 2.492.805 3.816.818 2.04.02 3.71-1.676 5.314-2.318 1.43.475 4.337.31 5.45.273.18.275.437.475.546.818.297-.34 1.453.18 1.5-.41.555.39-.44.367-.408.682-.32-.418-1.498.1-2.045-.408-.366.09-.853.056-1.09.27-.986-.293-2.463-.406-3.41 0-.586.805-2.176 1.113-3.133 1.773-1.86 1.283-2.51 2.234-4.36 2.73-.885.233-1.63.19-2.454.542-.627.27-1.058.982-1.773 1.093M182.37 129.668c.12-.402.205.316.545.137-.318 1.498-1.018 2.617-2.316 3.137-.403-.316-.782-.447-.546-1.092 1.213-.196 2.072-1.47 2.316-2.182M129.903 149.984c.08-.557.598-.672.68-1.227.134.004.106.168.138.273 1.144-.758 2.422-.465 3.408-.818.755-.27 1.124-.98 2.043-1.23.074.112.144.224.138.41-.9 1.187-2.89 2.52-4.225 2.046-.572.28-1.39.933-2.18.546M50.723 204.664c-.94.93 4.147-1.328 4.09.682-1.324-.012-3.816.19-4.5-.137-.118-.44.354-.284.41-.546M199.68 220.21c.45.097 2.218-.76 2.86.136-.365.725-1.89.29-2.86.408.092-.24.15-.422 0-.545M161.11 19.493c-.105.122-.146.308-.137.545-1.04-.095-1.768-.503-2.45-.955.412-.76 2.206-.377 2.587.41M160.294 55.763c-.934 1.14-3.062 1.627-5.044 1.773-4.853.357-10.062-.41-15.808-1.228-7.285-1.035-14.33 1.358-20.033-.682-1.96-.7-4.906-3.09-4.09-5.454.778.656.654 1.498 1.09 2.182 1.3 2.038 4.348 1.44 6.405 2.727 7.158.04 13.432-.355 20.034.546 1.316.18 2.514.48 3.406.545.905.068 2.462.587 3.68.683 3.46.272 6.965-.247 10.358-1.09M115.184 80.99c-.713 1.56-1.108 3.437-2.998 3.817-.408-.533-.562-.784-.955-1.5.722-1.3 2.327-3.203 3.954-2.318m-2.453 3.135c.37-.132.618-.382.82-.683-.555-.054-.54.464-.82.683M176.647 86.852c.354.1.8.108.953.41-.043.457-.455.543-.816.682-.004-.133-.168-.106-.273-.137-.16-.385-.027-.58.137-.955M127.72 88.08c-.13.004-.104.167-.135.272-2.49.42-4.32 2.688-7.358 1.91.808-2.602 4.038-3.35 6.54-3.818.546.318 1.042.684.954 1.636M136.17 91.08c-.616 1.552-3.188.332-3.814-.546.977-1.504 2.89.395 3.814.546M147.074 93.125c-.27 1.05-1.158 1.478-1.636 2.318-.682-.427-.643-1.357-.545-2.318.666.403 1.604-.687 2.18 0M186.46 94.897c-.834.353-1.678 1.098-2.727.818-.107-.56.21-.7.137-1.227 1.106-.68 2.363-.873 2.59.41M143.394 94.897c.116.56-.61-.16-.817.273.34.24.146.174.137.682-.197-.03-.048-.407-.273-.41-.036 1.236-2.823 2.894-4.224 1.5 1.057-1.577 2.828-.756 4.225-2.317.356.053.748.07.954.272M168.47 100.215c-.717.99.857 3.79-1.227 4.226-.285-.493-.135-.58-.137-1.362-.18-.455-.896-.375-1.09-.818.526-.893 1.303-2.645 2.454-2.045M139.714 100.625c.288 2.573-2.628 2.9-4.09 1.91.382-1.96 2.523-3.416 4.09-1.91M134.536 104.44c-.105.124-.146.31-.137.548-1.937.58-3.294 1.06-3.952-.955.82-2.687 2.906-.377 4.088.408M117.637 215.846c.28-.076.324.26.137.273 4.424.595 11.814.423 16.762.815 3.273.26 6.452.85 9.676.684 1.053-.056 1.863-.628 2.59.134-1.11 1.2-4.14.52-6.54.41-3.97-.186-7.715-.123-11.585-.273-10.343-.4-20.067-1.3-28.62-.817-2.134-.65-5.383-.186-8.72-.273-.546-.014-1.66.223-1.773-.545 3.74-.27 7.94-.29 11.447 0 2.878.238 5.812-.088 8.587 0 2.728.088 5.478.377 8.04 0v-.41zM164.653 219.936c4.75.266 7.596-.127 11.45.41.353-.346 1.437-.41 1.497.273-.496.923-1.436.206-2.18.134-3.45-.336-7.363.13-10.768-.135v-.684zM95.422 221.71c.293.583 1.965.274 2.863.136 1.683.564 3.094-.16 4.36.818-3.112-.203-7.562-.43-10.766-.41 1.24-1.027 2.048-.354 3.542-.545" clip-path="url(#G)" fill="#456a5c" fill-rule="evenodd"/></g></svg>